<?xml version="1.0" standalone="no"?>
<svg version="1.1" id="Layer_1" xmlns="http://www.w3.org/2000/svg" xmlns:xlink="http://www.w3.org/1999/xlink" x="0px" y="0px" width="595.279px" height="595.281px" viewBox="0 0 595.279 595.281" enable-background="new 0 0 595.279 595.281" xml:space="preserve">
<path id="color_x5F_2" fill="#e25959" d="M119.772,223.168c-0.016-0.016-0.04-0.026-0.058-0.042
	c0.419,0.009,0.833,0.029,1.238,0.077c0.345,0.041,0.683,0.104,1.021,0.162C121.248,223.278,120.515,223.208,119.772,223.168z
	 M118.459,224.99c-5.513,0.584-10.732,1.96-15.634,4.586c-0.025,0.015-0.051,0.021-0.076,0.033c0.691,1.397,1.073,3.41,1.484,4.563
	c1.533,4.282,3.031,8.577,4.535,12.87c1.546,4.415,3.084,8.833,4.667,13.234c0.542,1.506,1.079,3.014,1.653,4.507
	c0.062,0.161,0.148,0.326,0.238,0.487l8.252-13.503c1.022-1.741,2.051-3.479,3.075-5.22c2.159-3.667,4.299-7.352,6.558-10.958
	c0.648-1.037,1.312-2.446,2.292-3.337l0.14-0.229c-4.459-4.267-9.936-6.911-16.04-7.608
	C119.343,224.707,118.944,224.939,118.459,224.99z M174.619,455.165c0.5-7.812,0.971-15.732,1.093-23.632l-3.981,45.963
	c0.108-0.25,0.205-0.506,0.267-0.757c0.446-1.818,0.787-3.661,1.051-5.515C173.809,465.898,174.275,460.532,174.619,455.165z
	 M169.858,391.113c-0.581-2.162-1.304-4.378-2.033-6.617l0.627,4.708l5.813,19.148C173.104,402.517,171.363,396.717,169.858,391.113
	z M228.274,412.81c-0.033-12.312-0.471-24.787-0.404-37.204c-0.267,1.271-0.529,2.541-0.78,3.804
	c-2.751,13.897-5.616,27.771-8.483,41.646c-2.751,13.314-5.528,26.625-8.228,39.949c-0.934,4.606-1.874,9.214-2.73,13.834
	c-0.099,0.533-1.115,4.665-0.827,4.885c0.238,0.18-0.793,0.758-1.686,0.98h23.897c-0.014-0.035-0.027-0.069-0.028-0.112
	C228.055,458.035,228.337,435.382,228.274,412.81z M226.417,356.165l-2.048,0.373C225.056,356.458,225.75,356.349,226.417,356.165z
	 M171.566,479.386c0.025-0.005,0.05-0.014,0.075-0.019c-0.028,0.004-0.048,0.004-0.074,0.007L171.566,479.386z M207.077,463.765
	c2.701-13.387,5.49-26.756,8.255-40.13c2.951-14.274,5.907-28.548,8.738-42.848c1.527-7.711,3.47-15.559,4.295-23.407
	c-2.269,0.95-4.953,1.173-7.298,1.156c-0.505-0.003-1.059,0.001-1.599-0.058c-0.135,0.941-0.262,1.884-0.405,2.824
	c-0.309,2.031-0.2,7.806-1.936,9.297c-0.085,0.073-0.234,0.158-0.405,0.241c0.266,0.11,0.242,0.312-0.417,0.624
	c-15.252,7.197-33.924,9.362-48.633,1.202c1.176,6.998,4.187,14.167,5.95,20.943c2.48,9.536,4.797,18.838,4.847,28.724
	c0.07,13.717-0.284,27.52-1.645,41.176c-0.36,3.61-0.049,14.959-4.534,17.193h31.829c-0.012-0.007-0.026-0.011-0.037-0.019
	c-0.609-0.46,0.477-4.054,0.587-4.646C205.432,471.94,206.252,467.852,207.077,463.765z M262.934,265.739
	c1.804-1.052,3.604-2.113,5.401-3.178c2.014-1.192,4.024-2.391,6.037-3.586l-12.471,6.46c0,0.127,0,0.253,0,0.38
	c0,0.298-0.231,0.552-0.56,0.748c0.015,0.008,0.029,0.016,0.044,0.024C261.965,266.264,262.691,265.88,262.934,265.739z
	 M173.04,301.208c0.244,1.222,0.462,2.312,0.652,3.259c0.041-0.188,0.085-0.375,0.125-0.563
	C173.558,303.005,173.299,302.106,173.04,301.208z M309.606,259.268c-2.919-4.714-6.68-8.842-9.332-13.712l-2.181,1.13
	c-1.51,0.883-3.018,1.77-4.523,2.661c-4.631,2.74-9.254,5.495-13.879,8.246c-4.283,2.548-8.564,5.102-12.863,7.626
	c-1.606,0.943-3.28,2.179-5.05,2.894c-0.616,0.348-1.512,0.558-1.969,0.326c-4.09-2.078-7.884-5.031-11.75-7.487
	c-7.153-4.545-14.355-9.027-21.732-13.203c-6.241-3.53-12.875-7.604-19.854-9.538c-0.262,0.288-0.658,0.513-1.148,0.553
	c-8.733,0.715-14.525,7.013-17.985,14.605c-0.532,1.167-3.458,1.181-2.771-0.33c3.561-7.811,9.513-14.02,17.774-15.888
	c-4.406-1.07-8.835-2.032-13.208-3.292c-5.61-1.617-11.218-3.242-16.989-4.153c-4.557,14.376-5.297,29.232-2.656,44.079
	c1.71,9.611,4.321,19.007,6.992,28.388c0.267,0.029,0.435,0.113,0.4,0.27c-0.046,0.214-0.097,0.426-0.143,0.64
	c1.067,3.742,2.14,7.483,3.164,11.235c0.168,0.616-2.728,1.4-2.896,0.776c-0.531-1.944-1.081-3.887-1.637-5.829
	c-2.214,9.852-4.577,19.672-6.86,29.506c-1.41,6.073-2.827,12.146-4.16,18.237c-0.319,1.458-2.243,6.398-1.477,7.822
	c-0.083,0.009-0.165,0.017-0.248,0.024c0.336,0.063,0.375,0.216-0.342,0.517c-0.011,0.005-0.021,0.01-0.031,0.015
	c-0.04,0.017-0.101,0.041-0.162,0.065c1.159,1.132,2.368,2.159,3.613,3.105c0.386,0.293,0.774,0.578,1.169,0.854
	c5.185,3.64,11.002,5.791,17.059,6.675c10.189,1.484,21.046-0.597,30.672-5.14c0.007-0.003,0.019-0.006,0.026-0.01
	c-0.032-0.044-0.074-0.077-0.094-0.133c-0.029-0.066-0.038-0.136-0.027-0.208c-0.006-0.134,0.037-0.259,0.115-0.374
	c0.02-0.219,0.235-0.723,0.288-0.985c0.154-0.781,0.301-1.563,0.436-2.349c0.414-2.412,0.794-4.831,1.138-7.254
	c0.173-1.217,0.336-2.435,0.5-3.652c0.755-5.609,1.405-11.24,1.769-16.886c1.192-18.539-0.124-38.5-4.746-56.5
	c-0.087-0.339,0.245-0.654,0.709-0.875c-0.039-0.156-0.074-0.294-0.105-0.415c-2.758-1.456-5.397-3.044-7.8-4.864
	c-1.185-0.898,1.472-2.087,2.288-1.47c8.085,6.125,18.864,9.638,28,13.852c5.692,2.625,11.259,5.651,17,8.148
	c0.169,0.073,0.336,0.137,0.503,0.205c2.342,0.577,4.537,0.985,6.496,1.166c6.043-0.31,11.068-4.522,16.2-8.853
	c7.612-6.421,14.821-13.329,22.146-20.069c2.969-2.729,5.907-5.51,8.982-8.119c0.642-0.546,1.317-1.204,2.089-1.606
	c0.021-0.042,0.042-0.084,0.075-0.129C310.151,259.602,309.763,259.521,309.606,259.268z"></path>
<path id="color_x5F_1" d="M211.995,185.303c0.509,0.028,1.185,0.376,0.818,0.978c-0.716,1.176-0.483,2.354,0.087,3.535
	c0.472,0.972-2.367,1.87-2.896,0.776c-0.721-1.489-0.792-3.021,0.087-4.465C210.457,185.527,211.333,185.266,211.995,185.303z
	 M204.333,181.029c0.632,0.423,1.489,0.195,2.076-0.183c1.176-0.762,2.482-1.231,3.804-1.672c0.544-0.183,1.382-0.64,1.188-1.358
	c-0.18-0.672-1.165-0.763-1.708-0.582c-1.827,0.609-3.57,1.278-5.195,2.328C203.986,179.893,203.756,180.642,204.333,181.029z
	 M208.321,200.848c-1.022-0.382-3.395,1.093-1.736,1.712c2.825,1.055,5.753,1.002,8.695,0.541c0.578-0.091,1.497-0.365,1.629-1.052
	c0.127-0.665-0.833-0.812-1.283-0.741C213.099,201.705,210.745,201.752,208.321,200.848z M283.953,374.388
	c-0.753-9.784,6.625-15.151,15.46-16.422c0.267-0.13,0.559-0.205,0.852-0.188c16.093,0.917,19.678,26.321,3.272,30.015
	C293.563,390.037,284.764,384.919,283.953,374.388z M306.468,384.15c9.236-6.959,4.764-22.854-6.495-24.116
	c-0.1,0.031-0.204,0.057-0.313,0.07c-9,1.137-15.108,8.102-12.241,17.34C289.761,384.995,299.647,389.288,306.468,384.15z
	 M356.204,436.458c-9.975,2.246-18.773-2.871-19.584-13.402c-0.753-9.783,6.626-15.151,15.46-16.422
	c0.267-0.129,0.559-0.205,0.852-0.188C369.024,407.361,372.608,432.766,356.204,436.458z M352.639,408.701
	c-0.1,0.031-0.204,0.057-0.313,0.07c-9,1.136-15.108,8.101-12.241,17.339c2.344,7.552,12.229,11.844,19.05,6.707
	C368.37,425.857,363.897,409.961,352.639,408.701z M327.154,203.451c-8.356-5.441-12.034-14.796-12.209-24.543
	c-0.137-7.658,1.938-15.633,7.409-21.258c6.403-6.583,15.144-9.307,24.067-10.334c0.589-0.068,0.757,0.006,0.688,0.143
	c1.077,0.056,2.157,0.142,3.218,0.333c14.169,2.569,22.923,16.075,22.9,30c-0.021,14.012-8.061,25.507-21.853,28.884
	C343.586,208.581,334.002,207.91,327.154,203.451z M332.876,204.053c8.429,3.515,19.48,3.666,26.977-2.16
	c19.505-15.159,10.33-52.28-15.424-53.333c-0.059-0.002-0.1-0.009-0.145-0.016c-9.928,1.332-19.519,5.899-23.747,15.514
	c-2.959,6.727-3.514,14.584-1.81,21.735C320.599,193.649,325.173,200.842,332.876,204.053z M325.901,179.316
	c-0.015-0.837-2.917-0.294-2.896,0.776c0.064,3.708,0.868,7.479,2,11c0.308,0.958,3.19,0.136,2.896-0.776
	C326.77,186.794,325.967,183.023,325.901,179.316z M346.975,153.73c-7.846-0.233-15.91,4.548-20.396,10.854
	c-0.872,1.227,2.086,1.168,2.746,0.24c3.566-5.016,10.323-9.333,16.604-9.146C347.226,155.717,348.939,153.788,346.975,153.73z
	 M529.496,306.461c-0.796,0.589-2.492,0.751-2.492,0.131c0-0.038,0-0.076,0-0.115c-48.352,0.021-96.7,0.46-145.048,0.858
	c-24.645,0.203-49.289,0.398-73.935,0.517c-12.194,0.058-24.39,0.102-36.584,0.115c-1.716,0.001-9.79,1.224-10.832-0.353
	c-0.742-1.123,0.758-5.438-0.313-5.741c-1.116-0.313,1.491-1.573,2.321-1.34c2.05,0.576,0.686,3.239,0.541,4.669
	c-0.198,1.97,15.393,1.218,17.11,1.214c11.573-0.024,23.147-0.068,34.72-0.132c24.012-0.129,48.021-0.318,72.032-0.519
	c46.662-0.389,93.324-0.798,139.987-0.823c0-62.784,0-125.567,0-188.351c0-0.145,0.056-0.277,0.147-0.399
	c-88.417,0-176.834,0-265.25,0c0,49.747,0,99.494,0,149.242c0,0.127,0,0.253,0,0.38c0,0.298-0.231,0.552-0.56,0.748
	c0.015,0.008,0.029,0.016,0.044,0.023c0.579-0.323,1.306-0.708,1.548-0.849c1.804-1.052,3.604-2.113,5.401-3.178
	c2.014-1.192,4.024-2.392,6.037-3.586c2.613-1.555,5.229-3.105,7.843-4.66c4.284-2.548,8.564-5.103,12.864-7.626
	c1.312-0.771,2.668-1.734,4.084-2.452c-0.183-0.103-0.23-0.272-0.05-0.527c2.407-3.391,4.423-8.081,8.208-10.197
	c2.311-1.292,4.499-1.437,6.571-0.734c0.457-0.989,0.977-2.343,1.284-3.013c1.17-2.552,2.328-5.107,3.48-7.666
	c1.587-3.521,3.166-7.043,4.739-10.569c-4.892-2.836-8.792-6.785-11.671-11.402c-9.358,1.981-15.081,13.865-18.083,21.881
	c-3.246,8.668-5.825,18.482-4.742,27.809c0.111,0.956-2.805,1.575-2.896,0.776c-1.298-11.177,2.199-23.674,7.109-33.616
	c3.764-7.619,9.335-15.854,17.929-17.989c-5.011-8.727-6.524-19.599-4.326-29.791c4.041-18.737,20.152-27.531,38.032-29.666
	c0.344-0.258,0.77-0.436,1.194-0.42c16.504,0.595,29.827,11.952,34.042,27.814c3.409,12.83,1.504,28.029-7.934,37.975
	c-8.251,8.693-20.974,12.59-33.007,11.448c0.536,9.618,0.899,19.282,2.854,28.743c1.855,8.979,5.837,23.577,17.228,24.13
	c15.468,0.749,20.719-15.174,21.867-27.646c1.09-11.848-0.384-24.458,2.684-36.053c1.899-7.179,7.041-15.765,14.894-17.447
	c9.633-2.064,16.811,8.05,18.354,16.529c2.112,11.605-0.896,23.366,0.223,35.049c0.769,8.026,1.619,19.564,8.368,25.128
	c4.961,4.089,12.576,3.869,16.72-1.392c2.701-3.43,4.161-7.626,5.022-11.868c1.677-8.267,1.855-16.755,2.916-25.107
	c1.834-14.463-0.131-29.215,1.658-43.738c1.54-12.495,5.417-28.549,19.443-32.213c12.846-3.354,22.565,3.419,27.789,14.984
	c7.021,15.543,8.45,33.594,9.164,50.425c0.65,15.319,0.243,30.629-0.328,45.943c-0.034,0.95-2.92,1.373-2.896,0.775
	c0.842-22.598,1.547-45.443-1.531-67.915c-1.488-10.857-3.547-22.56-9.202-32.135c-5.037-8.529-14.877-15.226-24.979-10.137
	c-14.246,7.178-15.064,28.967-15.507,42.688c-0.246,7.608-0.069,15.22-0.241,22.827c-0.149,6.597-1.156,13.112-1.685,19.686
	c-1.039,12.942-4.553,35.068-22.978,31.149c-8.286-1.762-11.64-10.195-13.141-17.71c-2.068-10.355-1.698-20.291-1.135-30.771
	c0.333-6.188,0.699-13.1-1.745-18.953c-2.021-4.842-8.17-14.854-14.993-11.875c-10.104,4.41-12.325,17.458-12.882,27.159
	c-0.87,15.208,2.034,36.552-10.398,48.009c-4.468,4.118-12.017,6.816-18.104,5.842c-6.237-0.998-10.553-5.407-13.186-10.972
	c-6.339-13.399-6.397-28.963-7.218-43.525c-1.124-0.187-2.24-0.408-3.341-0.687c-1.498,3.421-3.001,6.841-4.519,10.254
	c-1.061,2.387-2.114,4.778-3.217,7.146c-0.409,0.878-0.704,1.88-1.609,2.353c-0.116,0.062-0.289,0.111-0.478,0.147
	c1.648,0.016,3.313,0.036,4.94,0.29c0.899,0.141,2.888,0.4,3.123,1.563c0.288,1.424-1.308,2.728-2.223,3.551l0,0
	c0.099,0.13,0.16,0.291,0.156,0.495c-0.042,2-0.961,3.714-2.507,4.754c0.026,0.134,0.007,0.292-0.087,0.482
	c-2.871,5.863-8.643,9.311-13.179,13.736c-0.156,0.151-0.387,0.265-0.647,0.341c-0.402,0.383-1.066,0.717-1.59,0.697
	c1.44,0.053,1.245-0.382,0.265,0.451c-0.61,0.519-1.215,1.042-1.813,1.574c-1.5,1.334-2.986,2.683-4.468,4.039
	c-3.899,3.57-7.774,7.165-11.667,10.741c-3.238,2.976-6.551,6.261-10.004,9.417c77.263,0,154.525,0,231.788,0
	c1.412,0-1.292,1.16-1.885,1.16c-77.063,0-154.126,0-231.189,0c-4.249,3.796-8.717,7.319-13.53,9.771
	c-11.305,5.755-22.096-2.645-32.283-7.343c-2.903-1.339-5.971-2.609-9.069-3.907c1.392,11.46,3.416,22.836,4.688,34.314
	c1.243,11.214,2.553,23.112,0.178,34.265c-0.058,0.267-0.258,0.491-0.524,0.667c-1.309,19.2-0.271,38.809-0.21,58.035
	c0.069,21.828-0.195,43.732,0.722,65.547c0.045,1.063-2.597,1.642-2.868,0.888c-0.014-0.035-0.027-0.069-0.028-0.112
	c-0.949-22.557-0.667-45.21-0.729-67.781c-0.033-12.312-0.471-24.787-0.404-37.204c-0.267,1.271-0.529,2.541-0.78,3.804
	c-2.751,13.897-5.616,27.771-8.483,41.646c-2.751,13.314-5.528,26.625-8.228,39.949c-0.934,4.606-1.874,9.213-2.73,13.834
	c-0.099,0.533-1.115,4.665-0.827,4.885c0.238,0.18-0.793,0.758-1.686,0.98c-0.418,0.104-0.802,0.129-1.014,0
	c-0.012-0.007-0.026-0.011-0.037-0.019c-0.609-0.46,0.477-4.055,0.587-4.646c0.76-4.1,1.58-8.188,2.405-12.275
	c2.701-13.387,5.49-26.756,8.255-40.13c2.951-14.273,5.907-28.548,8.738-42.847c1.527-7.711,3.47-15.559,4.295-23.408
	c-2.269,0.951-4.953,1.173-7.298,1.157c-0.505-0.003-1.059,0.001-1.599-0.058c-0.135,0.94-0.262,1.884-0.405,2.823
	c-0.309,2.032-0.2,7.807-1.936,9.297c-0.085,0.073-0.234,0.158-0.405,0.241c0.266,0.111,0.242,0.313-0.417,0.624
	c-15.252,7.198-33.924,9.363-48.633,1.203c1.176,6.998,4.187,14.167,5.95,20.943c2.48,9.536,4.797,18.838,4.847,28.724
	c0.07,13.716-0.284,27.52-1.645,41.175c-0.36,3.611-0.049,14.959-4.534,17.194c-0.318,0.159-0.66,0.274-1.028,0.335
	c-1.96,0.323-1.059-1.373,0.303-1.653c0.025-0.005,0.05-0.013,0.075-0.018c-0.028,0.004-0.048,0.004-0.074,0.007
	c-0.938,0.111-0.292-0.826,0.163-1.88c0.108-0.25,0.205-0.506,0.267-0.757c0.446-1.819,0.787-3.661,1.051-5.516
	c0.761-5.324,1.228-10.69,1.571-16.059c0.5-7.812,0.971-15.733,1.093-23.632c0.072-4.672,0.021-9.336-0.218-13.964
	c-0.159-3.067-0.618-6.146-1.229-9.216c-1.161-5.835-2.902-11.636-4.407-17.239c-0.581-2.162-1.304-4.378-2.033-6.617
	c-1.396-4.279-2.816-8.645-3.321-12.904c-0.03-0.254,0.098-0.482,0.308-0.676c-2.001-1.35-3.917-2.905-5.719-4.698
	c-0.255-0.253,0.182-0.613,0.781-0.875c-0.507-1.753,1.306-6.396,1.618-7.812c1.342-6.089,2.749-12.163,4.159-18.236
	c2.697-11.604,5.506-23.188,8.041-34.83c0.041-0.188,0.085-0.375,0.125-0.563c-0.26-0.898-0.52-1.797-0.778-2.695
	c-2.851-9.874-5.58-19.802-6.976-29.962c-1.95-14.218-1.006-28.115,3.46-41.78c0.089-0.271,0.546-0.487,1.069-0.624
	c-0.151-0.194-0.189-0.461-0.03-0.813c1.604-3.532,3.854-8.219,8.084-9.172c0.511-0.115,1.02-0.188,1.526-0.234
	c0.439-1.883,0.792-3.792,0.825-5.729c-3.035,0.294-6.156-0.075-8.32-2.136c-0.058-0.056-0.101-0.12-0.156-0.178
	c-4.7-3.291-9.154-8.118-12.335-13.534c-0.143-0.229-0.28-0.466-0.413-0.714c-2.239-3.993-3.78-8.271-4.188-12.468
	c-0.58-5.948,1.351-11.456,7.11-11.042c-1.64-4.271-2.175-8.729,1.395-12.203c2.992-2.913,7.955-3.787,11.938-4.122
	c2.948-0.248,6.046,0.032,8.959-0.435c4.399-0.704,8.167-2.669,11.94-4.94c5.176-3.114,10.354-6.027,16.503-6.474
	c9.88-0.715,17.61,9.068,12.118,18.177c-1.607,2.664-3.706,4.749-6.13,6.385c0.004,7.148-0.092,18.426,9.656,18.417
	c0.688,0,1.29,0.209,1.344,0.969c0.25,3.532-1.988,5.34-4.823,6.975c-0.194,0.112-0.39,0.178-0.581,0.209
	c0.799,6.129,3.242,15.124-2.929,19.064c-2.21,1.412-4.552,2.352-7.177,2.663c-1.511,0.18-3.075,0.205-4.567,0.492
	c-3.609,0.694-4.348,4.005-4.953,6.985c-0.046,0.229-0.294,0.43-0.623,0.586c2.893,2.81,3.239,6.567,3.153,10.525
	c-0.002,0.118-0.035,0.226-0.079,0.328c0.224,0.068,0.45,0.13,0.672,0.201c7.063,2.268,13.685,5.991,20.099,9.653
	c7.639,4.359,15.123,8.981,22.536,13.714c2.605,1.663,5.184,3.559,7.854,5.215c0-49.539,0-99.078,0-148.617
	c0-0.2,0.102-0.38,0.267-0.536c-0.761-0.443,0.604-1.842,1.7-1.842c89.667,0,179.333,0,269,0c1.479,0,0.875,1.127-0.07,1.68
	c0,63.015,0,126.028,0,189.042c0.209,0,0.418-0.001,0.628-0.001C532.41,304.935,530.543,306.355,529.496,306.461z M164.453,175.204
	c0,0-0.044-0.053-0.116-0.153c-0.052,0.012-0.103,0.021-0.153,0.027C164.351,175.154,164.453,175.204,164.453,175.204z
	 M185.772,210.534c1.728-0.484,2.078,0.858,0.359,1.341c-0.7,0.197-1.457,0.389-2.242,0.558c0.004,0.034,0.014,0.063,0.014,0.102
	c-0.032,2.07-0.429,4.107-0.91,6.116c2.286,0.228,4.551,0.885,6.798,1.45c3.912,0.982,9.318,1.724,13.046,3.988
	c1.376-4.951,4.357-7.092,9.733-7.639c5.989-0.61,10.734-3.013,10.622-9.72c-0.063-3.754-0.809-7.413-1.188-11.137
	c-0.054-0.526,0.829-0.945,1.634-1.08c0.101-0.234,0.308-0.47,0.669-0.678c2.182-1.009,3.262-2.381,3.263-4.107
	c-9.802-0.742-10.967-10.343-11.075-18.823c-7.445,3.672-16.982,4.168-25.04,4.246c0.503,7.492,3.8,14.532,0.438,21.836
	c-0.175,0.38-0.854,0.646-1.512,0.759c0.388,0.618-2.062,1.604-2.776,1.013c-1.374-1.137-3.136-2.328-4.99-2.888
	c-1.007-0.155-2.062-0.249-3.116-0.226c-0.437,0.083-0.867,0.218-1.291,0.421c-2.382,1.139-4.039,3.741-4.612,6.256
	c-0.525,2.304-0.333,5.018,1.319,6.84c0.392,0.276,0.785,0.543,1.18,0.794c0.209,0.134,0.303,0.279,0.322,0.428
	C179.185,211.984,182.785,211.373,185.772,210.534z M173.521,227.982c6.495,0.988,12.771,2.91,19.081,4.704
	c4.063,1.156,8.29,1.896,12.394,2.941c0.031-3.401-0.322-7.341-3.561-9.248c-2.915-1.716-6.325-2.369-9.536-3.313
	c-3.294-0.967-6.961-2.209-10.409-2.371C177.045,220.49,175.128,224.45,173.521,227.982z M226.417,356.165l-2.048,0.373
	C225.056,356.458,225.75,356.349,226.417,356.165z M229.175,354.89c0.143-0.738,0.271-1.479,0.385-2.224l-0.448,2.239
	C229.134,354.901,229.153,354.895,229.175,354.89z M224.004,286.592c-0.034-0.29,0.093-0.548,0.305-0.763
	c-2.432-1.037-4.859-2.107-7.224-3.262c4.587,18.27,5.93,38.567,4.465,57.331c-0.11,1.41-0.24,2.818-0.372,4.226
	c0.259,0.023,0.518,0.046,0.778,0.052c0.771,0.02,1.543,0.002,2.313-0.075c1.648-0.165,3.407-0.398,4.757-1.431
	c0.342-0.262,0.845-0.356,1.3-0.326c0.038-7.289-0.811-14.654-1.657-21.739C227.309,309.241,225.339,297.958,224.004,286.592z
	 M337.039,213.717c0.822-0.271,1.838-0.297,1.861,0.099c0.004,0.074,0.009,0.146,0.014,0.22c8.935,1.302,18.345-0.478,25.789-5.81
	c12.36-8.857,16.407-25.386,12.604-39.702c-3.991-15.022-15.503-26.091-31.182-27.16c-0.221,0.144-0.485,0.248-0.788,0.28
	c-5.883,0.634-11.896,1.762-17.276,4.335c-18.113,8.663-23.882,30.929-15.994,48.876c0.561,1.273,1.208,2.486,1.925,3.646
	c0.921-0.008,0.93,0.425,0.529,0.813C319.604,206.97,327.977,211.944,337.039,213.717z M316.188,233.918
	c0.36,0.237,0.717,0.495,1.07,0.779c0.02,0.007,0.043,0.012,0.062,0.021c1.271,0.662,3.192,0.436,4.596,0.444
	c-0.379-0.096-0.662-0.32-0.599-0.77c0.002-0.02,0.006-0.038,0.009-0.057c0.032-0.236,0.179-0.442,0.384-0.611
	c-0.487,0.24-0.005-0.102,0.367-0.898c0.365-0.785,0.727-1.573,1.083-2.363c0.989-2.19,1.968-4.387,2.94-6.585
	c1.378-3.112,2.75-6.229,4.115-9.347c-1.116-0.362-2.219-0.759-3.292-1.221c-0.414-0.178-0.818-0.37-1.22-0.563
	c-1.552,3.473-3.104,6.943-4.669,10.408c-1.22,2.698-2.436,5.398-3.683,8.083C317.01,231.979,316.683,233.091,316.188,233.918z
	 M302.206,243.092c0.081,0.061,0.15,0.132,0.194,0.224c2.567,5.36,6.689,9.688,9.816,14.699c3.995-3.563,8.611-6.688,11.14-11.49
	c-0.167-0.095-0.299-0.231-0.353-0.433c-0.185-0.685,0.685-1.152,1.204-1.302c1.394-0.398,1.756-2.209,1.782-3.455
	c0.002-0.118,0.041-0.229,0.094-0.333c-0.033-0.042-0.021-0.098,0.061-0.172c0.706-0.636,3.046-2.673,1.456-3.634
	c-1.258-0.76-2.966-0.777-4.391-0.832c-1.91-0.073-4.452,0.268-6.601-0.062c-0.588,0.172-1.214,0.208-1.508-0.053
	c-0.36-0.317-0.778-0.683-1.233-1.032c-0.464,0.003-0.841-0.157-0.883-0.616c-1.235-0.771-2.634-1.213-3.899-0.356
	c-1.127,0.764-2.051,1.792-2.857,2.88C304.801,239.056,303.564,241.115,302.206,243.092z M259.809,268.439
	c-4.09-2.078-7.884-5.031-11.75-7.487c-7.153-4.545-14.355-9.027-21.732-13.203c-6.241-3.53-12.875-7.604-19.854-9.538
	c-0.262,0.288-0.658,0.513-1.148,0.553c-8.733,0.715-14.525,7.013-17.985,14.605c-0.532,1.167-3.458,1.181-2.771-0.33
	c3.561-7.811,9.513-14.02,17.774-15.888c-4.406-1.07-8.835-2.032-13.208-3.292c-5.61-1.617-11.218-3.242-16.989-4.153
	c-4.557,14.376-5.297,29.232-2.656,44.079c1.71,9.611,4.321,19.007,6.992,28.388c0.267,0.029,0.435,0.113,0.4,0.27
	c-0.046,0.214-0.097,0.426-0.143,0.64c1.067,3.742,2.14,7.483,3.164,11.235c0.168,0.616-2.728,1.4-2.896,0.776
	c-0.531-1.944-1.081-3.887-1.637-5.829c-2.214,9.852-4.577,19.672-6.86,29.506c-1.41,6.073-2.827,12.146-4.16,18.237
	c-0.319,1.458-2.243,6.398-1.477,7.822c-0.083,0.009-0.165,0.017-0.248,0.024c0.336,0.063,0.375,0.216-0.342,0.517
	c-0.011,0.005-0.021,0.01-0.031,0.015c-0.04,0.017-0.101,0.041-0.162,0.065c1.159,1.132,2.368,2.159,3.613,3.105
	c0.386,0.293,0.774,0.578,1.169,0.854c5.185,3.64,11.002,5.791,17.059,6.675c10.189,1.484,21.046-0.597,30.672-5.14
	c0.007-0.003,0.019-0.006,0.026-0.01c-0.032-0.044-0.074-0.077-0.094-0.133c-0.029-0.066-0.038-0.136-0.027-0.208
	c-0.006-0.134,0.037-0.259,0.115-0.374c0.02-0.219,0.235-0.723,0.288-0.985c0.154-0.781,0.301-1.563,0.436-2.349
	c0.414-2.412,0.794-4.831,1.138-7.254c0.173-1.217,0.336-2.435,0.5-3.652c0.755-5.609,1.405-11.24,1.769-16.886
	c1.192-18.539-0.124-38.5-4.746-56.5c-0.087-0.339,0.245-0.654,0.709-0.875c0.12-0.058,0.247-0.11,0.38-0.153
	c-0.164-0.085-0.322-0.176-0.485-0.262c-2.758-1.456-5.397-3.044-7.8-4.864c-1.185-0.897,1.472-2.087,2.288-1.47
	c8.085,6.125,18.864,9.638,28,13.852c5.692,2.625,11.259,5.651,17,8.148c0.169,0.074,0.336,0.137,0.503,0.205
	c2.311,0.929,4.461,1.27,6.496,1.166c6.043-0.31,11.068-4.522,16.2-8.853c7.612-6.421,14.821-13.329,22.146-20.068
	c2.969-2.73,5.907-5.511,8.982-8.12c0.642-0.545,1.317-1.204,2.089-1.606c0.021-0.042,0.042-0.084,0.075-0.129
	c-0.438,0.038-0.827-0.042-0.983-0.296c-2.919-4.714-6.68-8.842-9.332-13.712c-0.014-0.025-0.029-0.05-0.043-0.075
	c-0.513,0.281-1.057,0.571-1.26,0.689c-0.293,0.171-0.584,0.345-0.877,0.517c-1.51,0.883-3.018,1.77-4.523,2.661
	c-4.631,2.741-9.254,5.495-13.879,8.246c-4.283,2.548-8.564,5.102-12.863,7.626c-1.606,0.943-3.28,2.179-5.05,2.894
	C261.161,268.459,260.266,268.669,259.809,268.439z M526.054,435.263c-32.773,0-65.547,0-98.32,0c0-32.649,0-65.298,0-97.947
	c0-0.511-2.896-0.082-2.896,0.776c0,32.39,0,64.779,0,97.17c-0.816,0-1.632,0-2.449,0c-0.626,0-3.309,1.216-1.87,1.216
	c1.439,0,2.879,0,4.319,0c0,1.76,0,3.521,0,5.281c0,0.511,2.896,0.082,2.896-0.776c0-1.501,0-3.003,0-4.504
	c32.15,0,64.301,0,96.45,0C524.81,436.479,527.493,435.263,526.054,435.263z M150.479,434.181c-0.543,0-1.087,0-1.63,0
	c0,1.156,0,2.313,0,3.469c0,0.858-2.896,1.287-2.896,0.776c0-1.415,0-2.83,0-4.246c-2.876,0-5.753,0-8.629,0
	c-0.641,0.603-2.704,0.844-2.704,0.412c0-0.138,0-0.275,0-0.412c-3.321,0-6.642,0-9.963,0c-0.641,0.603-2.704,0.844-2.704,0.412
	c0-0.138,0-0.275,0-0.412c-3.1,0-6.197,0-9.297,0c-0.641,0.603-2.704,0.844-2.704,0.412c0-0.138,0-0.275,0-0.412
	c-3.32,0-6.642,0-9.963,0c-0.641,0.603-2.704,0.844-2.704,0.412c0-0.138,0-0.275,0-0.412c-3.1,0-6.197,0-9.297,0
	c-0.641,0.603-2.705,0.844-2.705,0.412c0-0.138,0-0.275,0-0.412c-3.32,0-6.641,0-9.962,0c-0.641,0.603-2.705,0.844-2.705,0.412
	c0-0.138,0-0.275,0-0.412c-2.75,0-5.5,0-8.25,0c-1.438,0,1.244-1.216,1.87-1.216c2.126,0,4.253,0,6.38,0c0-10.347,0-20.692,0-31.038
	c0-0.858,2.897-1.287,2.897-0.776c0,0.052,0,0.105,0,0.158c3.049,0,6.099,0,9.148,0c0.274,0,0.584,0.11,0.764,0.301
	c0.58-0.637,2.755-0.901,2.755-0.458c0,10.605,0,21.209,0,31.814c3.034,0,6.069,0,9.103,0c0-15.013,0-30.026,0-45.038
	c0-0.625,1.53-1.02,2.366-0.993c0.023-0.002,0.05-0.007,0.07-0.007c4.222,0,8.444,0,12.667,0c0.288,0,0.406,0.05,0.414,0.128
	c0.028,0.026,0.047,0.058,0.047,0.095c0,15.271,0,30.543,0,45.814c3.034,0,6.069,0,9.104,0c0-19.235,0-38.471,0-57.705
	c0-0.858,2.896-1.287,2.896-0.776c0,0.051,0,0.104,0,0.155c3.452,0,6.905,0,10.357,0c0.846-0.404,2.31-0.519,2.31-0.155
	c0,19.494,0,38.988,0,58.481c2.813,0,5.624,0,8.437,0c0-26.231,0-52.463,0-78.693c0-0.858,2.896-1.287,2.896-0.776
	c0,26.49,0,52.98,0,79.471c1.167,0,2.333,0,3.5,0C153.788,432.965,151.104,434.181,150.479,434.181z M85.284,402.491
	c-0.429,0.442-1.129,0.61-1.708,0.61c-2.688,0-5.374,0-8.062,0c0,9.955,0,19.909,0,29.864c3.256,0,6.513,0,9.77,0
	C85.284,422.807,85.284,412.649,85.284,402.491z M109.951,388.149c-3.257,0-6.514,0-9.77,0c0,14.938,0,29.877,0,44.816
	c3.256,0,6.513,0,9.77,0C109.951,418.027,109.951,403.088,109.951,388.149z M134.618,376.383c-0.129,0.032-0.256,0.055-0.375,0.055
	c-3.132,0-6.264,0-9.396,0c0,18.842,0,37.685,0,56.527c3.256,0,6.513,0,9.77,0C134.618,414.105,134.618,395.244,134.618,376.383z
	 M465.987,389.558c-0.344,0.938-0.701,1.871-1.057,2.804c-0.99,2.596-2.003,5.183-3.02,7.77c-1.002,2.548-1.833,5.751-3.086,8.464
	c-0.822-1.259-1.642-2.519-2.471-3.771c-0.948-1.433-1.902-2.863-2.878-4.277c-0.393-0.569-0.952-1.777-1.646-2.064
	c-0.711-0.293-2.116-0.113-2.502,0.67c-0.005,0.009-0.006,0.015-0.01,0.022c-2.927,1.463-5.237,7.416-6.889,9.991
	c-3.439,5.366-6.698,11.021-10.653,16.031c-0.77,0.977,2.135,0.709,2.686,0.012c3.305-4.187,6.053-8.878,8.936-13.355
	c1.758-2.73,3.505-5.468,5.26-8.2c0.558-0.867,1.117-1.731,1.683-2.595c0.184,0.262,0.355,0.508,0.454,0.649
	c0.979,1.411,1.929,2.845,2.878,4.276c1.193,1.801,2.375,3.61,3.552,5.423c-0.015,0.149,0.032,0.304,0.178,0.452
	c0.005,0.005,0.011,0.01,0.016,0.016c0.066,0.067,0.145,0.114,0.221,0.163c0.041,0.063,0.082,0.124,0.122,0.188
	c0.56,0.864,3.369-0.104,2.684-1.161c-0.021-0.032-0.042-0.063-0.062-0.095c2.291-3.452,3.444-8.487,4.924-12.262
	c0.322-0.821,1.985-4.047,3.09-6.856c0.871,1.843,1.736,3.688,2.614,5.527c1.035,2.167,2.076,4.33,3.145,6.479
	c0.405,0.815,0.804,2.103,1.502,2.731c0.047,0.042,0.112,0.063,0.174,0.091c-0.042,0.074-0.08,0.155-0.125,0.226
	c-0.625,0.979,2.233,0.568,2.656-0.093c2.445-3.823,3.233-9.628,4.533-13.918c1.223-4.033,2.14-8.437,3.565-12.5
	c1.314,2.976,2.63,5.952,3.938,8.931c1.74,3.957,4.219,8.144,5.312,12.34c0.026,0.104,0.089,0.186,0.17,0.251
	c-0.058,0.117-0.111,0.234-0.167,0.353c-0.39,0.806,2.46,0.508,2.892-0.386c6.575-13.612,12.451-27.537,18.297-41.475
	c0.362-0.862-2.508-0.527-2.892,0.387c-5.253,12.521-10.535,25.032-16.321,37.317c-1.155-2.968-2.784-5.899-4.017-8.711
	c-1.763-4.017-3.534-8.03-5.312-12.041c-0.176-0.396-0.75-0.479-1.344-0.384c-0.698-0.1-1.974,0.241-2.273,0.909
	c-1.904,4.228-2.827,9.166-4.162,13.594c-0.976,3.233-1.956,6.464-2.961,9.688c-0.191,0.614-0.361,1.312-0.544,2.023
	c-0.091-0.216-0.179-0.421-0.265-0.595c-1.095-2.204-2.155-4.428-3.216-6.648c-1.433-3-2.853-6.006-4.263-9.017
	c-0.354-0.754-3.153,0.229-2.897,0.775c0.032,0.069,0.065,0.139,0.099,0.207c-0.185,0.249-0.219,0.533,0.017,0.814
	C466.149,388.25,466.239,388.869,465.987,389.558z M358.484,358.276c0.833-0.957,1.669-1.911,2.513-2.859
	c1.479-1.663,0.79-0.215-1.104-0.463c0.857,0.112,3.406-1.294,1.793-1.505c-3.506-0.459-8.223,7.505-10.031,9.598
	c-7.925,9.17-15.804,18.381-23.681,27.593c-13.321,15.58-26.939,30.972-39.86,46.889c-0.777,0.958,2.126,0.7,2.686,0.012
	c11.847-14.593,24.328-28.709,36.536-42.999c7.729-9.047,15.468-18.088,23.23-27.106
	C353.197,364.375,355.834,361.32,358.484,358.276z M77.356,283.898c-0.897-14.854,6.911-28.438,20.068-35.309
	c1.36-0.71,2.942,0.514,1.265,1.432c0.508-0.017,0.979,0.126,1.172,0.515c5.331,10.646,6.744,22.68,11.704,33.463
	c0.693-0.968,1.525-1.941,1.711-2.208c2.517-3.6,5.075-7.169,7.625-10.743c2.708-3.799,5.427-7.59,8.076-11.428
	c1.093-1.583,3.236-3.771,3.645-5.706c0.004-0.02,0.017-0.037,0.022-0.056c0.045-0.793,2.143-1.508,2.842-0.798
	c11.34,11.49,15.482,31.273,6.167,45.301c-7.631,11.489-21.726,18.616-35.599,16.111C91.193,311.788,78.298,299.454,77.356,283.898z
	 M80.599,285.892c2.467,12.968,12.537,24.165,25.819,26.563c14.313,2.584,29.716-5.377,35.038-19.195
	c4.901-12.727,1.716-27.256-7.144-37.361c-0.743,1.089-1.647,2.141-2.241,2.999c-2.419,3.504-4.887,6.974-7.357,10.439
	c-2.509,3.521-5.031,7.034-7.521,10.569c-0.423,0.603-3.942,4.902-3.693,5.398c0.234,0.468-1.182,1.112-2.133,1.103
	c-0.758,0.3-1.781,0.302-2.092-0.327c-5.473-11.109-6.767-23.69-12.313-34.768c-0.048-0.098-0.059-0.191-0.049-0.284
	C85.285,258.041,78.01,272.278,80.599,285.892z M99.598,230.111c-0.191-0.159-0.322-0.382-0.344-0.684
	c-0.01-0.139,0.022-0.263,0.088-0.391c0.341-0.666,1.148-0.985,1.866-0.873c0.099-0.081,0.21-0.16,0.351-0.234
	c5.358-2.87,11.153-4.36,17.175-4.998c0.476-0.052,0.788,0.038,0.981,0.194c0.018,0.016,0.042,0.026,0.058,0.042
	c0.743,0.039,1.477,0.109,2.203,0.197c6.521,0.79,12.37,3.563,17.079,8.35c0.153,0.156-0.216,0.436-0.729,0.671
	c0.004,0.067,0.006,0.137,0.005,0.21c-0.005,0.397-0.272,0.712-0.642,0.919c-0.118,0.126-0.354,0.347-0.554,0.646
	c-0.391,0.588-0.771,1.183-1.144,1.783c-1,1.612-1.98,3.235-2.952,4.866c-2.493,4.183-4.951,8.386-7.42,12.583
	c-2.229,3.79-4.43,7.604-6.772,11.324c-0.772,1.228-1.644,3.326-3.323,3.45c-0.222,0.017-0.466-0.018-0.688-0.096
	c-0.395,0.12-0.823,0.131-1.187,0.003c-1.367-0.482-2-3.956-2.408-5.084c-1.51-4.156-2.971-8.329-4.433-12.502
	c-1.659-4.734-3.305-9.474-4.99-14.199C101.264,234.738,100.662,231.477,99.598,230.111z M119.605,224.416
	c-0.264,0.291-0.661,0.523-1.146,0.574c-5.513,0.584-10.732,1.96-15.634,4.586c-0.025,0.015-0.051,0.021-0.076,0.033
	c0.691,1.397,1.073,3.41,1.484,4.563c1.533,4.282,3.031,8.577,4.535,12.87c1.546,4.415,3.084,8.833,4.667,13.234
	c0.542,1.506,1.079,3.014,1.653,4.507c0.062,0.161,0.148,0.326,0.238,0.487c0.023,0.044,0.047,0.088,0.07,0.131
	c0.327-0.499,0.648-1.001,0.962-1.508c0.982-1.59,1.945-3.191,2.9-4.797c1.449-2.438,2.882-4.885,4.318-7.329
	c1.022-1.741,2.051-3.479,3.075-5.22c2.159-3.667,4.299-7.352,6.558-10.958c0.648-1.037,1.312-2.446,2.292-3.337
	c0.065-0.059,0.128-0.123,0.197-0.178c-0.02-0.018-0.039-0.033-0.058-0.051C131.186,227.758,125.71,225.113,119.605,224.416z" fill="#000000"></path>
</svg>