<?xml version="1.0" standalone="no"?>
<svg version="1.1" id="Layer_1" xmlns="http://www.w3.org/2000/svg" xmlns:xlink="http://www.w3.org/1999/xlink" x="0px" y="0px" width="595.28px" height="595.28px" viewBox="0 0 595.28 595.28" enable-background="new 0 0 595.28 595.28" xml:space="preserve">
<path id="color_x5F_2" fill="#e25959" d="M118.982,441.342h65c0,0,0,0-5,19s-12,34-12,34l-33,1l-13-31L118.982,441.342z
	 M317.982,118.342l-22.75-0.75l-0.5,86.5c0,0,4-2.5,8-6.75s16.75-11.25,16.75-11.25l-0.75-2L317.982,118.342z M257.732,128.092
	l-1.5,1l-1.75,5.5l1.75,15.5l-1.25,46c0,0,7,15.75,10.5,23s9.25,7.5,9.25,7.5l3.75-5.5l-0.5-90.5L257.732,128.092z M220.732,169.842
	c2.25-1,4.5,3.5,4.5,3.5l1.75-1.75c0,0,0.75-6,2.5-6.5s5.25,1.75,5.25,1.75s0,0,0.5-2.25s3.25-1.25,3.25-1.25l-0.25-16.5
	c0,0-6-1.5-12-2.5s-10,1.5-10,1.5l-1,0.25v27l1.75,0.75C216.982,173.842,218.482,170.842,220.732,169.842z M228.982,203.342
	c0,0-1-0.5-4-2.5s-7.5-8.25-7.75-9l-0.25,48.5h21.25l1.25-12.25l-14.75-23.25L228.982,203.342z M182.232,199.592l1.5,40.5l11.75,0.5
	l11.25-0.25l-0.25-38.5L182.232,199.592z M171.232,242.092v-23l-22-1l0.75,22.25L171.232,242.092z M372.815,216.509l-22.5-7.667
	c0,0-5.833-1-8.333-0.333s-4.833,9-4.833,9s-10,36.167-10.667,39s5,6.333,5,6.333s16.5,5.833,17,6.167s-3.833-4.5-3.833-4.5
	l-4.833-6.333c0,0-0.333-4.667,1.167-5.167s6.667,1.333,6.667,1.333l-1.333-3.167c0,0,0.167-4.667,0.5-5.833
	s4.167,2.333,4.167,2.333s0-4.167,2-5.5s3.167,1.5,3.167,1.5l1.5-1.667c0,0,0,0,2-0.667s7.333,8.667,7.333,8.667l2.667-5.5
	c0,0,6.167-17.167,7.333-20.333S372.815,216.509,372.815,216.509z"></path>
<path id="color_x5F_1" d="M360.071,157.669c0.111-1.257,0.777-2.363,1.938-2.916c1.12-0.534,2.831-0.906,3.792,0.134
	c0.595,0.643-1.78,1.593-2.573,1.172c-0.154,0.372-0.245,0.817-0.277,1.183C362.878,158.077,359.983,158.673,360.071,157.669z
	 M334.486,152.4c-0.305,0.147-1.076,0.615-0.849,1.086c0.377,0.785,0.696,1.585,1.286,2.24c0.755,0.84,3.522-0.249,2.676-1.19
	c-0.347-0.386-0.578-0.816-0.796-1.266c1.756-0.816,3.448-1.635,4.638-3.284c0.423-0.586-0.357-0.968-0.824-0.998
	c-0.713-0.044-1.479,0.243-1.902,0.83C337.717,151.2,335.955,151.691,334.486,152.4z M338.733,158.99
	c-1.077-0.016-2.142-0.326-3.108-0.782c-1.227-0.58-3.342,1.189-1.665,1.981c1.421,0.671,2.965,0.937,4.526,0.961
	c0.641,0.01,1.515-0.495,1.593-1.185C340.166,159.195,339.311,158.999,338.733,158.99z M347.297,151.38
	c0.367-0.728,0.668-1.415,0.688-2.243c0.016-0.64-0.765-0.668-1.247-0.606c-0.425,0.054-1.634,0.37-1.648,0.976
	c-0.016,0.658-0.193,1.241-0.487,1.824C343.98,152.563,346.877,152.212,347.297,151.38z M334.205,148.34
	c0.023-0.449,0.297-0.784,0.505-1.176c0.343-0.647-0.301-1.148-0.884-1.218c-0.712-0.086-1.541,0.233-1.887,0.887
	c-0.298,0.563-0.636,1.069-0.67,1.728C331.192,150.073,334.138,149.65,334.205,148.34z M345.456,145.465
	c1.572,0.262,3.135,0.563,4.698,0.872c1.462,0.289,2.917-1.78,0.988-2.162c-1.563-0.309-3.126-0.609-4.698-0.872
	C344.981,143.059,343.514,145.141,345.456,145.465z M334.357,143.654c0.881,0,1.762,0,2.643,0c0.614,0,1.512-0.464,1.605-1.137
	c0.104-0.748-0.791-0.89-1.323-0.89c-0.881,0-1.762,0-2.643,0c-0.614,0-1.512,0.464-1.605,1.137
	C332.931,143.513,333.825,143.654,334.357,143.654z M485.939,488.101c-4.262,3.352-12.147,1.968-17.123,1.932
	c-0.569-0.004-1.126-0.043-1.678-0.099c-1.325-0.039-2.157-0.092-2.157-0.092l-0.57-0.404c-6.699-1.709-12.129-6.927-17.037-11.883
	c0.43,2.842,1.01,5.724,0.406,8.497c-0.797,3.664-4.329,4.639-7.683,3.978c-0.13-0.025-0.221-0.059-0.296-0.096
	c-0.751,0.232-1.614,0.248-1.755-0.204c-1.178-3.761-1.756-7.644-2.834-11.424c-0.91-3.192-2.459-6.172-3.286-9.378
	c-1.231-4.772-1.453-9.595,2.052-13.389c0.294-1.024,0.503-1.698,0.503-1.698l0.244,1.219c0.075-0.025,0.152-0.048,0.233-0.069
	c-3.09-14.243-16.721-25.146-27.32-33.983c-11.988-9.995-12.994-24.669-13.057-39.22c-7.28,1.82-14.869,2.796-22.455,2.922
	c2.004,2.75,2.825,7.105,3.44,9.888c1.207,5.465,2.22,11.297,1.831,16.917c-0.602,8.687-0.769,16.67,1.479,25.167
	c1.66,6.276,3.946,12.365,5.626,18.633c0.09,0.064,0.171,0.14,0.227,0.24c0.139,0.25,0.258,0.503,0.359,0.759
	c0.174,0.007,0.332,0.04,0.459,0.106c9.251,4.892,12.619,21.792,6.795,30.339c-0.491,0.721-1.712,1.092-2.502,0.67
	c-3.588-1.912-2.87-5.955-3.664-9.406c-0.092,0.077-0.19,0.159-0.296,0.247c-4.889,4.772-10.766,9.116-17.021,11.531
	c-5.872,2.268-15.59,3.423-21.571,0.585c-2.137-1.015-6.449-4.897-2.371-6.61c5.318-2.233,10.091-3.922,14.732-7.565
	c3.438-2.699,6.626-5.685,10.027-8.424c-4.933-17.725-11.789-34.438-19.796-51.068c-3.56-7.392-6.873-14.913-9.979-22.507
	c-2.129-5.208-4.999-10.88-5.881-16.518c-0.205-0.046-0.359-0.141-0.421-0.298c-0.018-0.045-0.036-0.091-0.054-0.136
	c-0.25-0.199-0.322-0.431-0.264-0.664c-7.085-17.8-14.511-35.724-15.895-55.075c-0.573-8.007-0.666-16.302,2.032-23.975
	c0.877-2.495,1.801-4.9,2.589-7.34c-8.207,2.366-18.839,3.57-26.866,0.663c-1.346-0.488-0.326-1.803,0.538-2.093
	c1.398-0.469,4.248-8.229,5.039-10.094c1.54-3.63,2.962-7.312,4.06-11.094c-64.245,0-128.49,0-192.735,0
	c-0.458,1.039-2.857,1.255-2.857-0.142c-0.007-56.112-0.667-112.221-0.674-168.333c0-0.691,0.793-1.134,1.556-1.187
	c0.26-0.284,0.666-0.49,1.181-0.49c85.647,0,171.294-0.009,256.941-0.009c0.098,0,0.186,0.009,0.271,0.02
	c0.766-0.117,1.572,0.148,1.58,0.956c0.091,9.099,0.169,18.198,0.28,27.296c0.021,1.767,0.037,3.535,0.081,5.302
	c0.006,0.227,0.056,0.524,0.083,0.751c0.064,0.132,0.089,0.292,0.061,0.484c-0.016,0.105-0.044,0.194-0.071,0.285
	c4.516-0.149,9.019,2.955,9.869,7.739c1.003,5.656-2.362,10.903-6.151,15.231c7.773,4.495,9.664,16.639-0.27,20.022
	c-4.507,1.535-12.641-0.05-15.857-3.932c-0.19,1.004-0.392,2.005-0.636,2.996c2.703-0.126,5.467,0.585,6.958,3.084
	c0.64,1.073,0.982,2.21,1.043,3.339c11.824,4.529,22.967,11.267,28.438,23.186c6.13,13.356,6.76,28.902,8.454,43.282
	c1.188,10.089,7.806,30.421-3.722,37.033c-1.642,0.942-3.339,1.645-5.072,2.163c1.025,2.414,2.172,4.778,2.941,7.289
	c0.058,0.188-0.228,0.369-0.506,0.498c0,0,0,0.001,0.001,0.002c6.231,13.774,10.921,28.31,15.293,42.763
	c3.254,10.759,7.196,22.009,8.46,33.237c0.04,0.351-0.114,0.658-0.368,0.901c0.165,0.051,0.297,0.133,0.368,0.266
	c3.738,6.961,8.574,13.395,11.792,20.626c3.47,7.8,5.316,16.217,7.935,24.324c5.147,15.934,10.892,31.89,18.628,46.777
	c0.188,0.166,0.38,0.326,0.569,0.491c0.136,0.065,0.237,0.156,0.305,0.264c6.989,6.069,14.294,11.584,21.862,16.913
	C482.019,481.867,488.547,486.05,485.939,488.101z M435.594,456.836c0.159,0.127,0.345,0.273,0.559,0.44
	c-0.143-0.214-0.289-0.426-0.418-0.647C435.688,456.698,435.638,456.766,435.594,456.836z M390.594,287.354
	c-13.201,2.269-28.128-5.586-39.147-12.086c0.06,2.351,0.19,4.698,0.313,7.047c0.192,0.232,0.194,0.552,0.044,0.855
	c0.096,1.911,0.177,3.824,0.191,5.744c11.555,8.464,27.686,9.399,41.191,5.529c0.061-0.074,0.132-0.144,0.216-0.207
	C392.628,291.879,391.56,289.637,390.594,287.354z M345.583,266.663c-1.169-1.244-2.345-2.482-3.459-3.767
	c-1.576-1.816-5.128-5.185-4.769-7.939c0.293-2.245,3.368-2.917,5.242-2.528c1.252,0.26,2.467,0.697,3.641,1.241
	c-1.679-3.303-2.587-6.836,0.171-8.25c1.286-0.66,2.463-0.639,3.555-0.196c0.038-1.309,0.742-2.452,2.561-3.226
	c1.501-0.639,2.737-0.552,3.804-0.043c1.021-1.07,2.9-1.516,4.231-1.358c2.141,0.254,3.65,2.493,4.739,4.142
	c0.723,1.095,1.376,2.235,2.036,3.372c2.739-6.744,5.937-13.524,7.696-20.547c0.896-3.577,0.892-6.551-1.444-8.888
	c-0.163-0.006-0.31-0.034-0.429-0.093c-5.213-2.565-10.547-4.999-16.042-6.9c-2.84-0.983-5.735-1.961-8.701-2.492
	c-2.438-0.437-5.799-1.075-6.642,2.046c-0.31,1.145-0.594,2.295-0.891,3.444c-0.042,0.163-0.151,0.309-0.297,0.438
	c-3.893,13.358-7.553,26.778-11.844,40.017c-0.012,0.036-0.034,0.07-0.054,0.105c0.148,0.173,0.175,0.417-0.009,0.744
	C326.065,260.614,338.194,264.638,345.583,266.663z M362.184,257.296c0.651-0.771,2.898-2.836,4.598-4.765
	c-0.065-0.035-0.123-0.077-0.163-0.134c-2.15-3.064-3.524-6.991-6.354-9.53c-0.354-0.317-0.855-0.797-1.374-1.006
	c-0.022,0.133-0.386,0.405-0.357,0.876c0.027,0.43,0.077,0.846,0.229,1.253c0.023,0.062,0.052,0.121,0.077,0.183
	c1.197,1.571,2.182,3.54,3.207,5.076c0.159,0.2,0.319,0.399,0.479,0.597c0.035,0.043,0.045,0.089,0.045,0.136
	c0.037,0.048,0.073,0.103,0.11,0.149c0.64,0.8-2.144,1.788-2.704,1.087c-0.122-0.152-0.33-0.468-0.597-0.884
	c-1.147-1.362-2.913-3.348-3.552-5.235c-1.139-1.436-2.182-2.357-2.643-1.625c-1.921,3.048,3.255,7.983,4.78,10.324
	c0.021,0.031,0.027,0.062,0.04,0.093c0.158,0.157,0.316,0.305,0.473,0.434c0.555,0.456-2.056,1.576-2.719,1.032
	c-1.7-1.396-2.908-3.447-4.298-5.131c-0.821-0.994-1.653-2.028-2.638-2.869c-0.33-0.282-0.666-0.584-1.045-0.802
	c-0.613,2.158,0.82,4.882,1.771,6.722c0.732,1.417,1.52,2.819,2.399,4.156c0.328,0.284,0.651,0.571,0.962,0.864
	c0.162,0.152,0.131,0.329-0.011,0.501c0.006,0.009,0.013,0.019,0.019,0.027c0.523,0.706-2.26,1.65-2.719,1.032
	c-0.269-0.362-0.624-0.846-1.022-1.412c-2.335-2.062-5.41-4.28-8.386-4.562c-1.783-0.169,1.696,5.099,1.957,5.427
	c2.397,3.021,5.189,5.721,7.732,8.62c0.433,0.135,0.577,0.362,0.527,0.616c0.331,0.388,0.66,0.777,0.98,1.174
	C355.306,265.515,358.726,261.39,362.184,257.296z M374.633,249.715c-0.075-0.427-0.145-0.813-0.174-1.071
	c-0.221-1.954-0.467-3.905-0.728-5.854c-0.123-0.915-0.173-1.995-0.252-3.092c-1.083,2.655-2.2,5.296-3.264,7.936
	c0.523-0.19,1.11-0.265,1.379-0.17c0.011,0.004,0.022,0.008,0.033,0.012c0.233,0.082,0.381,0.183,0.473,0.293
	C372.454,248.164,373.371,248.846,374.633,249.715z M369.661,185.241c-3.586,2.328-5.578,7.271-7.099,11.065
	c-1.753,4.374-3.181,8.856-4.494,13.379c-0.002,0.009-0.008,0.017-0.011,0.025c5.354,1.796,10.558,4.089,15.632,6.541
	c0.386-0.072,0.743-0.07,0.958,0.066c3.75,2.357,4.51,5.805,3.463,9.979c-0.692,2.762-1.594,5.479-2.589,8.172
	c0.018,0.029,0.039,0.055,0.053,0.087c1.131,2.62,0.963,6.667,1.319,9.472c0.25,1.96,1.309,5.502,0.856,7.769
	c6.398,4.21,15.651,10.126,14.593,11.632c-0.614,0.875-3.561,1.01-2.729-0.176c-0.348,0.496-0.364,0.046-1.083-0.545
	c-0.912-0.75-1.854-1.462-2.802-2.164c-2.397-1.772-4.827-3.501-7.267-5.215c-0.934-0.656-2.033-1.311-3.159-1.988
	c-0.248-0.052-0.443-0.158-0.536-0.325c-1.365-0.826-2.727-1.7-3.885-2.661c-0.633,0.835-1.468,1.626-1.913,2.16
	c-3.072,3.689-6.205,7.328-9.254,11.037c-1.89,2.299-3.776,4.603-5.603,6.953c-2.501,3.221,0.483,3.898,3.183,5.39
	c4.965,2.744,10.075,5.391,15.468,7.199c9.361,3.138,26.719,6.152,28.896-7.412c1.15-7.162-0.65-14.358-1.517-21.452
	c-1.845-15.086-2.168-31.591-7.751-45.913C388.051,197.184,379.802,190.172,369.661,185.241z M365.163,183.228
	c-0.292,0.978-0.806,1.913-1.567,2.746c-4.723,5.167-13.333,3.302-18.322-0.739c-6.122,9.026-10.778,18.463-13.996,28.935
	c-0.311,1.012-3.231,1.414-2.902,0.345c3.01-9.794,7.244-18.704,12.758-27.218c-1.331,0.551-2.738,0.838-4.131,0.616
	c-1.905-0.304-3.615-1.43-4.076-3.411c-0.035-0.15-0.043-0.292-0.067-0.438c-6.803,6.206-13.768,13.515-16.855,22.256
	c-3.63,10.278,1.119,21.032,3.115,31.273c1.581,8.108,3.217,16.208,4.744,24.327c1.169,6.214,2.72,12.649,2.862,18.997
	c6.938,1.684,14.886,1.543,22.086,1.172c-0.208-3.891-0.419-7.777-0.217-11.691c0.005-0.097,0.049-0.187,0.115-0.271
	c-0.119-0.141-0.236-0.283-0.356-0.422c-5.126-1.252-26.676-6.125-22.475-13.911c-0.039-0.067-0.052-0.146-0.02-0.244
	c4.397-13.564,8.128-27.318,12.129-41c0.027-0.094,0.089-0.182,0.169-0.265c0.699-2.844,1.229-5.423,4.084-6.828
	c2.564-1.261,6.491-0.328,9.1,0.302c1.388,0.335,2.762,0.724,4.13,1.136c2.247-8.001,5-19.915,12.222-24.58
	C366.859,183.939,366.016,183.579,365.163,183.228z M365.982,162.842c0.41-0.068,0.789-0.241,1.143-0.478
	c-0.35,0.153-0.73,0.285-1.153,0.398c-0.828,0.222-1.787,0.179-2.715,0.227C364.019,163.034,364.934,163.017,365.982,162.842z
	 M361.974,138.156c0.077-0.014,0.154-0.027,0.231-0.041c0.016-0.015,0.027-0.023,0.027-0.023S362.132,138.118,361.974,138.156z
	 M363.277,149.161c0.239,0.265,0.516,0.497,0.837,0.687c0.103-0.014,0.205-0.021,0.299-0.014c0.909,0.077,1.797,0.293,2.63,0.609
	c0.072,0.001,0.136,0.004,0.191,0.009C365.826,150.047,364.347,149.542,363.277,149.161z M367.554,150.651
	c0.918,0.409,1.741,0.951,2.418,1.596c-0.614-0.769-1.363-1.416-2.24-1.655c-0.071-0.02-0.144-0.041-0.215-0.061
	C367.558,150.565,367.569,150.605,367.554,150.651z M333.871,139.079c-1.521,5.002-4.704,9.509-5.751,14.645
	c-1.595,7.82,3.671,10.089,10.125,12c3.183,0.943,5.953,1.924,6.672,5.429c0.743,3.618,1.042,7.352,1.025,11.055
	c2.556-1.752,5.293-3.245,7.944-4.86c-0.022-0.073-0.026-0.155,0.01-0.254c1.487-4.122,0.913-11.516,4.951-14.278
	c1.942-1.328,6.689-0.924,7.946-2.242c0.48-0.503,0.859-1.025,1.153-1.552c0.021-0.089,0.067-0.186,0.145-0.291
	c1.658-3.356-0.301-6.835-4.792-7.215c-0.478-0.041-0.721-0.167-0.803-0.334c-1.822-0.611-3.169-1.966-3.305-4.362
	c-0.134-2.366,0.488-4.85,1.819-6.837c0.116-0.235,0.225-0.441,0.326-0.624C352.36,140.97,342.925,140.757,333.871,139.079z
	 M343.01,177.094c-0.207,0.108-0.443,0.187-0.705,0.209c-3.186,0.282-7.578,2.461-6.482,6.421c1.073,3.875,4.98,1.827,7.208,0.12
	C343.088,181.849,343.161,179.46,343.01,177.094z M358.27,176.218c-3.687,2.456-7.707,4.429-11.264,7.069
	c3.657,3.396,13.033,7.504,15.194,0.777C363.266,180.748,361.532,177.022,358.27,176.218z M371.734,174.737
	c-2.016,0.185-4.283-0.265-6.868-1.148C367.022,174.586,369.532,175.043,371.734,174.737z M305.366,265.428
	c0.2-0.793,0.389-1.59,0.555-2.393c2.348-11.375,3.383-23.056,3.536-34.669c-8.433,7.735-16.163,16.038-26.282,21.795
	c-7.62,4.335-20.016,9.911-27.647,2.899c-6.161-5.662-11.111-12.865-15.631-20.103c0,2.62,0,5.239,0,7.859
	c0.11,0.099,0.095,0.235,0,0.383c0,0.258,0,0.517,0,0.775c0-0.023-0.281-0.109-0.637-0.239c-0.301,0.168-0.644,0.288-0.915,0.282
	c-3.17-0.067-6.339-0.271-9.508-0.369c-2.428-0.075-4.859-0.149-7.289-0.141c-0.855,0.002-1.713,0.001-2.568,0.04
	c-0.494,0.022-0.778,0.04-0.937,0.046c-0.551,0.464-1.767,0.683-2.042,0.216c-0.206-0.351-0.092-0.627,0.231-0.847
	c-0.208-0.125-0.347-0.322-0.347-0.604c-0.005-17.816-0.135-35.633-0.377-53.448c-0.674-1.991-1.364-3.86-2.291-5.797
	c-0.488-1.021-1.768-3.15-0.955-4.327c0.927-1.342,1.968-1.885,3.05-1.886c-1.082-9.277,0.264-18.629-1.39-27.869
	c-0.001-0.144,0.052-0.264,0.16-0.359c7.705-4.769,16.021-1.419,24.419-1.383c0.82,0.004,1.712,0.988,1.351,1.447
	c0.126,0.094,0.205,0.219,0.205,0.382c0,2.56,0,5.121,0,7.681c0,0.012,0,0.024,0,0.037c0,2.561,0,5.121,0,7.681
	c0,0.512-0.641,0.825-1.271,0.888c1.726,1.534,2.162,5.134,2.479,7.009c0.421,2.495,0.698,5.006,0.912,7.524
	c2.938-3.59,7.364-6.713,11.202-5.418c0.294,0.099,0.664,0.266,0.575,0.655c-1.024,4.471-4.712,8.015-5.259,12.56
	c-0.29,2.411-0.396,4.562-1.368,6.526c1.323-0.631,2.647-1.259,3.975-1.879c0.224-0.104,0.597-0.167,0.979-0.187
	c0.353-0.077,0.678-0.094,0.88-0.011c0.05,0.021,0.1,0.057,0.15,0.088c0.184,0.052,0.294,0.13,0.292,0.233
	c0.56,0.559,1.081,1.663,1.528,2.788c-0.104-10.143,0.374-20.283,0.165-30.429c-0.228-11.1-2.971-23.196,0.168-34.069
	c0.074-0.255,0.342-0.537,0.606-0.597c7.53-1.719,14.761,0.715,22.315,0.831c1.067,0.016,1.619,1.439,1.11,2.08
	c0.151,0.002,0.262,0.022,0.262,0.075c0,29.597,0,59.194,0,88.791c1.717-2.173,3.388-4.401,5.27-6.39
	c3.252-3.438,6.588-6.845,10.038-10.132c-0.245-0.432-0.426-0.842-0.439-1.09c-1.583-28.424,0.289-56.923-1.669-85.333
	c-0.02-0.145,0.024-0.263,0.131-0.355c8.422-2.636,16.837,0.707,25.398-0.064c1.077-0.097,2.122,3.3,1.712,3.337
	c-0.094,0.008-0.208,0.013-0.327,0.016c0.333,0.433,0.591,0.877,0.591,1.225c0,21.109,0,42.218,0,63.328
	c4-1.962,8.241-3.326,12.658-3.416c1.303-3.479,5.953-5.405,9.497-5.719c0.086-0.008,0.161-0.006,0.236-0.006
	c-0.22-1.858-0.617-3.632-1.325-5.101c-1.738-3.607-9.825-3.791-13.14-5.954c-8.76-5.715,0.577-18.264,2.601-25.006
	c0.083-0.276,0.341-0.505,0.671-0.677c-2.132-0.454-4.235-0.992-6.305-1.602c-0.679,0.065-1.257-0.104-1.114-0.606
	c4.93-17.257,31.96-18.425,42.987-6.248c0.044-1.154,0.181-2.305,0.172-2.941c-0.117-9.216-0.196-18.434-0.287-27.65
	c-85.22,0-170.44,0.009-255.661,0.009c0.013,55.278,0.65,110.553,0.671,165.831C176.537,265.428,240.952,265.428,305.366,265.428z
	 M296.467,202.125c4.342-4.051,8.879-7.887,13.711-11.295c2.8-1.975,5.797-3.967,8.953-5.636c-0.479-0.544-0.908-1.157-0.908-1.61
	c0-21.223,0-42.446,0-63.669c-6.474-0.388-23.433-2.712-23.16,1.651c0.562,8.981,0.79,17.976,0.833,26.974
	C295.979,166.404,295.61,184.276,296.467,202.125z M263.754,211.614c1.222,2.348,8.149,16.596,11.357,13.598
	c0.801-0.749,1.552-1.553,2.282-2.383c0-30.278,0-60.556,0-90.834c0-0.246,0.321-0.456,0.724-0.61
	c-5.104-0.42-20.451-4.393-21.254,1.578c-1.017,7.552,0.049,15.123,0.444,22.678c0.755,14.44-0.311,28.892,0.229,43.333
	C259.547,203.217,261.585,207.449,263.754,211.614z M226.903,202.959c-2.511-2.057-5.063-3.799-7.086-6.401
	c-0.669-0.861-1.247-1.851-1.757-2.895c0.184,15.456,0.299,30.913,0.303,46.37c0,0.123-0.03,0.234-0.074,0.338
	c2.282-0.315,5.414-0.21,5.707-0.206c4.585,0.059,9.162,0.322,13.744,0.454c0-3.501,0-7.002,0-10.503
	c0,0.021,0.227,0.093,0.523,0.198c-0.97-1.583-1.926-3.16-2.873-4.712c-2.896-4.752-5.715-9.554-8.411-14.424
	c-0.714-1.29-3.103-4.224-3.049-5.781c0.004-0.113,0.049-0.218,0.121-0.316c-0.161-0.141-0.081-0.368,0.465-0.701
	C225.307,203.898,226.105,203.429,226.903,202.959z M218.31,241.044c0.006,0.039,0.005,0.077,0.001,0.114
	C218.317,241.124,218.316,241.085,218.31,241.044z M218.308,241.03c-0.01-0.049-0.028-0.1-0.061-0.156
	C218.278,240.927,218.297,240.979,218.308,241.03z M243.308,194.207c0.021-0.133,0.101-0.288,0.273-0.472
	c2.466-2.632,1.493-5.671,2.421-8.783c0.753-2.526,2.133-4.601,3.343-6.918c0.792-1.516,2.373-5.243-0.781-3.029
	c-0.987,0.693-1.941,1.439-2.782,2.308c-1.285,1.329-2.553,2.756-3.323,4.451c0.011,0.175,0.024,0.349,0.035,0.523
	c0.012,0.203-0.215,0.385-0.543,0.534c-0.758,0.767-3.021,0.96-2.695,0.022c0.079-0.228,0.181-0.468,0.285-0.709
	c-0.228-3.706-1.073-15.582-3.235-17.925c-1.893,3.396-0.708,7.892,0.023,11.93c0.319,1.264,0.595,2.537,0.775,3.815
	c0.106,0.756-2.814,1.367-2.897,0.776c-0.009-0.065-0.023-0.129-0.033-0.194c-0.184-0.017-0.302-0.062-0.304-0.139
	c-0.023-0.674-0.262-2.071-0.522-3.796c-0.241-0.916-0.501-1.826-0.781-2.72c-0.736-2.346-1.56-5.606-3.439-7.34
	c-0.125-0.128-0.269-0.234-0.412-0.342c-0.31,0.686-0.449,1.404-0.424,2.167c0.051,1.6,0.318,3.178,0.72,4.727
	c0.723,2.792,1.679,5.501,2.703,8.194c0.1,0.264-0.455,0.598-1.105,0.813c-0.493,0.85-2.622,1.238-2.803,0.296
	c-0.466-2.428-1.829-4.936-3.176-6.966c-0.655-0.988-4.421-6.109-4.384-2.48c0.027,2.694,1.1,5.4,2.443,7.96
	c1.395,2.012,2.476,4.006,2.96,5.043c0.019,0.041,0.025,0.083,0.027,0.125c0.067,0.114,0.136,0.229,0.201,0.341
	c0.661,1.135-2.148,2.089-2.68,1.178c-0.77-1.32-2.534-4.005-3.967-6.904c-0.692-0.916-1.438-1.77-2.255-2.495
	c-3.357-2.982-0.064,3.513,0.349,4.511c1.402,3.393,2.082,7.012,3.82,10.298c2.059,3.893,4.916,5.954,8.131,8.581
	C233.869,198.972,238.561,196.536,243.308,194.207z M237.874,146.902c-6.561-0.568-21.867-4.403-21.006,4.458
	c0.671,6.915,0.104,13.855,0.52,20.769c0.268-0.718,0.739-1.318,1.486-1.744c2.441-1.392,4.727-0.514,6.633,1.321
	c-0.551-3.667,0.124-6.831,4.184-7.023c1.331-0.063,2.337,0.801,3.112,1.95c0.41-2.861,1.702-4.755,4.776-3.876
	c0-2.534,0-5.068,0-7.603c0-0.012,0-0.024,0-0.037c0-2.56,0-5.121,0-7.681C237.578,147.221,237.695,147.043,237.874,146.902z
	 M322.751,287.712c0.496-1.824,0.888-3.687,1.09-5.646c0.008-0.074,0.046-0.144,0.098-0.213c-0.066-0.031-0.108-0.07-0.109-0.124
	c-0.154-7.142-1.967-14.419-3.316-21.404c-1.65-8.537-3.276-17.085-5.018-25.604c-2.138-10.456-6.369-20.304-1.217-30.509
	c4.18-8.282,10.578-15.116,17.439-21.255c0.16-0.144,0.537-0.273,0.96-0.367c-4.147-0.038-8.262,1.211-12.216,3.189
	c0,0.218,0,0.436,0,0.654c0,0.029-0.215-0.138-0.501-0.396c-7.499,3.877-14.401,10.274-19.835,15.252
	c-1.194,1.094-2.374,2.203-3.544,3.321c0.007,0.126,0.011,0.252,0.018,0.378c0.017,0.294-0.158,0.24-0.409,0.001
	c-2.9,2.785-5.734,5.639-8.488,8.57c-3.376,3.595-6.165,7.668-9.513,11.263c-6.75,7.246-12.775-3.895-15.627-9.207
	c-2.747-5.115-5.297-10.333-7.788-15.577c-0.62-1.305-2.636-6.741-3.617-8.188c-8.288,3.91-16.481,8.028-24.329,12.769
	c-0.048,1.403,2.086,4.041,2.729,5.203c2.156,3.895,4.373,7.757,6.661,11.576c5.67,9.467,11.504,19.279,18.95,27.486
	c2.875,3.169,5.658,6.136,10.233,5.991c7.716-0.245,14.887-4.155,21.057-8.534c8.518-6.045,15.426-13.598,23.2-20.464
	c0.008-0.007,0.021-0.014,0.031-0.021c0.661-0.892,2.75-0.952,2.744,0.394c-0.063,13.167-0.769,27.25-4.354,40.045
	c0.01,0.206-0.052,0.422-0.176,0.618c-0.097,0.335-0.187,0.674-0.287,1.007c-1.729,5.718-3.937,11.363-6.665,16.683
	c-0.686,1.337-1.466,3.291-2.603,4.704c7.427,2.056,17.069,0.638,24.118-1.53C322.565,287.746,322.66,287.727,322.751,287.712z
	 M320.64,324.32c2.274,18.111,8.86,34.697,15.541,51.503c24.438,10.46,57.198,9.025,79.958-4.939c0.179-0.11,0.39-0.176,0.61-0.212
	c-1.377-11.466-5.408-22.987-8.779-33.957c-4.297-13.982-8.83-28.037-14.859-41.385c-14.414,3.961-31.451,3.612-43.82-5.428
	c-0.117-0.037-0.192-0.092-0.193-0.173c-0.013-1.88-0.091-3.754-0.185-5.625c-7.303,0.381-15.236,0.498-22.411-0.99
	c-0.814,5.195-2.905,9.74-4.474,14.776C319.388,306.37,319.542,315.584,320.64,324.32z M357.515,490.203
	c-0.704-0.008-1.382-0.029-2.031-0.061C356.153,490.186,356.83,490.211,357.515,490.203z M392.256,477.655
	c-0.583,3.421-1.274,6.187-1.274,6.187l-0.502,0.502c0.064,0.108,0.136,0.212,0.209,0.315
	C391.63,482.594,392.141,480.184,392.256,477.655z M372.927,396.541c-0.739-3.346-1.611-9.124-4.439-11.829
	c-10.837-0.208-21.551-2.163-31.213-5.869c1.226,5.398,3.946,10.809,6.011,15.769c3.114,7.482,6.333,14.945,9.922,22.213
	c8.714,17.644,15.709,35.734,20.59,54.814c2.365-0.462,5.377-4.665,6.419-6.286c1.25-1.944,2.73-4.545,2.384-6.961
	c-0.252-0.042-0.438-0.144-0.483-0.329c-3.492-14.326-9.743-27.521-7.954-42.683C374.907,409.08,374.293,402.728,372.927,396.541z
	 M437.912,454.454c0.027,0.129,0.009,0.251-0.036,0.368c0.17,0.08,0.317,0.198,0.416,0.371c3.103,5.434,10.382,8.486,16.747,8.662
	c-7.9-15.252-13.816-31.641-18.966-47.99c-2.533-8.042-4.276-16.538-8.063-24.114c-3.277-6.556-7.506-12.571-10.999-19.01
	c-5.986,3.539-12.587,6.299-19.524,8.272c0.002,7.883-0.045,16.209,2.496,23.75c2.555,7.584,7.055,12.284,13.126,17.229
	C423.029,430.072,435.191,441.379,437.912,454.454z M173.28,219.018c0.139,0.222,0.228,0.461,0.228,0.711c0,6.971,0,13.941,0,20.911
	c0.044,0.087,0.039,0.188,0,0.297c0,0.085,0,0.171,0,0.256c0,1.033-0.826,1.248-1.664,1.01c-0.263,0.094-0.522,0.154-0.747,0.153
	c-3.45-0.017-6.899-0.069-10.349-0.092c-2.384-0.016-4.768-0.033-7.151-0.026c-0.953,0.002-1.906,0.001-2.858,0.021
	c-0.332,0.007-0.561,0.053-0.657,0.078c0.089-0.028,0.305-0.104,0.692-0.281c0.036-0.079,0.072-0.157,0.108-0.235
	c-0.755,0.358-1.72,0.585-2.214,0.389c-0.017-0.007-0.033-0.013-0.049-0.02c-0.442-0.176-0.468-0.443-0.318-0.711
	c-0.017-4-0.106-8.002-0.349-11.995c-0.055-0.904-0.199-9.414-0.558-9.563c-1.039-0.435,0.244-1.409,0.734-1.599
	c3.324-1.288,8.257-0.385,11.716-0.365c3.558,0.021,7.117,0.062,10.675,0.087c0.391-0.267,0.999-0.228,1.569,0.012
	c0.143,0.001,0.286,0.003,0.428,0.003C173.692,218.064,173.716,218.533,173.28,219.018z M170.107,240.308c0-6.744,0-13.487,0-20.23
	c-3.301-0.021-6.601-0.063-9.902-0.084c-2.52-0.016-5.039-0.033-7.559-0.026c-0.597,0.001-1.193,0.009-1.79,0.013
	c0.756,6.628,1.024,13.309,1.063,19.977c2.812-0.294,6.225,0.254,8.562,0.268C163.691,240.245,166.899,240.283,170.107,240.308z
	 M150.083,242.336C150.021,242.352,150.019,242.356,150.083,242.336L150.083,242.336z M207.191,200.545
	c0.191,0.255,0.309,0.542,0.309,0.84c0,13.086,0,26.173,0,39.26c0.054,0.107,0.038,0.234-0.029,0.371
	c-0.088,0.511-0.425,0.758-0.858,0.813c-0.486,0.303-1.071,0.532-1.523,0.528c-3.45-0.031-6.899-0.127-10.349-0.169
	c-2.383-0.029-4.768-0.06-7.151-0.048c-0.796,0.004-1.593,0.004-2.389,0.026c-2.834,0.079,2.031-0.343,0.644-1.474
	c-0.001,0.001-0.002,0.003-0.002,0.004c0.755,0.728-2.417,2.082-3.42,1.349c-0.016-0.012-0.033-0.024-0.049-0.036
	c-0.212-0.155-0.175-0.396-0.064-0.61c-0.003-0.022-0.015-0.042-0.015-0.066c-0.009-7.192-0.106-14.385-0.333-21.574
	c-0.104-3.297-0.216-6.594-0.377-9.889c-0.061-1.248,0.409-7.996-0.438-8.701c-0.487-0.406,0.247-1.05,0.565-1.229
	c3.005-1.688,8.367-0.674,11.609-0.641c4.396,0.044,8.792,0.153,13.189,0.194C207.755,199.503,207.71,200.031,207.191,200.545z
	 M183.021,201.457C182.921,201.486,182.922,201.495,183.021,201.457L183.021,201.457z M204.147,240.292
	c-0.029-0.105-0.048-0.213-0.048-0.322c0-12.822,0-25.645,0-38.466c-3.424-0.041-6.849-0.121-10.273-0.159
	c-2.416-0.027-4.832-0.055-7.248-0.044c-0.509,0.002-1.018,0.012-1.527,0.018c0.255,1.957,0.034,5.062,0.081,6.018
	c0.187,3.818,0.343,7.637,0.454,11.458c0.204,7.031,0.314,14.063,0.328,21.097c2.651-0.269,5.871,0.221,7.725,0.24
	C197.142,240.166,200.644,240.242,204.147,240.292z M129.06,460.065c13.63,1.568,27.337,0.875,41.022,0.839
	c3.03-0.008,2.903-2.655-0.092-2.647c-13.241,0.035-26.501,0.727-39.691-0.791C127.896,457.19,125.721,459.681,129.06,460.065z
	 M129.958,453.268c0.825,0.437,2.329-0.232,3.066-0.575c0.199-0.093,2.082-1.064,1.32-1.467c-1.427-0.755-2.224-2.148-1.51-3.702
	c0.361-0.785-1.778-0.308-1.957-0.258c-0.827,0.23-2.303,0.682-2.705,1.555C127.327,450.66,128.264,452.373,129.958,453.268z
	 M149.261,452.109c-1.007-1.386-1.925-3.103-1.958-4.857c-0.02-1.041,0.926,0.058,1.168,0.376c0.452,0.595,1.039,1.448,1.314,2.277
	c0.093,0.051,0.182,0.107,0.278,0.156c0.883,0.445,1.469,1.632,1.868,2.48c0.035,0.074,0.844,2.222,0.19,1.892
	C150.98,453.857,150.021,453.155,149.261,452.109z M149.981,451.297c0-0.002-0.001-0.004-0.002-0.006
	C149.999,451.425,150,451.433,149.981,451.297z M164.585,453.333c0.874-0.001,1.691-0.095,2.525-0.376
	c1.45-0.489,3.024-1.146,4.159-2.209c0.742-0.694-0.821-0.242-1.056-0.165c-0.495,0.165-0.976,0.37-1.448,0.594
	c-0.959,0.044-1.97,0.549-2.8,0.968c-0.442,0.223-0.904,0.465-1.285,0.787C164.658,452.952,164.241,453.333,164.585,453.333z
	 M207.409,382.698c-0.922,6.715-8.163,10.725-12.135,15.69c-4.053,5.066-6.496,10.813-8.799,16.826
	c-3.765,9.83-8.208,17.636-16.365,22.629c3.284,0,6.568,0,9.852,0c0.941,0,1.902,0.894,2.426,1.872
	c0.997-1.513,4.245-2.338,4.412-0.369c0.999,11.743-3.77,24.246-7.811,35.042c-2.81,7.507-5.868,14.949-9.306,22.192
	c-0.529,1.115-2.051,1.59-3.174,1.558c-3.473-0.101-6.97-0.188-10.471-0.312c-4.853,0.466-9.766,0.288-14.604-0.271
	c-2.532-0.292-5.832-0.284-8.174-1.486c-2.757-1.415-3.68-7.495-4.575-10.063c-2.791-8.006-5.405-16.104-7.442-24.338
	c-1.621-6.553-3.244-13.419-3.082-20.232c-1.309-1.252-1.962-3.593,0.033-3.593c0.446,0,0.893,0,1.339,0
	c0.216-0.078,0.466-0.087,0.738,0c3.554,0,7.108,0,10.662,0c-14.986-10.185-17.683-27.627-17.096-44.647
	c0.337-9.762-2.603-19.121-2.779-28.803c-0.104-5.745,2.021-10.815,8.672-10.229c16.2,1.425,16.109,20.845,17.174,33.263
	c0.056,0.649,0.102,1.32,0.148,1.997c2.723-4.109,6.999-7.527,9.254-11.766c3.708-6.972,0.972-14.645,1.415-22.066
	c0.635-10.661,19.331-5.861,22.56,0.968c2.396,5.068,0.736,10.752-0.925,15.791c-1.035,3.141-2.334,6.306-1.723,9.686
	c0.711,3.933,2.672,7.756,3.148,11.733c2.343-2.908,4.991-5.608,6.638-9.057c2.073-4.34,3.537-11.923,7.958-14.596
	C194.1,364.841,208.968,371.345,207.409,382.698z M137.99,396.484c0.144,0.541,0.304,1.073,0.503,1.584
	c1.879,4.823,3.798,9.771,4.583,14.917c1.319,8.648-1.395,16.74-4.041,24.857c1.336,0,2.671,0,4.007,0
	c5.444-17.927,8.068-36.568,13.481-54.51c0.198-0.655,2.539,0.203,2.316,0.94c-5.318,17.628-7.942,35.931-13.195,53.569
	c0.801,0,1.603,0,2.404,0c11.269-9.655,16.115-24.065,17.681-38.653c0.441-4.112-0.4-7.541-1.64-11.438
	c-0.968-3.044-2.25-6.669-1.398-9.898c1.18-4.474,3.208-8.823,3.668-13.467c0.5-5.054-0.947-9.944-5.972-12.165
	c-3.496-1.545-7.325-2.491-7.614,2.349c-0.153,2.557,0.115,5.09,0.292,7.639c0.433,6.22,0.697,12.32-3.202,17.538
	c-3.69,4.938-9.818,9.686-10.272,16.226C139.571,396.264,138.865,396.424,137.99,396.484z M134.168,436.748
	c0.015,0.009,0.024,0.018,0.038,0.027c0.04-0.124,0.081-0.249,0.122-0.373c-2.212-9.742-5.538-19.15-8.262-28.764
	c-3.12-11.01-5.06-22.09-5.156-33.555c-0.011-1.279,2.393-0.631,2.402,0.516c0.171,20.291,7.665,38.412,12.392,57.63
	c2.09-6.388,3.977-13.023,2.957-19.707c-1.105-7.245-4.867-13.685-5.765-20.936c-0.984-7.939,0.551-34.881-11.927-34.105
	c-7.3,0.454-5.366,10.201-4.664,15.086c1.125,7.826,2.588,15.649,2.038,23.59C117.292,411.318,120.527,427.999,134.168,436.748z
	 M122.885,442.207c-0.578,11.039,3.392,22.826,6.614,33.159c1.853,5.94,3.839,11.849,6.019,17.681
	c0.59-0.366,1.255-0.588,1.832-0.501c9.509,1.434,19.278,1.667,28.906,1.932c2.986-6.423,5.693-13.001,8.145-19.64
	c3.738-10.128,8.275-21.715,7.771-32.758c-0.177,0.076-0.383,0.127-0.65,0.127C161.976,442.207,142.431,442.207,122.885,442.207z
	 M200.777,376.743c-3.274-4.114-10.957-6.743-14.033-0.953c-2.137,4.022-3.25,8.763-5.813,12.537
	c-2.926,4.31-7.543,8.066-9.281,13.035c-0.205,0.586-0.614,0.998-1.107,1.265c-0.795,6.219-2.714,12.608-5.033,17.936
	c-2.937,6.748-6.984,12.565-12.476,17.281c1.229,0,2.458,0,3.688,0c13.372-12.583,17.689-31.845,26.972-47.205
	c0.347-0.574,2.386-0.722,2.331-0.632c-9.448,15.633-13.788,35.189-27.611,47.837c0.492,0,0.983,0,1.475,0
	c0.262-0.293,0.625-0.545,1.128-0.709c11.59-3.778,16.366-11.971,20.579-22.815c3.371-8.679,7.133-16.289,13.728-23.026
	C199.243,387.289,205.557,382.749,200.777,376.743z" fill="#000000"></path>
</svg>