<?xml version="1.0" standalone="no"?>
<svg version="1.1" id="Layer_1" xmlns="http://www.w3.org/2000/svg" xmlns:xlink="http://www.w3.org/1999/xlink" x="0px" y="0px" width="595.279px" height="595.281px" viewBox="0 0 595.279 595.281" enable-background="new 0 0 595.279 595.281" xml:space="preserve">
<path id="color_x5F_2" fill="#d64f61" d="M475.493,236.39c-2.834,5.189-4.243,11.124-7.885,15.858
	c-0.037,0.047-0.059,0.089-0.086,0.134c-4.644-0.99-9.078-2.779-13.774-3.579c-0.207-0.035-0.573,0.039-0.954,0.167
	c-2.488-6.206,2.756-13.854,7.111-17.934c0.134-0.125,0.226-0.247,0.299-0.367c5.144,1.613,10.309,3.122,15.097,5.661
	C475.354,236.361,475.421,236.378,475.493,236.39z M392.306,214.042c-3.611,3.979-6.445,8.553-9.498,12.97
	c-0.019,0.026-0.045,0.051-0.068,0.075c0.201,0.084,0.369,0.222,0.474,0.434c2.394,4.872,7.707,12.109,13.797,12.332
	c0-0.025,0.002-0.05,0.017-0.079c2.334-4.723,5.775-8.77,8.109-13.492c0.033-0.066,0.087-0.127,0.148-0.186
	c-0.233-0.051-0.432-0.158-0.557-0.334C401.391,221.043,396.405,218.014,392.306,214.042z M277.936,397.326
	c4.806,0.289,14.111,0.933,20.7,1.895C292.231,397.423,284.504,397.219,277.936,397.326z M309.571,300.658
	c0.938,0.945,1.808,1.949,2.639,2.981C311.403,302.382,310.485,301.41,309.571,300.658z M266.123,279.646
	c0.237-3.667,0.457-9.668-2.251-9.931c-2.237,2.839-4.209,5.454-5.536,8.781C261.031,277.97,263.993,278.146,266.123,279.646z
	 M239.866,286.563c2.268-2.761,4.832-4.874,8.556-5.025c-6.725-8.331-20.089-11.482-26.455-20.639
	c-2.962,2.102-4.671,5.545-5.57,9.056c0.068,0.25,0.018,0.531-0.205,0.843c-0.098,0.444-0.192,0.888-0.267,1.327
	c-0.017,0.097-0.052,0.187-0.097,0.274C222.032,280.142,231.367,282.271,239.866,286.563z M200.058,378.486
	c0.18,0.427,0.354,0.877,0.516,1.361c0.247,0.734-2.626,1.582-2.897,0.776c-1.415-4.205-3.348-6.831-7.141-6.259
	c-0.433,0.338-1.159,0.498-1.729,0.438c-0.343,0.119-0.697,0.258-1.066,0.421c-4.528,1.998-8.962,4.287-12.935,7.263
	c-5.247,3.928-10.771,8.274-12.12,15.023c-1.131,5.66-0.285,11.448,2.305,16.004l1.134,0.413l4.479,5.63
	c2.038,1.323,4.424,2.223,7.137,2.564c-1.654-3.855-2.034-8.434-2.082-12.434c-0.015-1.258,2.913-1.729,2.932-0.238
	c0.035,2.931,0.326,5.953,1.095,8.791c0.384,1.416,2.218,6.457,4.566,7.878c0.662,0,1.324,0,1.986,0c0.133,0,0.252,0.012,0.362,0.03
	c0.336-0.207,0.676-0.511,1.017-0.935c0.816-1.015,1.449-2.196,1.967-3.476c-0.046-0.789-0.126-1.338-0.126-1.338l1.484-3.033
	c0.686-2.748,1.217-5.578,2.103-7.965c3.736-10.073,10.005-21.686,21.629-23.065C214.212,379.529,206.222,376.076,200.058,378.486z
	 M322.676,330.624c-0.93-2.134-1.835-4.296-2.754-6.455c-1.151-2.292-2.363-4.909-3.388-7.569
	c-3.668-7.605-8.183-14.643-15.525-19.533c-5.415-3.605-11.284-6.46-16.689-10.075c-4.71-3.151-9.87-5.819-15.286-7.541
	c-0.048,0.884-0.095,1.69-0.102,2.36c-0.008,0.782-0.925,1.243-1.734,1.224c-0.75,0.263-1.653,0.35-1.854-0.078
	c-1.321-2.812-4.543-3.906-7.449-3.241c-0.197,0.593-0.379,1.205-0.536,1.849c-1.23,5.084-1.779,10.319-2.019,15.537
	c-0.643,13.96,0.36,27.987,1.803,41.869c2,19.238,5.717,38.156,8.261,57.295c5.995-0.064,11.984-0.226,17.884-0.168
	c5.651,0.054,13.288,0.48,19.604,2.698c0.146-8.106,0.234-16.225,0.063-24.331c-0.147-7.003-1.006-13.951-1.409-20.943
	c-0.144-2.487-0.573-5.041-0.976-7.608c-0.369-0.086-0.685-0.29-0.843-0.647c-2.198-4.974-4.144-10.545-4.719-15.976
	c-0.157-1.478,2.746-2.206,2.897-0.776c0.301,2.84,0.982,5.717,1.874,8.528c0.061-1.8,0.318-3.576,0.892-5.31
	c0.344-1.043,3.271-1.424,2.907-0.325c-1.633,4.948-0.407,9.608,0.293,14.596c0.559,3.978,0.613,8.009,0.91,12.013
	c0.429,5.75,1.02,11.433,1.101,17.202c0.116,8.255,0.046,16.513-0.106,24.767c1.551,0.752,2.971,1.648,4.197,2.717
	c-0.191-16.239-1.395-32.469-1.484-48.704c-0.047-8.253-0.158-22.042,10.523-23.481c0.939-0.125,1.191,0.14,1.064,0.477
	c0.985,0,1.97,0,2.955,0C322.874,330.906,322.747,330.789,322.676,330.624z M312.905,404.847c0.002,0.264-0.185,0.492-0.461,0.676
	c0.238,0.363,0.457,0.744,0.66,1.138c-0.045-0.419-0.113-1.058-0.199-1.894C312.905,404.794,312.905,404.82,312.905,404.847z
	 M269.658,277.373c0.5,0.146,0.992,0.311,1.485,0.472l-1.993-1.478c-0.003,0.331-0.01,0.659-0.021,0.985
	C269.322,277.327,269.505,277.328,269.658,277.373z M252.567,294.574c0.083-1.11,0.179-2.225,0.289-3.339
	c-0.291-0.023-0.496-0.11-0.514-0.278c-0.363-3.32-1.493-6.031-3.119-8.353c-0.514,0.26-1.111,0.354-1.677,0.327
	c-2.742-0.128-4.647,3.009-6.09,4.937c-0.095,0.127-0.283,0.242-0.517,0.339c-0.574,0.48-1.677,0.815-2.274,0.498
	c-8.925-4.755-18.731-6.766-25.34-14.87c-7.993,2.953-17.349,3.351-25.564,5.381c-5.518,1.363-11.211,6.961-14.124,11.821
	c-5.172,8.629-9.28,17.855-12.598,27.346c-6.533,18.689-11.257,38.151-13.28,57.867c-0.463,4.516-1.748,10.084-0.222,14.486
	c1.216,3.511,3.186,6.653,5.475,9.564c2.107,2.68,4.419,5.195,6.716,7.723c-1.013-4.978-0.649-10.414,1.76-14.771
	c4.712-8.523,15.419-14.561,24.021-18.355c0.749-0.33,1.472-0.617,2.179-0.873c-5.394-2.006-11.02-2.147-16.717-2.15
	c-1.96-0.001-1.493-2.271,0.217-2.271c6.043,0.004,12.03,0.185,17.761,2.229c2.753-6.907,2.397-14.384,3.5-21.692
	c1.225-8.123,1.838-16.335,3.216-24.432c0.202-1.188,3.151-1.621,2.922-0.271c-1.53,8.994-2.719,18.313-3.556,27.396
	c-0.634,6.882-0.884,13.873-3.754,20.236c3.56-0.527,6.379,0.6,8.333,4.473c7.459-2.391,18.632-0.359,17.964,9.309
	c-0.006,0.083-0.041,0.159-0.087,0.232c-0.024,0.255-0.163,0.52-0.393,0.736c14.04,7.584,29.644,8.537,45.308,8.473
	c-2.736-20.352-6.688-40.455-8.59-60.946C252.558,321.844,251.556,308.123,252.567,294.574z"></path>
<path id="color_x5F_1" d="M269.944,254.809c-3.891,1.075-8.109,1.233-11.993,0.051c-1.018-0.31,1.592-1.479,2.347-1.25
	c3.028,0.922,6.296,0.892,9.339,0.051C271.346,253.189,271.649,254.338,269.944,254.809z M270.334,237.771
	c1.521-4.862,1.06-12.438-1.428-16.924c-0.547-0.986-3.343-0.026-2.897,0.776c1.727,3.114,2.001,7.13,2.082,10.613
	c0.046,1.98-0.151,3.98-0.654,5.896c-0.771,2.933-2.169,2.611-4.301,0.868c-0.798-0.652-3.488,0.484-2.69,1.136
	C264.239,243.238,268.765,242.791,270.334,237.771z M275.681,225.768c-0.334,1.333-0.667,2.667-1,4
	c-0.242,0.969,2.659,0.515,2.888-0.4c0.333-1.333,0.666-2.667,1-4C278.811,224.399,275.91,224.854,275.681,225.768z
	 M251.641,225.264c-0.334,1.333-0.667,2.667-1,4c-0.242,0.969,2.659,0.515,2.888-0.4c0.333-1.333,0.666-2.667,1-4
	C254.772,223.896,251.871,224.348,251.641,225.264z M249.238,217.098c1.889,0,3.778,0,5.667,0c0.664,0,1.522-0.208,1.908-0.808
	c0.369-0.575-0.31-0.917-0.803-0.917c-1.889,0-3.778,0-5.667,0c-0.664,0-1.522,0.208-1.908,0.808
	C248.066,216.756,248.745,217.098,249.238,217.098z M274.672,217.667c1.444,0,2.889,0,4.334,0c0.649,0,1.514-0.496,1.589-1.199
	c0.082-0.768-0.76-1-1.353-1c-1.444,0-2.889,0-4.334,0c-0.649,0-1.514,0.496-1.589,1.199
	C273.238,217.435,274.079,217.667,274.672,217.667z M229.24,228.18c-0.215-1.722-1.248-3.527-3.059-3.927
	c-2.158-0.478-4.001,0.896-4.767,2.846c-0.594,1.513,2.313,1.398,2.755,0.273c0.159-0.405,0.333-0.835,0.645-1.145
	c0.052,0.017,0.116,0.04,0.209,0.097c0.879,0.526,1.202,1.688,1.32,2.631C226.5,230.216,229.407,229.51,229.24,228.18z
	 M137.955,406.715c5.567,0.813,7.694,5.242,10.52,9.64c0.354,0.551-0.504,1.094-1.355,1.288c-0.316,0.173-0.676,0.276-1.013,0.248
	c-3.108-0.258-6.265-0.7-9.452-1.239c-15.896-1.313-31.723,2.049-47.579,3.692c21.499,0,42.999,0,64.498,0
	c1.391,0-1.33,1.117-1.896,1.117c-25.167,0-50.333,0-75.5,0c-0.461,0-0.465-0.124-0.251-0.288c-0.125,0.001-0.25,0.009-0.375,0.01
	c-1.955,0.016,0.125-1.552,1.149-1.561c16.941-0.139,33.758-4.231,50.675-4.744c-21.194-4.37-43.098-9.989-61.307,4.621
	c-0.293,0.234-0.688,0.339-1.069,0.346c0.477,0.846-1.149,2.032-2.203,1.563c-4.165-1.853-8.479-9.344-2.62-12.215
	c2.542-1.244,6.741-0.479,9.471-0.684c4.831-0.359,9.635-0.545,14.47-0.196c0.669,0.048,0.93,0.332,0.934,0.677
	c7.517-1.269,15.294-0.847,23.158,0.274c0.43-0.325,1.066-0.616,1.496-0.623C118.95,408.484,128.726,405.367,137.955,406.715z
	 M79.235,410.341c-4.417-0.042-8.804,0.318-13.229,0.661c-1.162,0.089-2.254,0.04-3.411-0.03c-2.457,1.462-2.922,3.368-1.397,5.719
	c0.619,1.038,1.455,1.813,2.488,2.351c0.017-0.218,0.158-0.466,0.495-0.736C69.003,414.435,74.044,411.908,79.235,410.341z
	 M134.448,408.084c-7.305-0.042-14.513,1.343-21.787,1.875c10.721,1.828,21.535,4.577,31.997,5.713
	C142.175,411.687,139.844,408.117,134.448,408.084z M62.057,388.66c0.259-0.485-2.46-0.274-2.865,0.483
	c-2.242,4.202-3.402,8.688-4.356,13.313c-0.156,0.141-0.159,0.237-0.063,0.3c-0.026,0.13-0.055,0.259-0.081,0.389
	c-0.151,0.752,2.713,0.271,2.865-0.483c0.03-0.147,0.063-0.292,0.092-0.439c1.406-0.921,2.837-1.763,4.288-2.534
	c-0.076,0.317,0.136,0.569,0.853,0.57c22.105,0.021,44.207,0.439,66.312,0.496c1.236,0.003,3.027-1.87,1.065-1.875
	c-21.876-0.057-43.75-0.462-65.626-0.493c1.021-0.478,2.05-0.927,3.089-1.341c0.064,0.029,0.171,0.047,0.339,0.048
	c20.243,0.08,40.484,0.435,60.728,0.485c0.611,0.001,3.305-1.188,1.877-1.191c-19.947-0.05-39.892-0.393-59.839-0.479
	c1.552-0.523,3.119-0.99,4.703-1.398c18.11,0.125,36.219,0.412,54.33,0.45c1.068,0.002,3.092-1.616,1.133-1.62
	c-15.924-0.034-31.848-0.254-47.771-0.395c14.563-2.246,29.999-0.959,44.567-0.916c0.65,0.002,3.317-1.248,1.86-1.252
	c-17.048-0.052-35-1.5-51.676,2.123c-0.476-0.002-0.951-0.009-1.426-0.012c-0.503-0.003-1.212,0.353-1.624,0.73
	c-5.809,1.502-11.44,3.691-16.805,6.832c0.742-3.372,1.652-6.658,3.067-9.805c23.972-0.031,47.939-0.483,71.905-0.953
	c-1.378,0.855-2.778,1.605-4.252,2.352c-1.735,0.876,0.895,1.154,1.76,0.717c2.189-1.105,4.252-2.283,6.267-3.679
	c0.72-0.499,0.01-0.94-0.564-0.931c-24.795,0.486-49.591,0.97-74.392,0.996C61.898,388.984,61.971,388.82,62.057,388.66z
	 M55.763,377.411c-2.413-2.925-4.604-6.02-7.5-8.5c-0.371-0.318,0.847-0.97,1.807-1.125c0.612-0.275,1.409-0.513,1.746-0.441
	c10.313,2.16,20.148,6.099,30.294,8.878c0.682,0.188,1.371,0.372,2.064,0.557c0.854,0,1.708,0,2.562,0
	c0.889,0,1.271,0.462,1.271,0.967c10.854,2.58,22.566,3.868,32.51-1.88c0.519-0.3,3.444-0.636,2.216,0.073
	c-11.712,6.771-24.282,6.072-36.853,3.088c-9.622,0-19.245,0-28.866,0c-1.214,0-1.49-0.862-1.121-1.52
	C55.84,377.482,55.796,377.449,55.763,377.411z M52.304,369.115c2.271,2.236,4.149,4.815,6.182,7.277
	c0.099,0.119,0.074,0.252-0.03,0.385c6.38,0,12.76,0,19.14,0C68.983,374.205,60.46,371.096,52.304,369.115z M59.517,383.559
	c23.501,0.015,46.999,0.486,70.5,0.5c0.87,0.001,3.153-1.314,1.215-1.315c-23.501-0.015-46.999-0.486-70.5-0.5
	C59.862,382.242,57.579,383.558,59.517,383.559z M62.064,405.822c22.571,0.013,45.138,0.447,67.708,0.496
	c1.102,0.002,3.08-1.666,1.12-1.67c-22.57-0.05-45.138-0.484-67.708-0.498C62.083,404.15,60.105,405.82,62.064,405.822z
	 M129.073,403.48c1.097,0.002,3.082-1.66,1.122-1.664c-22.337-0.057-44.672-0.483-67.01-0.496c-1.097,0-3.082,1.662-1.122,1.664
	C84.401,402.997,106.736,403.424,129.073,403.48z M130.017,387.143c0.87,0.001,3.153-1.314,1.215-1.315
	c-23.501-0.015-46.999-0.486-70.5-0.5c-0.87-0.002-3.153,1.314-1.215,1.315C83.018,386.658,106.516,387.13,130.017,387.143z
	 M532.265,424.295c-1.383,0.615-2.837-0.719-1.684-1.565c-0.559,0.229-1.217,0.275-1.596-0.029
	c-18.353-14.726-40.229-9.213-61.51-4.855c17.436,0.303,34.76,4.635,52.211,4.777c1.957,0.016-0.119,1.568-1.149,1.561
	c-0.11-0.001-0.22-0.007-0.331-0.009c-0.432,0.164-0.855,0.287-1.043,0.287c-28.692,0-57.385,0-86.078,0
	c-0.729,0.41-1.904,0.539-2.221,0.217c-49.006,0-98.012,0-147.02,0c-0.629,0-0.436-0.229,0.021-0.485
	c-0.117-0.053-0.192-0.127-0.192-0.234c0-2.475,0-4.95,0-7.426c-2.145,0.793-4.277,1.725-6.311,2.076
	c-2.956,0.51-5.989-0.059-8.908-0.523c-10.246-1.63-19.371-2.377-29.57,0.181c-14.934,3.745-29.735,8.945-45.153,5.156
	c-0.131,0.262-0.263,0.522-0.416,0.771c-0.782,1.266-1.902,2.317-3.162,3.043c-0.003,0.002-0.007,0.004-0.011,0.006
	c-0.271,0.156-0.54,0.314-0.823,0.438c-0.238,0.377-0.693,0.676-1.312,0.676c-44.833,0-89.667,0-134.5,0
	c-1.962,0-1.47-2.234,0.227-2.234c42.828,0,85.655,0,128.482,0c-0.684-0.771-1.271-1.614-1.767-2.516
	c-5.383-0.108-10.472-1.871-13.998-5.629c-0.083-0.051-0.158-0.109-0.214-0.188c-0.133-0.184-0.278-0.357-0.414-0.54
	c-0.235-0.316-0.478-0.627-0.72-0.939c-4.55-5.85-10.189-10.819-14.365-16.976c-4.784-7.055-4.939-12.641-4.082-21
	c2.196-21.4,7.032-42.762,14.645-62.904c5.07-13.415,11.481-31.335,26.058-37.354c8.657-3.575,18.99-2.596,27.686-6.043
	c0.884-4.901,3.109-10.045,7.449-12.79c0.288-0.182,0.648-0.258,1.003-0.256c2.057-7.053,3.287-14.14,3.457-21.479
	c-2.519,0.448-5.097-0.033-7.07-2.042c-2.786-2.837-5.098-7.539-3.24-11.475c0.617-1.307,1.523-2.518,2.618-3.575
	c-2.563-6.633-4.525-13.608-5.518-20.656c-0.76-5.396-1.883-12.464,1.209-17.406c4.29-6.855,12.589-8.072,20.086-7.791
	c0.032-0.14,0.089-0.288,0.195-0.451c4.367-6.704,13.108-6.067,19.792-3.554c5.623,2.114,10.769,4.869,16.907,5.309
	c5.087,0.365,9.874-0.294,14.895-0.77c5.063-0.48,15.018-0.94,15.431,6.375c0.505,8.923-7.363,15.631-14.003,20.436
	c-0.017,6.488-0.104,13.017-0.453,19.528c0.114-0.03,0.217-0.052,0.294-0.058c5.167-0.397,6.021,4.492,4.778,8.659
	c-1.113,3.729-3.313,6.643-6.667,8.004c-0.291,1.981-0.618,3.957-0.997,5.923c-1.58,8.21-3.26,17.364-11.752,21.124
	c-1.603,0.71-3.381,1.232-5.266,1.578c-0.043,0.105-0.102,0.216-0.193,0.335c-0.171,0.223-0.341,0.44-0.512,0.658
	c3.165,0.959,3.692,4.941,3.658,8.709c-0.003,0.331-0.01,0.659-0.021,0.985c0.193-0.025,0.375-0.024,0.529,0.021
	c0.5,0.146,0.992,0.311,1.485,0.472c5.483,1.789,10.625,4.5,15.453,7.636c6.37,4.138,13.245,7.427,19.334,12
	c1.307,0.981,2.516,2.045,3.641,3.178c0.939,0.945,1.809,1.949,2.64,2.981c6.112,7.607,9.515,17.382,13.362,26.208
	c0.209,0.477-0.293,0.917-0.939,1.145c32.521,0,65.044,0,97.566,0c0.537-0.297,1.238-0.531,1.6-0.482
	c0.709,0.095,1.355,0.268,1.97,0.482c0.433,0,0.866,0,1.3,0c0.657,0,0.414,0.252-0.088,0.521c9.82,5.179,5.711,27.205,5.697,35.668
	c-0.029,18.724-0.956,37.438-0.998,56.163c24.446,0,48.893,0,73.337,0c-15.554-1.613-31.077-4.876-46.671-3.754
	c-3.329,0.566-6.628,1.031-9.881,1.301c-0.579,0.048-0.922-0.091-1.089-0.313c-0.539-0.022-0.894-0.219-0.603-0.67
	c2.756-4.291,5.202-9.25,10.754-10.062c9.616-1.405,19.537,1.632,29.166,1.795c0.838,0.015,0.926,0.299,0.679,0.618
	c7.864-1.146,15.647-1.596,23.159-0.35c0.259-0.319,0.672-0.57,1.199-0.608c5.404-0.39,10.805-0.116,16.196,0.363
	c1.897,0.168,5.853-0.685,7.594,0.565C540.524,415.82,536.616,422.361,532.265,424.295z M317.848,332.146
	c-0.06,0-0.102-0.005-0.147-0.009c-8.486,2.406-6.387,22.069-6.079,28.161c0.743,14.775,1.226,29.676,1.284,44.47
	c0,0.026,0,0.054,0,0.08c0.002,0.263-0.185,0.492-0.461,0.675c0.238,0.364,0.457,0.745,0.66,1.139
	c1.021,1.988,1.569,4.339,1.461,7.139c-0.008,0.201-0.146,0.375-0.354,0.523c38.223,0,76.446,0,114.669,0
	c0.236-14.885,0.828-29.765,0.895-44.651c0.03-6.658,0.76-13.306,0.48-19.966c-0.234-5.607-0.643-15.818-7.357-17.559
	C387.881,332.146,352.864,332.146,317.848,332.146z M269.033,279.45c-0.048,0.884-0.095,1.69-0.102,2.36
	c-0.008,0.782-0.925,1.243-1.734,1.224c-0.75,0.263-1.653,0.35-1.854-0.078c-1.321-2.813-4.543-3.906-7.449-3.241
	c-0.197,0.593-0.379,1.205-0.536,1.849c-1.23,5.084-1.779,10.319-2.019,15.537c-0.643,13.96,0.36,27.987,1.803,41.869
	c2,19.238,5.717,38.156,8.261,57.295c5.995-0.064,11.984-0.226,17.884-0.169c5.651,0.054,13.288,0.481,19.604,2.699
	c0.146-8.106,0.234-16.226,0.063-24.331c-0.148-7.003-1.008-13.952-1.41-20.943c-0.143-2.488-0.573-5.041-0.975-7.608
	c-0.369-0.087-0.686-0.29-0.844-0.647c-2.198-4.974-4.144-10.546-4.719-15.976c-0.157-1.478,2.746-2.206,2.897-0.776
	c0.301,2.84,0.982,5.717,1.873,8.528c0.062-1.8,0.319-3.576,0.893-5.31c0.344-1.043,3.271-1.425,2.908-0.326
	c-1.635,4.949-0.408,9.608,0.291,14.597c0.56,3.978,0.613,8.008,0.912,12.012c0.428,5.751,1.019,11.433,1.1,17.203
	c0.116,8.254,0.046,16.513-0.107,24.767c1.553,0.752,2.973,1.648,4.198,2.717c-0.192-16.239-1.396-32.47-1.485-48.705
	c-0.045-8.252-0.158-22.041,10.524-23.48c0.938-0.126,1.192,0.139,1.065,0.477c0.984,0,1.969,0,2.953,0
	c-0.154-0.086-0.281-0.203-0.354-0.367c-0.93-2.133-1.835-4.297-2.754-6.455c-1.085-2.548-2.189-5.089-3.387-7.57
	c-3.668-7.604-8.184-14.642-15.526-19.532c-5.415-3.605-11.284-6.46-16.689-10.075C279.608,283.84,274.449,281.172,269.033,279.45z
	 M199.609,377.539c7.459-2.391,18.632-0.359,17.964,9.309c-0.006,0.083-0.041,0.159-0.087,0.232
	c-0.024,0.255-0.163,0.52-0.393,0.736c14.04,7.584,29.644,8.537,45.308,8.473c-2.736-20.352-6.688-40.455-8.59-60.946
	c-1.252-13.497-2.255-27.22-1.244-40.768c0.083-1.11,0.179-2.225,0.289-3.339c-0.291-0.023-0.496-0.11-0.514-0.278
	c-0.363-3.32-1.493-6.031-3.119-8.353c-0.514,0.26-1.111,0.354-1.677,0.327c-2.742-0.128-4.647,3.009-6.09,4.936
	c-0.095,0.127-0.283,0.242-0.517,0.339c-0.574,0.48-1.677,0.815-2.274,0.498c-8.925-4.755-18.731-6.766-25.34-14.87
	c-7.993,2.953-17.349,3.351-25.564,5.381c-5.518,1.363-11.211,6.961-14.124,11.821c-5.172,8.629-9.28,17.855-12.598,27.346
	c-6.533,18.69-11.257,38.151-13.28,57.867c-0.463,4.516-1.748,10.084-0.222,14.487c1.216,3.51,3.186,6.653,5.475,9.563
	c2.107,2.68,4.419,5.195,6.716,7.723c-1.013-4.978-0.649-10.414,1.76-14.771c4.712-8.523,15.419-14.561,24.021-18.355
	c0.749-0.33,1.472-0.617,2.179-0.873c-5.394-2.006-11.02-2.147-16.717-2.15c-1.96-0.001-1.493-2.271,0.217-2.271
	c6.043,0.004,12.03,0.185,17.761,2.229c2.753-6.907,2.397-14.384,3.5-21.692c1.225-8.123,1.838-16.334,3.216-24.432
	c0.202-1.188,3.151-1.621,2.922-0.271c-1.53,8.994-2.719,18.313-3.556,27.396c-0.634,6.882-0.884,13.873-3.754,20.236
	C194.835,372.539,197.655,373.666,199.609,377.539z M263.872,269.716c-2.237,2.839-4.209,5.454-5.536,8.781
	c2.695-0.526,5.657-0.353,7.787,1.149C266.36,275.98,266.58,269.979,263.872,269.716z M216.397,269.956
	c-0.072,0.282-0.144,0.562-0.205,0.843c-0.098,0.444-0.192,0.888-0.267,1.327c-0.017,0.097-0.052,0.187-0.097,0.274
	c6.204,7.744,15.539,9.872,24.038,14.165c2.268-2.761,4.832-4.874,8.556-5.025c-6.725-8.331-20.089-11.482-26.455-20.639
	C219.005,263.001,217.296,266.444,216.397,269.956z M278.626,252.682c-0.121-0.103-0.22-0.23-0.285-0.393
	c-5.636-14.116-31.923-6.427-33.08,7.182c-0.034,0.399-0.31,0.71-0.677,0.918c8.68,5.553,21.511,6.913,28.458,1.067
	C275.68,259.237,277.421,256.14,278.626,252.682z M285.751,222.469c-0.283,4.873-0.724,9.732-1.396,14.554
	C288.367,234.129,290.671,223.271,285.751,222.469z M260.231,176.206c1.872,0.993,4.286,1.448,7.096,1.563
	C264.929,177.46,262.561,176.958,260.231,176.206z M224.319,259.301c6.998,11.213,24.149,13.496,29.455,25.385
	c0.334-1.747,0.746-3.477,1.28-5.17c1.596-5.066,4.589-8.386,7.783-12.436c-12.261,0.855-27.24-5.07-29.829-17.123
	c-0.311-1.447,2.59-2.208,2.897-0.776c0.81,3.77,3.232,7.069,6.528,9.682c2.169-14.682,28.665-22.6,37.323-10.116
	c0.767-3.299,1.194-6.741,1.53-9.966c-0.794,0.074-0.5-0.213,0.053-0.512c0.161-1.572,0.305-3.093,0.459-4.505
	c1.127-10.352,1.461-20.745,1.509-31.15c-0.375,0.135-0.78,0.209-1.135,0.241c-2.75,0.25-5.655-0.603-6.584-3.241
	c-9.512,6.499-24.351,6.457-33.018-0.958c0.43,2.543,0.462,5.038-0.74,7.797c-0.267,0.613-0.564,1.208-0.88,1.791
	c-0.208,0.621-0.476,1.192-0.826,1.676c-0.435,0.601-0.935,1.284-1.462,2c-1.748,2.586-3.595,5.127-4.763,8.107
	c-0.343,0.874-3.199,1.221-2.884,0.416c0.038-0.097,0.083-0.188,0.123-0.283c-0.321,0.041-0.59,0.017-0.717-0.112
	c-2.698-2.75-6.605-3.42-9.767-0.704c-0.146,0.125-0.298,0.268-0.45,0.408c0.012,0.031,0.023,0.063,0.035,0.095
	c0.114,0.293-0.368,0.631-0.972,0.851c-1.237,1.363-2.345,3.092-2.362,4.815c-0.038,3.755,3.199,11.706,8.085,11.09
	c0.078-1.131,2.052-1.555,2.719-0.768c0.871-0.105,1.712-0.028,0.57,0.545c-0.116,0.058-0.234,0.11-0.351,0.165
	C227.829,244.336,226.49,251.843,224.319,259.301z M170.603,419.556c2.038,1.323,4.424,2.223,7.137,2.564
	c-1.654-3.855-2.034-8.434-2.082-12.434c-0.015-1.258,2.913-1.729,2.932-0.238c0.035,2.931,0.326,5.953,1.095,8.791
	c0.384,1.416,2.218,6.457,4.566,7.878c0.662,0,1.324,0,1.986,0c0.133,0,0.252,0.012,0.362,0.03c0.336-0.207,0.676-0.511,1.017-0.935
	c0.816-1.015,1.449-2.196,1.967-3.476c0.557-1.373,0.981-2.86,1.358-4.371c0.686-2.748,1.217-5.578,2.103-7.965
	c3.736-10.073,10.005-21.686,21.629-23.065c-0.461-6.808-8.451-10.261-14.616-7.851c0.18,0.427,0.353,0.878,0.516,1.361
	c0.247,0.734-2.626,1.582-2.897,0.776c-1.415-4.205-3.348-6.831-7.141-6.259c-0.433,0.338-1.159,0.498-1.728,0.438
	c-0.343,0.119-0.697,0.258-1.066,0.422c-4.528,1.998-8.962,4.287-12.936,7.262c-5.247,3.928-10.771,8.275-12.12,15.023
	c-1.131,5.66-0.285,11.448,2.305,16.004C166.375,415.951,168.258,418.033,170.603,419.556z M290.782,413.46
	c0.629,0.16,0.761,0.503,0.619,0.863c3.925,0,7.85,0,11.775,0c-1.088-2.107-2.589-4.399-4.917-5.222
	c-1.673-0.59,0.686-2.103,1.73-1.733c3.012,1.063,4.785,3.615,6.177,6.354c0.106,0.21,0.054,0.417-0.091,0.601
	c1.257,0,2.515,0,3.771,0c-1.034-4.434-4.233-8.412-8.534-10.024c-0.679-0.255-0.119-0.985,0.233-1.21
	c0.61-0.391,1.379-0.505,2.058-0.251c3.09,1.16,5.687,3.51,7.383,6.369c-1.162-3.617-3.726-6.157-7.09-7.933
	c-0.467-0.004-0.867-0.15-0.99-0.496c-1.33-0.616-2.76-1.136-4.27-1.56c-6.404-1.797-14.131-2.001-20.7-1.896
	c-3.44,0.057-6.564,0.195-9.009,0.237c-1.326,0.022-2.654,0.043-3.984,0.061c-0.71,0.543-1.938,0.661-2.295,0.022
	c-16.836,0.129-33.867-0.783-48.861-9.119c-8.292,1.541-13.317,9.826-16.412,17.204c-1.319,3.145-2.618,6.407-3.451,9.72
	c-0.461,1.832-0.76,3.871-1.332,5.772c0.009,0.002,0.018,0.001,0.027,0.004c18.495,4.903,34.831-4.974,52.812-6.877
	c8.83-0.934,17.001,1.285,25.715,2.09C278.135,417.085,283.897,411.709,290.782,413.46z M284.45,423.523
	c46.216,0,92.433,0,138.649,0c0.318-0.107,0.602-0.18,0.744-0.18c1.648,0,3.297,0,4.945,0c0.009-2.621,0.035-5.243,0.074-7.863
	c-46.362,0-92.725,0-139.086,0c-0.221,0.041-0.439,0.049-0.639,0c-1.314,0-2.629,0-3.943,0c-0.207,0.041-0.414,0.084-0.621,0.135
	c0,2.522,0,5.043,0,7.565C284.573,423.302,284.528,423.417,284.45,423.523z M482.541,413.036c-7.263-0.468-14.462-2-21.737-1.958
	c-5.956,0.035-7.898,3.332-10.643,7.699C460.698,417.742,471.659,414.941,482.541,413.036z M531.116,414.057
	c-1.409,0.042-2.764-0.1-4.174-0.217c-3.43-0.284-6.852-0.5-10.279-0.506c5.031,1.549,9.912,4.026,14.576,7.769
	c0.547,0.438,0.367,0.938-0.088,1.301C534.647,420.646,537.246,413.879,531.116,414.057z M535.38,393.427
	c0.992,2.871,1.673,5.838,2.284,8.862c0.139,0.688,3.052-0.009,2.897-0.776c-0.982-4.869-2.146-9.59-4.5-14
	c-0.41-0.768-3.17,0.268-2.897,0.776c0.009,0.016,0.016,0.032,0.024,0.049c-22.658,0.044-45.312,0.476-67.969,0.488
	c-0.87,0-3.152,1.317-1.215,1.315c23.279-0.014,46.554-0.475,69.833-0.496c0.392,0.823,0.744,1.657,1.067,2.5
	c-24.907-0.022-49.81-0.508-74.711-0.996c-0.283-0.006-2.754,0.727-1.934,1.295c1.984,1.375,4.031,2.525,6.188,3.613
	c0.653,0.33,2.695-0.453,2.584-1.041c14.302-0.093,29.287-1.176,43.502,0.949c-15.021,0.139-30.041,0.338-45.063,0.37
	c-1.066,0.002-3.091,1.625-1.134,1.62c18.011-0.039,36.019-0.322,54.028-0.448c1.658,0.414,3.301,0.882,4.926,1.417
	c-18.917,0.105-37.833,0.411-56.75,0.458c-0.61,0.002-3.303,1.194-1.877,1.191c20.242-0.052,40.484-0.406,60.728-0.485
	c0.142,0,0.399-0.066,0.689-0.167c1.192,0.454,2.376,0.938,3.546,1.472c-21.165,0.052-42.327,0.428-63.492,0.481
	c-1.234,0.003-3.025,1.88-1.064,1.875c22.104-0.057,44.207-0.474,66.312-0.496c0.378,0,0.808-0.178,1.167-0.422
	c1.764,0.924,3.5,1.938,5.202,3.074c0.71,0.474,3.204-0.692,2.724-1.015c-6.215-4.151-12.859-6.838-19.758-8.563
	c0.074-0.254-0.117-0.449-0.798-0.445c-0.34,0.002-0.681,0.006-1.021,0.01c-16.651-3.74-34.677-2.17-51.668-2.12
	c-0.346,0.001-0.951,0.22-1.401,0.474c-0.929-0.484-1.83-0.986-2.718-1.52c23.805,0.466,47.609,0.91,71.42,0.921
	C534.771,393.652,535.079,393.562,535.38,393.427z M546.932,367.322c0.528-0.453-0.459-0.567-0.704-0.553
	c-0.684,0.041-1.41,0.264-1.935,0.713c-1.401,1.199-2.636,2.545-3.812,3.942c-8.514,2.249-17.572,5.761-26.692,8.353
	c-1.688,0-3.376,0-5.065,0c-1.13,0-1.717,0.99-1.412,1.656c-11.156,2.485-22.229,2.816-32.332-3.022
	c-0.722-0.417-3.095,0.772-2.731,0.981c11.307,6.537,23.762,5.689,36.208,2.629c0.017,0,0.029,0.004,0.046,0.004
	c9.833,0,19.667,0,29.5,0c1.702,0,2.185-2.248,0.224-2.248c-7.236,0-14.473,0-21.709,0c7.873-2.399,15.641-5.232,23.008-7.19
	c-0.912,1.127-1.805,2.273-2.729,3.396c-0.642,0.777,2.172,0.404,2.64-0.16c1.096-1.33,2.149-2.692,3.242-4.02
	c0.557-0.129,1.114-0.257,1.666-0.373c1.13-0.236,2.57-1.48,0.543-1.057c-0.408,0.086-0.822,0.184-1.236,0.275
	C544.667,369.473,545.737,368.344,546.932,367.322z M464.005,387.059c23.501-0.014,46.999-0.485,70.5-0.5
	c0.87,0,3.152-1.317,1.215-1.315c-23.501,0.014-46.999,0.485-70.5,0.5C464.35,385.744,462.067,387.06,464.005,387.059z
	 M464.345,409.318c22.57-0.049,45.139-0.483,67.708-0.496c1.101,0,3.08-1.672,1.12-1.672c-22.57,0.014-45.139,0.448-67.708,0.498
	C464.364,407.65,462.385,409.322,464.345,409.318z M532.052,405.984c1.096-0.002,3.082-1.666,1.122-1.664
	c-22.338,0.013-44.672,0.439-67.01,0.496c-1.095,0.002-3.081,1.668-1.122,1.664C487.379,406.424,509.714,405.997,532.052,405.984z
	 M326.72,282.391c-0.027-0.029-0.044-0.063-0.044-0.102c0-38,0-76,0-114c0-0.177,0.118-0.335,0.302-0.473
	c0.368-0.458,1.065-0.89,1.67-0.89c54,0,108,0,162,0c0.637,0,0.879,0.207,0.881,0.484c0.027,0.029,0.045,0.063,0.045,0.102
	c0,38,0,76,0,114c0,0.177-0.118,0.335-0.301,0.473c-0.369,0.458-1.066,0.89-1.67,0.89c-54,0-108,0-162,0
	C326.965,282.876,326.722,282.669,326.72,282.391z M488.676,168.876c-53.034,0-106.067,0-159.103,0c0,37.35,0,74.701,0,112.051
	c53.033,0,106.067,0,159.103,0C488.676,243.577,488.676,206.226,488.676,168.876z M344.926,258.842
	c-0.283-0.709,0.397-1.267,1.179-1.433c2.771-4.404,4.52-9.346,7.334-13.728c0.217-0.337,0.87-0.56,1.502-0.661
	c0.393-0.331,0.959-0.576,1.463-0.518c6.143,0.704,11.435,3.952,17.33,5.558c0.699,0.19,0.719,0.573,0.428,0.938
	c0.104,0.042,0.162,0.103,0.14,0.188c-1.597,5.967-4.431,11.415-7,17c-0.133,0.289-0.655,0.494-1.216,0.611
	c-0.235,0.402-0.697,0.739-1.322,0.777C357.891,268,347.786,266.027,344.926,258.842z M347.674,257.812
	c0.06,0.075,0.111,0.158,0.149,0.254c2.408,6.047,11.445,7.617,17.162,7.265c0.039-0.002,0.071,0.002,0.108,0.001
	c2.388-5.105,4.89-10.141,6.354-15.613c0.002-0.012,0.013-0.022,0.017-0.034c-5.364-1.571-10.292-4.541-15.888-5.249
	c-2.451,4.159-4.15,8.715-6.768,12.788C348.636,257.497,348.176,257.692,347.674,257.812z M354.134,192.549
	c-0.031-0.118,0.059-0.243,0.219-0.362c-0.271-0.45-0.008-1.125,0.996-1.399c5.924-1.614,11.217-4.864,17.395-5.572
	c0.628-0.072,0.979,0.073,1.117,0.31c0.512-0.085,0.984-0.043,1.172,0.248c2.873,4.471,4.627,9.529,7.5,14
	c0.057,0.088,0.015,0.196-0.092,0.308c0.746,0.037,1.365,0.454,1.037,1.279c-2.929,7.354-13.394,9.34-20.381,8.911
	c-0.583-0.036-0.859-0.257-0.927-0.545c-0.496,0.086-0.927,0.063-1.036-0.176C358.563,203.964,355.729,198.516,354.134,192.549z
	 M357.139,192.138c1.545,5.576,4.142,10.711,6.568,15.939c0.118-0.021,0.239-0.034,0.36-0.026
	c5.601,0.345,14.281-1.217,16.621-7.089c0.022-0.058,0.056-0.11,0.088-0.162c-0.5,0.079-0.961,0.034-1.144-0.251
	c-2.757-4.291-4.495-9.117-7.168-13.451c-0.015,0.002-0.028,0.006-0.043,0.008C367.038,187.723,362.257,190.505,357.139,192.138z
	 M379.956,227.542c3.482-5.04,6.695-10.264,11.041-14.628c0.05-0.05,0.129-0.099,0.224-0.146c-0.021-0.825,2.14-1.569,2.845-0.831
	c4.246,4.439,9.744,7.538,13.334,12.609c0.242,0.342,0.146,0.676-0.119,0.95c0.494-0.008,0.844,0.093,0.729,0.325
	c-2.335,4.723-5.776,8.77-8.11,13.492c-0.119,0.243-0.463,0.435-0.871,0.569c0.944,0.41,0.346,1.999-1.021,2.164
	c-7.667,0.929-14.416-7.063-17.438-13.217c-0.217-0.441-0.104-0.853,0.172-1.175C380.253,227.679,379.891,227.636,379.956,227.542z
	 M405.286,226.094c-0.234-0.051-0.432-0.158-0.557-0.334c-3.339-4.717-8.324-7.745-12.424-11.719
	c-3.611,3.979-6.445,8.553-9.498,12.97c-0.019,0.026-0.045,0.051-0.068,0.075c0.201,0.084,0.369,0.222,0.474,0.434
	c2.394,4.872,7.707,12.109,13.797,12.332c0-0.025,0.002-0.05,0.017-0.079c2.334-4.723,5.775-8.77,8.109-13.492
	C405.169,226.214,405.224,226.152,405.286,226.094z M408.907,263.435c-0.127-0.075-0.202-0.182-0.189-0.336
	c0.438-5.295-0.329-10.585,0.107-15.882c0.021-0.274,0.406-0.526,0.886-0.697c0.026-0.254,0.263-0.521,0.823-0.737
	c5.816-2.233,11.971-1.875,17.98-3.194c0.982-0.216,1.553,0.227,1.575,0.729c0.188,0.025,0.315,0.087,0.341,0.198
	c1.363,6.025,1.404,12.163,1.732,18.303c0.017,0.293-0.413,0.543-0.945,0.715c0.006,0.353-0.203,0.739-0.729,1.057
	c-5.918,3.576-15.931,6.489-21.862,1.5C407.946,264.516,408.282,263.837,408.907,263.435z M411.757,247.261
	c-0.029,0.011-0.061,0.018-0.089,0.027c-0.347,5.118,0.344,10.232-0.078,15.353c-0.021,0.259-0.368,0.499-0.812,0.668
	c0.021,0.016,0.045,0.025,0.065,0.042c5.002,4.207,13.38,1.396,18.329-1.596c0.018-0.011,0.035-0.016,0.053-0.026
	c-0.287-5.746-0.396-11.484-1.629-17.126C422.319,245.527,416.792,245.328,411.757,247.261z M426.002,206.114
	c1.347-5.998,2.399-12.048,4.75-17.761c0.046-0.113,0.158-0.212,0.304-0.301c-0.152-0.721,1.439-1.597,2.285-1.254
	c5.641,2.292,11.834,2.903,17.125,6.059c0.35,0.208,0.416,0.456,0.314,0.696c0.461,0.002,0.811,0.133,0.783,0.458
	c-0.441,5.295-2.09,10.384-2.531,15.68c-0.019,0.212-0.256,0.411-0.584,0.57c0.8,0.304,1.144,1.304-0.006,1.977
	c-6.758,3.955-15.986-0.329-21.325-4.913c-0.356-0.305-0.427-0.638-0.327-0.945C426.312,206.402,425.954,206.328,426.002,206.114z
	 M428.903,205.365c0.156,0.043,0.303,0.114,0.428,0.221c4.213,3.617,11.863,7.853,17.402,5.009
	c-0.353-0.038-0.598-0.173-0.574-0.447c0.439-5.271,2.072-10.337,2.523-15.607c-0.183-0.013-0.35-0.053-0.484-0.132
	c-4.648-2.772-10.053-3.495-15.098-5.272C431.132,194.39,430.124,199.896,428.903,205.365z M457.953,229.601
	c0.433-0.405,1.034-0.479,1.53-0.346c0.533-0.187,1.1-0.307,1.354-0.225c5.834,1.876,11.755,3.448,17.199,6.334
	c0.017,0.009,0.024,0.022,0.022,0.039c0.394,0.129,0.598,0.414,0.331,0.889c-3.06,5.462-4.543,11.626-8.403,16.643
	c-0.209,0.272-0.601,0.446-1.017,0.521c-0.561,0.324-1.438,0.605-1.808,0.543c-5.006-0.853-9.715-2.828-14.695-3.761
	c-0.732,0.526-2.127,0.587-2.512-0.315C446.944,242.862,453.03,234.212,457.953,229.601z M452.793,248.97
	c0.38-0.127,0.747-0.202,0.954-0.167c4.697,0.799,9.132,2.588,13.775,3.579c0.027-0.044,0.049-0.087,0.084-0.134
	c3.644-4.734,5.053-10.669,7.885-15.858c-0.07-0.013-0.137-0.03-0.191-0.059c-4.788-2.54-9.953-4.048-15.097-5.661
	c-0.073,0.12-0.165,0.242-0.298,0.367C455.549,235.117,450.305,242.765,452.793,248.97z" fill="#070707"></path>
</svg>