<?xml version="1.0" standalone="no"?>
<svg version="1.1" id="Layer_1" xmlns="http://www.w3.org/2000/svg" xmlns:xlink="http://www.w3.org/1999/xlink" x="0px" y="0px" width="850.394px" height="595.28px" viewBox="0 0 850.394 595.28" enable-background="new 0 0 850.394 595.28" xml:space="preserve">
<path id="color_x5F_2" fill="#e25959" d="M730.55,386.424c-0.454-0.016-0.911-0.014-1.372,0.003c0.271-0.026,0.53-0.044,0.76-0.044
	C730.154,386.383,730.355,386.399,730.55,386.424z M718.771,391.155c-4.488,1.804-12.553,3.829-14.933,8.557
	c-2.08,4.134,1.015,8.738,3.847,12.208c4.592-3.477,14.026-4.747,18.788-5.586c-0.115-0.106-0.226-0.217-0.342-0.321
	c-0.312-0.282,0.189-0.33,0.949-0.245c3.254-3.324,6.98-8.169,5.954-12.652C731.522,386.513,723.03,389.444,718.771,391.155z
	 M703.272,395.717c0,0-2.331,1.009-3.461,3.485c0.231-0.322,0.487-0.641,0.784-0.954c0.937-0.988,2.018-1.907,3.198-2.765
	C703.457,395.634,703.272,395.717,703.272,395.717z M764.402,435.047c-0.001-0.138,0.016-0.267,0.044-0.387
	c-1.214-0.016-2.457,0.176-3.715,0.617c-3.554,5.025-5.546,11.055-7.223,16.974c8.618,1.326,16.693,6.897,25.435,6.519
	c0.201-0.009,0.387-0.033,0.564-0.069c-0.228,0.016-0.473-0.009-0.734-0.091C768.233,455.308,764.467,445.315,764.402,435.047z
	 M777.719,443.172c-2.354-3.3-5.711-6.476-9.56-7.829c0.112,8.388,2.769,17.377,11.615,20.149c1.563,0.49,1.549,2.054,0.702,2.805
	C783.89,455.945,779.373,445.492,777.719,443.172z M567.655,404.775c-0.866,0.925-1.669,1.904-2.383,2.941
	c-0.06,0.087-0.115,0.175-0.175,0.262c0.067,0.019,0.142,0.04,0.221,0.067C566.05,406.948,566.833,405.853,567.655,404.775z
	 M643.542,394.01c-0.524-0.201-1.033-0.442-1.527-0.719c-3.7,10.684-24.137,5.907-28.633-2.182
	c-0.067-0.037-0.106-0.059-0.106-0.059h-3.442c-1.114,0.28-2.32,0.406-3.401,0.205c-2.103,0.471-3.881,0.826-5.131,1.002
	c-2.69,0.498-5.536,0.674-8.346,0.488c1.582,0.562,3.186,1.385,4.807,2.531c1.654,1.169,2.367,5.434-0.301,3.548
	c-12.934-9.142-25.254,6.169-30.983,16.554c-2.868,5.199-5.616,10.885-6.766,16.757c-0.502,2.562-2.09,9.807,1.572,10.929
	c7.875,2.414,18.231-5.898,23.653-10.59c1.056-0.914,2.221-1.941,3.419-3.059c-0.206-0.411,0.021-0.499,0.435-0.409
	c5.478-5.183,11.459-12.225,10.896-19.315c-0.235-2.956,3.702-0.476,3.85,1.384c0.613,7.706-4.628,15.124-10.56,20.958
	c2.701,2.8,5.829,5.155,9.212,7.157c1.296,0.707,2.651,1.438,4.046,2.178c6.331,3.095,13.266,5.169,19.852,6.71
	c3.948,0.923,7.932,1.711,11.951,2.262c0.949,0.129,1.898,0.255,2.851,0.352c-0.059-0.014-0.094-0.109,0.318-0.824
	c4.765-8.264,9.559-16.657,15.2-24.361c6.042-8.252,14.808-17.934,25.41-19.807c-8.157-4.457-16.924-3.695-25.987-4.495
	C650.345,400.721,645.442,399.235,643.542,394.01z M564.688,409.008c-0.093,0.006-0.187,0.004-0.281,0.006
	c-3.25,4.92-5.91,10.064-7.521,14.867c0.097-0.008,0.192-0.013,0.294-0.029c1.933-5.321,4.705-10.319,6.791-13.706
	C564.204,409.769,564.443,409.389,564.688,409.008z M591.669,433.28c0.155,0.09,0.358,0.208,0.6,0.348
	c-0.16-0.152-0.332-0.293-0.49-0.447C591.742,433.215,591.706,433.246,591.669,433.28z M555.373,430.286
	c0.325-1.708,0.79-3.435,1.358-5.14c-0.077-0.003-0.152-0.018-0.229-0.022C555.962,426.912,555.58,428.642,555.373,430.286z
	 M220.543,282.706c-0.683-0.979-1.372-2.066-2.22-2.949c-1.122-0.749-2.282-1.393-3.361-1.762c-1.96-0.181-3.923,0.849-5.75,1.954
	c-3.459,2.093-6.652,4.528-9.762,7.104c-0.206,0.17-0.611,0.28-1.09,0.341l0.173,0.691c0.042,0.083,0.095,0.17,0.122,0.246
	c0.863,2.427,1.791,4.96,2.868,7.446l5.085-3.391l2.547-1.176c3.484-1.919,7.067-3.622,10.85-5.007l2.606-1.203
	C221.864,284.345,221.163,283.595,220.543,282.706z M398.033,236.008c-0.621-0.088-1.244-0.169-1.87-0.243
	c-0.19-0.022-0.375-0.067-0.557-0.12c-1.467,1.801-3.085,3.486-4.819,5.062c4.268,2.701,8.887,5.024,12.679,8.384l1.475-1.32
	c2.102-2.7,4.05-5.57,5.81-8.623c-0.485-0.18-0.972-0.348-1.459-0.514L398.033,236.008z M401.275,251.054l0.423-0.379
	c-1.49-1.18-3.081-2.232-4.709-3.23L401.275,251.054z M388.608,240.387l0.269,0.226c0.013-0.013,0.027-0.024,0.039-0.037
	c0.021-0.418,0.193-0.683,0.577-0.6c0.915-0.97,1.762-1.996,2.574-3.047L388.608,240.387z M314.876,284.661
	c-1.355-8.413-3.485-17.145-7.087-25.09c-0.392,0.06-0.751,0.059-0.995-0.041c-3.878-1.586-7.941-3.38-11.638-5.567
	c-0.1,0.125-0.203,0.254-0.306,0.391c-1.171,1.548-2.419,3.044-3.712,4.492c-1.179,1.32-2.39,2.707-3.771,3.835
	c8.297,22.142,13.432,45.2,12.377,69.117c4.533,0,9.067,0,13.601,0c-0.232-0.474-0.324-1.015-0.167-1.573
	C317.281,315.578,317.283,299.602,314.876,284.661z M297.225,243.854c-0.646,2.089-1.132,4.238-1.41,6.446
	c-0.019,0.147-0.143,0.264-0.327,0.357c3.301,2.267,7.044,4.142,10.778,5.776C303.869,251.821,300.896,247.557,297.225,243.854z
	 M291.206,253.468c0.21-0.283,0.933-1.018,0.938-1.449c-0.115-0.081-0.236-0.156-0.35-0.238c-0.348-0.25-0.405-0.517-0.283-0.766
	c-3.298-1.795-6.862-3.049-10.546-3.945c1.812,4.084,3.537,8.201,5.155,12.35c0.726-0.76,1.438-1.532,2.125-2.326
	C289.266,255.915,290.275,254.72,291.206,253.468z M606.458,268.207c3.303-19.927,37.941-16.337,42.699,0.985
	c0.724,2.634,5.538,1.458,4.762-1.368c-5.888-21.436-48.322-24.707-52.331-0.522C601.109,270.192,606.012,270.9,606.458,268.207z
	 M638.478,277.896c0.575,2.655,5.379,1.485,4.762-1.368c-3.599-16.612-30.161-16.06-33.154,0.634
	c-0.518,2.886,4.388,3.595,4.87,0.905C617.221,265.434,635.807,265.567,638.478,277.896z M621.776,283.72c0,2.485,2.015,4.5,4.5,4.5
	s4.5-2.015,4.5-4.5s-2.015-4.5-4.5-4.5S621.776,281.234,621.776,283.72z"></path>
<path id="color_x5F_1" d="M421.908,201.909c-4.573,0.659-9.283-0.044-12.032-4.117c-0.937-1.389,0.297-2.815,1.491-3.435
	c2.32-1.205,4.501-2.78,4.595-5.181c-0.641,0.066-1.302,0.078-1.988,0.083c-3.149,0.021-1.36-4.397,1.271-4.415
	c0.526,0.057,1.037-0.001,1.53-0.174c1.188-0.813,2.934-0.659,3.471,0.815c1.753,4.813-1.027,8.493-4.684,11.083
	c1.792,1.241,4.099,1.293,6.416,0.96C425.208,197.061,424.684,201.509,421.908,201.909z M479.263,154.392
	c0.966,0.5,2.172,0.992,3.279,0.992c1.111,0,2.223,0,3.334,0c1.068,0-0.348-0.883-0.587-1.007c-0.966-0.5-2.172-0.992-3.279-0.992
	c-1.111,0-2.222,0-3.333,0C477.608,153.385,479.024,154.269,479.263,154.392z M101.314,449.277l-1.465-0.215l0.946,0.344
	L101.314,449.277z M97.276,449.964c0.331-0.028,0.974-0.083,1.225,0.063l-0.345-0.649L97.276,449.964z M477.843,163.662c2,0,4,0,6,0
	c1.177,0,2.448-0.339,3.347-1.14c0.685-0.61,0.531-1.414-0.481-1.414c-2,0-4,0-6,0c-1.177,0-2.448,0.339-3.347,1.14
	C476.677,162.858,476.831,163.662,477.843,163.662z M496.128,153.484c1.265-0.573,2.224-0.748,3.161-0.468
	c-2.662,2.96-5.636,7.196-4.018,10.946c2.342,5.428,9.99,3.537,14.19,2.189c2.6-0.833-0.996-4.187-3.038-3.532
	c-2.037,0.653-4.185,1.288-6.348,1.129c-0.175-0.013-0.362-0.112-0.466-0.166c-0.09-0.256-0.041-0.689-0.029-0.883
	c0.175-3.081,2.942-6.072,4.961-8.135c0.892-0.911,0.19-2-0.577-2.698c-3.15-2.868-6.958-3.689-10.875-1.915
	C490.546,151.104,494.149,154.381,496.128,153.484z M490.972,194.836c1.63-4.435,5.352-7.33,9.434-9.429
	c1.682-0.865,4.142,0.609,4.088,2.007c1.362-0.521,3.097-0.555,3.19,0.298c0.308,2.815,0.264,5.549-0.145,8.238
	c0.143,0.526,0.068,1.091-0.274,1.55c-0.363,1.746-0.882,3.476-1.586,5.194c-0.613,1.497-5.374,2.1-4.807,0.715
	c0.636-1.553,1.118-3.109,1.474-4.677c-3.388,0.224-6.809-0.061-10.015-1.235C491.168,197.07,490.541,196.009,490.972,194.836z
	 M496.579,194.563c2.097,0.379,4.263,0.33,6.393,0.095c0.14-1.83,0.105-3.691-0.104-5.602c-0.001-0.01,0.003-0.02,0.002-0.03
	C500.286,190.426,498.055,192.123,496.579,194.563z M463.588,151.6c0.513-0.329,1.046-0.654,1.594-0.957
	c-0.965,2.636-2.083,5.228-2.623,8c-0.396,2.032,3.577,4.836,4.1,2.15c0.85-4.366,3.148-8.29,4-12.666
	c0.273-1.403-1.403-3.351-2.841-3.251c-2.796,0.193-5.2,1.47-7.521,2.959C458.477,149.004,461.668,152.833,463.588,151.6z
	 M477.26,192.513c0.222,0,0.445,0,0.667,0c1.193,0,2.506-0.795,2.516-2.109c0.009-1.302-1.291-2.146-2.484-2.146
	c-0.222,0-0.445,0-0.667,0c-1.193,0-2.506,0.795-2.516,2.109C474.767,191.668,476.067,192.513,477.26,192.513z M475.461,200.648
	c2,0,4,0,6,0c1.057,0-0.561-4.526-1.704-4.526c-2,0-4,0-6,0C472.701,196.122,474.318,200.648,475.461,200.648z M449.613,187.463
	c-0.067,1.193,1.119,1.926,2.216,1.667c0.803-0.189,2.567-0.778,3.36-0.393c-0.003,0.041-0.005,0.083-0.023,0.16
	c-0.114,0.497-0.336,0.962-0.57,1.41c-1.261,2.413-3.044,4.547-4.627,6.749c-0.65,0.905-0.4,2.318,0.732,2.675
	c2.666,0.841,5.703,1.465,8.461,0.732c1.175-0.312,2.369-1.156,2.443-2.49c0.065-1.169-1.121-1.958-2.216-1.667
	c-1.286,0.341-2.615,0.264-3.916,0.006c1.754-2.287,3.583-4.723,4.207-7.443c1.126-4.911-4.419-4.652-7.624-3.896
	C450.877,185.25,449.687,186.153,449.613,187.463z M452.441,152.283c-0.037-0.908-2.002-0.856-2.538-0.86
	c-1.214-0.01-2.422-0.041-3.622-0.051c0.042-1.276-0.007-2.563-0.194-3.865c-0.197-1.376-4.416-3.124-4.29-2.243
	c0.305,2.128,0.269,4.203-0.009,6.254c-2.139,0.2-4.245,0.645-6.307,1.592c-0.859,0.395-0.869,1.048,0.056,1.361
	c1.063,0.36,2.506,0.327,3.532-0.145c0.77-0.354,1.559-0.587,2.359-0.755c-0.245,1.156-0.552,2.309-0.923,3.462
	c-0.436,1.359,3.947,3.513,4.207,2.703c0.69-2.149,1.199-4.311,1.438-6.5c1.278,0.028,2.562,0.101,3.831,0.111
	C450.515,153.352,452.477,153.156,452.441,152.283z M437.147,197.629c0.507-0.157,1.016-0.258,1.526-0.337
	c-0.004,0.424-0.013,0.847-0.013,1.272c0,1.169,0.956,2.31,1.914,2.876c0.694,0.41,1.983,0.604,1.983-0.569
	c0-1.273,0.012-2.548,0.05-3.822c0.817-0.091,1.792-0.376,1.832-1.213c0.038-0.792-0.886-1.227-1.686-1.4
	c0.087-1.058,0.203-2.113,0.396-3.161c0.212-1.148-0.476-2.208-1.34-2.926c-0.406-0.338-2.197-1.337-2.409-0.19
	c-0.387,2.091-0.564,4.181-0.654,6.28c-1.353,0.097-2.692,0.292-4.009,0.701c-0.785,0.244-1.814,0.979-0.985,1.834
	C434.544,197.79,436.111,197.951,437.147,197.629z M426.354,451.978c-0.021,0-0.038-0.001-0.063-0.001
	C426.508,452.062,426.471,452.045,426.354,451.978z M368.291,454.352c1.111-0.542,1.743-0.477,2.584-0.364l-0.863-1.25
	L368.291,454.352z M250.218,454.729l-0.083-0.005c-0.046,0.028-0.07,0.058-0.084,0.086L250.218,454.729z M416.562,453.898
	c-0.506-0.068-0.789-0.157-0.977-0.248C415.558,453.769,415.788,453.868,416.562,453.898z M413.585,452.2l0.489-0.009l-0.072-1.018
	L413.585,452.2z M280.665,454.402l-0.775,0.11C280.257,454.479,280.492,454.442,280.665,454.402z M286.27,454.438l0.138-0.195
	C286.147,454.351,286.041,454.43,286.27,454.438z M469.088,450.501c0.126,0.406,1.113,0.266,2.215,0.189
	c-0.066,0.001-0.128,0.005-0.195,0C471.431,450.122,470.257,450.312,469.088,450.501z M416.83,152.089
	c0.013,3.822-1.309,7.84-1.784,11.469c-0.37,2.833,4.047,4.809,4.46,1.652c0.882-6.753,3.255-13.275,0.428-19.872
	c-0.689-1.609-3.118-1.917-4-0.338c-0.633,1.134-1.367,2.199-2,3.333C412.812,150.346,415.097,152.66,416.83,152.089z
	 M329.921,453.694c0.334,0.097,0.813,0.19,1.486,0.277L329.921,453.694z M370.899,454.023c0.034-0.004,0.052-0.016,0.083-0.021
	c-0.034-0.005-0.076-0.011-0.107-0.015L370.899,454.023z M464.931,451.362c-0.306,0.006-0.964,0.023-1.417,0.085
	C464.079,451.457,464.617,451.445,464.931,451.362z M447.257,453.023l0.906-0.242c-0.52-0.103-0.556-0.215-0.849-0.379
	L447.257,453.023z M468.974,451.741l1.013,0.095l-0.397-0.5L468.974,451.741z M442.556,452.936c-0.191,0.173-2.789,0.5-0.352,0.457
	C442.398,453.221,444.324,453.075,442.556,452.936z M442.344,451.419l-1.922,0.147c-0.195,0.172,0.329,0.276,1.044,0.207
	C441.926,451.652,442.639,451.585,442.344,451.419z M465.814,451.853l1.765,0.138l-0.521-0.104L465.814,451.853z M461.28,451.483
	l1.762,0.136c-0.027-0.084,0.197-0.134,0.471-0.172C462.428,451.433,461.238,451.335,461.28,451.483z M463.359,451.052
	c0.059-0.105,0.16-0.171,0.289-0.211C463.493,450.89,463.376,450.952,463.359,451.052z M331.515,453.764
	c-0.15-0.082-0.191-0.171-0.227-0.262C331.08,453.583,331.075,453.677,331.515,453.764z M461.055,449.122
	c0.25,0.016,0.448,0.029,0.635,0.041C461.781,449.09,461.7,449.045,461.055,449.122z M460.109,449.131
	c-0.213,0.005-0.514,0.013-1.012,0.025c0.415-0.007,0.803,0.012,1.176,0.043C460.131,449.17,460.071,449.146,460.109,449.131z
	 M460.109,449.131C460.835,449.102,460.224,449.083,460.109,449.131L460.109,449.131z M461.203,449.327
	c-0.273-0.053-0.587-0.097-0.929-0.127C460.424,449.232,460.706,449.274,461.203,449.327z M436.391,449.259
	c-0.867-0.184-1.858-0.296-2.811,0.006c0.172,0.043,0.34,0.064,0.515,0.101C434.807,449.293,435.522,449.233,436.391,449.259z
	 M332.205,452.175c0.107,0.043,0.219,0.087,0.33,0.131c0.273-0.149,0.53-0.29,0.762-0.416
	C332.968,451.976,332.596,452.073,332.205,452.175z M278.818,455.034l0.342,0.014l-0.638-0.588L278.818,455.034z M389.798,449.485
	c-1.128-0.367-2.389-0.938-2.252-0.494l0.347,0.433C388.681,449.346,389.284,449.394,389.798,449.485z M106.681,449.833
	c0.318-0.026,0.838-0.026,1.328-0.031C107.771,449.772,107.37,449.774,106.681,449.833z M139.026,454.265
	c-0.081-0.02-0.178-0.029-0.251-0.052C138.75,454.271,138.862,454.275,139.026,454.265z M282.877,449.802
	c-0.474,0.078-0.677,0.166-0.663,0.263C282.702,449.991,282.978,449.909,282.877,449.802z M438.82,449.517
	c-0.974-0.167-1.748-0.237-2.429-0.257C437.564,449.506,438.511,449.878,438.82,449.517z M198.515,453.204
	c-0.048-0.014-0.104-0.022-0.155-0.041C197.626,453.342,197.948,453.313,198.515,453.204z M250.051,454.811l-0.904,0.44
	C250.561,455.251,249.938,455.027,250.051,454.811z M298.686,455.553l0.112-0.156c-0.227-0.169-0.569-0.183-1.256-0.21
	L298.686,455.553z M389.52,453.897c0.22-0.04,0.454-0.089,0.702-0.156C389.823,453.806,389.635,453.855,389.52,453.897z
	 M389.52,453.897c-1.375,0.257-2.097,0.114-1.465,0.783c2.278,0.24,0.54-0.629,2.6-0.328
	C391.188,454.111,388.971,454.106,389.52,453.897z M262.142,455.755c0.68,0.025,1.48-0.104,2.164-0.078
	C262.822,455.78,261.958,455.022,262.142,455.755z M495.764,449.357l-0.021-0.014c-0.659-0.011-1.116-0.018-1.312-0.021
	C494.599,449.327,495,449.337,495.764,449.357z M496.459,450.021l0.802-0.137l-0.608-0.035L496.459,450.021z M495.743,449.344
	c0.185,0.001,0.395,0.003,0.608,0.005c-0.12-0.092-0.351-0.332-1.217-0.432L495.743,449.344z M496.351,449.349
	c0.059,0.042,0.094,0.056,0.153,0.001C496.448,449.35,496.406,449.35,496.351,449.349z M500.524,449.156l-1.543,0.263
	C500.361,449.448,500.612,449.324,500.524,449.156z M499.947,448.558c-0.086,0.152,0.472,0.404,0.578,0.598l1.031-0.176
	C501.024,448.877,500.019,448.783,499.947,448.558z M499.021,449.583l-1.76,0.301l1.641,0.095
	C498.869,449.866,498.572,449.702,499.021,449.583z M477.782,449.454l3.285,0.05l-0.228,0.06l0.667-0.05
	c-0.761-0.068-1.306-0.225-2.309-0.534C478.088,449.174,477.858,449.322,477.782,449.454z M484.669,449.271l0.015-0.001
	l-0.003,0.007c0.136,0.054,0.181,0.086,0.028,0.055c-0.011,0.006-0.049,0.008-0.066,0.009c-0.021,0.06-0.08,0.113-0.142,0.163
	c-0.915-0.087-0.144-0.112,0.142-0.163c0.01-0.021,0.035-0.041,0.038-0.064L484.669,449.271l-3.163,0.242
	c0.67,0.059,1.508,0.045,2.995-0.007c-0.519,0.432-2.12,0.618-1.136,1.082c1.958-0.033,1.37-0.362,2.538-0.551
	c-3.158,0.112,0.906-0.242-1.377-0.482c0.621-0.075,1.178-0.098,1.706-0.117c-0.569-0.051-1.118-0.115-1.635-0.194
	C484.625,449.255,484.645,449.262,484.669,449.271z M483.374,449.012c0.368,0.088,0.785,0.164,1.223,0.232
	C484.237,449.11,483.503,448.9,483.374,449.012z M493.367,448.73l0.683-0.181l0.874-0.353L493.367,448.73z M500.39,451.64
	c-0.098-0.038-0.094-0.069-0.102-0.1C500.084,451.593,500.007,451.629,500.39,451.64z M477.751,449.527
	c0.01-0.025,0.018-0.049,0.031-0.074l-0.17-0.004C477.659,449.476,477.703,449.5,477.751,449.527z M488.588,449.203
	c-0.707,0.188-1.482,0.204-2.357,0.236c0.938,0.082,1.909,0.126,2.83,0.124C489.19,449.427,489.594,449.186,488.588,449.203z
	 M490.747,449.485c0.429-0.035,0.827-0.082,1.172-0.145c-0.087-0.03-0.175-0.076-0.238-0.118
	C491.317,449.285,491.032,449.391,490.747,449.485z M491.68,449.222c0.035-0.006,0.067-0.012,0.105-0.019
	C491.554,449.111,491.583,449.157,491.68,449.222z M517.905,450.265c0.957,0.712,3.649-0.122,5.445,0.129l0.297,0.162l0.806-0.576
	C522.272,450.076,519.442,450.462,517.905,450.265z M512.525,448.73c0.333,0.277-1.161,0.241,1.253,0.085
	c-0.122-0.03-0.157-0.048-0.228-0.07C513.333,448.75,513.034,448.75,512.525,448.73z M513.55,448.746
	C514.611,448.724,512.854,448.513,513.55,448.746L513.55,448.746z M497.63,450.434c-0.032-0.031-0.064-0.06-0.096-0.093
	C497.488,450.353,497.537,450.389,497.63,450.434z M784.86,458.543c-2.733,4.778-9.788,3.954-14.181,2.864
	c-7.269-1.805-14.59-5.698-22.149-5.942c-0.559-0.018-0.892-0.159-1.057-0.372c-2.912-0.087-5.82-0.254-8.731-0.358
	c-4.575,4.516-10.86,7.33-17.708,8.613c-13.993,2.621-28.724,2.213-42.767,0.167c-11.467-1.671-23.245-4.347-33.66-9.652
	c-0.018,0.031-0.036,0.062-0.053,0.092c-0.15,0.124-0.322,0.155-0.515,0.095c-17.981-1.68-38.325-7.644-51.77-20.421
	c-0.16-0.152-0.332-0.293-0.49-0.447c-0.037,0.034-0.073,0.065-0.11,0.1c-2.174,2.025-4.387,3.834-6.399,5.357
	c-4.235,3.207-11.47,8.292-18.03,9.028c-0.031,0.344-0.26,0.591-0.794,0.636c-7.52,0.631-13.561,3.376-20.285,6.625
	c-0.545,0.264-1.366-0.092-2.084-0.678c-0.661,0.523-1.614,0.683-2.604,0.083c-5.477-3.323-11.622-5.797-17.611-8.014
	c-7.668-2.838-15.848-5.531-24.094-5.687c-3.066-0.058-3.562-4.557-0.314-4.495c0.365,0.007,0.73,0.024,1.095,0.04
	c12.443-10.385,31.739-18.304,48.088-14.754c-0.739-1.312-0.952-3.013-0.354-5.184c1.091-3.967,3.656-6.354,6.847-7.58
	c0.008-0.108,0.034-0.216,0.087-0.326c2.015-4.144,3.376-8.628,6.194-12.336c1.112-1.463,5.718,0.376,4.401,2.109
	c-2.172,2.858-3.411,6.24-4.831,9.515c1.299-0.01,2.619,0.1,3.92,0.313c0.044,0.007,0.115,0.024,0.197,0.046
	c0.067,0.019,0.142,0.04,0.221,0.067c0.731-1.097,1.515-2.192,2.336-3.27c5.146-6.748,11.987-12.726,19.645-12.945
	c-3.975-1.027-7.566-2.87-10.091-5.668c-4.216-4.672-3.796-9.948-1.701-15.078c-1.404,0.09-2.85-0.208-4.265-1.04
	c-10.584-6.22,4.074-25.152,14.252-22.778c0.489-1.976,0.9-3.989,1.211-6.056c-1.667-2.203-2.603-4.911-2.316-7.982
	c0.282-3.021,2.169-5.678,5.18-6.47c1.888-0.496,3.81-0.33,5.665,0.199c-1.681-2.654-2.68-5.702-2.036-8.901
	c0.74-3.674,3.108-6.969,6.527-8.609c3.583-1.72,7.71-1.721,11.428-0.41c2.402,0.847,4.264,2.389,5.706,4.296
	c0.408-0.166,0.938-0.377,1.566-0.617c8.215-5.529,22.16-6.777,22.526,3.25c11.599-1.733,29.897,6.168,21.829,17.779
	c9.275,4.915,12.729,21.381,4.829,28.484c3.109,4.506,4.41,10.697,1.61,15.561c-2.109,3.664-5.337,4.087-8.442,3.004
	c-0.359,5.873-4.109,11.64-9.959,13.411c-0.602,0.182-1.189,0.301-1.768,0.388c3.096,5.481,11.045,4.461,16.928,4.738
	c7.583,0.357,14.854,1.523,21.386,5.614c0.593,0.371,0.409,0.76-0.123,1.08c0.799,0.615,1.586,1.524,1.962,2.116
	c4.507,1.374,9.007,2.708,13.28,4.712c-3.112-4.136-5.816-9.276-2.673-13.652c0.231-0.322,0.487-0.641,0.784-0.954
	c0.937-0.988,2.018-1.907,3.198-2.765c5.253-3.813,12.519-6.363,18.214-7.879c1.778-0.474,4.49-1.075,7.171-1.176
	c0.46-0.017,0.918-0.02,1.372-0.003c3.329,0.117,6.347,1.208,7.12,4.583c1.369,5.978-3.08,11.695-7.22,15.772
	c5.593,5.053,10.762,11.656,13.535,18.969c5.11,1.317,10.084,3.17,15.336,3.859c0.731,0.096,1.375,0.439,1.829,0.856
	c1.083,0.028,2.123,0.359,2.313,0.93c6.459-1.039,12.443,2.08,16.88,7.103C784.62,443.336,788.404,452.35,784.86,458.543z
	 M753.508,452.251c8.618,1.326,16.693,6.897,25.435,6.519c0.201-0.009,0.387-0.033,0.564-0.069
	c-0.228,0.016-0.473-0.009-0.734-0.091c-10.54-3.302-14.305-13.295-14.371-23.563c-0.001-0.138,0.016-0.267,0.044-0.387
	c-1.214-0.016-2.457,0.176-3.715,0.617C757.177,440.302,755.185,446.332,753.508,452.251z M777.719,443.172
	c-2.354-3.3-5.711-6.476-9.56-7.829c0.112,8.388,2.769,17.377,11.615,20.149c1.563,0.49,1.549,2.054,0.702,2.805
	C783.89,455.945,779.373,445.492,777.719,443.172z M707.686,411.92c4.592-3.477,14.026-4.747,18.788-5.586
	c-0.115-0.106-0.226-0.217-0.342-0.321c-0.312-0.282,0.189-0.33,0.949-0.245c3.254-3.324,6.98-8.169,5.954-12.652
	c-1.512-6.603-10.004-3.672-14.263-1.96c-4.488,1.804-12.553,3.829-14.933,8.557C701.759,403.846,704.854,408.45,707.686,411.92z
	 M647.757,317.817c2.384,0.511,5.513,1.24,8.288,2.075C653.735,318.53,650.736,317.794,647.757,317.817z M609.024,368.667
	c0.022-0.009,0.027-0.01,0.044-0.016c0,0-0.001,0-0.001,0C609.051,368.656,609.042,368.66,609.024,368.667z M597.169,364.76
	c0.672,0.463,1.492,0.713,2.37,0.753C598.793,365.368,597.979,365.13,597.169,364.76z M584.193,351.842
	c0.107-0.554,0.219-1.107,0.295-1.664c0.036-0.264,0.203-0.49,0.441-0.686c0.059-0.207,0.105-0.419,0.162-0.627
	c-1.026,0.371-2.275,0.609-2.843,0.406c-1.407-0.503-3.977,2.475-4.785,3.417c-1.535,1.789-2.924,3.799-3.756,6.023
	c-1.257,3.363-1.768,8.709,2.662,10.111c0.053,0.017,0.11,0,0.166,0.003c0.289-0.58,0.589-1.157,0.906-1.729
	C580.23,362.071,582.504,357.063,584.193,351.842z M603.994,389.597c-0.508-1.064-0.381-2.417-0.197-3.58
	c0.043-0.275,0.22-0.504,0.47-0.696c-2.27-0.574-4.413-1.864-6.291-3.5c-1.095-0.954,3.41-2.584,4.605-1.543
	c1.431,1.246,3.131,2.583,5.047,2.95c0.433,0.083,0.294,0.079,0.587,0.074c0.041-0.022,0.094-0.052,0.188-0.103
	c-0.373,0.206,0.342-0.245,0.444-0.331c1.672-1.393,2.673-4.465,2.824-6.837c0.144-2.249-0.02-5.351-1.878-6.945
	c-0.244-0.208-0.138-0.155-0.425-0.296c-0.166-0.082-0.231-0.113-0.272-0.129c-0.169,0.083-0.536,0.244-0.461,0.198
	c-0.379,0.235-0.751,0.481-1.103,0.756c-0.856,0.666-1.62,1.419-2.36,2.211c-0.777,0.832-2.178,1.129-3.271,1.075
	c-0.63-0.031-1.969-0.451-1.181-1.293c0.334-0.357,0.67-0.714,1.024-1.053c0.201-0.192,0.417-0.388,0.642-0.585
	c-3.892,0.419-7.9-2.019-10.086-6.293c-2.713-5.306,0.983-11.884,4.421-16.628c-1.999-0.345-3.959-1.058-5.716-2.087
	c-0.645,3.379-1.527,6.722-2.714,9.936c-1,3.922-2.513,7.823-4.689,10.982c-0.669,0.971-1.479,1.883-2.387,2.665
	c-1.554,3.005-2.703,6.118-2.458,9.261C579.606,388.737,594.795,393.681,603.994,389.597z M555.225,423.585
	c0.095,0.042,0.192,0.08,0.287,0.124c0.399,0.151,0.856,0.215,1.375,0.173c0.097-0.008,0.192-0.013,0.294-0.029
	c1.933-5.321,4.705-10.319,6.791-13.706c0.233-0.378,0.472-0.758,0.717-1.139c-0.093,0.006-0.187,0.004-0.281,0.006
	c-0.708,0.017-1.433-0.073-2.088-0.181c-0.644-0.105-1.283-0.069-1.909,0.059c-0.135,0.292-0.266,0.586-0.406,0.875
	c-0.409,0.841-1.625,0.949-2.742,0.665c-1.997,1.579-3.521,4.012-3.99,6.096C552.784,418.698,553.089,422.478,555.225,423.585z
	 M558.911,445.245c-0.12-0.108-0.243-0.209-0.36-0.326c-3.743-3.721-4.233-9.075-3.178-14.633c0.325-1.708,0.79-3.435,1.358-5.14
	c-0.077-0.003-0.152-0.018-0.229-0.022c-0.513-0.03-1.025-0.072-1.529-0.147c-1.005,0.825-2.671,1.695-3.42,1.345
	c-15.418-7.216-35.789-0.628-48.249,10.048c7.387,0.727,14.636,3.024,21.55,5.583c6.42,2.375,13.019,4.924,18.893,8.488
	c0.128,0.078,0.233,0.164,0.34,0.25C549.071,448.312,553.73,446.337,558.911,445.245z M606.233,441.367
	c6.331,3.095,13.266,5.169,19.852,6.71c3.948,0.923,7.932,1.711,11.951,2.262c0.949,0.129,1.898,0.255,2.851,0.352
	c-0.059-0.014-0.094-0.109,0.318-0.824c4.765-8.264,9.559-16.657,15.2-24.361c6.042-8.252,14.808-17.934,25.41-19.807
	c-8.157-4.457-16.924-3.695-25.987-4.495c-5.483-0.484-10.386-1.969-12.287-7.194c-0.524-0.201-1.033-0.442-1.527-0.719
	c-3.7,10.684-24.137,5.907-28.633-2.182c-0.067-0.037-0.106-0.059-0.106-0.059h-3.442c-1.114,0.28-2.32,0.406-3.401,0.205
	c-0.237-0.044-0.475-0.085-0.697-0.165c-1.402,0.492-2.893,0.882-4.435,1.167c-2.69,0.498-5.536,0.674-8.346,0.488
	c1.582,0.562,3.186,1.385,4.807,2.531c1.654,1.169,2.367,5.434-0.301,3.548c-12.934-9.142-25.254,6.169-30.983,16.554
	c-2.868,5.199-5.616,10.885-6.766,16.757c-0.502,2.562-2.09,9.807,1.572,10.929c7.875,2.414,18.231-5.898,23.653-10.59
	c1.056-0.914,2.221-1.941,3.419-3.059c-0.206-0.411,0.021-0.499,0.435-0.409c5.478-5.183,11.459-12.225,10.896-19.315
	c-0.235-2.956,3.702-0.476,3.85,1.384c0.613,7.706-4.628,15.124-10.56,20.958c2.701,2.8,5.829,5.155,9.212,7.157
	C603.501,439.967,604.853,440.692,606.233,441.367z M741.211,436.994c0.308-10.667-4.689-20.253-11.838-27.815
	c-0.125,0.056-0.264,0.104-0.427,0.137c-3.024,0.606-6.046,1.248-9.032,2.022c-3.023,0.785-7.617,1.45-10.302,3.456
	c-0.125,0.306-0.445,0.602-0.869,0.857c-1.616,2.609,4.784,8.816,6.16,10.542c1.99,2.498,3.898,5.029,4.51,8.224
	c0.101,0.524-0.215,1.208-0.727,1.412c-12.428,4.954-21.351-9.174-32.856-10.473c-2.071-0.234-2.865-3.555-0.439-3.281
	c7.914,0.893,13.892,6.504,20.915,9.693c2.086,0.947,4.485,1.999,6.843,1.888c3.52-0.165,1.856-1.976,0.326-3.99
	c-2.409-3.172-5.212-6.06-7.25-9.498c-0.916-1.545-1.243-2.904-1.137-4.112c-0.012-0.012-0.029-0.02-0.04-0.033
	c-0.046-0.054-0.094-0.111-0.14-0.166c-1.057,0.232-2.513,0.215-3.152-0.148c-5.447-3.099-11.541-4.625-17.505-6.452
	c-11.158,2.533-20.179,13.601-26.204,22.626c-4.493,6.73-8.672,13.68-12.701,20.699c11.659,6.623,25.749,9.108,38.945,10.151
	c12.318,0.973,26.434,1.494,38.311-2.616c4.094-1.417,7.817-3.594,10.851-6.402c0.008-0.606,0.716-1.342,1.681-1.705
	C738.745,447.997,741.041,442.919,741.211,436.994z M748.535,452.222c2.01-7.117,4.47-14.375,9.304-20.059
	c-4.365-0.789-8.575-2.17-12.85-3.34c1.144,4.139,1.478,8.457,0.66,12.816c-0.749,3.988-2.301,7.401-4.448,10.281
	C743.646,452.024,746.089,452.148,748.535,452.222z M527.978,450.256l0.19-0.171l-1.585,0.422L527.978,450.256z M517.396,451.004
	l1.049,0.207l0.905-0.241C518.897,451.09,517.329,450.781,517.396,451.004z M502.073,450.71c0.649-0.293-0.4-0.5,0.963-0.861
	C502.13,450.09,500.24,450.349,502.073,450.71z M507.086,450.229l2.534-0.552l-3.022,0.561L507.086,450.229z M500.45,451.021
	l-0.224,0.059c-1.011-0.115-2.237-0.473-2.596-0.646c0.338,0.338,0.68,0.602,1.457,0.948c0.229-0.06,0.42-0.233,1.168-0.19
	c0.649,0.128-0.002,0.207,0.033,0.348C500.738,451.425,501.864,451.229,500.45,451.021z M510.458,449.213
	c0.785,0.154,1.798,0.25,0.397,0.5C513.528,449.609,513.131,449.108,510.458,449.213z M508.973,448.344
	c-1.433,0.138-1.137,0.301-0.32,0.569l1.396-0.25C509.756,448.499,508.512,448.464,508.973,448.344z M507.331,449.436l0.724-0.106
	C507.927,449.261,507.735,449.238,507.331,449.436z M509.589,449.105l-1.534,0.225c0.203,0.115,0.226,0.346,0.705-0.082
	C508.635,449.46,508.937,449.256,509.589,449.105z M139.3,415.546c13.321,0.037,26.659,0.723,39.926-0.815
	c3.261-0.378,1.857-3.704-0.857-3.39c-13.268,1.538-26.605,0.852-39.926,0.815C135.125,412.147,136.631,415.539,139.3,415.546z
	 M272.925,206.344c-0.815,1.243,1.267,2.59,2.035,1.418c2.03-3.097,5.503-3.446,8.908-2.937c1.607,0.241,1.656-1.986,0.148-2.212
	C279.876,201.994,275.388,202.586,272.925,206.344z M270.297,199.042c2.312-2.885,6.819-3.388,10.214-2.372
	c1.007,0.302,3.534-2.033,2.863-2.233c-5.615-1.681-12.199,0.818-15.786,5.294C266.438,201.167,269.79,199.674,270.297,199.042z
	 M472.273,449.657c-2.025-0.19-4.037,0.464-5.665,0.775l1.604,0.422c-1.041,0.805-3.596-0.292-4.547-0.02
	c0.642-0.188,2.086-0.004,2.136,0.175l-0.432-0.612c-2.286-0.241-4.103,0.241-5.725,0.549c1.532,0.2-1.856,0.372-0.742,0.803
	l1.209-0.077c0.556,0.215-0.616,0.404-1.295,0.585c-3.825-0.439-10.828-0.037-12.198-0.518c0.782,0.154,2.216,0.016,2.899-0.164
	l-1.794-0.251c1.457-0.024,2.609,0.519,4.757,0.312c-0.363-0.387,1.194-0.922-0.44-1.457c-4.118-0.602-3.378,1.019-8.334,0.879
	c-0.458,0.121,1.034-0.636-1.604-0.422c-3.318,0.396-5.748,1.284-5.739,2.127c1.397-0.25,4.19-0.749,4.621-0.138
	c-1.395,0.25-3.804,0.405-3.927,0.801c-1.447-0.706,2.635-0.215,0.737-0.801c-0.98,0.018-1.399,0.25-1.855,0.372
	c0.652-0.295-0.881-0.492-1.175-0.656c-3.176,0-5.006-0.307-8.412-0.363c-0.181-0.103-0.556-0.328-0.458-0.501
	c-1.664,0.198-4.035,1.26-3.413,1.7c-1.951,0.033-2.056-0.302-3.717-0.104c2.653,0.629-0.521-0.104-0.802,0.577
	c-1.699,0.086-0.594-0.328-1.376-0.483c-0.282,0.073-0.959,0.301-1.003,0.484c-1.045-0.515,2.02-1.352,0.792-1.952
	c-0.851-0.377-4.5-1.053-4.761-1.104c-0.808,0.578-0.566,2.95,0.65,3.715c-0.128,0.398-1.608-0.422-2.353-0.464
	c-2.158-0.638-3.291,0.508-5.085,0.258l1.367-0.362c-0.296-0.164-2.938,0.051-3.355,0.284c-0.068-0.224,1.364-1.156,0.544-1.422
	c-3.224-0.113-6.28,1.129-6.079,1.8l4.941-0.705c0.175,0.56-3.507,0.567-3.304,1.24l-4.551-0.191c0.575-0.02,2.331-0.182,1.64-0.489
	c-1.955,0.033-1.013-0.096-2.318-0.354c2.24-0.713,6.341-2.544,7.802-3.413l-2.348,0.379l-0.587-0.328
	c-3.06,0.449-5.821,2.647-6.626,3.225c-1.76-0.139-1.146-1.337-0.728-1.57c-3.459-0.053-3.415,1.698-6.902,1.534l1.31,0.258
	c-0.823,0.113-3.814-0.123-3.494,0.097c-0.692-0.316-1.327-1.066-0.556-1.27l-3.088,1.13c0.454-0.12,0.156-1.079,0.35-1.251
	c-1.241-0.034-2.113,1.112-1.328,1.268c-2.422-0.689-1.821-0.312-3.787-1.122c-0.715,0.068,0.067,1.019,0.591,1.122
	c-1.619,0.261-2.569,0.141-3.337,0.038c2.675-0.417,0.728-2.154,1.234-2.885l-5.753,2.872c0.195-0.172,0.649-1.089,0.618-1.198
	c-0.481,0.851-7.075,0.974-10.3,0.861l0.484-0.008c0.653-0.294-2.122-0.526-3.256-0.226c0.192-0.171,0.454-0.12,0.939-0.129
	c-2.154-0.637-2.796,1.294-4.991,0.544c1.989,0.077,2.38-0.267,2.279-0.603c-1.631,0.31-5.41-0.018-4.619,0.982
	c-1.047-0.208-1.989-0.079-1.898-0.586l-4.008,0.604c0.298-0.104,0.556-0.399-0.617-0.466c2.248,0.129,4.423-0.809,5.606-0.155
	c0.059-0.62-0.785-0.949,0.291-1.474c-4.336,0.302-6.713,1.363-9.446,2.085l-3.818-0.44l-0.161,0.284l-0.663-0.712
	c-0.477,0.164-0.782,0.306-0.881,0.239c-0.087-0.064,0.033-0.158,0.222-0.264c-0.401,0.037-0.767,0.101-0.957,0.175
	c-0.15-0.375,0.525-0.806,1.247-1.196c0.345,0.129,0.698,0.261,1.051,0.393c0.748-0.359,1.29-0.729,0.246-0.963
	c-0.149,0.043-0.337,0.097-0.535,0.154c0.479-0.269,0.773-0.488,0.42-0.593l-2.918,0.348c0.332,0.096,0.827,0.298,1.406,0.529
	c-1.829,0.47-3.917,1.042-2.284,1.52l-2.224-0.416c-2.611,0.711-2.158,0.567-5.338,1.097c-0.174-0.247,0.673-0.459,0.102-0.64
	c-2.319,0.807-5.655-0.941-6.161-0.235c-1.873,0.171-0.78,0.614-1.971,0.81c0.056-0.079,0.168-0.235-0.178-0.248l-1.414,0.507
	c-0.572-0.184,1.302-0.352-0.292-0.574c-2.726,0.378-4.326,0.637-6.604,0.388c-3.242,0.115,1.387,1.019-1.352,0.913
	c-0.402-0.418-0.756-0.914-2.466-0.98c-0.904,0.287-0.783,0.612-2.318,0.794l0.098-0.64c-1.42,0.025-2.554,0.142-2.564-0.341
	c-1.162,0.271-1.962,0.221-2.569,0.117c-2.154,0.335,1.583,1.301,2.085,1.552c-2.118-0.483-3.58-0.207-4.787-0.979l1.874-0.169
	c-3.998-0.798-3.794,0.9-5.645-0.459c1.371,0.053,3.016-0.286,2.208-0.639l-1.985,0.326c-0.233-0.17,1.135-0.117,0.224-0.313
	c-0.565,0.139-1.725,0.466-2.236,0.679l0.027-0.04l-3.294,0.095c0.417-0.04,0.443-0.205-0.126-0.228l-2.35,0.332
	c0.719-0.16-0.017-0.358-1.071-0.464c-3.025-0.198-2.424,1.435-4.771,0.781c0.342,0.014,0.397-0.066,0.743-0.052l-1.207-0.288
	c-0.256,1.356-7.116,0.126-7.376,1.484c-1.719-0.552-0.12-0.328,2.092-0.965l-1.831-0.393c0.743-0.051,1.367,0.054,2.163-0.077
	c-2.403-0.576-4.666,0.141-5.968,0.493c-0.917-0.197,0.724-1.019-1.894-0.798c-3.696,0.259,0.7,0.992-1.52,1.148l-1.607-0.706
	c-2.835,0.533-4.953,0.048-7.344-0.044c-0.541,0.055-0.806,0.127-0.938,0.204c-2.544-0.309-5.333,0.678-7.252,0.444
	c0.449-0.144-1.096-0.444-1.327-0.615l-3.462,0.429c1.532-0.182,1.465-0.587,1.746-0.979c-1.082,0.04-1.591,0.261-2.327,0.312
	c0.449-0.142,0.903-0.286,0.332-0.468l-3.633,0.662c0.214,0.069,0.631,0.096,0.98,0.114c-0.907,0.003-2.873,0.254-4.17-0.078
	c0.115-0.155,0.562-0.3,0.673-0.457c1.09,0.446,1.71,0.068,2.276-0.232c-2.506,0.065-0.625-0.104-1.831-0.393
	c-1.768,0.012-2.494,0.547-2.03,0.887c-1.997-0.157-2.631-0.264-4.67,0.14l0.387-0.548l-1.874,0.17l1.52-0.667
	c-3.593-0.38-0.661,0.94-4.653,0.624l-0.01-0.482c-1.536,0.182-2.064,0.995-3.256,0.415c-1.491,0.289,2.549,0.686-0.954,0.778
	c-0.618-0.25-1.947-0.435-2.953-0.534c-0.981,0.191,0.41,0.487,1.251,0.513c-4.869,0.127-3.065-1.646-7.686-1.033
	c1.619,0.349-1.351,0.931,2.478,0.922c-1.829,0.282-3.597-0.704-5.504-0.183l1.243-0.613c-0.686-0.013-1.458,0.209-1.831,0.284
	l0.156-0.474c-2.355,0.829-4.381-0.403-5.782,0.686c0.974-0.856-1.756,0.047-2.691-0.289c1.938-0.601,5.556,0.026,5.814-0.767
	c-0.903-0.241-1.709,0.146-2.581-0.089c0.609-0.116,1.496-0.325,1.728-0.484c-2.979-0.454-4.675,0.469-6.483,0.673l3.19-0.178
	c-0.258,0.791-1.436,0.133-2.331,0.752c-1.596-0.428-2.845,0.187-4.146-0.078c0.345,0.005,0.369-0.073,0.714-0.067
	c-3.477,0.014-4.444-1.278-5.827-1.303c-1.357-0.105-3.93,0.322-2.998,0.659c-1.113,0.218,4.619-0.229,2.631,0.794
	c-1.984-1.189-4.083,0.437-8.41-0.381c1.895-0.417-1.113-0.669,0.579-0.985c-2.062,0.093-2.139,0.27-3.057,0.604l-0.621-0.372
	c-2.694,0.826-0.633,0.734-4.711,1.171c1.368-0.287-1.637-0.539-0.594-0.799c-1.13-0.027-2.233,0.083-3.06,0.305l0.15-0.053
	c-4.129,0.185-3.38-0.474-7.141-0.066l0.374,0.224c-4.925,0.594-11.149,0.195-16.247,0.463l1.795,0.186
	c-0.545-0.115-3.435,0.349-5.023-0.003c0.318-0.021,0.866-0.12,1.163-0.09c-0.045-0.251-0.663-0.623-1.888-0.688l-0.472,0.381
	l-0.495-0.297c-1.867-0.01,0.548,0.548-1.32,0.54c-1.088-1.097-8.04-0.16-9.65-1.126c-1.27,0.79,3.534,0.12,2.141,0.836
	c-0.568-0.12-0.824-0.269-2.038-0.334l0.418,0.475c-5.65-0.279-7.807-0.688-12.836-0.596l0.202-0.102
	c-1.79-0.187-2.756-0.103-3.556,0.306c-0.373-0.223,0.918-0.334,0.222-0.53c-3.156,1.209-6.304-0.901-8.228-0.056
	c0.251-0.958-3.871-1.877-2.152-2.621l-1.292,0.112c0.426-0.632,4.056-0.009,4.799-0.669l4.079,0.669
	c-0.129-0.238,0.541-0.59-0.114-0.673c1.007-0.011,1.887-0.043,0.567-0.386c9.743,1.626,19.754,0.084,29.348,0.958
	c0.648-0.056,0.276-0.279,0.027-0.427c1.767,0.613,1.69-0.316,2.657-0.4l2.586,0.884c0.127-0.031,0.224-0.063,0.301-0.095
	c-17.833-9.038-22.892-37.487-21.046-56.62c0.302-3.13,4.565-1.347,4.323,1.16c-2.088,21.63,4.176,57.518,33.167,53.33
	c0.205-0.029,0.4-0.013,0.589,0.021c20.763-3.67,26.555-32,25.44-51.66c-18.937,0-37.874,0-56.811,0
	c-1.75,0-3.664-4.542-1.761-4.542c4.494,0,8.988,0,13.482,0c-3.657-1.559-7.067-3.64-9.698-6.712
	c-4.154-4.85-6.244-10.605-8.659-16.417c-2.933-7.062-8.121-12.313-12.672-18.31c-3.687-4.857-7.587-10.842-6.154-17.275
	c2.188-9.82,13.478-11.813,21.393-6.938c2.245,1.383,4.203,3.176,5.938,5.228c0.205-74.448,0.428-148.897,0.632-223.345
	c0,0.085,0.678,0.252,1.512,0.483c0.567-0.541,1.337-0.942,2.146-0.942c29.434,0,58.868,0,88.302,0c108.232,0,216.465,0,324.698,0
	c1.489,0,1.838,0.802,1.548,1.672c0.312,0.333,0.512,0.731,0.511,1.182c-0.215,78.322-0.434,156.645-0.648,234.967
	c0.328,0.394,0.283,0.969-0.014,1.539c-0.04,0.831-0.607,1.262-1.346,1.384c-0.446,0.262-0.948,0.433-1.468,0.433
	c-115.144,0-230.288,0-345.432,0c-1.307,4.343-2.854,8.528-4.357,12.371c-2.776,7.095-5.989,14.096-10.02,20.575
	c-2.167,3.484-4.593,7.291-7.741,10.104c3.052,0,6.104,0,9.157,0c1.75,0,3.664,4.542,1.761,4.542c-0.121,0-0.241,0-0.362,0
	c1.418,18.837-3.495,45.656-20.726,53.982c1.887,0.03,3.512-0.009,5.137-0.368c1.268,0.315,10.57-0.315,12.634,0.697
	c-1.406-0.657,0.108-0.339,1.459-0.622l-1.218-0.58l3.047,0.067c0.621-0.054,0.795-0.029,0.792,0.022
	c0.516,0.029-0.123,0.333,1.189,0.481c2.074,0.04,2.175-0.277,3.316-0.574l-0.317-0.086l1.407-0.052
	c1.036,0.02-3.662,0.568-0.284,0.87c0.049-0.159,2.036-0.917,2.943-0.501c-1.725-0.033-1.508,0.369-0.874,0.541l2.418,0.046
	l-0.798-0.732c6.934,0.052,14.148,0.584,21.55,0.55c-0.102,0.641,5.241,0.042,4.573,0.982l-0.284-0.091
	c-1.818,0.089,0.526,0.744,2.006,0.64c-1.547-0.302,2.775-0.938-0.986-1.084l2.908-0.44c1.616-1.802,7.757,0.165,12.164-0.41
	c-0.311,0.069-0.392,0.165-0.431,0.221c3.917-0.571,8.781,0.502,9.689,0.216l0.348,0.496c3.348-0.756,3.746-0.82,7.738-0.505
	c-0.052,0.08-0.514,0.222,0.118,0.327c0.961-0.365,1.928-0.73,4.661-0.624l-0.112,0.156l4.275-0.075
	c-0.033,1.528,7.327-0.922,8.609,0.737c0.837-0.445,3.965-0.581,5.355-0.791c0.01,0.065,0.097,0.133,0.328,0.205
	c1.643-0.82,4.739,0.265,6.557,0.175c1.187-0.194,0.674-0.456,0.158-0.718c2.344,0.654,6.476-0.714,7.332-0.438
	c1.719,0.066,0.64,0.587,1.111,0.927c2.554-0.142-0.427-1.384,2.999-0.77c-0.398,0.066-1.134,0.119-0.849,0.209
	c1.309,0.131,3.646,1.891,4.95,1.541l-0.861-0.275c2.388-0.391,5.645,1.255,6.03,0.224l-0.223-0.48
	c4.111,0.642,1.744-0.186,5.912,0.377l-0.053,0.08c1.818-0.09,2.802,0.511,3.693-0.259l-0.625-0.105
	c2.255-0.056,2.457,0.001,4.753,0.035c0.27-0.074,1.379-0.191,1.7-0.029c0.105-0.639,5.333-0.304,6.356-0.268
	c-1.819,0.097-0.958,0.368-0.442,0.628c1.072-0.525,1.813-0.58,3.295-0.205c0.214-0.798,0.511-1.648,3.438-1.7
	c-0.454,0.121-1.165,0.19-0.874,0.353c0.298,0.165,0.979-0.017,1.209-0.077c0.292,0.163-0.65,0.292-0.322,0.569
	c1.979-0.765,3.418-0.06,6.285-0.336c-0.91,0.242-0.127,0.396,0.2,0.671c0.223-0.904,3.922,0.778,2.833-0.386
	c5.615,0.689,14.252,0.026,16.44,0.775c0.59,0.326,2.154-0.207,3.131-0.224l-0.133,0.396c2.736-0.723,2.129-0.271,5.346-1
	c-1.332,0.474-0.776,0.689,0.566,1.06l2.208-0.827l0.429,0.612c0.9-0.24,1.901-0.148,2.905-0.054
	c0.889-0.666,4.312-0.615,4.877-0.99c0.988,0.828,2.644-0.215,3.368,0.562c0.325-0.117,0.743-0.212,1.2-0.292
	c-0.475-0.361-0.65-0.767,0.24-0.591c0.077-0.005,0.136-0.009,0.21-0.014l0.387,0.481c0.907-0.114,1.833-0.171,2.443-0.181
	c-0.276-0.041-0.593-0.13-0.924-0.239c0.39,0.071,0.75,0.161,1.099,0.237c0.124,0.002,0.244,0.003,0.325,0.005
	c-0.056,0.014-0.122,0.022-0.196,0.023c0.555,0.112,1.128,0.167,1.919,0.002c3.177,0.732,7.061-1.024,10.563-0.017
	c-0.526-0.103-1.27-0.146-1.468,0.025c2.931-0.051,5.842,0.631,7.695,0.26l-0.133-0.448c2.149-0.207,3.809-0.354,5.541-0.328
	l0.094-0.508c2.516,0.182,7.912-0.646,9.458,0.397c0.613-0.406,3.479,0.114,4.909-0.024l0.364,0.388
	c1.864,0.124,3.015-0.017,4.128-0.132c3.785,0.804,7.286-0.002,10.594,0.049l0.031,0.112l3.353-0.284
	c-0.877,0.353,0.659-0.244,1.668-0.149c1.067-0.19,2.799-0.093,4.059,0.157l2.139,0.016c-2.375,0.268,0.17,0.56,0.307,1.009
	l1.364-0.362c0.551,0.215-0.878,0.353,0.13,0.448c0.913-0.242,3.616-0.232,4.458-0.698c-0.134-0.113-0.462-0.219-0.867-0.306
	c-0.115,0.029-0.108,0.022-0.035-0.008c-0.034-0.008-0.06-0.015-0.094-0.023c0.045,0.006,0.063,0.008,0.115,0.015
	c0.115-0.044,0.295-0.12,0.372-0.179c1.7,0.097,1.076-0.087,1.015-0.289c1.933,0.698,3.009,0.223,4.489,1.042
	c-2.007-0.923,4.423-0.016,3.172-0.895C471.807,449.727,471.35,449.053,472.273,449.657z M329.325,295.962
	c1.456-5.976,2.868-12.371,1.634-18.521c-1.268-6.316-4.405-11.726-8.063-16.955c-0.494-0.706,3.9-2.761,4.759-1.534
	c3.4,4.862,6.738,10.214,7.924,16.122c25.499,3.587,50.215-5.276,66.638-23.995c-0.169-0.14-0.347-0.269-0.519-0.405
	c-1.49-1.18-3.081-2.232-4.709-3.23c-2.302-1.411-4.669-2.731-6.908-4.197c-0.329-0.215-0.628-0.676-0.843-1.185
	c-3.833,3.23-8.111,5.983-12.407,8.347c-8.082,4.446-18.223,9.057-27.71,7.866c-9.446-1.186-16.672-6.594-23.963-12.257
	c-7.936-6.165-15.535-8.998-25.153-6.977c-0.116,0.096-0.232,0.187-0.348,0.29c-0.201,0.179-0.496,0.308-0.839,0.403
	c11.62,10.947,17.194,27.348,19.842,42.714c2.78,16.133,3.17,33.463-1.263,49.349c2.801,0,5.602,0,8.402,0
	C323.471,319.695,326.459,307.725,329.325,295.962z M270.514,331.797c8.176,0,16.353,0,24.528,0
	c0.973-29.273-7.261-57.253-19.119-83.834c-5.277,2.892-11.79,5.744-18.159,6.889c-3.847,5.371-6.591,11.593-10.007,17.224
	c-3.097,5.104-7.114,12.634-13.137,14.835c-4.008,1.465-7.919,1.071-11.03-1.115c-7.6,2.607-14.324,6.727-21.02,11.18
	c-0.118,0.078-0.264,0.139-0.426,0.188c1.942,4.2,4.38,8.173,7.787,11.138c6.166,5.365,14.829,6.132,22.129,2.512
	c11.751-5.828,17.888-17.996,25.659-27.98c-0.407-2.374,3.306-2.462,4.256-0.224c3.522,8.297,7.589,16.736,9.251,25.664
	C272.708,316.237,272.287,323.979,270.514,331.797z M201.522,295.777c0.003,0.006,0.005,0.013,0.008,0.02
	c2.515-1.622,5.043-3.164,7.625-4.586c3.484-1.919,7.067-3.622,10.85-5.007c0.937-0.343,1.887-0.667,2.85-0.971
	c-0.085-0.07-0.161-0.159-0.244-0.232c-0.747-0.656-1.448-1.405-2.068-2.294c-0.683-0.979-1.372-2.066-2.22-2.949
	c-0.207-0.215-0.415-0.429-0.645-0.614c-0.896-0.721-1.806-1.064-2.716-1.148c-1.96-0.181-3.923,0.849-5.75,1.954
	c-3.459,2.093-6.652,4.528-9.762,7.104c-0.206,0.17-0.611,0.28-1.09,0.341c-0.083,0.011-0.164,0.022-0.251,0.03
	c0.18,0.23,0.317,0.452,0.424,0.661c0.042,0.083,0.095,0.17,0.122,0.246C199.517,290.759,200.445,293.292,201.522,295.777z
	 M186.12,271.728c-1.195-1.585-5.948-4.166-3.96-0.323c1.127,2.179,2.841,3.934,4.832,5.352c3.718,2.647,7.813,4.551,11.893,6.547
	c3.996-3.146,8.46-6.112,13.351-7.016c0.056-5.108,0.8-10.173,0.577-15.291c-0.075-1.724-0.084-3.503-0.323-5.213
	c0.02,0.141-0.48-2.539-0.526-2.47c-1.616,2.45-2.448,5.15-2.398,8.092c0.021,1.241-2.565,1.992-3.445,1.322
	c-5.012-3.814-5.381-12.082-10.029-15.927c-0.917,6.001,2.634,12.466,4.655,17.879c0.406,1.087-3.071,2.246-3.576,1.128
	c-2.272-5.031-5.328-12.56-10.059-16.37c-0.301,2.489,0.208,5.037,1.126,7.517c2.3,3.227,4.015,7.292,5.08,9.706
	c0.465,1.054-2.953,2.172-3.576,1.128c-1.782-2.983-3.918-6.465-5.204-10.086c-1.354-1.87-2.885-3.327-4.558-3.725
	c-0.193-0.046,0.763,4.225,0.992,4.678c0.827,1.633,1.761,3.178,2.856,4.65c1.772,2.384,3.692,4.637,5.606,6.906
	C190.248,271.292,186.837,272.579,186.12,271.728z M265.722,214.681c-4.112-3.106-5.589,3.864-5.346,6.707
	c0.168,1.962,0.563,4.308,1.968,5.809c1.227,1.311,4.582-1.378,5.569-2.145c1.197-0.928,3.603,0.848,4.211,1.794
	c3.546,5.513,6.208,11.474,9.043,17.362c3.912,1.043,7.7,2.49,11.173,4.528c0.993-5.872,3.283-11.827,7.123-16.4
	c2.802-3.337,7.373-5.711,10.333-9.082c0.551-0.666,1.06-1.361,1.52-2.088c0.161-0.279,0.313-0.563,0.448-0.858
	c4.675-10.192-3.323-21.126-7.273-30.833c-5.765,0.068-11.892-1.964-16.015-5.908c-0.983,2.735-3.163,4.838-6.722,6.241
	c-6.755,2.663-14.104,3.818-19.489,9.057l3.053,9.714c1.136,2.011,2.456,3.953,3.889,5.893
	C270.89,216.751,266.472,215.248,265.722,214.681z M300.305,236.72c-0.017,0.03-0.034,0.06-0.05,0.089
	c0.08-0.03,0.159-0.06,0.239-0.089H300.305z M313.176,330.224c4.105-14.646,4.107-30.622,1.7-45.563
	c-1.355-8.413-3.485-17.145-7.087-25.09c-0.392,0.06-0.751,0.059-0.995-0.041c-3.878-1.586-7.941-3.38-11.638-5.567
	c-0.1,0.125-0.203,0.254-0.306,0.391c-1.171,1.548-2.419,3.044-3.712,4.492c-1.179,1.32-2.39,2.707-3.771,3.835
	c8.297,22.142,13.432,45.2,12.377,69.117c4.533,0,9.067,0,13.601,0C313.111,331.323,313.02,330.783,313.176,330.224z M295.815,250.3
	c-0.019,0.147-0.143,0.264-0.327,0.357c3.301,2.267,7.044,4.142,10.778,5.776c-2.397-4.612-5.37-8.876-9.042-12.58
	C296.579,245.942,296.093,248.091,295.815,250.3z M291.511,251.014c-3.298-1.795-6.862-3.049-10.546-3.945
	c1.812,4.084,3.537,8.201,5.155,12.35c0.726-0.76,1.438-1.532,2.125-2.326c1.02-1.179,2.03-2.374,2.96-3.625
	c0.21-0.283,0.933-1.018,0.938-1.449c-0.115-0.081-0.236-0.156-0.35-0.238C291.446,251.53,291.389,251.264,291.511,251.014z
	 M390.788,240.708c4.268,2.701,8.887,5.024,12.679,8.384c0.085,0.076,0.176,0.145,0.261,0.222c0.414-0.503,0.813-1.024,1.214-1.542
	c2.102-2.7,4.05-5.57,5.81-8.623c-0.485-0.18-0.972-0.348-1.459-0.514c-3.662-1.243-7.408-2.08-11.26-2.627
	c-0.621-0.088-1.244-0.169-1.87-0.243c-0.19-0.022-0.375-0.067-0.557-0.12C394.14,237.447,392.521,239.132,390.788,240.708z
	 M405.182,225.234c1.632-0.542,4.62-2.049,3.563-4.309c-0.974-2.083-4.059-0.94-5.437-0.016c-4.121,2.764-3.095,8.59-2.933,12.985
	c4.557,0.79,9.01,1.966,13.33,3.698c5.198-3.349,9.774-8.16,7.707-14.924c-0.546-1.786-1.484-4.189-3.272-5.106
	c-1.759-0.902-3.172,1.156-3.029,2.729c0.265,2.916,2.211,5.007,4.955,5.902c-0.304-0.099-2.567,0.883-3.578,0.553
	c-0.514-0.167-1.096-0.464-1.681-0.854c-1.383,2.293-2.882,4.528-3.787,7.062c-0.375,1.052-3.764,1.81-3.486,1.033
	c1.155-3.233,3.2-6.003,4.86-8.979c0.105-0.188,0.365-0.381,0.692-0.553c-0.278-0.289-0.532-0.597-0.766-0.914
	c-0.854,2.149-3.28,3.446-5.448,4.165C405.102,228.292,402.846,226.009,405.182,225.234z M415.286,216.617
	c1.713-0.521,3.604-0.54,5.326-0.13c1.423,0.338,2.532,1.357,3.348,2.691c0.256-2.253-1.462-4.306-4.105-5.178
	c-1.043-0.344-3.161-0.874-3.962-0.416C414.993,214.098,415.063,215.519,415.286,216.617z M330.885,331.797
	c66.932,0,133.863,0,200.795,0c0.19-68.941,0.442-137.882,0.634-206.822c-12.114,0-24.229,0-36.343,0
	c-115.421,0-230.843,0-346.265,0c-0.166,59.189-0.469,118.378-0.637,177.567c2.242-0.506,4.534-0.58,6.689-0.082
	c4.941,1.143,8.234,4.797,10.803,8.976c3.703,6.021,5.282,13.251,5.955,20.64c0.573-6.907,1.346-15.279,5.962-20.435
	c3.864-4.315,10.928-4.797,16.113-2.718c4.74,1.9,7.689,6.189,8.994,10.993c1.032,3.798,1.32,7.808,1.119,11.881
	c20.343,0,40.686,0,61.029,0c-0.013-0.194-0.007-0.389,0.042-0.583c2.173-8.615,2.658-17.391,0.347-26.04
	c-1.59-5.954-3.932-11.638-6.342-17.294c-9.084,12.043-18.331,30.124-35.485,29.507c-11.867-0.427-19.27-9.855-24.183-20.019
	c-0.55,0.007-1.001,0.01-1.129,0.095c0.298-0.198,0.597-0.389,0.895-0.585c-1.524-3.211-2.805-6.48-3.902-9.552
	c-0.871-0.167-1.416-0.49-0.874-0.94c0.438-0.363,0.885-0.733,1.336-1.105c-6.731-3.286-18.931-7.603-18.455-16.73
	c0.022-0.423,0.75-0.832,1.072-0.956c0.942-0.364,1.992-0.547,3.064-0.566c-4.235-5.279-9.094-12.865-2.538-14.735
	c1.363-0.389,2.641-0.24,3.833,0.277c-0.105-1.776,0.12-3.546,0.818-5.27c0.393-0.969,2.255-1.653,3.208-1.224
	c1.821,0.821,3.435,2.155,4.885,3.771c-0.021-1.711,0.233-3.404,0.907-5.047c0.417-1.017,2.217-1.587,3.208-1.224
	c6.109,2.242,6.915,9.252,10.072,14.312c0.507-2.045,1.41-3.998,2.895-5.344c1.07-0.969,3.789-2.701,5.253-1.417
	c2.832,2.484,1.866,9.55,1.759,13.072c-0.116,3.82-0.562,7.618-0.603,11.44c-0.001,0.127-0.055,0.252-0.142,0.372
	c2.136,0.069,4.442,0.595,6.083,1.916c2.4,1.932,3.5,5.011,5.876,6.9c7.346,5.84,19.796-20.864,24.879-29.456
	c-4.152,0.042-8.065-0.893-11.313-3.33c-4.581-3.437-6.755-8.799-5.454-14.522c1.436-6.314,5.712-11.285,4.573-18.152
	c-0.841-5.075-3.38-9.541-4.579-14.509c-1.045-4.333-1.67-8.827-1.387-13.294c0.492-7.787,2.906-16.313,9.001-21.597
	c1.435-1.424,3.143-2.643,5.153-3.612c14.882-9.026,34.51-10.766,49.336-0.965c0.464,0.307,0.912,0.76,1.251,1.205
	c3.353,1.952,6.477,4.336,9.276,7.192c4.146,4.23,7.674,9.051,10.334,14.354c2.524,5.033,3.812,10.651,6.539,15.551
	c3.974,7.142,12.703,16.064,6.979,24.595c-2.499,3.724-6.75,8.201-11.275,9.589c0.625,0.295,1.246,0.612,1.858,0.974
	c6.076,3.589,11.029,8.791,17.185,12.253c8.382,4.715,17.088,5.831,26.297,2.893c8.213-2.621,16.419-7.105,22.586-13.383
	c0.013-0.013,0.027-0.024,0.039-0.037c0.021-0.418,0.193-0.683,0.577-0.6c0.915-0.97,1.762-1.996,2.574-3.047
	c0.363-0.47,0.735-0.933,1.074-1.419c0.193-0.277,0.525-0.528,0.919-0.756c-0.838-0.834-0.798-1.831,1.33-1.58
	c0.415,0.049,0.827,0.108,1.24,0.162c-0.16-3.736-0.856-8.277,1.201-11.499c1.863-2.92,5.528-5.019,9.075-4.757
	c1.678,0.124,3.561,0.793,4.697,2.065c0.101-0.174,0.223-0.345,0.367-0.513c-1.128-4.193,2.143-6.594,5.838-7.049
	c-0.032-0.087-0.047-0.172-0.023-0.248c0.863-2.723,3.093-5.473,4.52-7.918c3.088-5.293,6.192-10.577,9.293-15.863
	c3.074-5.24,6.151-10.477,9.204-15.729c0.481-0.828,4.603-6.629,4.232-7.376c0.11,0.221,2.518,1.099,2.988,2.045
	c0.47,0.945-3.396,6.159-3.865,6.965c-3.176,5.464-6.376,10.915-9.574,16.367c-3.228,5.502-6.462,11.001-9.672,16.514
	c-0.992,1.703-2.401,3.563-3.372,5.453c2.107,0.521,4.484,1.619,5.559,3.625c1.283,2.394,0.016,4.735-1.64,6.559
	c-0.062,0.067-0.154,0.135-0.261,0.201c0.58,2.222,0.602,4.604,0.077,6.209c-1.564,4.784-5.485,7.667-9.692,10.06
	c0.971,0.65,0.744,1.3,0.013,1.641c0.046,0.131,0.058,0.25,0.008,0.343c-15.56,29.083-47.094,43.301-79.305,37.684
	c-0.104-0.018-0.212-0.06-0.321-0.111c0.434,5.18-0.313,10.304-1.542,15.351C331.356,305.984,327.885,318.76,330.885,331.797z
	 M135.659,313.466c0.401-1.062,0.909-2.084,1.554-3.042c1.642-2.436,4.135-4.575,6.986-6.072
	c0.168-60.467,0.484-120.933,0.651-181.4c0.003-1.188,1.048-1.6,2.168-1.485c0.403-0.207,0.845-0.336,1.301-0.336
	c19.814,0,39.628,0,59.442,0c108.188,0,216.377,0,324.565,0c0-0.14,0.001-0.28,0.001-0.42c0,0.077,0.559,0.222,1.281,0.42
	c0.346,0,0.693,0,1.039,0c1.044,0,1.527,0.396,1.625,0.931c0.377,0.207,0.628,0.431,0.628,0.669
	c-0.195,70.889-0.458,141.778-0.652,212.667c0-0.092-0.793-0.28-1.717-0.541c-0.546,0.458-1.24,0.786-1.967,0.786
	c-109.392,0-218.783,0-328.174,0c-0.386,3.172-1.043,6.355-1.853,9.488c114.11,0,228.22,0,342.331,0
	c0.214-77.829,0.431-155.659,0.644-233.488c-28.738,0-57.477,0-86.215,0c-107.688,0-215.377,0-323.066,0
	C136.046,178.917,135.847,246.191,135.659,313.466z M135.588,338.429c1.098,2.042,2.072,4.172,2.941,6.325
	c-0.243-2.642-0.537-5.276-1.041-7.868c-0.475-2.437-1.248-4.805-1.875-7.204C135.605,332.598,135.597,335.514,135.588,338.429z
	 M156.876,392.024c-9.96-9.595-15.254-22.782-17.244-36.523c-1.16,0.046-2.306-0.013-2.442-0.458
	c-2.783-9.099-6.692-20.607-14.276-26.875c-1.313-1.085-4.678-3.829-6.415-3.438c-2.627,0.592-5.022,2.196-6.286,4.63
	c-2.306,4.439-2.328,9.761-0.033,14.242c2.691,5.257,6.61,9.527,10.253,14.118c3.86,4.864,6.273,9.76,8.638,15.454
	c3.6,8.666,8.344,15.086,16.492,18.85c1.098,0,2.195,0,3.292,0c-13.396-12.861-17.733-32.058-27.066-47.667
	c-0.638-1.067,4.029-0.87,4.831,0.471c9.148,15.302,13.317,34.781,26.751,47.197C154.54,392.024,155.708,392.024,156.876,392.024z
	 M170.184,392.024c-3.206-10.035-6.495-19.837-3.606-30.391c1.097-4.006,2.866-7.873,3.921-11.891
	c-0.332-0.472-0.564-0.938-0.565-1.318c-0.01-11.312,0.494-24.162-3.915-34.815c-4.714-11.396-21.452-8.024-26.402,1.728
	c-2.165,4.265-2.606,9.248-1.767,13.927c1.15,6.417,3.047,12.433,3.645,18.996c1.468,16.128,4.222,33.368,17.95,43.764
	c0.854,0,1.709,0,2.563,0c-5.362-17.892-7.955-36.477-13.298-54.38c-0.335-1.123,4.379-0.438,4.767,0.859
	c5.257,17.617,7.851,35.894,13.04,53.521C167.739,392.024,168.962,392.024,170.184,392.024z M184.098,377.477
	c3.746-6.396,6.916-13.148,9.523-20.087c2.728-7.26,5.052-14.767,6.163-22.462c0.828-5.734,1.571-12.551-0.997-17.981
	c-2.349-4.965-9.776-6.334-14.418-3.741c-6.906,3.857-7.254,15.449-7.862,22.305c-0.362,4.074-0.563,8.18-1.117,12.235
	c-0.595,4.357-2.253,8.106-3.592,12.283c-1.637,5.109-2.917,10.455-2.149,15.851c0.433,3.04,1.182,6.012,2.049,8.955
	c4.294-19.612,10.348-38.812,16.894-57.78c0.801-2.32,5.739-1.71,4.854,0.854c-6.839,19.818-13.137,39.889-17.456,60.419
	C179.353,385.352,181.895,381.239,184.098,377.477z M168.661,450.792c-0.328,0.149-0.66,0.293-0.996,0.429
	C168.546,451.195,168.759,450.981,168.661,450.792z M191.238,450.071l-0.478-0.127C190.461,450.083,190.158,450.208,191.238,450.071
	z M294.618,454.239c-0.904-0.161-1.371-0.426-1.976,0.126C293.03,454.65,294.088,454.339,294.618,454.239z M336.234,453.095
	c-0.627-0.123-1.193-0.14-1.692-0.099C335.23,453.178,335.84,453.255,336.234,453.095z M377.993,450.754
	c-0.442,0.009-0.192,0.063-0.162,0.17C377.866,450.862,377.924,450.807,377.993,450.754z M452.151,449.537
	c-0.82-0.089-1.24-0.162-0.057,0.024C452.113,449.551,452.129,449.545,452.151,449.537z M159.178,407.944
	c1.77-0.902,3.308-2.16,3.348-4.299c0.023-1.2-1.153-1.851-2.214-2.017c-0.802-0.126-2.703,0.055-2.725,1.244
	c-0.006,0.333-0.041,0.651-0.121,0.975c-0.003,0.012-0.003,0.015-0.005,0.025c-0.013,0.02-0.029,0.05-0.053,0.098
	c-0.064,0.128-0.148,0.245-0.231,0.361c-0.001,0.001-0.001,0.002-0.002,0.003c-0.02,0.016-0.048,0.04-0.09,0.08
	c-0.116,0.109-0.245,0.204-0.372,0.299c-0.024,0.018-0.174,0.11-0.247,0.156c-0.138,0.077-0.278,0.151-0.418,0.223
	c-0.982,0.5-1.213,1.529-0.361,2.306C156.544,408.18,158.119,408.484,159.178,407.944z M141.871,407.42
	c0.722,0.348,1.465,0.453,2.255,0.454c0.296,0-0.012-0.296-0.073-0.358c-0.351-0.354-0.773-0.648-1.183-0.926
	c-0.531-0.361-1.082-0.697-1.652-0.993c-0.282-0.146-0.741-0.435-1.083-0.435c-0.227,0-0.453-0.003-0.679-0.018
	c-0.009,0-0.017-0.003-0.026-0.003c-0.218-0.124-0.438-0.245-0.657-0.359c-0.315-0.164-0.716-0.4-1.083-0.435
	c-0.315-0.03,0.042,0.329,0.073,0.358C138.961,405.836,140.393,406.707,141.871,407.42z M293.445,194.436
	c1.026-1.157,2.229-1.917,3.67-2.453c0.651-0.242,1.341-0.353,2.027-0.444c0.31-0.038,0.621-0.055,0.933-0.052
	c0.059-0.001,0.097,0,0.141,0c0.661,0.313,1.477,0.447,2.168,0.505c0.203,0.017,1.436,0.038,0.767-0.384
	c-3.961-2.496-10.396-1.297-13.377,2.063C289.784,193.66,292.771,195.196,293.445,194.436z M295.854,199.48
	c-0.91,1.18,1.177,2.53,2.035,1.418c1.864-2.417,4.458-2.616,7.188-1.628c1.488,0.538,2.292-1.503,0.796-2.044
	C302.19,195.894,298.371,196.217,295.854,199.48z M263.947,218.396c-0.678,0.047-1.245,0.507-1.291,1.193
	c-0.046,0.695,2.19,1.685,2.24,0.928c0.015-0.223,0.161-0.396,0.34-0.514c0.093-0.061,0.194-0.086,0.299-0.108
	c0.37,0.245,0.828,0.434,1.235,0.396c0.566-0.052,0.144-0.613-0.069-0.808C265.965,218.811,264.961,218.326,263.947,218.396z
	 M295.843,210.765c-1.048,0.562,0.629,2.393,1.532,1.909c1.274-0.683,2.404-1.677,2.869-3.083c0.527-1.598-1.465-2.828-2.442-3.805
	c-0.323-0.322-1.092-0.651-1.466-0.225c-0.401,0.458,0.091,1.102,0.413,1.424c0.46,0.459,0.919,0.919,1.379,1.379
	C297.849,209.451,296.775,210.266,295.843,210.765z M476.083,450.097c0.569,0.215,3.599,0.5,2.233,0.86
	c-2.146,0.208-1.76-0.137-2.805-0.345c0.889,0.492-2.729,0.723-2.258,1.448l1.882-0.259c0.036,0.113-0.646,0.294-0.123,0.396
	c0.123-0.396,1.976-0.766,3.578-0.343c1.574-0.3,0.538-1.601-0.84-2.327C477.703,449.701,477.704,449.86,476.083,450.097z
	 M302.465,217.41c0.655-1.342-1.757-1.985-2.378-0.714c-2.585,5.295-7.968,4.352-11.222,0.281c-0.903-1.129-2.838,0.243-1.846,1.484
	C291.491,224.055,299.163,224.171,302.465,217.41z M174.106,405.63c-0.609,0.326,1.302,1.128,1.449,1.186
	c0.597,0.236,1.218,0.426,1.849,0.545c0.292,0.056,0.896,0.204,1.194,0.044c1.685-0.901,2.55-2.529,1.721-4.353
	c-0.138-0.303-0.729-0.545-0.99-0.67c-0.58-0.275-1.193-0.489-1.814-0.651c-0.163-0.042-2.156-0.527-1.87,0.102
	C176.352,403.388,175.525,404.871,174.106,405.63z M490.413,451.14l-0.069-0.224c1.499,0.085,1.174-0.19,1.359-0.363l-2.634,0.216
	L490.413,451.14z M481.298,451.862c0.23-0.06,0.488-0.007,0.714-0.068l-0.064-0.224
	C480.969,451.587,480.285,451.769,481.298,451.862z M457.724,449.468c0.523,0.104,0.326-0.519,0.623-0.355
	C458.928,448.596,454.863,449.745,457.724,449.468z M471.559,450.676c0.339-0.02,0.687-0.031,1.019-0.012
	C472.706,450.436,472.165,450.617,471.559,450.676z M492.076,449.315c-0.049,0.008-0.111,0.018-0.157,0.025
	C492.016,449.376,492.093,449.388,492.076,449.315z M489.219,449.641c0.705,0.082,1.126-0.024,1.527-0.156
	c-0.527,0.044-1.086,0.073-1.686,0.077C489.003,449.623,488.992,449.663,489.219,449.641z M474.011,448.901l-0.903,0.24l0.778,0.156
	L474.011,448.901z M477.657,448.781l-1.519,0.645l1.171-0.189L477.657,448.781z M487.147,448.478c-0.46,0.068-0.914,0.166-1.37,0.33
	C486.21,448.737,486.659,448.611,487.147,448.478z M489.931,447.946c-1.063,0.054-1.968,0.306-2.784,0.531
	c0.868-0.127,1.793-0.096,2.991,0.14C490.784,448.325,489.248,448.126,489.931,447.946z M466.051,449.029
	c0.761-0.025,1.033,0.08,1.418,0.155c-0.031-0.097-0.252-0.229-0.006-0.271L466.051,449.029z" fill="#000000"></path>
</svg>