<?xml version="1.0" standalone="no"?>
<svg version="1.1" id="Layer_1" xmlns="http://www.w3.org/2000/svg" xmlns:xlink="http://www.w3.org/1999/xlink" x="0px" y="0px" width="595.28px" height="595.28px" viewBox="0 0 595.28 595.28" enable-background="new 0 0 595.28 595.28" xml:space="preserve">
<path id="color_x5F_2" fill="#fffefd" d="M204.18,349.751c0,0.043,0.001,0.086,0.002,0.129l-0.012-0.11
	C204.173,349.763,204.177,349.757,204.18,349.751z M199.842,392.525c0.639-2.881,1.267-5.765,1.844-8.663
	c0.098-0.491,0.169-0.982,0.26-1.473C201.321,385.286,200.594,388.805,199.842,392.525z M209.876,339.896
	c-0.714,0.233-1.538,0.29-1.772-0.131C208.651,340.748,209.446,340.268,209.876,339.896z M242.088,320.392
	c-0.032-0.535-0.193-1.402-0.259-2.259c-20.717,10.475-45.23,8.721-65.104-2.794c-2.324-1.347-5.317-3.383-7.338-5.816
	c-0.632,2.11-1.229,4.23-1.828,6.349c-1.833,6.492-3.667,12.985-5.649,19.434c-3.074,10.002-6.073,21.044-10.937,30.703
	c-0.946,3.662-6.648,11.72-11.916,18.623c-13.345,20.24-25.586,41.267-39.86,60.841c0.382,0.655,0.85,1.254,1.374,1.804
	c1.525,1.152,3.593,2.652,6.036,4.281c1.078,0.594,2.298,1.258,3.556,1.926c4.415,2.208,9.388,4.083,14.158,4.909
	c0.704-0.865,2.731-0.928,2.702,0.347c1.392,0.119,2.756,0.144,4.063,0.03c2.326-0.202,5.187-6.053,6.542-7.988
	c9.792-13.979,19.366-28.115,28.801-42.337c9.46-14.26,18.699-28.563,26.91-43.583c3.397-6.214,6.626-12.59,10.196-18.731
	c0.118-0.268,0.184-0.42,0.184-0.42l0.01,0.087c0.802-1.373,1.615-2.738,2.459-4.081c0.517-0.823,3.537-5.025,4.814-2.729
	c0.15,0.27-0.364,0.633-1.003,0.865c-0.088,0.124-0.205,0.292-0.37,0.539c-0.494,0.74-0.957,1.5-1.405,2.268
	c-0.411,0.703-0.809,1.413-1.216,2.119c0.28,12.884,0.303,25.925-2.461,38.582c-2.051,9.392-4.265,18.667-5.967,28.144
	c-3.52,19.597-6.14,39.52-10.826,58.884c6.482,5.129,18.687,4.649,26.428,3.891c3.14-0.411,5.781-0.911,7.588-1.295
	c0.761-0.363,1.321-0.837,1.496-1.472c0.404-1.469,0.743-2.957,1.084-4.442c3.44-14.981,6.49-30.061,9.471-45.14
	c3.07-15.533,6.413-31.16,8.274-46.897c1.61-13.608,1.498-27.447,0.808-41.115C242.675,329.406,242.359,324.9,242.088,320.392z
	 M412.553,142.626c0,0-0.416,0.61-1.097,1.617c0.888-0.834,1.808-1.628,2.756-2.386L412.553,142.626z M489.435,214.381
	c-17.831,22.804-56.979,27.148-78.448,7.275c-12.952-11.991-14.434-30.609-11.861-47.066c3.508-22.443,18.83-38.842,41.773-41.087
	c22.854-1.257,44.925,8.47,54.261,30.307C502.136,180.128,500.447,200.297,489.435,214.381z M477.692,155.801
	c-8.947-9.082-21.917-12.05-34.276-11.478c-0.104-0.004-0.218-0.001-0.343,0.012c-20.139,2.042-32.194,16.605-34.488,36.181
	c-1.814,15.48,3.079,30.721,17.429,38.311c24.221,12.811,59.519-1.63,62.792-29.994C490.198,176.778,486.212,164.45,477.692,155.801
	z M471.27,187.481c-1.05,10.8-10.629,17.807-20.791,19.119c-9.925,1.281-20.04-3.37-23.508-13.095
	c-0.986-2.765-1.46-5.66-1.479-8.538c0.026-0.898,0.064-1.776,0.11-2.622c0.962-10.564,8.098-20.253,19.34-21.489
	C460.765,160.158,472.84,171.339,471.27,187.481z M447.92,172.758c-0.171-0.038-0.382-0.046-0.64-0.012
	c-0.193,0.005-0.371,0.04-0.533,0.096c-6.977,1.184-10.369,6.986-9.591,13.984c0.66,5.926,6.781,8.399,12.027,7.956
	c5.252-0.444,9.884-4.015,10.927-9.246C461.67,177.708,454.856,172.872,447.92,172.758z M338.258,325.638
	c-0.288-1.725-0.734-4.474-1.099-7.043C337.17,321.023,337.631,323.396,338.258,325.638z M354.771,211.817
	c0.083-2.136,0.062-3.504-1.354-4.668l0.154-0.187l-0.496,0.043c-2.698,1.208-5.778,1.889-8.567,1.539
	c-0.041,0.096-0.102,0.193-0.194,0.293c3.024,18.163,5.36,48.215-4.4,76.749c0.009,0.001,0.017,0.003,0.026,0.005
	c1.064,0.205,0.395,0.874-0.46,1.275c-2.432,6.841-5.571,13.583-9.578,20.038c-4.198,7.348-7.602,14.582-3.001,21.943
	c0.99,1.314,2.542,2.076,4.322,2.076c2.104,0,4.25-1.042,5.71-2.749c-1.759-5.424-3.007-11.781,0.225-18.245
	c0.863-1.39,1.68-2.669,2.488-3.936c4.107-6.437,7.986-12.517,10.458-19.933c6.567-22.519,8.15-44.924,4.968-70.466
	C354.674,214.327,354.723,213.051,354.771,211.817z M333.458,177.702l-0.394,0.359c0.093-0.026,0.181-0.061,0.276-0.084
	c1.647-0.408,4.139-0.529,5.22,1.112c0.744,1.128,0.66,2.437,0.248,3.687c1.866-0.602,3.838-1.093,5.817-1.287l-0.295-0.7
	c0.05-0.021,0.095-0.041,0.135-0.06c-0.049-0.059-0.1-0.117-0.145-0.169c-0.485-0.564-1.15-1.336-1.442-2.491
	c-5.384-21.265-26.196-41.751-48.411-47.655c-3.825-1.016-8.514-1.51-13.478-2.033c-15.144-1.595-32.281-3.411-33.363-20.939
	c-0.301-1.003-0.705-1.936-1.357-2.715c-1.133-0.681-2.646-0.673-3.081-0.653c-2.645,0.119-5.44,1.564-5.345,3.691
	c0.467,10.394,4.799,17.24,13.633,21.547c6.82,3.325,14.864,4.158,22.643,4.962c2.301,0.238,4.68,0.484,6.951,0.791
	c24.891,3.364,46.123,20.701,51.826,42.25C333.151,177.408,333.339,177.571,333.458,177.702z M239.576,213.204
	c-0.244-0.031-0.441-0.115-0.538-0.272c-0.073-0.118-0.153-0.231-0.227-0.349c-0.117-0.11-0.189-0.224-0.221-0.34
	c-0.184-0.289-0.372-0.576-0.561-0.861c-1.363,3.167-2.724,6.335-4.09,9.5c2.769,5.328,5.101,10.87,7.146,16.273
	c0.066,0.174,0.125,0.35,0.19,0.524c2.424-1.143,4.853-2.278,7.284-3.407c-0.39-1.892-0.818-3.772-1.327-5.631
	c-1.03-3.769-2.264-8.217-4.509-11.776c-0.001,0-0.003-0.001-0.005-0.001c-0.564-0.224-0.708-0.567-0.609-0.909
	C241.374,214.927,240.534,213.999,239.576,213.204z M251.145,257.221c-0.312-7.039-0.916-14.166-2.219-21.132
	c-2.348,1.091-4.693,2.187-7.033,3.292c2.935,8.008,5.415,16.188,7.453,24.479c0.667,0.164,1.334,0.328,2.001,0.492
	C251.318,261.953,251.249,259.573,251.145,257.221z M232.417,218.055c1.31-3.039,2.617-6.078,3.925-9.117
	c-3.326-4.607-7.083-8.893-10.327-13.568c-3.454,0.875-6.91,1.71-10.425,2.259C222.596,203.022,228.035,210.221,232.417,218.055z
	 M225.458,212.302c-0.73-1.075-1.481-2.132-2.265-3.162C223.93,210.151,224.686,211.204,225.458,212.302z M251.284,272.32
	c0.058-1.995,0.077-3.981,0.072-5.96c-0.494-0.121-0.987-0.243-1.48-0.364C250.372,268.099,250.844,270.206,251.284,272.32z
	 M200.691,308.447c2.348-0.712,4.664-1.884,6.64-3.656c0.648-0.781,1.227-1.682,1.704-2.752c4.513-10.131,3.463-22.182,3.333-33.089
	c-2.415,0.857-5.63,1.122-7.354,1.508c-3.792,0.85-7.596,1.656-11.407,2.43c-2.335,7.105-6.619,13.828-14.576,14.925
	c-1.342,2.784-2.949,5.434-4.471,7.839c-1.314,2.078-2.718,4.084-4.114,6.104C178.053,303.41,191.447,310.028,200.691,308.447z
	 M192.229,249.744c5.391-1.431,11.3-3.594,16.697-3.701c0.833-1.114,1.702-2.189,2.654-3.172
	c-1.207-7.968-3.421-15.948-6.195-23.501c-2.18-5.937-5.731-17.165-12.72-19.417l-18.633,10.19
	C185.049,219.646,191.826,235.284,192.229,249.744z M207.345,247.532c-0.104-0.067-0.19-0.154-0.241-0.268
	c0.053,0.119,0.124,0.207,0.198,0.275L207.345,247.532z M187.037,236.47c0.835,3.438,1.501,6.878,1.96,9.479
	C188.626,242.786,187.964,239.603,187.037,236.47z M448.054,180.376c-1.842,0-3.334,1.492-3.334,3.333
	c0,1.842,1.492,3.334,3.334,3.334c1.841,0,3.333-1.492,3.333-3.334C451.387,181.868,449.895,180.376,448.054,180.376z"></path>
<path id="color_x5F_1" d="M206.663,169.111c-1.062,0.514-2.254,0.848-3.437,0.874c-0.479,0.01-1.421-0.077-1.298-0.798
	c0.111-0.653,1.032-1.072,1.62-1.085c0.757-0.016,1.267-0.156,1.896-0.46c0.533-0.258,1.509-0.396,1.945,0.129
	C207.843,168.32,207.098,168.9,206.663,169.111z M209.63,179.607c-0.777,0-1.555,0-2.333,0c-0.643,0-1.51,0.227-1.918,0.769
	c-0.414,0.549,0.35,0.769,0.763,0.769c0.777,0,1.555,0,2.333,0c0.643,0,1.51-0.227,1.918-0.769
	C210.807,179.827,210.044,179.607,209.63,179.607z M189.179,176.909c-0.893-0.789-3.469,0.528-2.252,1.603
	c0.235,0.208,0.569,0.285,0.794,0.484c0.548,0.485,1.306,0.469,1.955,0.167c0.383-0.178,1.257-0.92,0.708-1.407
	C190.006,177.422,189.551,177.238,189.179,176.909z M356.598,204.978c-0.476,0.349-0.989,0.682-1.526,0.998
	c1.833,1.792,1.773,3.974,1.698,5.919c-0.044,1.138-0.086,2.212,0.232,3.165l0.043,0.192c3.233,25.861,1.634,48.55-5.032,71.404
	c-2.562,7.687-6.505,13.868-10.681,20.413c-0.805,1.261-1.618,2.536-2.431,3.837c-1.281,2.566-1.754,5.157-1.742,7.688
	c0.011,2.429,0.472,4.801,1.099,7.043c0.231,0.826,0.481,1.636,0.744,2.422l0.166,0.497l-0.314,0.419
	c-1.826,2.434-4.749,3.946-7.629,3.946c-2.425,0-4.545-1.046-5.97-2.946c-5.23-8.361-1.417-16.485,2.932-24.096
	c3.779-6.089,6.763-12.442,9.112-18.894c-19.735-3.846-39.258-9.166-58.775-13.954c-8.086-1.984-16.172-3.973-24.258-5.958
	c-0.02,5.601-0.277,11.252-0.855,16.864c0.029,0.184,0.064,0.366,0.093,0.549c0.018,0.114-0.056,0.226-0.183,0.332
	c-1.179,10.803-3.578,21.432-7.886,31.201c-0.127,0.288-0.414,0.506-0.758,0.648c0.006,1,0.282,2.48,0.312,2.947
	c0.146,2.32,0.307,4.64,0.448,6.961c1.268,20.819,0.934,41.354-2.58,61.92c-3.073,17.985-6.658,35.887-10.373,53.749
	c-1.489,7.163-2.995,14.323-4.597,21.46c-0.424,1.888-0.633,7.03-2.284,8.379c-1.721,1.407-3.925,2.298-6.308,2.868
	c4.931,1.341,17.746,4.875,16.167,10.225c-0.856,2.902-4.247,4.488-7.66,5.434c-0.39,0.108-0.78,0.21-1.167,0.302
	c-1.751,0.417-3.432,0.685-4.693,0.891c-8.538,1.396-17.705,1.616-26.205-0.176c-3.236-0.682-8.56-1.612-10.452-4.691
	c-2.624-4.271-0.517-9.5,0.819-13.883c0.065-0.215,0.257-0.401,0.508-0.552c-0.59-0.349-1.161-0.723-1.688-1.149
	c-0.082-0.066-0.098-0.145-0.072-0.229c0-0.015-0.005-0.027-0.001-0.044c4.715-19.426,7.32-39.414,10.869-59.074
	c1.182-6.55,2.686-13.006,4.123-19.48c0.639-2.881,1.267-5.765,1.844-8.663c0.098-0.491,0.169-0.982,0.26-1.473
	c1.993-10.771,2.364-21.603,2.236-32.509c0-0.043-0.001-0.086-0.002-0.129c-0.003,0.006-0.007,0.012-0.01,0.019
	c-6.95,12.411-13.45,25.056-21.089,37.083c-9.838,15.49-20.081,30.728-30.422,45.885c-4.226,6.194-8.466,12.378-12.778,18.512
	c-1.61,2.291-3.408,6.16-5.763,7.813c-1.837,1.29-4.399,1.543-7.088,1.305c0.381,6.907,5.649,13.045,6.039,20.009
	c0.44,7.857-7.899,8.868-14.027,8.252c-15.192-1.527-36.226-26.524-19.471-38.604c-1.338-1.132-2.484-2.396-3.309-3.834
	c-0.084-0.147,0.039-0.325,0.273-0.495c9.159-12.597,17.226-26.036,25.602-39.154c4.563-7.147,9.116-14.303,13.812-21.364
	c3.038-4.568,6.644-8.928,9.333-13.708c7.485-13.307,11.756-28.574,16.005-43.151c1.676-5.75,3.238-11.534,4.937-17.277
	c0.431-1.456,0.624-3.026,1.582-3.958c-0.949-2.049-1.007-4.278,0.585-6.556c4.782-6.841,11.492-16.104,10.734-24.896
	c-0.09,0.016-0.18,0.033-0.27,0.049c-8.234,1.434-28.298,5.155-30.577-7.359c-1.203-6.603,1.438-13.535,3.505-19.707
	c2.677-7.99,5.719-15.851,8.409-23.835c2.15-6.384,6.089-10.586,10.792-13.979c-0.041-0.185,0.457-0.503,1.052-0.738
	c6.033-4.112,13.152-7.107,19.354-11.675c0.125-0.092,0.314-0.165,0.532-0.222c0.084-0.069,0.186-0.134,0.294-0.195
	c-0.18-2.029-0.381-4.098-0.714-6.134c-0.21,0.008-0.418-0.021-0.608-0.11c-9.071-4.239-21.425-15.379-21.298-26.429
	c0.119-10.332,10.243-16.597,18.808-20.01c8.265-3.294,36.529-12.701,31.788,5.994c-0.066,0.26-0.233,0.48-0.455,0.657
	c-0.039,0.067-0.079,0.135-0.136,0.207c-1.16,1.467-2.909,2.459-4.743,3.216c1.245,2.194,2.576,4.351,3.864,6.532
	c0.071,0.039,0.107,0.093,0.097,0.165c1.551,2.632,3.031,5.301,4.2,8.122c1.454,3.509,3.645,9.009,0.627,12.379
	c-2.167,2.42-5.331,3.317-8.374,4.127c-1.959,0.521-5.335,1.021-5.785,3.456c-0.404,2.18,0.507,4.25,1.512,6.158
	c0.184,0.021,0.334,0.063,0.43,0.128c9.61-0.58,18.522-4.617,28.052-5.718c1.624-0.188,3.232-0.275,4.83-0.285
	c0.047-0.109,0.094-0.218,0.141-0.328c7.829-18.176,15.31-36.593,23.863-54.447c-6.135-0.749-12.244-1.871-17.715-4.539
	c-9.432-4.599-14.258-12.205-14.755-23.255c-0.153-3.407,3.568-5.614,7.253-5.779c3.747-0.171,6.355,1.77,6.492,4.822
	c0.73,16.241,16.428,17.895,31.609,19.494c5.043,0.531,9.806,1.033,13.781,2.089c22.862,6.076,44.287,27.183,49.835,49.097
	c0.177,0.698,0.625,1.218,1.02,1.677c0.462,0.537,0.986,1.146,0.797,1.952c-0.004,0.016-0.015,0.026-0.019,0.042
	c0.552-0.226,1.187-0.326,1.573-0.141c3.248,1.56,5.098,4.555,2.022,7.425c-0.138,0.128-0.292,0.243-0.437,0.367
	c0.354-0.014,0.704-0.021,1.05-0.014c0.602-0.317,1.407-0.497,1.864-0.277c1.646,0.79,3.869,2.152,3.7,4.292
	c-0.131,1.664-1.382,3.016-2.666,3.981c0.034,0,0.067,0.004,0.101,0.004c0.602-0.317,1.407-0.497,1.864-0.277
	c1.646,0.79,3.869,2.152,3.7,4.292C359.253,202.618,357.924,204.007,356.598,204.978z M346.246,191.192
	c-1.336,0.647-2.758,1.138-4.192,1.454c-0.175,0.083-0.357,0.163-0.524,0.25c-1.051,0.545-2.867,1.614-2.388,3.088
	c0.448,1.377,1.683,2.391,3.098,2.631c0.924,0.157,2.157,0.058,3.461-0.228c0.906-0.343,1.839-0.634,2.792-0.867
	c3.783-1.533,6.757-4.313,3.036-6.75c-0.172,0.042-0.344,0.059-0.508,0.042C349.517,190.664,347.862,190.826,346.246,191.192z
	 M341.466,200.538c-0.321-0.042-0.639-0.093-0.951-0.163c-3.875-0.868-5.579-4.682-2.726-7.298c-1.162-0.025-2.332-0.2-3.351-0.73
	c-1.618-0.842-3.363-2.838-2.602-4.771c0.599-1.522,1.95-2.596,3.446-3.386c0.686-1.205,1.396-2.828,0.625-3.823
	c-0.571-0.737-1.664-0.599-2.477-0.261c-3.96,1.642-5.321,5.912-4.43,9.881c0.039,0.172,0.026,0.333-0.024,0.483
	c4.878,4.228,7.782,12.864,6.687,19.255c0.018-0.003,0.037-0.008,0.055-0.011c2.192-0.346,4.308-0.677,6.183-1.938
	C339.005,206.24,338.24,202.763,341.466,200.538z M284.531,219.442c-0.992,0.467-1.984,0.931-2.976,1.398
	c3.173,0,6.305-0.09,9.361-0.25c0.861-1.484,1.81-2.917,2.644-4.417c0.254-0.458,0.539-0.966,0.736-1.459
	c-0.056,0.048-0.1,0.097-0.173,0.143C291.169,216.707,287.674,217.962,284.531,219.442z M293.028,215.24
	c0.012-0.004,0.019-0.006,0.031-0.009c-0.012,0.001-0.023,0.001-0.035,0.001C293.026,215.235,293.027,215.238,293.028,215.24z
	 M293.721,220.405c7.179-0.565,14.303-1.995,21.297-3.65c5.555-1.314,12.407-2.285,17.388-5.249
	c0.012-0.007,0.024-0.011,0.037-0.018c1.743-6.295-1.25-16.201-6.539-20.217c-0.047,0.241-0.27,0.51-0.762,0.767
	c-16.643,8.697-36.041,6.393-53.967,4.026c-8.243-1.089-16.537-3.524-24.876-3.894c-2.313,5.371-4.626,10.741-6.937,16.112
	c0.672,0.944,1.323,1.904,1.948,2.884c1.451,1.078,2.669,2.431,3.702,3.952c9.959,3.833,21.311,5.375,32.408,5.668
	c1.967-0.925,3.936-1.846,5.902-2.772c2.405-1.133,6.631-2.92,8.536-3.99c0.132-0.126,0.32-0.25,0.59-0.364
	c0.298-0.125,0.589-0.217,0.912-0.261c0.514-0.071,0.977,0.132,1.17,0.436c0.072-0.727-0.268-1.315-1.512-1.501
	c-3.371-0.503-6.946,0.257-10.124-1.276c-1.172-0.565,1.495-1.765,2.314-1.369c2.245,1.083,4.813,0.798,7.233,0.905
	c1.343,0.06,3.62,0.006,4.589,1.169c1.031,1.236,0.199,2.667-0.485,3.899C295.653,217.273,294.645,218.814,293.721,220.405z
	 M200.691,308.447c2.628-0.45,4.914-1.575,6.64-3.656c0.648-0.781,1.227-1.682,1.704-2.752c4.513-10.131,3.463-22.182,3.333-33.089
	c-2.415,0.857-5.63,1.122-7.354,1.508c-3.792,0.85-7.596,1.656-11.407,2.43c-2.335,7.105-6.619,13.828-14.576,14.925
	c-1.342,2.784-2.949,5.434-4.471,7.839c-1.314,2.078-2.718,4.084-4.114,6.104C178.053,303.41,191.447,310.028,200.691,308.447z
	 M214.891,262.108c6.549-2.198,27.767-2.72,19.838-11.086c-0.12-0.126-0.184-0.255-0.209-0.381
	c-0.313-0.085-0.503-0.272-0.417-0.592c0.759-2.838,0.078-4.866-2.422-6.288c-0.252-0.061-0.443-0.189-0.532-0.386
	c-0.033-0.073-0.049-0.157-0.049-0.251c0-0.032-0.007-0.061-0.002-0.096c0.341-2.812-1.099-5.164-4.081-5.233
	c-0.316-0.008-0.667-0.154-0.83-0.394c-0.521,0.198-1.183,0.275-1.622,0.179c-1.917,0.829-3.878,1.482-5.849,2.237
	c-3.342,1.28-5.489,3.922-7.551,6.743C212.517,251.33,214.3,256.856,214.891,262.108z M241.275,237.679
	c2.424-1.143,4.853-2.278,7.284-3.407c-0.39-1.892-0.818-3.772-1.327-5.631c-1.03-3.769-2.264-8.217-4.509-11.776
	c-0.001,0-0.003-0.001-0.005-0.001c-0.564-0.224-0.708-0.567-0.609-0.909c-0.736-1.028-1.577-1.956-2.534-2.75
	c-0.244-0.031-0.441-0.115-0.538-0.272c-0.073-0.118-0.153-0.231-0.227-0.349c-0.117-0.11-0.189-0.224-0.221-0.34
	c-0.184-0.289-0.372-0.576-0.561-0.861c-1.363,3.167-2.724,6.335-4.09,9.5c2.769,5.328,5.101,10.87,7.146,16.273
	C241.151,237.329,241.21,237.505,241.275,237.679z M232.417,218.055c1.31-3.039,2.617-6.078,3.925-9.117
	c-3.326-4.607-7.083-8.893-10.327-13.568c-3.454,0.875-6.91,1.71-10.425,2.259C222.596,203.022,228.035,210.221,232.417,218.055z
	 M232.411,224.475c-1.572,3.844-3.019,7.951-5.025,11.563c0.24-0.053,0.481-0.086,0.704-0.081c3.372,0.078,5.661,2.133,5.942,5.187
	c1.509-0.732,3.023-1.456,4.538-2.177c-0.131-0.344-0.25-0.692-0.383-1.036C236.461,233.473,234.569,228.921,232.411,224.475z
	 M233.949,259.959c4.085,0.775,8.192,2.119,12.149,3.1c-1.903-7.589-4.192-15.077-6.899-22.389
	c-1.473,0.702-2.947,1.404-4.414,2.117c0.901,0.587,1.712,1.322,2.154,2.317c0.63,1.418,0.484,2.938,0.112,4.403
	c0.121,0.057,0.234,0.126,0.325,0.223C241.714,254.306,238.891,258.026,233.949,259.959z M251.355,266.36
	c-0.494-0.121-0.987-0.243-1.48-0.364c0.496,2.103,0.968,4.21,1.408,6.324C251.341,270.325,251.36,268.339,251.355,266.36z
	 M251.347,264.351c-0.029-2.397-0.098-4.777-0.202-7.13c-0.312-7.039-0.916-14.166-2.219-21.132
	c-2.348,1.091-4.693,2.187-7.033,3.292c2.935,8.008,5.415,16.188,7.453,24.479C250.013,264.022,250.68,264.187,251.347,264.351z
	 M251.322,232.992c3.915-1.813,7.832-3.624,11.736-5.456c3.387-1.589,6.773-3.182,10.16-4.772
	c-9.003-0.439-18.031-1.72-26.378-4.434c1.342,2.792,2.276,5.825,3.03,8.583C250.42,228.923,250.896,230.952,251.322,232.992z
	 M347.033,183.259c-0.173,0.044-0.348,0.066-0.513,0.052c-1.318-0.107-5.762,0.553-8.854,1.86c-0.076,0.127-0.152,0.252-0.227,0.373
	c-0.312,0.501-1.117,0.757-1.805,0.753c-1.209,0.937-1.595,2.078-0.305,3.402c1.627,1.67,3.813,1.73,5.972,1.263
	c1.33-0.607,2.763-1.096,4.228-1.452c1.078-0.544,2.064-1.239,2.78-2.15C349.687,185.607,348.525,184.212,347.033,183.259z
	 M246.271,104.726c-1.133-0.681-2.646-0.673-3.081-0.653c-2.645,0.119-5.44,1.564-5.345,3.691
	c0.467,10.394,4.799,17.24,13.633,21.547c6.82,3.325,14.864,4.158,22.643,4.962c2.301,0.238,4.68,0.484,6.951,0.791
	c24.891,3.364,46.123,20.701,51.826,42.25c0.254,0.093,0.442,0.256,0.561,0.387l-0.394,0.359c0.093-0.026,0.181-0.061,0.276-0.084
	c1.647-0.408,4.139-0.529,5.22,1.112c0.744,1.128,0.66,2.437,0.248,3.687c1.866-0.602,3.838-1.093,5.817-1.287l-0.295-0.7
	c0.05-0.021,0.095-0.041,0.135-0.06c-0.049-0.059-0.1-0.117-0.145-0.169c-0.485-0.564-1.15-1.336-1.442-2.491
	c-5.384-21.265-26.196-41.751-48.411-47.655c-3.825-1.016-8.514-1.51-13.478-2.033c-15.144-1.595-32.281-3.411-33.363-20.939
	c-0.009-0.153-0.027-0.298-0.034-0.454C247.543,105.849,246.981,105.153,246.271,104.726z M247.024,190.482
	c6.15,0.281,12.18,1.565,18.33,2.701c18.68,3.452,41.125,6.666,58.608-2.47c0.272-0.143,0.556-0.206,0.821-0.215
	c-0.545-0.449,0.232-1.046,1.09-1.311c-0.356-4.238,1.603-8.498,5.4-10.437c-0.114-0.189-0.167-0.373-0.19-0.461
	c-5.232-20.667-26.378-38.012-50.28-41.241c-2.24-0.303-4.498-0.537-6.889-0.784c-1-0.104-2.005-0.208-3.012-0.317
	C262.347,153.83,254.845,172.27,247.024,190.482z M228.969,194.62c2.733,3.892,5.801,7.526,8.667,11.311
	c1.979-4.602,3.961-9.203,5.942-13.804c-2.066,0.03-4.135,0.206-6.206,0.588C234.542,193.237,231.75,193.917,228.969,194.62z
	 M212.353,198.045c-0.683,0.066-1.37,0.116-2.059,0.154c-1.792,2.21-3.202,4.161-6.367,3.84c-1.453-0.147-3.021-0.287-4.591-0.518
	c4.013,3.875,6.479,10.536,8.125,14.871c2.958,7.791,5.387,15.965,6.767,24.213c0.52-0.36,1.058-0.701,1.636-0.996
	c2.814-1.436,5.944-2.089,8.773-3.54c2.485-4.429,4.154-9.603,6.148-14.223c0.048-0.11,0.095-0.221,0.143-0.332
	c-1.653-3.178-3.47-6.269-5.47-9.213c-0.73-1.075-1.481-2.132-2.265-3.162c-3.131-4.114-6.698-7.846-10.841-10.949
	C212.305,198.156,212.311,198.105,212.353,198.045z M212.086,156.354c-0.342,0.108-0.681,0.213-1.008,0.314
	c-4.83,1.486-9.757,2.476-14.75,3.173c1.955,5.272,0.413,10.272-1.889,15.373c-0.407,0.902-2.199,1.112-2.727,0.488
	c-0.342,0.009-0.631-0.065-0.775-0.271c-1.376-1.975-3.664-1.885-5.105-0.794c-0.478,0.561-0.868,1.109-1.172,1.633
	c-0.22,0.697-0.199,1.488,0.209,2.313c0.648,1.308,1.85,1.556,3.138,1.876c1.627,0.404,2.938,0.841,3.799,2.403
	c2.534,4.597,2.941,10.226,3.401,15.391c3,1.568,6.88,1.981,10.27,2.237c0.918-1.049,1.845-2.092,2.78-3.127
	c-1.458-2.789-3.115-6.767-0.071-9.035c2.779-2.071,6.236-2.316,9.395-3.495c8.34-3.113,3.732-13.2-0.888-21.001
	c-0.289,0.196-0.578,0.389-0.866,0.581c-0.393,0.261-0.912,0.43-1.417,0.504c2.62,2.821,6.639,6.761,1.842,9.432
	c-0.799,0.445-3.43,0.335-1.731-0.61c3.671-2.044-1.998-6.801-3.49-8.499c-0.6-0.684,2.149-1.698,2.712-1.058
	c0.013,0.015,0.027,0.03,0.04,0.044c0.754-0.501,1.508-1.008,2.171-1.627C214.428,160.091,212.984,157.901,212.086,156.354z
	 M217.202,151.245c0.036-0.042,0.076-0.083,0.118-0.12c0.037-0.159,0.066-0.312,0.097-0.466
	C217.351,150.859,217.278,151.054,217.202,151.245z M174.027,210.138c0.001,0.001,0.003,0.003,0.004,0.004
	c11.017,9.505,17.794,25.143,18.197,39.602c5.391-1.431,11.3-3.594,16.697-3.701c0.833-1.114,1.702-2.189,2.654-3.172
	c-1.207-7.968-3.421-15.948-6.195-23.501c-2.18-5.937-5.731-17.165-12.72-19.417c-0.117-0.038-0.232-0.08-0.351-0.112
	C186.941,203.413,179.88,206.263,174.027,210.138z M200.819,269.844c2.648-0.575,5.298-1.152,7.928-1.805
	c0.686-0.17,2.973-0.941,3.421-0.851c0.254-6.292-2.081-13.473-3.803-19.503c-0.396,0.048-0.771,0.01-1.021-0.152
	c-0.104-0.067-0.19-0.154-0.241-0.268c0.053,0.119,0.124,0.207,0.198,0.275c0.437,0.4,1.049,0.05-0.357,0.362
	c-0.844,0.188-1.688,0.379-2.531,0.576c-2.354,0.548-4.706,1.106-7.059,1.656c-4.734,1.106-9.476,2.264-14.265,3.113
	c-1.547,0.274-5.451,1.432-5.938-1.06c-1.044-5.335,1.402-11.316,1.954-16.627c0.101-0.973,3.017-1.527,2.896-0.366
	c-0.291,2.806-0.86,5.561-1.346,8.337c-0.378,2.161-1.492,5.749-0.606,7.879c0.668,1.606,6.906-0.283,9.281-0.94
	c-0.043-1.496-0.153-3.005-0.332-4.521c-0.372-3.163-1.034-6.346-1.96-9.479c-2.805-9.485-8.055-18.463-15.149-24.823
	c-3.614,2.733-6.549,6.002-7.977,10.312c-4.182,12.618-10.366,25.249-12.626,38.407c-0.938,5.465-0.236,11.654,5.688,13.846
	c6.076,2.249,13.106,1.367,19.35,0.353C184.525,273.232,192.698,271.606,200.819,269.844z M182.043,275.104
	c0.269,3.724-0.715,7.47-2.25,11.036c5.969-1.094,9.072-7.293,10.847-12.657C187.778,274.047,184.912,274.586,182.043,275.104z
	 M214.407,475.706c-0.712,0.061-1.421,0.108-2.124,0.139c0.931,0.001,1.668-0.038,2.104-0.135
	C214.394,475.708,214.399,475.707,214.407,475.706z M197.934,490.103l-6.46-1.809c1.908,0.874,4.055,1.36,6.029,1.736
	C197.646,490.058,197.791,490.077,197.934,490.103z M221.77,472.984c0.761-0.363,1.321-0.837,1.496-1.472
	c0.404-1.469,0.743-2.957,1.084-4.442c3.44-14.981,6.49-30.061,9.471-45.14c3.07-15.533,6.413-31.16,8.274-46.897
	c1.61-13.608,1.498-27.447,0.808-41.115c-0.228-4.512-0.543-9.017-0.814-13.526c-0.032-0.535-0.193-1.402-0.259-2.259
	c-20.717,10.475-45.23,8.721-65.104-2.794c-2.324-1.347-5.317-3.383-7.338-5.816c-0.632,2.11-1.229,4.23-1.828,6.349
	c-1.833,6.492-3.667,12.985-5.649,19.434c-3.074,10.002-6.073,21.044-10.937,30.703c-1.355,2.691-2.846,5.281-4.534,7.703
	c-2.511,3.604-4.962,7.25-7.382,10.92c-13.345,20.24-25.586,41.267-39.86,60.841c0.382,0.655,0.85,1.254,1.374,1.804
	c0.865,0.908,1.879,1.687,2.913,2.37c0.829,0.548,1.718,1.1,2.646,1.647c0.157,0.086,0.315,0.174,0.478,0.264
	c1.078,0.594,2.298,1.258,3.556,1.926c4.415,2.208,9.388,4.083,14.158,4.909c0.704-0.865,2.731-0.928,2.702,0.347
	c1.392,0.119,2.756,0.144,4.063,0.03c2.326-0.202,5.187-6.053,6.542-7.988c9.792-13.979,19.366-28.115,28.801-42.337
	c9.46-14.26,18.699-28.563,26.91-43.583c3.397-6.214,6.626-12.59,10.196-18.731c0.064-0.111,0.129-0.222,0.194-0.333
	c0.131-0.224,0.27-0.442,0.401-0.666c0.021-0.061,0.056-0.119,0.105-0.174c0.642-1.087,1.283-2.174,1.953-3.241
	c0.517-0.823,3.537-5.025,4.814-2.729c0.15,0.27-0.364,0.633-1.003,0.865c-0.088,0.124-0.205,0.292-0.37,0.539
	c-0.494,0.74-0.957,1.5-1.405,2.268c-0.411,0.703-0.809,1.413-1.216,2.119c0.28,12.884,0.303,25.925-2.461,38.582
	c-2.051,9.392-4.265,18.667-5.967,28.144c-3.52,19.597-6.14,39.52-10.826,58.884c6.482,5.129,18.687,4.649,26.428,3.891
	c0.048-0.004,0.101-0.009,0.148-0.014C215.808,474.119,219.613,474.012,221.77,472.984z M209.876,339.896
	c-0.714,0.233-1.538,0.29-1.772-0.131C208.651,340.748,209.446,340.268,209.876,339.896z M250.475,284.499
	c-1.031-6.461-2.313-12.91-3.852-19.301c-0.439-0.108-0.878-0.216-1.317-0.324c-4.693-1.147-10.994-3.194-15.268-3.702
	c-2.349,0.606-4.741,1.052-7.133,1.462c-2.019,0.346-5.619,0.26-7.384,1.429c-0.142,0.093-0.3,0.159-0.465,0.204
	c0.033,0.745,0.038,1.481,0.007,2.206c0.115,0.062,0.188,0.146,0.189,0.265c0.025,7.367,0.378,14.782-0.378,22.126
	c-0.672,6.528-1.75,13.609-7.137,17.954c-10.483,8.455-26.639-0.596-38.017-3.365c-0.083,2.693,3.7,6.937,5.16,7.828
	c10.58,6.462,21.54,11.477,34.129,11.798c11.564,0.296,23.217-1.908,33.42-7.491c0.121-0.066,0.243-0.111,0.365-0.147
	C247.003,305.794,249.342,295.219,250.475,284.499z M337.936,285.185c9.57-27.761,7.474-57.075,4.548-75.156
	c-1.24,0.665-2.565,1.155-3.957,1.432c-0.649,0.129-1.303,0.228-1.957,0.322c-0.41,0.375-1.096,0.646-1.691,0.618
	c-0.16,0.197-0.424,0.359-0.729,0.481c-0.113,0.125-0.259,0.248-0.452,0.363c-5.212,3.102-12.33,4.189-18.14,5.527
	c-7.836,1.805-15.869,3.538-23.925,3.921c-4.702,0.224-9.563,0.322-14.465,0.207c-4.3,2.021-8.601,4.043-12.902,6.062
	c-4.186,1.963-8.385,3.902-12.583,5.848c1.239,6.464,1.932,13.043,2.269,19.604c0.18,3.506,0.287,7.067,0.309,10.653
	c8.679,2.13,17.356,4.265,26.035,6.394C299.439,276.155,318.588,281.357,337.936,285.185z M353.827,206.65
	c-0.247,0.123-0.498,0.24-0.751,0.354c-2.698,1.208-5.778,1.889-8.567,1.539c-0.041,0.096-0.102,0.193-0.194,0.293
	c3.024,18.163,5.36,48.215-4.4,76.749c0.009,0.001,0.017,0.003,0.026,0.005c1.064,0.205,0.395,0.874-0.46,1.275
	c-2.432,6.841-5.571,13.583-9.578,20.038c-4.198,7.348-7.602,14.582-3.001,21.943c0.99,1.314,2.542,2.076,4.322,2.076
	c2.104,0,4.25-1.042,5.71-2.749c-1.759-5.424-3.007-11.781,0.225-18.245c0.863-1.39,1.68-2.669,2.488-3.936
	c4.107-6.437,7.986-12.517,10.458-19.933c6.567-22.519,8.15-44.924,4.968-70.466c-0.398-1.267-0.349-2.542-0.301-3.777
	c0.083-2.136,0.062-3.504-1.354-4.668l0.154-0.187L353.827,206.65z M354.528,198.769c-0.172,0.042-0.344,0.059-0.508,0.042
	c-1.273-0.125-2.656-0.021-4.033,0.234c-1.411,0.624-2.922,1.102-4.442,1.366c-0.351,0.154-0.691,0.316-1.016,0.484
	c-1.051,0.545-2.867,1.614-2.388,3.088c0.448,1.377,1.683,2.391,3.098,2.631C349.526,207.344,360.416,202.626,354.528,198.769z
	 M473.509,229.809c-1.068,0.518-2.169,0.997-3.282,1.457c1.587,5.395,1.85,11.645,2.737,17.13
	c2.06,12.735,4.097,25.474,6.117,38.215c2.095,13.215,4.181,26.432,6.197,39.659c0.955,6.267,2.58,12.86,2.724,19.219
	c0.017,0.754-2.889,1.177-2.897,0.776c-0.15-6.613-1.846-13.475-2.842-19.991c-1.983-12.969-4.024-25.929-6.079-38.886
	c-2.06-12.988-4.134-25.974-6.236-38.956c-0.833-5.145-1.094-10.988-2.53-16.082c-6.273,2.248-13.09,3.593-19.956,3.9
	c-0.997,29.198-1.387,58.527-1.459,87.738c-0.001,0.769-2.898,1.156-2.897,0.776c0.073-29.447,0.467-59.013,1.481-88.445
	c-7.297,0.014-14.558-1.174-21.184-3.721c-1.326,5.167-1.614,10.991-2.457,16.132c-2.055,12.541-4.088,25.085-6.104,37.632
	c-2.078,12.941-4.147,25.883-6.146,38.836c-0.945,6.124-2.549,12.573-2.693,18.789c-0.018,0.781-2.906,1.137-2.897,0.776
	c0.149-6.471,1.825-13.188,2.813-19.563c2.017-13.028,4.095-26.046,6.188-39.063c2.043-12.711,4.102-25.42,6.188-38.125
	c0.864-5.263,1.117-11.271,2.703-16.416c-8.042-3.59-14.984-9.313-19.642-17.518c-8.668-15.271-8.067-35.932-1.815-51.97
	c2.779-7.129,6.852-13.104,11.919-17.868c0.888-0.834,1.808-1.628,2.756-2.386c7.403-5.92,16.593-9.53,26.926-10.541
	c14.921-0.821,30.683,2.264,42.408,12.089c10.312,8.641,16.943,21.025,18.26,34.457
	C503.972,199.957,493.715,220.019,473.509,229.809z M399.125,174.59c-2.572,16.457-1.091,35.076,11.861,47.066
	c21.468,19.874,60.617,15.529,78.448-7.275c11.012-14.084,12.701-34.253,5.725-50.572c-9.336-21.837-31.406-31.564-54.261-30.307
	C417.955,135.748,402.634,152.146,399.125,174.59z M408.585,180.516c2.293-19.576,14.349-34.138,34.488-36.181
	c0.114-0.006,0.229-0.006,0.343-0.012c12.358-0.572,25.329,2.396,34.276,11.478c8.521,8.649,12.506,20.978,11.115,33.032
	c-3.273,28.363-38.571,42.804-62.792,29.994C411.665,211.236,406.771,195.996,408.585,180.516z M417.84,208.656
	c9.401,11.78,26.11,14.983,40.19,11.085c15.329-4.244,27.421-16.469,28.013-32.917c0.377-10.494-2.676-21.305-10.195-28.937
	c-8.777-8.91-20.792-12.12-33.046-11.486c-7.284,0.739-14.653,3.153-19.993,8.388C409.864,167.479,406.071,193.907,417.84,208.656z
	 M423.363,191.573c-2.739-15.604,5.196-30.758,21.531-32.739c0.107-0.013,0.211-0.032,0.319-0.044
	c0.125-0.006,0.252-0.006,0.377-0.01c7.915-0.281,16.305,1.57,21.921,7.568c5.382,5.75,7.975,14.012,6.56,21.833
	c-2.152,11.896-12.969,19.729-24.711,20.569C437.874,209.572,425.534,203.938,423.363,191.573z M425.492,184.967
	c0.019,2.877,0.493,5.772,1.479,8.538c3.469,9.725,13.583,14.376,23.508,13.095c10.162-1.312,19.74-8.319,20.791-19.119
	c1.57-16.142-10.505-27.323-26.328-26.625c-11.242,1.235-18.378,10.925-19.34,21.489
	C425.523,183.215,425.486,184.089,425.492,184.967z M437.156,186.826c-0.778-6.998,2.614-12.801,9.591-13.984
	c0.179-0.03,0.35-0.071,0.533-0.096c0.258-0.034,0.468-0.026,0.64,0.012c6.936,0.114,13.75,4.95,12.19,12.778
	c-1.042,5.23-5.674,8.802-10.927,9.246C443.938,195.225,437.816,192.752,437.156,186.826z M449.455,192.715
	c3.982-0.561,7.658-3.421,7.813-7.716c0.225-6.218-4.057-10.347-10.26-10.187C436.34,176.219,438.215,194.298,449.455,192.715z" fill="#030a0f"></path>
</svg>