<?xml version="1.0" standalone="no"?>
<svg version="1.1" id="Layer_1_1_" xmlns="http://www.w3.org/2000/svg" xmlns:xlink="http://www.w3.org/1999/xlink" x="0px" y="0px" viewBox="0 0 2000 2000" enable-background="new 0 0 2000 2000" xml:space="preserve">
<path id="color_x5F_10" fill="#90A7B5" d="M1124.1,1094c-0.1,1.2,0,2.2,0.1,3.3v-0.1c-4.7-1-8.6,0.5-11.1,2.2
	c-1.6-3.6-2.5-7.7-3-11.5c6.1-2.8,13,0.4,13,0.4s0.4,0,1,0C1124.2,1090,1124.2,1091.9,1124.1,1094z M1121.7,1084.7
	c0.8,0.3,1.4,0.5,2,0.8c-0.9-5.2-2.7-6.9-2.7-6.9c-4.9,0.1-8.7-0.9-11.5-2.4c-0.1,2.4,0,5.8,0.4,9.6
	C1112.7,1084,1116.8,1082.9,1121.7,1084.7z M1125.1,1100.5C1125.1,1100.6,1125.1,1100.6,1125.1,1100.5c-2.6-0.8-7.1-1.5-11.2,0.7
	c0.7,1.3,1.4,2.5,2.3,3.7c4.8,6.1,9,3.8,11.8,0.6C1126.9,1104,1125.8,1102.4,1125.1,1100.5z M1195.4,1131.8
	c-1.8-2.2-3.6-4.4-5.3-6.4c0.5,0.6,1,1.2,1.6,1.8c-2.1,0-4.9,0.8-6.6,4.9c-0.2,0.5-0.4,1-0.6,1.4l-2.8-3c1.3-1.5,4.5-4.8,7.5-6
	l0.9,1l-4.8-4.9c-0.5-0.4-1-0.6-1.3-0.6c-2.8-0.1-4.7,4.2-8.3,4.1l12.6,13.5l-0.4-0.5C1189.7,1135.2,1192.8,1132.3,1195.4,1131.8z
	 M1201.3,1138.4c-1-1-2-2.1-3.1-3.4l0,0c-1.9-0.3-5.3-0.2-7.4,4c2.8,1.5,7.3,3.6,9.2,2.8C1201.3,1141.1,1201.5,1139.7,1201.3,1138.4
	z M700.1,1118.1L482.6,992.6v50.2l217.5,125.6l391.4-226v-50.2L700.1,1118.1z M1206.7,920.2l4.1,39.3c0,0-12.5,11-29.3,9.3l1,10.8
	l0.1,4.4c-7,1.9-26.8,5.4-40.6-8c2.4-13.8,3.9-34.6,4.7-48.7c6.2,3,19.8,7.9,35.9,3.9C1194.8,928.2,1202.4,923.7,1206.7,920.2z"></path>
<path id="color_x5F_9" fill="#c7d7d8" d="M1138.8,988.4c1.2-2.4,2.3-6.9,3.2-12.4c13.8,13.4,33.6,10,40.6,8l0.2,7.1
	C1160.3,1004.6,1138.8,988.4,1138.8,988.4z M1181.5,968.8l1,10.8c0,0,25.9-3.1,29.4-10l-1.1-10.1l0,0
	C1210.8,959.5,1198.3,970.5,1181.5,968.8z M1198,1134.8L1198,1134.8L1198,1134.8z M1182.4,1120.3L1182.4,1120.3L1182.4,1120.3z
	 M1212.1,1152.6c-3.6,7.6-15.7,6.3-19.6,6.7c-3.9,0.4-14.4-12.2-21.9-14.8c-7.5-2.7-8.5-4.1-8.5-4.1c-5.4-20.5,4.5-21.9,4.5-21.9
	c0,3.3,5.3,5.5,9,5.7c0.1,0,0.1,0,0.2,0l0,0l12.6,13.5c0,0,8.9,5.4,11.6,4.2c1.4-0.6,1.5-2.1,1.4-3.4l0,0c0.1,0.1,0.3,0.3,0.4,0.4
	C1207.1,1144,1215.7,1144.9,1212.1,1152.6z M1182.8,1120.1h0.1C1182.9,1120.1,1182.9,1120.1,1182.8,1120.1z M1184.3,1120
	c0.1,0,0.2,0.1,0.2,0.1C1184.4,1120,1184.3,1120,1184.3,1120z M1185.3,1120.5c-0.3-0.2-0.5-0.3-0.7-0.4
	C1184.8,1120.2,1185,1120.3,1185.3,1120.5z M1185.3,1120.5c1.3,0.9,2.9,2.7,4.8,4.9L1185.3,1120.5z M1184,1119.9L1184,1119.9
	L1184,1119.9L1184,1119.9z M1183.3,1120h0.1C1183.4,1119.9,1183.4,1120,1183.3,1120z M1196.6,1133.1
	C1196.6,1133.2,1196.6,1133.2,1196.6,1133.1C1196.6,1133.2,1196.6,1133.2,1196.6,1133.1z M1195.2,1131.4L1195.2,1131.4
	L1195.2,1131.4z M1195.9,1132.3L1195.9,1132.3L1195.9,1132.3z M1197.3,1134L1197.3,1134L1197.3,1134z M1190.8,1126.2
	c-0.2-0.3-0.4-0.5-0.7-0.8C1190.4,1125.7,1190.6,1125.9,1190.8,1126.2z M1191.5,1127c-0.2-0.3-0.4-0.5-0.7-0.8
	C1191.1,1126.5,1191.3,1126.8,1191.5,1127z M1192.2,1127.9c-0.2-0.3-0.5-0.6-0.7-0.8C1191.8,1127.3,1192,1127.6,1192.2,1127.9z
	 M1194.5,1130.6c-0.8-0.9-1.5-1.8-2.3-2.7C1193,1128.8,1193.8,1129.7,1194.5,1130.6z M1133.4,1117c-2.9,7.4-4.3,11.1-18.3,7.5
	s-12.7-21.1-17.5-27.5s-8.6-10.1-8.7-14.1s5.5-16.1,12.8-15.2c0,0,1.9,5.1,7.8,8.3l0,0c-0.2,6.4,0.3,20.5,6.7,28.7
	c4.8,6.1,9,3.8,11.8,0.6l0,0C1131.3,1109.7,1135.1,1112.7,1133.4,1117z M1051.5,898.7L711.4,1095l46.3-26.8v-218l49.4-28.5v218.2
	l55.8-32.2l-0.4-217.9L1051.5,898.7z M682.5,893.6l36.5-21.1L522.6,986l188.9,109.1l-29.2-16.9L682.5,893.6z M1147.6,891.3
	c11.7-13.5,45.3-17.3,54.6-18.1c-1.5-10-2.8-19.3-2.8-19.3l-2-12.8c-21.3-5.4-51.9,18.5-51.9,18.5
	C1148.9,872.6,1147.8,882.9,1147.6,891.3z M1610.2,548.7l52,30c2.4,1.4,3.9,4,3.9,6.7l-0.1,59.9c0,6-6.5,9.7-11.6,6.7l-51.9-30
	c-2.4-1.4-3.9-3.9-3.9-6.7v-59.9C1598.5,549.5,1605,545.7,1610.2,548.7z M1522.9,510.3v59.9c0,2.8,1.5,5.3,3.9,6.7l51.9,30
	c5.2,3,11.6-0.7,11.6-6.7l0.1-59.9c0-2.8-1.5-5.3-3.9-6.7l-52-30C1529.3,500.6,1522.9,504.3,1522.9,510.3z M1181,804.2L1181,804.2
	L1181,804.2z M1199.4,854.1c0-0.1,0-0.1,0-0.2C1199.4,854,1199.4,854.1,1199.4,854.1z M1201.7,869.6c0-0.3-0.1-0.6-0.1-0.8
	C1201.6,869,1201.6,869.3,1201.7,869.6z M1201.9,871.4c-0.1-0.5-0.1-0.9-0.2-1.4C1201.8,870.5,1201.8,870.9,1201.9,871.4z
	 M1201.4,867.7v-0.1C1201.4,867.7,1201.4,867.7,1201.4,867.7z M1199.6,855.6c0-0.1,0-0.2,0-0.2
	C1199.6,855.5,1199.6,855.5,1199.6,855.6z M1200.4,861.2L1200.4,861.2L1200.4,861.2z M1200.9,864.3L1200.9,864.3L1200.9,864.3z
	 M1162.7,812.1c0,0,0,0.1,0.1,0.1C1162.8,812.2,1162.8,812.2,1162.7,812.1z M1163.2,812.7c-0.1-0.1-0.1-0.1-0.2-0.2
	C1163.1,812.5,1163.1,812.6,1163.2,812.7z M1163.2,812.7c0.1,0.1,0.1,0.1,0.2,0.2C1163.4,812.8,1163.3,812.8,1163.2,812.7z
	 M1162.7,812.1V812V812.1z M1179.8,803.9c-1.7-0.6-3.3-1.3-4.8-2.3c0.4,1.7,0.8,3.4,1.1,4.9c0.8-0.4,1.7-1,2.7-1.5
	c0.5,1.4,0.8,2.6,1.1,3.8l0,0c-0.3-1.4-0.8-2.9-1.4-4.6C1178.5,804.3,1179,804.1,1179.8,803.9L1179.8,803.9z M1193.3,801.7l0.1-0.1
	C1193.4,801.6,1193.4,801.6,1193.3,801.7z M1186.4,804.8c-0.1,0-0.3,0-0.4,0C1186.1,804.9,1186.2,804.8,1186.4,804.8z M1184.5,804.8
	c-0.4,0-0.8-0.1-1.2-0.1C1183.7,804.8,1184.1,804.8,1184.5,804.8z M1179.9,808.9c0,0.1,0,0.2,0,0.2c0.1,0.5,0.2,1,0.3,1.4
	c0,0.1,0,0.2,0.1,0.3c0.1,0.4,0.1,0.8,0.2,1.1c0,0.1,0,0.3,0,0.4c0,0.3,0,0.6,0.1,0.9c0,0.1,0,0.2,0,0.3c0,0.4,0,0.7,0,1
	c0,0.1,0,0.2,0,0.3c0,0.2-0.1,0.5-0.1,0.7c0,0.1,0,0.2-0.1,0.2c-0.1,0.3-0.1,0.5-0.2,0.8v0.1c-0.1,0.2-0.2,0.4-0.3,0.6
	c0,0.1-0.1,0.1-0.1,0.1c-0.1,0.2-0.2,0.3-0.4,0.5l0,0c-0.2,0.2-0.3,0.3-0.5,0.4c0,0-0.1,0-0.1,0.1c-0.1,0-0.1,0.1-0.2,0.1l0,0
	c-4,2-12.3-3.2-14.9-5.5C1167.4,816.4,1184.1,826.4,1179.9,808.9z M1182.4,804.6c-0.1,0-0.2,0-0.3-0.1
	C1182.2,804.5,1182.3,804.6,1182.4,804.6z M1197.1,768.2c0.1,0.2,0.1,0.3,0.2,0.5C1197.3,768.5,1197.2,768.3,1197.1,768.2z
	 M1197.6,769.3c0.1,0.2,0.2,0.4,0.2,0.6C1197.7,769.7,1197.7,769.5,1197.6,769.3z M1191.2,803.4c0.1,0,0.2-0.1,0.2-0.1
	C1191.4,803.3,1191.3,803.3,1191.2,803.4z M1196.6,767c0,0.1,0.1,0.2,0.1,0.3C1196.7,767.2,1196.6,767.1,1196.6,767z M1155.6,778.3
	L1155.6,778.3L1155.6,778.3z M1198.6,772.9c-0.1-0.3-0.1-0.6-0.2-0.8C1198.5,772.3,1198.6,772.6,1198.6,772.9z M1155.4,778.1
	L1155.4,778.1L1155.4,778.1z M1682.9,688.6v323.7L1524,920.6c-17.1-9.9-38.5,2.5-38.5,22.2v98.8l-262.2-151.4
	c-1.2-2.2-2.1-4.1-2.4-5.4c-1.1-4.8-15.9-23.9-21.5-30.9l0,0c9.6-3.7,13.7-13.5,13.7-13.5s-11.4-10-11.3-22.8
	c0.1-17.6-6.2-17.3-7.6-17l-0.1,0.1c4.6-5.8,5.3-16.9,4.5-27.8c0.3,1.4,0.5,3,0.5,4.4c-0.1,5.6,3.5-7.2,0.7-14.3
	c13.4-7.6,5.1-27,5.1-27s-4.7-16.7-20.1-8.2s-9,20.1-9,20.1c-9.5-5-13.9,5.4-13.9,5.4s-4-1.7-8.1,3.5c-4.2,5.2-0.6,10.8-0.6,10.8
	c-1,2.3-0.6,4.8,0.2,6.8c-1.5-0.2-2.9,0.5-3.1,3.6c-0.4,7.1,8.3,7.2,8.3,7.2s0.7,1,1.9,2.6c0.5,5.5,1.6,18.5,0.6,23
	c-1.4-0.3-3.1-0.1-3.1-0.1s-25.5,13.4-26.9,14.1c-0.9,0.4-2.8,5.3-4.4,9.6L941.3,727.5V259.8L1682.9,688.6z M1158.8,810.4
	c0.4,0,0.7,0.1,1,0.3l0,0l0,0C1159.5,810.5,1159.2,810.4,1158.8,810.4z M981.3,474.1l128.2,74L1366,696.2v-49.4l-384.7-222V474.1z
	 M1366,773.9v-49.4l-384.7-222v49.4l128.2,74L1366,773.9z M1385.2,850.9c0-3.1-1.7-6-4.4-7.5l-93.4-53.9c-5.8-3.4-13.1,0.8-13.1,7.5
	v43.8c0,3.1,1.7,6,4.4,7.5l93.4,53.9c5.8,3.4,13.1-0.8,13.1-7.5V850.9z M1620.3,807.4c0-7.6-4-14.6-10.6-18.3l-92.5-53.4
	c-14.1-8.2-31.8,2-31.8,18.3v106.8c0,7.6,4,14.6,10.6,18.3l92.5,53.4c14.1,8.2,31.8-2,31.8-18.3V807.4z M1198.3,771.7
	c-0.1-0.5-0.3-0.9-0.4-1.3C1198.1,770.8,1198.2,771.2,1198.3,771.7z M1162.9,812.3c0,0,0.1,0.1,0.1,0.2
	C1162.9,812.4,1162.9,812.3,1162.9,812.3z M1187.3,804.7c0.1,0,0.3,0,0.4-0.1C1187.6,804.7,1187.5,804.7,1187.3,804.7z
	 M1188.9,804.4L1188.9,804.4L1188.9,804.4z M1192.4,802.5L1192.4,802.5L1192.4,802.5z M1190.1,803.9c0.1,0,0.2-0.1,0.2-0.1
	C1190.3,803.9,1190.2,803.9,1190.1,803.9z M1162.5,811.6L1162.5,811.6L1162.5,811.6z M1162.2,811.3L1162.2,811.3L1162.2,811.3z
	 M1161.7,811.1h-0.1H1161.7z"></path>
<path id="color_x5F_8" fill="#768a91" d="M1885,1272v59l-842.9,486.6L115,1282.3v-59l927.1,535.3L1885,1272z M1620.3,807.4v106.8
	c0,16.3-17.6,26.5-31.8,18.3l-92.5-53.4c-6.6-3.8-10.6-10.8-10.6-18.3V754c0-16.3,17.6-26.5,31.8-18.3l92.5,53.4
	C1616.3,792.9,1620.3,799.9,1620.3,807.4z M1523.8,806.3c0,14.2,10,31.5,22.3,38.7c12.4,7.1,22.4,1.4,22.5-12.8s-10-31.5-22.3-38.7
	C1533.9,786.4,1523.9,792.1,1523.8,806.3z M1596,922.3c-7.9-27.4-27.2-54.7-49.9-67.8c-22.7-13.1-42.1-8.2-50.1,10.1L1596,922.3z
	 M1485.5,942.8v252.1c0,9.2,4.9,17.7,12.8,22.2l218.3,126.1c17.1,9.9,38.5-2.5,38.5-22.2v-252.1c0-9.2-4.9-17.7-12.8-22.2
	L1524,920.6C1506.9,910.7,1485.5,923,1485.5,942.8z M1367.3,1248.6c-5.8-4.6-8.5-11.5-8-12.7c0.8-2.1,0-87.3-0.1-93.2
	c0-0.2,0.1-0.4,0.2-0.6l3.4-4.2c0.2-0.3,0.3-0.7,0.1-1.1l0,0c-0.3-0.5-1-0.6-1.5-0.2c-12.2,12.2-16.5,32.1-18.7,50
	c-3.3,26-5.3,53.4,5.3,77.3c4.7,10.6,11.4,20.8,18.4,30.5c0.5,0.7,1.7,0.4,1.7-0.5c-0.1-8.4-0.2-25.1-0.4-44.5
	C1367.6,1249,1367.5,1248.7,1367.3,1248.6z M1282,1285c0,0.7-0.6,1.1-1.2,0.9l-6.1-2.2c-0.4-0.1-0.6-0.5-0.6-0.9
	c0.5-8.3,5.3-90.8,7.6-124.8c2.4-35.8,15.7-35.4,18.2-37.2l0,0c-1.5,1-3.1,2.1-4.7,3.5C1280.2,1137.1,1281.3,1250.9,1282,1285z
	 M1441.1,1150.2l-53.6,30.9l35.7,20.6l53.6-30.9L1441.1,1150.2z"></path>
<path id="color_x5F_7" fill="#FFFFFF" d="M1366,646.9v49.4l-256.4-148.1l-128.2-74v-49.4L1366,646.9z M981.3,502.5v49.4l128.2,74
	l256.5,148v-49.4L981.3,502.5z M807.3,821.6v218.2l55.8-32.2l-0.4-217.9L807.3,821.6z M682.5,893.6l-0.3,184.6l29.2,16.9l46.3-26.8
	V850.2L682.5,893.6z M1523.8,806.3c0,14.2,10,31.5,22.3,38.7c12.4,7.1,22.4,1.4,22.5-12.8c0-14.2-10-31.5-22.3-38.7
	C1533.9,786.4,1523.9,792.1,1523.8,806.3z M1496,864.5l100,57.7c-7.9-27.4-27.2-54.7-49.9-67.8C1523.4,841.4,1504,846.3,1496,864.5z
	"></path>
<path id="color_x5F_6" fill="#e2e9e9" d="M1362,1070.7c0,0.1,0,0.1,0,0.2C1362,1070.9,1362,1070.8,1362,1070.7z M1346.1,1079
	c0.1,0,0.2-0.1,0.3-0.1C1346.2,1079,1346.2,1079,1346.1,1079z M1363.7,1091.5c0,0.1-0.1,0.1-0.1,0.2
	C1363.6,1091.6,1363.6,1091.6,1363.7,1091.5z M1361.6,1071.7c0-0.1,0.1-0.1,0.1-0.2C1361.7,1071.5,1361.6,1071.6,1361.6,1071.7z
	 M1363.3,1092.2c0,0.1-0.1,0.1-0.1,0.2C1363.3,1092.3,1363.3,1092.3,1363.3,1092.2z M1361.2,1072.2c0,0.1-0.1,0.1-0.2,0.2
	C1361.1,1072.3,1361.2,1072.2,1361.2,1072.2z M1360.5,1072.9c-0.1,0.1-0.1,0.1-0.2,0.2C1360.4,1073,1360.4,1072.9,1360.5,1072.9z
	 M1330.5,1090c0,0.1,0.1,0.2,0.1,0.3C1330.6,1090.2,1330.6,1090.1,1330.5,1090z M1362,1070.5c0-0.1,0-0.1,0-0.2
	C1362,1070.4,1362,1070.5,1362,1070.5z M1364.5,1099.2c0.2,0,0.4-0.1,0.6-0.2C1364.9,1099.1,1364.7,1099.2,1364.5,1099.2z
	 M1365.7,1098.5c-0.2,0.2-0.4,0.4-0.6,0.5C1365.3,1098.9,1365.5,1098.7,1365.7,1098.5L1365.7,1098.5L1365.7,1098.5z M1366.5,1098
	L1366.5,1098L1366.5,1098z M1366.8,1098C1366.8,1098.1,1366.8,1098.1,1366.8,1098C1366.8,1098.1,1366.8,1098.1,1366.8,1098z
	 M1365.2,1090.2C1365.1,1090.2,1365.1,1090.2,1365.2,1090.2C1365.1,1090.2,1365.2,1090.2,1365.2,1090.2z M1368.4,1098.9
	c0.1,0,0.2,0.1,0.3,0.1C1368.5,1099,1368.4,1099,1368.4,1098.9z M1367.1,1098.2L1367.1,1098.2L1367.1,1098.2z M1364.6,1090.5
	c-0.1,0-0.1,0.1-0.2,0.1C1364.5,1090.6,1364.6,1090.6,1364.6,1090.5z M1366.2,1098L1366.2,1098L1366.2,1098z M1360.1,1073.2
	c-0.1,0.1-0.1,0.1-0.2,0.2C1359.9,1073.3,1360,1073.3,1360.1,1073.2z M1366,1098.2C1365.9,1098.2,1365.9,1098.2,1366,1098.2
	C1365.9,1098.2,1365.9,1098.2,1366,1098.2z M1365.8,1089.9L1365.8,1089.9L1365.8,1089.9z M1358.6,1074.2c-0.1,0-0.2,0.1-0.3,0.1
	C1358.4,1074.3,1358.5,1074.2,1358.6,1074.2z M1359.4,1073.7c0.1-0.1,0.2-0.1,0.2-0.2C1359.6,1073.6,1359.5,1073.6,1359.4,1073.7z
	 M1353.5,1076.4c-0.1,0-0.2,0.1-0.3,0.1C1353.3,1076.5,1353.4,1076.5,1353.5,1076.4z M1350.6,1077.4c-0.1,0-0.2,0.1-0.3,0.1
	C1350.4,1077.5,1350.5,1077.5,1350.6,1077.4z M1352.1,1076.9c-0.1,0-0.2,0.1-0.3,0.1C1351.8,1077,1351.9,1077,1352.1,1076.9z
	 M1352.8,1076.7c-0.1,0-0.2,0.1-0.3,0.1C1352.5,1076.8,1352.7,1076.7,1352.8,1076.7z M1351.3,1077.2c-0.1,0-0.2,0.1-0.3,0.1
	C1351.1,1077.3,1351.2,1077.2,1351.3,1077.2z M1347.3,1078.6c0.1,0,0.2-0.1,0.3-0.1C1347.5,1078.5,1347.4,1078.5,1347.3,1078.6z
	 M1346.7,1078.8c0.1,0,0.2-0.1,0.3-0.1C1346.9,1078.7,1346.8,1078.8,1346.7,1078.8z M1348.2,1078.3c-0.1,0-0.1,0.1-0.2,0.1
	C1348.1,1078.3,1348.2,1078.3,1348.2,1078.3z M1348.9,1078c-0.1,0-0.1,0-0.2,0.1C1348.8,1078.1,1348.9,1078,1348.9,1078z
	 M1349.7,1077.8L1349.7,1077.8L1349.7,1077.8z M1357.2,1074.9c0.1,0,0.2-0.1,0.3-0.1C1357.4,1074.8,1357.3,1074.8,1357.2,1074.9z
	 M1357.8,1074.6c0.1,0,0.2-0.1,0.3-0.1C1357.9,1074.5,1357.9,1074.6,1357.8,1074.6z M1354.2,1076.2c-0.1,0-0.2,0.1-0.3,0.1
	C1354,1076.2,1354.1,1076.2,1354.2,1076.2z M1356.8,1075c-0.1,0-0.2,0.1-0.3,0.1C1356.6,1075.1,1356.7,1075.1,1356.8,1075z
	 M1368.3,1098.9c-0.1,0-0.1-0.1-0.2-0.1C1368.1,1098.8,1368.2,1098.8,1368.3,1098.9z M1359.1,1073.8c-0.1,0.1-0.2,0.1-0.3,0.2
	C1359,1073.9,1359.1,1073.9,1359.1,1073.8z M1360.7,1072.7c0.1-0.1,0.1-0.1,0.2-0.2C1360.8,1072.6,1360.8,1072.6,1360.7,1072.7z
	 M1354.5,1076c0.1,0,0.2-0.1,0.3-0.1C1354.8,1075.9,1354.6,1076,1354.5,1076z M1355.5,1075.6c-0.1,0-0.2,0.1-0.3,0.1
	C1355.3,1075.7,1355.4,1075.7,1355.5,1075.6z M1355.9,1075.5c0.1,0,0.2-0.1,0.3-0.1C1356.1,1075.4,1356,1075.4,1355.9,1075.5z
	 M1361.9,1071.1c0,0.1-0.1,0.1-0.1,0.2C1361.8,1071.2,1361.9,1071.2,1361.9,1071.1z M1334.8,1081.9c0.1,0,0.1,0.1,0.2,0.1
	C1334.9,1082,1334.9,1082,1334.8,1081.9z M1366.4,1089.7h0.1C1366.5,1089.7,1366.5,1089.7,1366.4,1089.7z M1331,1079.8
	c-0.2-0.1-0.3-0.1-0.5-0.2C1330.7,1079.7,1330.8,1079.8,1331,1079.8z M1336,1082.8c0.1,0,0.1,0.1,0.2,0.1
	C1336.1,1082.9,1336.1,1082.8,1336,1082.8z M1331.2,1079.9c0.3,0.1,0.5,0.2,0.8,0.4C1331.8,1080.2,1331.5,1080,1331.2,1079.9z
	 M1337.1,1083.7l-0.1-0.1C1337,1083.7,1337.1,1083.7,1337.1,1083.7z M1339.7,1087.3C1339.7,1087.3,1339.7,1087.4,1339.7,1087.3
	C1339.7,1087.4,1339.7,1087.3,1339.7,1087.3z M1329.9,1079.5c0.1,0,0.2,0.1,0.4,0.1C1330.1,1079.5,1330,1079.5,1329.9,1079.5z
	 M1339.4,1086.6C1339.4,1086.7,1339.4,1086.7,1339.4,1086.6C1339.4,1086.7,1339.4,1086.7,1339.4,1086.6z M1337.9,1084.5
	L1337.9,1084.5L1337.9,1084.5z M1328.9,1079.4c0.1,0,0.2,0,0.3,0C1329,1079.4,1328.9,1079.4,1328.9,1079.4z M1327.6,1080.7
	c0,0.1,0,0.3,0,0.4C1327.5,1081,1327.6,1080.9,1327.6,1080.7z M1327.7,1080.2c0-0.1,0.1-0.1,0.1-0.2
	C1327.8,1080.1,1327.8,1080.1,1327.7,1080.2z M1327.7,1080.3c0,0.1-0.1,0.2-0.1,0.3C1327.6,1080.5,1327.7,1080.4,1327.7,1080.3z
	 M1331,1090.9c0-0.1-0.1-0.1-0.1-0.2C1330.9,1090.8,1331,1090.9,1331,1090.9z M1329.3,1079.4c0.1,0,0.2,0,0.3,0
	C1329.5,1079.4,1329.4,1079.4,1329.3,1079.4z M1330.8,1090.6c0-0.1-0.1-0.1-0.1-0.2C1330.8,1090.5,1330.8,1090.6,1330.8,1090.6z
	 M1328.5,1079.5c0.1,0,0.1,0,0.2-0.1C1328.6,1079.4,1328.5,1079.5,1328.5,1079.5z M1339.9,1087.9
	C1339.9,1088,1339.9,1088,1339.9,1087.9C1339.9,1088,1339.9,1088,1339.9,1087.9z M1328.3,1079.5c-0.1,0-0.1,0.1-0.2,0.1
	C1328.2,1079.6,1328.3,1079.6,1328.3,1079.5z M1327.9,1079.9c0-0.1,0.1-0.1,0.1-0.2C1328,1079.8,1328,1079.8,1327.9,1079.9z
	 M1333.6,1081.2l-0.1-0.1L1333.6,1081.2z M1343.1,1081.1L1343.1,1081.1L1343.1,1081.1z M1342.4,1082.9v0.1
	C1342.3,1083,1342.3,1082.9,1342.4,1082.9z M1342.6,1082.1c0-0.1,0-0.1,0.1-0.2C1342.7,1082,1342.7,1082,1342.6,1082.1z
	 M1342.1,1084v-0.1V1084z M1342,1084.9c0,0.1,0,0.1,0,0.2C1342,1085.1,1342,1085,1342,1084.9z M1342,1086.2v-0.1
	C1342,1086.2,1342,1086.2,1342,1086.2z M1340,1088.5C1340.1,1088.5,1340.1,1088.6,1340,1088.5
	C1340.1,1088.6,1340.1,1088.5,1340,1088.5z M1364,1091.1c0.1-0.1,0.1-0.1,0.2-0.2C1364.1,1091,1364,1091.1,1364,1091.1z
	 M1344.3,1079.9l0.1-0.1C1344.4,1079.8,1344.3,1079.8,1344.3,1079.9z M1343.7,1080.4l-0.1,0.1L1343.7,1080.4z M1363,1093.2
	c-0.2,1-0.2,1.8-0.2,2.6C1362.8,1095.1,1362.9,1094.2,1363,1093.2z M1340.1,1090.1L1340.1,1090.1L1340.1,1090.1z M1342,1087.3
	c0-0.1,0-0.1,0-0.2C1342,1087.2,1342,1087.3,1342,1087.3z M1340.1,1095.1h0.9c-0.5,0-0.9-0.4-0.9-0.9V1095.1z M1340.1,1089.5
	C1340.1,1089.5,1340.1,1089.4,1340.1,1089.5C1340.1,1089.4,1340.1,1089.5,1340.1,1089.5z M1342.7,1092.4L1342.7,1092.4
	L1342.7,1092.4z M1340.1,1089.8L1340.1,1089.8L1340.1,1089.8z M1342.1,1088.5c0-0.1,0-0.1,0-0.2
	C1342,1088.4,1342.1,1088.4,1342.1,1088.5z M1342.5,1091.6c0-0.1,0-0.1,0-0.2C1342.5,1091.5,1342.5,1091.6,1342.5,1091.6z
	 M1342.3,1090.6c0-0.1,0-0.1,0-0.2C1342.3,1090.5,1342.3,1090.6,1342.3,1090.6z M1342.2,1089.5L1342.2,1089.5L1342.2,1089.5z
	 M1361.5,1071.8c0,0.1-0.1,0.1-0.1,0.2C1361.4,1072,1361.5,1071.9,1361.5,1071.8z M1154.6,930.4h0.1
	C1154.6,930.4,1154.6,930.4,1154.6,930.4z M1163.5,932.3c-0.2,0-0.3,0-0.4-0.1C1163.2,932.3,1163.3,932.3,1163.5,932.3z M1156.8,931
	c-0.2,0-0.3-0.1-0.5-0.1C1156.5,930.9,1156.7,931,1156.8,931z M1158.5,931.4c0.1,0,0.2,0,0.2,0.1
	C1158.7,931.5,1158.6,931.4,1158.5,931.4z M1166.2,932.6c-0.2,0-0.4,0-0.6,0C1165.8,932.6,1166,932.6,1166.2,932.6z M1161.3,932
	c-0.2,0-0.4-0.1-0.6-0.1C1160.9,931.9,1161.1,931.9,1161.3,932z M1184.7,979.3c-0.1,0-0.2,0-0.3,0
	C1184.6,979.3,1184.6,979.3,1184.7,979.3z M1194.8,927.2c-0.2,0.1-0.4,0.2-0.7,0.3C1194.3,927.4,1194.5,927.3,1194.8,927.2z
	 M1168.6,932.7c-0.2,0-0.4,0-0.6,0C1168.2,932.7,1168.4,932.7,1168.6,932.7z M1183.2,979.5c0.1,0,0.1,0,0.2,0
	C1183.4,979.5,1183.3,979.5,1183.2,979.5z M1182.8,979.6h0.1C1182.9,979.6,1182.9,979.6,1182.8,979.6z M1197.2,926.1
	c0.2-0.1,0.4-0.2,0.5-0.3C1197.6,925.9,1197.4,926,1197.2,926.1z M1199.1,925.1c-0.1,0.1-0.3,0.1-0.4,0.2
	C1198.9,925.2,1199,925.2,1199.1,925.1z M1200.2,924.5c0.1,0,0.1-0.1,0.2-0.1C1200.3,924.4,1200.3,924.5,1200.2,924.5z
	 M1195.7,926.8c0.2-0.1,0.4-0.2,0.6-0.3C1196.1,926.6,1195.9,926.7,1195.7,926.8z M1185.3,979.2c0.1,0,0.2,0,0.2,0
	S1185.4,979.2,1185.3,979.2z M1204.9,921.5L1204.9,921.5L1204.9,921.5z M1205.1,891.7c-0.1-0.6-0.2-1.2-0.3-1.9
	C1204.9,890.5,1205,891.1,1205.1,891.7z M1149.5,928.6c-0.1,0-0.1-0.1-0.2-0.1C1149.4,928.5,1149.4,928.6,1149.5,928.6z M1151,929.2
	c0.1,0,0.1,0,0.2,0.1C1151.1,929.2,1151,929.2,1151,929.2z M1204.7,889.2c0-0.2-0.1-0.5-0.1-0.7
	C1204.6,888.7,1204.7,888.9,1204.7,889.2z M1152.9,929.8c-0.1,0-0.3-0.1-0.4-0.1C1152.6,929.8,1152.8,929.8,1152.9,929.8z
	 M1183.8,979.5c0.1,0,0.1,0,0.2,0C1183.9,979.4,1183.9,979.4,1183.8,979.5z M1182.8,991.2c-0.6,0.4-1.3,0.7-1.9,1.1
	C1181.5,991.9,1182.2,991.6,1182.8,991.2z M1174.6,994.9c0.6-0.2,1.2-0.4,1.8-0.6C1175.8,994.5,1175.2,994.7,1174.6,994.9z
	 M1166.9,996.4c0.3,0,0.6-0.1,0.9-0.1C1167.5,996.3,1167.2,996.3,1166.9,996.4z M1170.9,995.8c0.4-0.1,0.8-0.2,1.2-0.2
	C1171.7,995.6,1171.3,995.7,1170.9,995.8z M1172.8,995.4c0.4-0.1,0.8-0.2,1.2-0.3C1173.6,995.2,1173.2,995.3,1172.8,995.4z
	 M1170.2,995.9c-0.6,0.1-1.1,0.2-1.6,0.3C1169.1,996.1,1169.7,996,1170.2,995.9z M1171.5,932.7c-0.2,0-0.4,0-0.5,0
	C1171.1,932.7,1171.3,932.7,1171.5,932.7z M1174.2,932.6c-0.2,0-0.4,0-0.7,0C1173.7,932.6,1173.9,932.6,1174.2,932.6z M1180,931.8
	c-0.2,0-0.5,0.1-0.7,0.1C1179.5,931.9,1179.8,931.9,1180,931.8z M1177,932.3c-0.1,0-0.2,0-0.4,0.1
	C1176.8,932.3,1176.9,932.3,1177,932.3z M1195.2,977.4c0.1,0,0.3-0.1,0.4-0.1C1195.5,977.3,1195.4,977.3,1195.2,977.4z
	 M1191.5,978.1c-0.1,0-0.3,0.1-0.4,0.1C1191.3,978.2,1191.4,978.2,1191.5,978.1z M1192.5,978c0.1,0,0.3-0.1,0.4-0.1
	C1192.7,977.9,1192.6,977.9,1192.5,978z M1189.9,978.5c0.1,0,0.2,0,0.3-0.1C1190.1,978.4,1190,978.4,1189.9,978.5z M1193.8,977.7
	c0.1,0,0.3-0.1,0.4-0.1C1194.1,977.6,1194,977.6,1193.8,977.7z M1180.3,992.5c-0.5,0.2-0.9,0.4-1.4,0.7
	C1179.4,993,1179.9,992.8,1180.3,992.5z M1188.7,978.7C1188.7,978.7,1188.8,978.7,1188.7,978.7
	C1188.8,978.7,1188.7,978.7,1188.7,978.7z M1186.3,979.1c0.1,0,0.1,0,0.2,0C1186.4,979.1,1186.4,979.1,1186.3,979.1z M1176.8,994.1
	c0.5-0.2,1-0.4,1.5-0.6C1177.8,993.7,1177.3,993.9,1176.8,994.1z M1182.7,979.6C1182.6,979.6,1182.6,979.6,1182.7,979.6
	C1182.6,979.6,1182.6,979.6,1182.7,979.6z M1197,976.9c-0.1,0-0.2,0.1-0.3,0.1C1196.8,977,1196.9,977,1197,976.9z M1318.6,1096.2
	c-0.1,0-0.2,0-0.3,0C1318.4,1096.1,1318.5,1096.1,1318.6,1096.2z M1326.7,1096.4c0.1,0,0.2,0,0.2-0.1
	C1326.9,1096.4,1326.8,1096.4,1326.7,1096.4z M1327.4,1096.2c-0.1,0-0.2,0.1-0.2,0.1C1327.3,1096.3,1327.3,1096.2,1327.4,1096.2z
	 M1327.7,1096.1c0.1,0,0.1-0.1,0.2-0.1C1327.8,1096,1327.7,1096.1,1327.7,1096.1z M1328.6,1095.6c0.1,0,0.1-0.1,0.2-0.1
	C1328.7,1095.5,1328.6,1095.6,1328.6,1095.6z M1192.4,928.2c0.2-0.1,0.5-0.2,0.7-0.3C1192.9,928,1192.7,928.1,1192.4,928.2z
	 M1325.4,1096.7c-0.1,0-0.2,0-0.3,0C1325.2,1096.7,1325.3,1096.7,1325.4,1096.7z M1329.2,1095.1c-0.1,0.1-0.1,0.1-0.2,0.2
	C1329,1095.2,1329.1,1095.2,1329.2,1095.1z M1326.4,1096.5c-0.1,0-0.2,0-0.2,0.1C1326.3,1096.5,1326.4,1096.5,1326.4,1096.5z
	 M1324.8,1096.7c-0.1,0-0.2,0-0.3,0C1324.7,1096.7,1324.8,1096.7,1324.8,1096.7z M1325.9,1096.6c-0.1,0-0.2,0-0.3,0
	C1325.8,1096.6,1325.8,1096.6,1325.9,1096.6z M1330.1,1094c0.1-0.1,0.1-0.2,0.2-0.3C1330.2,1093.9,1330.1,1094,1330.1,1094z
	 M1331.1,1091.1c0.1,0.2,0.1,0.4,0.1,0.7c0-0.1,0.1-0.2,0.1-0.3C1331.2,1091.4,1331.2,1091.3,1331.1,1091.1
	C1331,1091,1331,1091.1,1331.1,1091.1z M1340.1,1090.3c0,0.1,0,0.1,0,0.1v1.9v-1.8C1340,1090.4,1340,1090.3,1340.1,1090.3
	L1340.1,1090.3z M1343,1093.9c0.1,0.6-0.3,1.1-0.9,1.1h1.2C1343.3,1095.1,1343.2,1094.6,1343,1093.9L1343,1093.9z M1329.4,1094.9
	c0.1-0.1,0.1-0.1,0.2-0.2C1329.5,1094.8,1329.4,1094.9,1329.4,1094.9z M1342.9,1093.3v-0.1
	C1342.8,1093.2,1342.9,1093.3,1342.9,1093.3z M1330.9,1092.3c0-0.1,0.1-0.2,0.1-0.3C1331,1092.1,1331,1092.2,1330.9,1092.3z
	 M1330.7,1092.9c0-0.1,0.1-0.2,0.1-0.3C1330.8,1092.7,1330.7,1092.8,1330.7,1092.9z M1329.9,1094.3c-0.1,0.1-0.1,0.2-0.2,0.2
	C1329.8,1094.4,1329.8,1094.4,1329.9,1094.3z M1324.3,1096.7c-0.1,0-0.2,0-0.3,0C1324.1,1096.7,1324.2,1096.7,1324.3,1096.7z
	 M1330.5,1093.2c0,0.1-0.1,0.2-0.1,0.3C1330.4,1093.4,1330.5,1093.3,1330.5,1093.2z M1328.3,1095.8c-0.1,0-0.1,0.1-0.2,0.1
	C1328.2,1095.8,1328.3,1095.8,1328.3,1095.8z M1323.7,1096.7c-0.1,0-0.2,0-0.3,0C1323.5,1096.7,1323.6,1096.7,1323.7,1096.7z
	 M711.5,1095.1l-29.2-16.9l0,0L711.5,1095.1l46.3-26.8L711.5,1095.1z M1316.1,1095.9c-0.1,0-0.2,0-0.4,0
	C1315.9,1095.9,1316,1095.9,1316.1,1095.9z M807.3,1039.8l11.6-6.7l44.1-25.5L807.3,1039.8L807.3,1039.8z M1316.8,1095.9
	c-0.1,0-0.2,0-0.3,0C1316.5,1095.9,1316.7,1095.9,1316.8,1095.9z M1315.5,1095.9c-0.2,0-0.4,0-0.6,0
	C1315.2,1095.8,1315.3,1095.8,1315.5,1095.9z M1191.4,928.5c-0.3,0.1-0.5,0.2-0.8,0.3C1190.9,928.7,1191.2,928.6,1191.4,928.5z
	 M1185.5,930.5c-0.2,0.1-0.5,0.1-0.7,0.2C1185,930.6,1185.3,930.5,1185.5,930.5z M1189.6,929.2c-0.3,0.1-0.5,0.2-0.8,0.3
	C1189.1,929.4,1189.3,929.3,1189.6,929.2z M1186.8,930.1c0.3-0.1,0.5-0.2,0.8-0.2C1187.4,929.9,1187.1,930,1186.8,930.1z
	 M1190.1,1125.4L1190.1,1125.4L1190.1,1125.4L1190.1,1125.4l-0.9-1c-3,1.2-6.2,4.6-7.5,6l2.8,3c0.2-0.4,0.4-0.8,0.6-1.4
	c1.7-4.1,4.5-4.9,6.6-4.9c0,0,0,0-0.1-0.1C1191.1,1126.5,1190.6,1126,1190.1,1125.4z M1321.9,1096.6c-0.1,0-0.2,0-0.3,0
	C1321.8,1096.6,1321.9,1096.6,1321.9,1096.6z M1321.3,1096.5c-0.1,0-0.2,0-0.3,0C1321.2,1096.5,1321.2,1096.5,1321.3,1096.5z
	 M1323.1,1096.7c-0.1,0-0.2,0-0.3,0C1323,1096.7,1323,1096.7,1323.1,1096.7z M1317,1096c0.1,0,0.2,0,0.3,0
	C1317.3,1096,1317.1,1096,1317,1096z M1320.7,1096.4c-0.1,0-0.2,0-0.3,0C1320.5,1096.4,1320.6,1096.4,1320.7,1096.4z M1322.5,1096.6
	c-0.1,0-0.2,0-0.3,0C1322.4,1096.6,1322.5,1096.6,1322.5,1096.6z M1319.8,1096.3c0.1,0,0.1,0,0.2,0
	C1320,1096.3,1319.9,1096.3,1319.8,1096.3z M1318,1096.1c-0.1,0-0.2,0-0.3,0C1317.8,1096,1317.9,1096.1,1318,1096.1z M1345.7,1079.2
	h-0.1C1345.7,1079.2,1345.7,1079.2,1345.7,1079.2z M1319,1096.2c0.1,0,0.1,0,0.2,0C1319.2,1096.2,1319.1,1096.2,1319,1096.2z
	 M1339,1085.9C1339,1086,1339,1086,1339,1085.9C1339,1086,1339,1086,1339,1085.9z M1368,1283.4c0-0.7,0-1.4,0-2.2
	C1367.9,1282,1368,1282.7,1368,1283.4z M1368,1283.8c0,0.8,0,1.5,0,2.2C1368,1285.3,1368,1284.6,1368,1283.8z M1367.9,1275.9
	c0,1.8,0,3.4,0,5C1367.9,1279.4,1367.9,1277.7,1367.9,1275.9z M1368,1286.1c0,0.7,0,1.4,0,2.1C1368,1287.5,1368,1286.8,1368,1286.1z
	 M1368,1289.9c0-0.4,0-0.8,0-1.3C1368,1289,1368,1289.4,1368,1289.9z M1367.7,1259.6c0-1,0-2.1,0-3.1
	C1367.7,1257.6,1367.7,1258.6,1367.7,1259.6z M1368,1291.9c0-0.5,0-1,0-1.5C1368,1290.9,1368,1291.4,1368,1291.9z M1367.9,1275.5
	c0-0.9,0-1.8,0-2.7C1367.9,1273.8,1367.9,1274.7,1367.9,1275.5z M1367.8,1262.9c0-0.9,0-1.8,0-2.7
	C1367.8,1261.1,1367.8,1262,1367.8,1262.9z M1367.8,1269.9c0,0.9,0,1.8,0,2.7C1367.9,1271.7,1367.9,1270.8,1367.8,1269.9z
	 M1367.8,1269.4c0-1.8,0-3.7-0.1-5.6C1367.8,1265.7,1367.8,1267.5,1367.8,1269.4z M1133.8,875.5L1133.8,875.5L1133.8,875.5z
	 M1885,1272l-842.9,486.6L115,1223.3l367.6-212.2v31.7l217.5,125.6l391.4-226v-50.2L890.1,775.8l67.5-39l169.1,97.7l0,0
	c-1,2.7-1.8,5.2-2.1,6.1c-0.6,2.3-10.2,27.2-10.2,27.2c0.9,2.8,3.2,4.6,6,5.7c-2.8,7.2-5.1,12.6-6.1,13.8
	c-3.4,3.7,4.7,53.1,4.7,53.1s-0.8,25.8,4.8,30.1c0,0,1.1,0.3,0.7-2.8c0,0,2.9,7.5,3.4,1.8c0,0,4.4,5.3,3.7,0c0,0,4.8,6.1,5.9,2.6
	c1.1-3.6-4.5-6.9-5-13.9c0,0,7.7,3,8.1-1.8c0,0-8.8-5.4-9.6-7.2c-0.7-1.8-2.9-1.1-3.5-9.2c-0.6-8,6.5-16.3,5.5-39.1
	c0,0-1.2-11.2-0.9-14.2c0.1-1.4,1.9-6.3,4.3-11.6l0,0c2.4-0.2,4-0.4,4-0.4c-0.2-2.3,5.1-15.3,5.1-15.3c3.4,12.9,2.3,23.2,2.1,31.7
	c0,0.5,0,1,0,1.5s0,1,0,1.5c0,0.6,0,1.3,0,1.9c0.3,9.4-4.5,29.1-4.5,29.1s1.3,0.9,3.7,2l0,0c-0.8,14.1-2.4,34.8-4.7,48.7
	c-0.9,5.5-2,9.9-3.2,12.4c0,0,8.2,6.2,19.8,7.8l0,0c1.1,5,1.7,8.2,1.7,8.2s0.1,0.6,0.2,1.7c-1.2,3.2-3.6,7.2-8.3,10.7
	c-9.4,6.9-17.7,12.7-23.3,26.4s-20.1,23.6-24.2,25.1c-0.6,0.2-1.4,0.5-2.2,0.9c-0.4-0.8-0.6-1.2-0.6-1.2c-7.3-1-12.9,11.1-12.8,15.2
	c0.1,4,3.9,7.7,8.7,14.1c4.8,6.4,3.5,23.9,17.5,27.5s15.5-0.1,18.3-7.5c1.7-4.4-2.1-7.4-5.4-11.6c-1.1-1.5-2.2-3.1-2.9-4.9l0,0
	c-2.6-0.8-7.1-1.5-11.2,0.6c-0.3-0.6-0.6-1.2-0.8-1.8c2.5-1.8,6.4-3.3,11.1-2.2v0.1c-0.2-1-0.2-2.1-0.1-3.3c0.1-2.2,0.1-4,0-5.7
	c-0.6,0-1,0-1,0s-6.9-3.3-13-0.4c-0.1-0.7-0.2-1.5-0.3-2.2c2.8-1.6,7-2.8,11.9-1c0.8,0.3,1.4,0.5,2,0.8c-0.9-5.2-2.7-6.9-2.7-6.9
	c-0.1,0-0.3,0-0.4,0l0,0c1.4-4.2,26.5-24,35.3-34.1c-0.7,9-0.6,18.6,0.3,21.2c1.6,4.5,9.4,35,8.4,40.8c0,0,1.7,9,0.7,11.6
	c-0.1,0.3-0.2,0.6-0.4,0.9c-2.5,1.4-7,6.1-3,21.4c0,0,1,1.5,8.5,4.1c7.5,2.7,18,15.3,21.9,14.8s16,1,19.6-6.7s-5-8.6-10.4-13.8
	c-0.1-0.1-0.3-0.3-0.4-0.4c-1-1-2-2.1-3.1-3.4l0,0c-1.9-0.3-5.3-0.2-7.4,4c0.3,0.2,0.6,0.3,0.9,0.5c-1.9-1-3.4-1.9-3.4-1.9l-0.4-0.5
	c1.8-1.9,4.9-4.8,7.6-5.3c-1.3-1.5-2.5-3.1-3.8-4.5l0,0c0,0,0,0-0.1-0.1c-0.5-0.6-1-1.2-1.5-1.8l0,0c-1.9-2.2-3.6-4-4.8-4.9l0.8,0.8
	l-0.8-0.8c-0.1-0.1-0.3-0.2-0.4-0.3c-0.1-0.1-0.2-0.1-0.4-0.2c0,0,0,0,0.1,0c-0.2-0.1-0.5-0.2-0.7-0.2l0,0l0,0
	c-0.6,0-1.2,0.2-1.8,0.5c0-0.1,0-0.1,0-0.2c0.1-2.3-0.6-42.6-0.6-42.6l-1-49.3c0,0,0.1-4.3,0.2-9.8c2.1-1.7,5-5,8.8-11.1
	c3.6-5.9,6.6-17.8,8.9-30.8c6.1-1.6,11.9-3.9,13.4-6.9l-1.1-10.1l0,0l-4.1-39.3l0,0c3.7-2.9,5.1-5.2,4.9-5.2
	c-0.3,0-4.1-13.3-5.5-18.1c-0.2-0.5-0.4-1.5-0.6-2.8c0-0.1,0-0.3-0.1-0.4c-0.1-0.6-0.2-1.2-0.3-1.9c9.7,10.4,21.2,23.2,21.2,25
	c0,3.1,11.6,15.8,11.6,15.8s6.5,9.4,8.4,8.9s-1.2-5.4-1.2-5.4s3.2,3.3,5.4,3.8c2.2,0.6-2.7-6.3-2.7-6.3s5.8,3.3,7.7,3.3
	c2,0.1-2.3-5-2.3-5c5.5,1.6,8.5,0.3,4.7-1.3s-15.6-14.1-15.6-14.1c10,1.8,11.1-4.4,9-3.8s-15.2-2.7-15.2-2.7s-8.6-11.9-12.9-19.9
	c0,0,0,0.1,0.1,0.1l262.2,151.4v153.3c0,9.2,4.9,17.7,12.8,22.2l218.3,126.1c17.1,9.9,38.5-2.5,38.5-22.2v-123.9L1885,1272z
	 M1306.4,1083.4c2.7,6.6,2.1,12.4,8.5,12.4l0,0c2.2,4.1,4.3,7.5,5.3,9.5c0.6,1.2,2.5,2.5,5.2,3.6v4.9l21.4,3.5
	c-0.3-1.2-0.6-2.4-0.8-3.6c9.7,1.2,19.1,0.9,21.6-2c1.8-2,1.9-7,1.2-12.8h-0.1c0.7,0.2,1.3-0.1,2.1-1.5c1.6-3.1,0.7-6.2,0.2-7.3
	c-0.1-0.3-0.4-0.5-0.7-0.6c-0.7-0.1-1.9-0.2-3.2-0.1c0,0,0,0,0.1,0c-2-9.4-4.8-18.4-5.1-19.5c0-0.1,0.1-0.2,0.1-0.3
	c1.2-1.8,8.7-14.5-3-24.3c-11.7-9.9-25-0.2-26.9,1.2c-0.2,0.1-0.3,0.2-0.5,0.2c-2.6,0-21.1,0.8-24.1,14.4
	C1304.4,1075.8,1303.7,1076.8,1306.4,1083.4z M1429.7,1198l47.1-27.2l-35.7-20.6l-53.6,30.9l19,11l-19.2,18.7
	c2.6-63.8-22-74.6-22.9-75l-5.2,6.4v-0.1l3.4-4.2c0.2-0.3,0.3-0.6,0.1-0.9c0.1,0.1,0.2,0.3,0.3,0.4l1.1-1.3
	c-4.3-7.5-15.6-11.3-15.6-11.3s-0.9-3.5-1.8-7.3l-21.4-3.5v5.2c0,0-10.4-8.2-25.6,1.7l0,0c-2.5,1.7-15.8,1.4-18.2,37.2
	c-2.3,34-7.1,116.4-7.6,124.8c0,0.4,0.2,0.8,0.6,0.9l2.1,0.8c-1.9,5.3-5.1,14.9-4.1,20.3c0.7,3.9,6.2,8.9,10.7,11.9l9.6,176.8v-0.1
	c-0.9,7.6-2,17.5-1.8,18.5c0.3,1.6,5.8,3.9,14.9,2.3s20.7-21.7,22.3-26.2c1.2-3.3-9.7-3.5-15.7-3.4l0,0
	c1.2-26.2,5.6-165.8,8.4-162.6c2.9,3.4,17.8,187.7,18.5,196.3l0,0c-0.5,4.7-1.8,18,0.1,18.9c2.3,1,36.9,4.5,47.2-7.8
	c10.3-12.3-26.5-12.6-26.5-12.6s-0.6-0.6-1.4-1.3l10.2-216.8c0,0-0.1-21.5-0.4-48.9c-0.4-0.3-0.8-0.5-1.2-0.8c0,0.1,0,0.3,0,0.4
	c0-0.3-0.1-0.5-0.4-0.7c-5.8-4.6-8.5-11.5-8-12.7c0.8-2.1,0-87.3-0.1-93.2c0-0.1,0-0.3,0.1-0.4c0,1.4,0.9,91.4,0.1,93.5
	c-0.9,2.2,8.2,22,26.7,15.5C1401.3,1246,1422.5,1210.7,1429.7,1198z M1363.1,1289.8c-0.4-0.6-0.8-1.1-1.2-1.7
	C1362.3,1288.6,1362.7,1289.2,1363.1,1289.8z M1134.7,875.4C1134.7,875.4,1134.8,875.4,1134.7,875.4
	C1134.8,875.4,1134.7,875.4,1134.7,875.4z M1367.7,1253.1c0,1.1,0,2.1,0,3.1C1367.7,1255.2,1367.7,1254.1,1367.7,1253.1z
	 M1360.5,1285.9c-0.4-0.6-0.8-1.2-1.2-1.7C1359.7,1284.7,1360.1,1285.3,1360.5,1285.9z M1353,1273.7c-0.3-0.5-0.6-1.1-0.9-1.6
	C1352.4,1272.7,1352.7,1273.2,1353,1273.7z M1349.9,1268c0.2,0.5,0.5,0.9,0.7,1.4C1350.4,1268.9,1350.2,1268.5,1349.9,1268z
	 M1365.8,1293.6c-0.4-0.6-0.8-1.1-1.2-1.7C1365,1292.5,1365.4,1293,1365.8,1293.6z M1356.8,1280.2c0.4,0.6,0.7,1.2,1.1,1.7
	C1357.5,1281.3,1357.1,1280.8,1356.8,1280.2z M1354.4,1276.2c0.3,0.6,0.7,1.1,1,1.7C1355,1277.3,1354.7,1276.7,1354.4,1276.2z
	 M1282,1283.4c0-0.1,0-0.1,0-0.2C1282,1283.3,1282,1283.4,1282,1283.4z M1281.9,1275.6c0,0.1,0,0.2,0,0.3
	C1281.9,1275.8,1281.9,1275.7,1281.9,1275.6z M1281.9,1277.5c0,0.1,0,0.2,0,0.3C1281.9,1277.7,1281.9,1277.6,1281.9,1277.5z
	 M1281.8,1273.7c0-0.1,0-0.3,0-0.4C1281.8,1273.4,1281.8,1273.6,1281.8,1273.7z M1135.6,875.4L1135.6,875.4L1135.6,875.4z
	 M1282,1281.7c0-0.1,0-0.1,0-0.2C1282,1281.6,1282,1281.7,1282,1281.7z M1281.9,1279.5c0,0.1,0,0.2,0,0.3
	C1281.9,1279.8,1281.9,1279.7,1281.9,1279.5z M1281.8,1271.3c0-0.1,0-0.2,0-0.3C1281.8,1271.1,1281.8,1271.2,1281.8,1271.3z
	 M1281.8,1266.3c0,0.1,0,0.2,0,0.4C1281.8,1266.5,1281.8,1266.4,1281.8,1266.3z M1281.7,1263.7c0,0.1,0,0.3,0,0.4
	C1281.7,1263.9,1281.7,1263.8,1281.7,1263.7z M1367.7,1252.6c0-1,0-1.9,0-2.9C1367.7,1250.7,1367.7,1251.7,1367.7,1252.6z
	 M1281.8,1268.9v-0.1C1281.8,1268.9,1281.8,1268.9,1281.8,1268.9z M1312.6,1487.1L1312.6,1487.1L1312.6,1487.1z M1312.5,1488.2
	C1312.5,1488.2,1312.5,1488.1,1312.5,1488.2C1312.5,1488.1,1312.5,1488.2,1312.5,1488.2z M1312.6,1487.7
	C1312.6,1487.7,1312.5,1487.7,1312.6,1487.7C1312.5,1487.7,1312.6,1487.7,1312.6,1487.7z M1339.6,1518.4L1339.6,1518.4
	L1339.6,1518.4z M1368,1296.7c0-1.2,0-2.6,0-4.4c0,0.5,0,1,0,1.5c0,0.9-1.1,1.3-1.6,0.6C1366.9,1295.2,1367.5,1295.9,1368,1296.7z
	 M1312.6,1486.3L1312.6,1486.3L1312.6,1486.3z M1281.7,1261.2c0,0.1,0,0.1,0,0.2C1281.7,1261.3,1281.7,1261.2,1281.7,1261.2z
	 M1282.3,1294.6c0-0.1,0-0.1,0-0.3C1282.3,1294.4,1282.3,1294.5,1282.3,1294.6z M1282.2,1293.5
	C1282.2,1293.4,1282.2,1293.4,1282.2,1293.5C1282.2,1293.4,1282.2,1293.4,1282.2,1293.5z M1312.5,1488.7L1312.5,1488.7
	L1312.5,1488.7z M1312.5,1488.5L1312.5,1488.5L1312.5,1488.5z M1113,1099.3c-0.3-0.7-0.6-1.5-0.9-2.2
	C1112.4,1097.8,1112.7,1098.6,1113,1099.3z M1111.9,1096.4c-0.1-0.3-0.2-0.7-0.3-1C1111.7,1095.7,1111.8,1096,1111.9,1096.4z
	 M1116.2,1104.9c-0.4-0.6-0.8-1.1-1.2-1.7C1115.4,1103.7,1115.8,1104.3,1116.2,1104.9z M1111.1,1093.2c0.1,0.4,0.2,0.9,0.3,1.3
	C1111.3,1094.1,1111.2,1093.7,1111.1,1093.2z M1114.9,1103c-0.4-0.6-0.7-1.2-1-1.8C1114.2,1101.8,1114.6,1102.4,1114.9,1103z
	 M1148,927.9h0.1C1148,928,1148,927.9,1148,927.9z M1110.7,1091.3c0.1,0.3,0.1,0.5,0.2,0.8
	C1110.8,1091.8,1110.7,1091.6,1110.7,1091.3z M1166.4,1118.3C1166.4,1118.3,1166.5,1118.3,1166.4,1118.3
	C1166.5,1118.3,1166.4,1118.3,1166.4,1118.3z M1109.6,1083.4c0,0.3,0,0.5,0.1,0.8C1109.7,1083.9,1109.7,1083.7,1109.6,1083.4z
	 M1110.3,1089.5c0,0.2,0.1,0.5,0.1,0.7C1110.4,1090,1110.4,1089.8,1110.3,1089.5z M1109.6,1082.6c0-0.3,0-0.5,0-0.7
	C1109.6,1082.1,1109.6,1082.3,1109.6,1082.6z M1196.9,1141.6L1196.9,1141.6L1196.9,1141.6z M1197.9,1141.8c-0.1,0-0.1,0-0.2,0
	C1197.8,1141.8,1197.9,1141.8,1197.9,1141.8z M1199.3,1141.9h0.1H1199.3z M1205.9,920.8L1205.9,920.8L1205.9,920.8z M1195.9,1141.3
	c0.1,0,0.1,0,0.2,0.1C1196,1141.3,1196,1141.3,1195.9,1141.3z M1194.2,1140.6c-0.1,0-0.2-0.1-0.3-0.1
	C1194,1140.5,1194.1,1140.6,1194.2,1140.6z M1195,1140.9h0.1C1195,1141,1195,1140.9,1195,1140.9z M1192.8,1140
	c0.1,0.1,0.3,0.1,0.4,0.2C1193.1,1140.1,1193,1140.1,1192.8,1140z M1192.4,1139.8c-0.1-0.1-0.3-0.1-0.4-0.2
	C1192.1,1139.6,1192.2,1139.7,1192.4,1139.8z M1165.6,1118.6L1165.6,1118.6L1165.6,1118.6z M1109.5,1080.2c0,0.2,0,0.5,0,0.7
	C1109.5,1080.6,1109.5,1080.4,1109.5,1080.2z M1330.3,1089.6c0,0.1,0.1,0.2,0.1,0.3C1330.4,1089.8,1330.4,1089.7,1330.3,1089.6z
	 M1109,1075.9c0.1,0.1,0.3,0.2,0.4,0.3c0.1,0.1,0.2,0.1,0.3,0.2C1109.5,1076.1,1109.3,1076,1109,1075.9z M1118.6,1078.5
	c0.6,0,1.2,0,1.8,0C1119.8,1078.6,1119.2,1078.6,1118.6,1078.5z M1114.7,1078c0.5,0.1,1.1,0.2,1.6,0.3
	C1115.8,1078.2,1115.2,1078.1,1114.7,1078z M1109.5,1077.6c0-0.1,0-0.2,0-0.4C1109.5,1077.4,1109.5,1077.5,1109.5,1077.6z
	 M1116.7,1078.3c0.5,0.1,1,0.1,1.6,0.2C1117.7,1078.5,1117.2,1078.4,1116.7,1078.3z M1165.2,996.5c0.2,0,0.5,0,0.8,0
	C1165.7,996.4,1165.4,996.5,1165.2,996.5z M1163.7,996.5c0.2,0,0.3,0,0.5,0C1164,996.5,1163.9,996.5,1163.7,996.5z M1102.5,1069.6
	c-0.1-0.2-0.2-0.3-0.3-0.5C1102.4,1069.3,1102.5,1069.4,1102.5,1069.6z M1159.7,996.3c0.1,0,0.2,0,0.3,0
	C1160,996.3,1159.8,996.3,1159.7,996.3z M1161.5,996.4c-0.1,0-0.2,0-0.3,0C1161.3,996.4,1161.4,996.4,1161.5,996.4z M1104,1071.6
	c-0.1-0.1-0.2-0.2-0.2-0.3C1103.8,1071.4,1103.9,1071.5,1104,1071.6z M1104.3,1072c0.1,0.1,0.2,0.2,0.3,0.3
	C1104.5,1072.2,1104.4,1072.1,1104.3,1072z M1103,1070.2c-0.1-0.1-0.1-0.2-0.2-0.3C1102.8,1070,1102.9,1070.1,1103,1070.2z
	 M1103.4,1070.9c-0.1-0.1-0.1-0.2-0.2-0.3C1103.3,1070.7,1103.3,1070.8,1103.4,1070.9z M1111.5,1077.1c0.9,0.4,2,0.7,3.1,0.9
	C1113.5,1077.7,1112.5,1077.4,1111.5,1077.1z M1105,1072.7c0.1,0.1,0.2,0.2,0.3,0.3C1105.2,1072.9,1105.1,1072.8,1105,1072.7z
	 M1111.2,1076.9c-0.3-0.1-0.6-0.3-0.9-0.4C1110.5,1076.6,1110.8,1076.8,1111.2,1076.9z M1107.9,1075.2c0.2,0.1,0.4,0.3,0.7,0.4
	C1108.4,1075.5,1108.1,1075.3,1107.9,1075.2z M1105.7,1073.5c0.1,0.1,0.3,0.3,0.5,0.4C1106,1073.7,1105.9,1073.6,1105.7,1073.5z
	 M1106.8,1074.4c0.2,0.2,0.4,0.3,0.7,0.5C1107.3,1074.7,1107.1,1074.6,1106.8,1074.4z M1109.5,1078.5c0,0.2,0,0.3,0,0.5
	C1109.5,1078.9,1109.5,1078.7,1109.5,1078.5z M1343.7,1179.7c0.1-0.4,0.1-0.9,0.2-1.3C1343.8,1178.8,1343.7,1179.3,1343.7,1179.7z
	 M1343.1,1183.2c0.1-0.4,0.1-0.7,0.2-1.1C1343.2,1182.4,1343.2,1182.8,1343.1,1183.2z M1295.2,1124.3c0.5-0.4,1-0.8,1.5-1.2
	C1296.2,1123.5,1295.7,1123.9,1295.2,1124.3z M1299.9,1120.8c-0.4,0.3-0.8,0.5-1.2,0.8C1299.1,1121.4,1299.5,1121.1,1299.9,1120.8z
	 M1344.5,1174.8c-0.1,0.5-0.2,1-0.3,1.4C1344.3,1175.8,1344.4,1175.3,1344.5,1174.8z M1344.9,1172.8c0.1-0.5,0.2-1,0.3-1.5
	C1345.1,1171.8,1345,1172.3,1344.9,1172.8z M1349.6,1155.9c0.2-0.5,0.4-1,0.6-1.5C1350,1154.9,1349.8,1155.4,1349.6,1155.9z
	 M1346.4,1165.9c0.1-0.5,0.3-1,0.4-1.5C1346.7,1164.9,1346.6,1165.4,1346.4,1165.9z M1347.4,1162.5c0.2-0.5,0.3-1,0.5-1.5
	C1347.7,1161.5,1347.5,1162,1347.4,1162.5z M1345.6,1169.3c0.1-0.5,0.2-1,0.4-1.5C1345.9,1168.3,1345.7,1168.8,1345.6,1169.3z
	 M1298.1,1122.1c-0.3,0.2-0.6,0.5-0.9,0.7C1297.5,1122.5,1297.8,1122.3,1298.1,1122.1z M1282.7,1197c0-0.2,0-0.4,0-0.5
	C1282.7,1196.7,1282.7,1196.8,1282.7,1197z M1283.2,1187.5c0-0.2,0-0.3,0-0.5C1283.2,1187.1,1283.2,1187.3,1283.2,1187.5z
	 M1283.6,1181c0-0.1,0-0.3,0-0.4C1283.6,1180.7,1283.6,1180.9,1283.6,1181z M1283.4,1183.7c0,0.2,0,0.4,0,0.6
	C1283.4,1184.1,1283.4,1183.9,1283.4,1183.7z M1283.8,1177.7c0,0.1,0,0.3,0,0.4C1283.8,1178,1283.8,1177.8,1283.8,1177.7z
	 M1284,1175.1c0-0.2,0-0.4,0-0.6C1284,1174.7,1284,1174.9,1284,1175.1z M1282.9,1193.2c0,0.2,0,0.4,0,0.6
	C1282.9,1193.5,1282.9,1193.4,1282.9,1193.2z M1283.1,1190.1c0,0.1,0,0.2,0,0.3C1283,1190.3,1283,1190.2,1283.1,1190.1z
	 M1351.5,1151.3c-0.2,0.5-0.5,1-0.7,1.5C1351.1,1152.2,1351.3,1151.8,1351.5,1151.3z M1282.6,1200c0-0.1,0-0.1,0-0.2
	C1282.6,1199.9,1282.6,1200,1282.6,1200z M1294.5,1125.1l0.1-0.1C1294.5,1125,1294.5,1125,1294.5,1125.1z M1327.7,1082.7
	c0-0.1,0-0.2-0.1-0.3C1327.7,1082.5,1327.7,1082.6,1327.7,1082.7z M1328.7,1086c0.1,0.1,0.1,0.3,0.2,0.4
	C1328.8,1086.3,1328.8,1086.1,1328.7,1086z M1328.6,1085.8c0-0.1-0.1-0.2-0.1-0.4C1328.5,1085.5,1328.6,1085.6,1328.6,1085.8z
	 M1328.3,1084.8c0,0.1,0.1,0.2,0.1,0.4C1328.3,1085,1328.3,1084.9,1328.3,1084.8z M1328.2,1084.5c0-0.1-0.1-0.2-0.1-0.4
	C1328.1,1084.3,1328.1,1084.4,1328.2,1084.5z M1329,1086.6c0.1,0.2,0.1,0.3,0.2,0.5C1329.1,1087,1329,1086.8,1329,1086.6z
	 M1330,1088.9c-0.1-0.1-0.1-0.2-0.2-0.3C1329.9,1088.7,1329.9,1088.8,1330,1088.9z M1327.9,1083.5c0,0.1,0.1,0.2,0.1,0.3
	C1328,1083.8,1327.9,1083.7,1327.9,1083.5z M1329.2,1087.2c0.1,0.2,0.2,0.4,0.3,0.6C1329.4,1087.6,1329.3,1087.4,1329.2,1087.2z
	 M1330.1,1089.1c0,0.1,0.1,0.2,0.1,0.3C1330.2,1089.3,1330.1,1089.2,1330.1,1089.1z M1329.7,1088.4c-0.1-0.1-0.1-0.3-0.2-0.4
	C1329.6,1088.1,1329.7,1088.2,1329.7,1088.4z M1327.5,1081.2c0,0.1,0,0.3,0,0.4C1327.5,1081.5,1327.5,1081.4,1327.5,1081.2z
	 M1348.9,1157.7c-0.2,0.5-0.4,1-0.5,1.5C1348.6,1158.7,1348.8,1158.2,1348.9,1157.7z M1357.5,1141.1c0.3-0.4,0.6-0.8,1-1.2
	C1358.1,1140.3,1357.8,1140.7,1357.5,1141.1z M1359.6,1138.6c0.3-0.4,0.7-0.8,1.1-1.2C1360.3,1137.8,1359.9,1138.2,1359.6,1138.6z
	 M1353.9,1146.7c0.3-0.5,0.5-0.9,0.8-1.4C1354.4,1145.8,1354.1,1146.2,1353.9,1146.7z M1355.6,1143.8c0.3-0.4,0.6-0.9,0.9-1.3
	C1356.2,1143,1355.9,1143.4,1355.6,1143.8z M1327.8,1083.3c0-0.1-0.1-0.2-0.1-0.3C1327.8,1083.1,1327.8,1083.2,1327.8,1083.3z
	 M1362.8,1136.7c-0.2-0.3-0.4-0.6-0.6-0.9c-0.2,0.2-0.5,0.5-0.7,0.7C1361.9,1136.3,1362.5,1136.3,1362.8,1136.7z M1327.6,1082.1
	c0-0.1,0-0.2,0-0.3C1327.6,1081.9,1327.6,1082,1327.6,1082.1z M1284.3,1172c0-0.1,0-0.3,0-0.4
	C1284.3,1171.7,1284.3,1171.8,1284.3,1172z M1352.3,1149.7c0.2-0.5,0.5-0.9,0.7-1.4C1352.8,1148.7,1352.5,1149.2,1352.3,1149.7z
	 M1292.6,1127.8l-0.1,0.1C1292.6,1127.9,1292.6,1127.8,1292.6,1127.8z M1281.8,1228.8c0,0.2,0,0.3,0,0.5
	C1281.8,1229.1,1281.8,1228.9,1281.8,1228.8z M1282,1219.6c0-0.1,0-0.3,0-0.4C1282,1219.4,1282,1219.5,1282,1219.6z M1281.9,1222.7
	c0-0.1,0-0.2,0-0.3C1281.9,1222.4,1281.9,1222.5,1281.9,1222.7z M1281.9,1225.4c0,0.2,0,0.4,0,0.6
	C1281.9,1225.8,1281.9,1225.6,1281.9,1225.4z M1284.5,1169c0-0.1,0-0.1,0-0.2C1284.5,1168.9,1284.5,1168.9,1284.5,1169z
	 M1282.1,1215.8c0,0.2,0,0.4,0,0.6C1282.1,1216.2,1282.1,1216,1282.1,1215.8z M1293.9,1125.8c0,0-0.1,0.1-0.1,0.2
	C1293.8,1125.9,1293.9,1125.8,1293.9,1125.8z M1293.2,1126.8L1293.2,1126.8L1293.2,1126.8z M1282.4,1206.1c0,0.2,0,0.4,0,0.7
	C1282.4,1206.5,1282.4,1206.3,1282.4,1206.1z M1282.3,1209.5c0,0.1,0,0.3,0,0.4C1282.3,1209.8,1282.3,1209.7,1282.3,1209.5z
	 M1282.5,1202.8c0,0.2,0,0.4,0,0.6C1282.5,1203.2,1282.5,1203,1282.5,1202.8z M1281.7,1247c0,0.2,0,0.4,0,0.6
	C1281.7,1247.4,1281.7,1247.2,1281.7,1247z M1281.7,1250.1c0,0.2,0,0.3,0,0.5C1281.7,1250.4,1281.7,1250.2,1281.7,1250.1z
	 M1282.1,1286.4c0-0.5,0-0.9,0-1.4v0.1c0,0.7-0.6,1.1-1.2,0.9L1282.1,1286.4z M1281.8,1232v0.1V1232z M1281.7,1258.9
	c0-0.1,0-0.3,0-0.4C1281.7,1258.6,1281.7,1258.7,1281.7,1258.9z M1281.7,1253.2c0-0.1,0-0.2,0-0.3
	C1281.7,1253,1281.7,1253.1,1281.7,1253.2z M1281.7,1256.1c0-0.2,0-0.3,0-0.5C1281.7,1255.8,1281.7,1255.9,1281.7,1256.1z
	 M1281.7,1238.6c0-0.2,0-0.4,0-0.6C1281.7,1238.2,1281.7,1238.4,1281.7,1238.6z M1281.7,1244.1c0,0.1,0,0.3,0,0.4
	C1281.7,1244.4,1281.7,1244.2,1281.7,1244.1z M1281.8,1235.5c0-0.2,0-0.4,0-0.6C1281.8,1235,1281.8,1235.3,1281.8,1235.5z
	 M1281.7,1241.5c0-0.1,0-0.2,0-0.2C1281.7,1241.4,1281.7,1241.5,1281.7,1241.5z M1282.2,1212.6c0,0.1,0,0.3,0,0.4
	C1282.2,1212.9,1282.2,1212.7,1282.2,1212.6z M1286.7,1150.3c0-0.1,0-0.2,0-0.3C1286.7,1150.1,1286.7,1150.2,1286.7,1150.3z
	 M1286.3,1152.6c0-0.1,0-0.2,0-0.3C1286.4,1152.4,1286.4,1152.5,1286.3,1152.6z M1287.1,1147.9c0-0.1,0-0.3,0.1-0.4
	C1287.1,1147.6,1287.1,1147.7,1287.1,1147.9z M1286,1154.8c0,0.2,0,0.3-0.1,0.5C1286,1155.2,1286,1155,1286,1154.8z M1287.5,1145.1
	c0,0.1,0,0.2-0.1,0.3C1287.5,1145.4,1287.5,1145.3,1287.5,1145.1z M1292,1129c0,0.1-0.1,0.1-0.1,0.2
	C1292,1129.1,1292,1129.1,1292,1129z M1285.1,1162.9c0,0.2,0,0.3-0.1,0.5C1285.1,1163.2,1285.1,1163.1,1285.1,1162.9z
	 M1285.4,1160.3v0.1C1285.4,1160.4,1285.4,1160.4,1285.4,1160.3z M1285.7,1157.6c0,0.1,0,0.3,0,0.4
	C1285.7,1157.8,1285.7,1157.7,1285.7,1157.6z M1284.8,1165.8c0,0.2,0,0.3,0,0.5C1284.8,1166.1,1284.8,1166,1284.8,1165.8z
	 M1290.8,1132c0,0,0-0.1,0.1-0.1C1290.9,1131.9,1290.8,1131.9,1290.8,1132z M1287.9,1143.1v0.1V1143.1z M1289.3,1137.1
	C1289.3,1137,1289.3,1137,1289.3,1137.1C1289.3,1137,1289.3,1137,1289.3,1137.1z M1289.7,1135.4c0-0.1,0-0.2,0.1-0.3
	C1289.8,1135.2,1289.8,1135.3,1289.7,1135.4z M1288.9,1138.8c0,0.1-0.1,0.2-0.1,0.3C1288.8,1139,1288.8,1138.9,1288.9,1138.8z
	 M1288.4,1140.9c0,0.1-0.1,0.2-0.1,0.4C1288.3,1141.1,1288.4,1141,1288.4,1140.9z M1291.4,1130.4c0,0.1,0,0.1-0.1,0.2
	C1291.4,1130.5,1291.4,1130.5,1291.4,1130.4z M1290.3,1133.7c0-0.1,0.1-0.2,0.1-0.3C1290.3,1133.5,1290.3,1133.6,1290.3,1133.7z"></path>
<path id="color_x5F_5" fill="#FFD2BB" stroke="#F8C09C" stroke-miterlimit="10" d="M1198.4,976.6c-2.3,13-5.3,24.9-8.9,30.8
	c-3.8,6.2-6.7,9.5-8.8,11.1c-0.1,5.6-0.2,9.8-0.2,9.8l1,49.3c0,0,0.7,40.3,0.6,42.6c0,0.1,0,0.1,0,0.2c-2,1.1-3.8,3.8-6.7,3.6
	c-3.7-0.2-9-2.4-9-5.7c0,0-0.6,0.1-1.5,0.6c0.1-0.4,0.3-0.7,0.4-0.9c1-2.6-0.7-11.6-0.7-11.6c1-5.8-6.9-36.3-8.4-40.8
	c-0.9-2.6-1-12.2-0.3-21.2c-8.8,10.1-33.9,29.9-35.3,34.1l0,0c-11.8,0.2-16.8-6.6-18.3-9.5c0.9-0.4,1.6-0.7,2.2-0.9
	c4.2-1.5,18.6-11.3,24.2-25.1c5.6-13.7,13.9-19.6,23.3-26.4c4.7-3.5,7.1-7.5,8.3-10.7c-0.1-1.1-0.2-1.7-0.2-1.7s-0.6-3.2-1.7-8.2
	c7.2,1,15.7,0.2,24.3-4.9l-0.2-7.1l-0.1-4.4C1182.5,979.6,1190.7,978.6,1198.4,976.6z M1123.8,970.7c0,0,1.1,0.3,0.7-2.8
	c0,0,2.9,7.5,3.4,1.8c0,0,4.4,5.3,3.7,0c0,0,4.8,6.1,5.9,2.6c1.1-3.6-4.5-6.9-5-13.9c0,0,7.7,3,8.1-1.8c0,0-8.8-5.4-9.6-7.2
	c-0.7-1.8-2.9-1.1-3.5-9.2c-0.6-8,6.5-16.3,5.5-39.1c0,0-1.2-11.2-0.9-14.2c0.1-1.4,1.9-6.3,4.3-11.6c-4.2,0.3-11,0.3-16-1.7
	c-2.8,7.2-5.1,12.6-6.1,13.8c-3.4,3.7,4.7,53.1,4.7,53.1S1118.2,966.3,1123.8,970.7z M1180.5,812.4c0-0.1,0-0.3,0-0.4
	c0-0.4-0.1-0.7-0.2-1.1c0-0.1,0-0.2-0.1-0.3c-0.1-0.4-0.2-0.9-0.3-1.4c0-0.1,0-0.2,0-0.2l0,0c-0.3-1.1-0.6-2.4-1.1-3.8
	c-1.1,0.5-2,1.1-2.7,1.5c-0.3-1.6-0.7-3.3-1.1-4.9c-6.5-3.8-11.8-10.1-14.5-13.6c0.5,5.5,1.6,18.5,0.6,23c0.8,0.2,1.5,0.5,1.6,1.1
	c0.2,1,11,8.8,15.7,6.5l0,0c0.1,0,0.1-0.1,0.2-0.1c0,0,0.1,0,0.1-0.1c0.2-0.1,0.3-0.2,0.5-0.4l0,0c0.1-0.1,0.3-0.3,0.4-0.5l0.1-0.1
	c0.1-0.2,0.2-0.4,0.3-0.6v-0.1c0.1-0.2,0.2-0.5,0.2-0.8c0-0.1,0-0.2,0.1-0.2c0-0.2,0.1-0.5,0.1-0.7c0-0.1,0-0.2,0-0.3
	c0-0.3,0-0.7,0-1c0-0.1,0-0.2,0-0.3C1180.6,813,1180.5,812.7,1180.5,812.4z M1191.8,874.4c3.9-0.6,7.2-0.9,9.4-1.1
	C1199,873.5,1195.7,873.9,1191.8,874.4z M1258,930.7c-3.8-1.6-15.6-14.1-15.6-14.1c10,1.8,11.1-4.4,9-3.8s-15.2-2.7-15.2-2.7
	s-13.9-19.3-15.3-25.2c-1.1-4.8-15.9-23.9-21.5-30.9c0.1,0.4,1.3,9.5,2.8,19.2c0.1,0.4,0.1,0.9,0.2,1.3c0,0.3,0.1,0.6,0.1,1
	c0.1,1,0.3,1.9,0.4,2.9c0,0.3,0.1,0.6,0.1,0.9c0.3,2.2,0.7,4.3,1,6.3c0.1,0.4,0.1,0.8,0.2,1.2c0.3,1.8,0.6,3.4,0.8,4.9
	c9.7,10.4,21.2,23.2,21.2,25c0,3.1,11.6,15.8,11.6,15.8s6.5,9.4,8.4,8.9s-1.2-5.4-1.2-5.4s3.2,3.3,5.4,3.8c2.2,0.6-2.7-6.3-2.7-6.3
	s5.8,3.3,7.7,3.3c2,0.1-2.3-5-2.3-5C1258.8,933.7,1261.7,932.3,1258,930.7z M1325.5,1109v4.9l21.4,3.5c-0.3-1.2-0.6-2.4-0.8-3.6
	c9.7,1.2,19.1,0.9,21.6-2c1.8-2,1.9-7,1.2-12.8c-1.2-0.2-2.2-1.9-3.2-0.6c-1.5,1.9-3.4-0.1-2.6-5.2c0.4-2.5,2.3-3.4,4.2-3.7
	c-2.1-10.1-5.1-19.6-5.1-19.6c0.5,4.3-10.9,7-16.9,9.4s-1.8,15.7-1.8,15.7h-3.2l-0.1-4.7c0,0,1.7-5.1-8-10.1
	c-9.6-4.9-0.8,11.1-0.8,11.1c-2.3,8.2-9.8,4.5-16.3,4.4c2.2,4.1,4.3,7.5,5.3,9.5C1320.8,1106.6,1322.7,1107.9,1325.5,1109z
	 M1282.3,1294.7l1.2,22c-4.5-3-9.9-8-10.7-11.9c-1-5.4,2.2-15,4.1-20.3l5.2,1.9C1282.2,1291.6,1282.3,1294.7,1282.3,1294.7z
	 M1196.1,766.2c-1.7,1.6-5,3.2-11.2,2.1c0,0-6.5,4.9-16.2,1.7c0,0,0.2,4.5-4.4,6c-4.6,1.6,0.4,9.8,0.4,9.8s-2.3,1.6-5-3.6
	c-2.7-5.2-3.6-3.9-4-3.7c-0.2,0.1-1.5-1.6-2.4-3.8c-1.5-0.2-2.9,0.5-3.1,3.6c-0.4,7.1,8.3,7.2,8.3,7.2s12.2,18.6,25.9,19.5
	c13.2,0.8,15.4-15.8,14.1-32C1198.1,770.2,1197.1,767.7,1196.1,766.2z"></path>
<path id="color_x5F_4" fill="#768a91" d="M1369.2,1298.5l-10.2,217.3c0,0-7.8,9.9-19.4,2.6c0,0-15.5-193.2-18.5-196.6
	s-8.2,168.2-8.6,166.9s-12.1,14.2-19.4,4.7l-10.8-198.8l0.3,5.9c22.2,3.8,56.6,7.1,86.5,0.3L1369.2,1298.5z"></path>
<path id="color_x5F_3" fill="#e25959" d="M1682.9,610.8v77.8L941.3,259.8v-77.4l581.6,335.9v51.9c0,2.8,1.5,5.3,3.9,6.7l51.9,30
	c5.2,3,11.6-0.7,11.6-6.7v-42.9l8.2,4.7v53.4c0,2.8,1.5,5.3,3.9,6.7l51.9,30c5.2,3,11.6-0.7,11.6-6.7V601L1682.9,610.8z M1274.4,797
	v43.8c0,3.1,1.7,6,4.4,7.5l93.4,53.9c5.8,3.4,13.1-0.8,13.1-7.5v-43.8c0-3.1-1.7-6-4.4-7.5l-93.4-53.9
	C1281.7,786.1,1274.4,790.3,1274.4,797z M1367.6,1248.8c0.3,22.2,0.4,40.8,0.4,47.9c-7.5-10.3-14.9-21.3-20-32.8
	c-10.7-23.9-8.6-51.4-5.3-77.3c2.3-18.3,6.7-38.6,19.5-50.7c0.4,0.5,0.7,1,1,1.5l1.1-1.3c-4.3-7.5-15.6-11.3-15.6-11.3
	s-0.9-3.5-1.8-7.3l-21.4-3.5v5.2c0,0-12.6-9.9-30.2,5.2c-17.7,15.1-12.9,170.3-12.9,170.3l0.3,5.9c22.2,3.8,56.6,7.1,86.5,0.3
	l0.1-2.3c0,0-0.1-21.5-0.4-48.9C1368.4,1249.4,1368,1249.1,1367.6,1248.8z M1429.7,1198c-7.2,12.6-28.5,48-43.6,53.3
	c-18.5,6.5-27.6-13.4-26.7-15.5c0.9-2.2-0.1-93.6-0.1-93.6l5.2-6.5c0.9,0.4,25.4,11.2,22.9,75l19.3-18.8l16.7,9.6L1429.7,1198z"></path>
<path id="color_x5F_2" fill="#6b6b6b" d="M874,766.6l-391.4,226l217.5,125.6l391.4-226L874,766.6z M522.6,986l340.1-196.3
	l188.9,109.1l-340.1,196.3L522.6,986z M1147.5,896.2c0-0.6,0-1.3,0-1.9c0-0.5,0-1,0-1.5s0-1,0-1.5c11.7-13.5,45.3-17.3,54.6-18.1
	c0.1,0.4,0.1,0.9,0.2,1.3c0,0.3,0.1,0.6,0.1,1c0.1,1,0.3,1.9,0.4,2.9c0,0.3,0.1,0.6,0.1,0.9c0.3,2.2,0.7,4.3,1,6.3
	c0.1,0.4,0.1,0.8,0.2,1.2c0.4,2.6,0.8,5,1.2,6.8c0,0.1,0,0.3,0.1,0.4c0.2,1.3,0.5,2.3,0.6,2.8c1.4,4.8,5.2,18.1,5.5,18.1
	s-6.7,10.7-29,16.2s-39.6-5.9-39.6-5.9S1147.9,905.6,1147.5,896.2z M1213.1,840.4c0,0-4.1,9.8-13.7,13.5l-2-12.8
	c-21.3-5.4-51.9,18.5-51.9,18.5s-5.2,13-5.1,15.3c0,0-22.7,3.4-26-7c0,0,9.6-24.9,10.2-27.2s5.1-15,6.5-15.7s26.9-14.1,26.9-14.1
	s4.4-0.4,4.7,1.2c0.2,1.6,25.1,18.7,15.9-7.7c0,0,0.4-0.1,1.3-0.4c1.5,0.5,3.1,0.9,4.7,1c4.3,0.3,7.5-1.4,9.7-4.2
	c1.3-0.3,7.7-0.6,7.6,17C1201.7,830.4,1213.1,840.4,1213.1,840.4z M1199.8,763.1c2.8,7.1-0.8,19.8-0.7,14.3c0.1-4.2-1.5-8.7-3-11.1
	c-1.7,1.6-5,3.2-11.2,2.1c0,0-6.5,4.9-16.2,1.7c0,0,0.2,4.5-4.4,6c-4.6,1.6,0.4,9.8,0.4,9.8s-2.3,1.6-5-3.6c-2.7-5.2-3.6-3.9-4-3.7
	c-0.3,0.1-4.8-5.8-2.6-10.6c0,0-3.5-5.6,0.6-10.8c4.2-5.2,8.1-3.5,8.1-3.5s4.5-10.4,13.9-5.4c0,0-6.5-11.7,9-20.1
	c15.4-8.4,20.1,8.2,20.1,8.2S1213.2,755.5,1199.8,763.1z"></path>
<path id="color_x5F_1" fill="#484848" d="M1312.7,1484.5c-0.1,2.8-0.2,4.4-0.3,4.2c-0.4-1.3-12.1,14.2-19.4,4.7v-0.1
	c-0.9,7.6-2,17.5-1.8,18.5c0.3,1.6,5.8,3.9,14.9,2.3s20.7-21.7,22.3-26.2C1329.6,1484.5,1318.7,1484.3,1312.7,1484.5z
	 M1386.9,1529.2c-10.3,12.3-45,8.7-47.2,7.8c-2-0.8-0.6-14.2-0.1-18.9c0,0.2,0,0.3,0,0.3c11.6,7.3,19.4-2.6,19.4-2.6v-0.5
	c0.8,0.7,1.4,1.3,1.4,1.3S1397.3,1516.9,1386.9,1529.2z M1331.1,1091.8c0.1-0.2,0-0.5-0.1-0.7c-1.2-2.3-7.8-15.2,1-10.7
	s8.2,9.2,8,9.9c0,0.1,0,0.1,0,0.2l0.1,3.7c0,0.5,0.4,0.9,0.9,0.9h1.1c0.6,0,1-0.6,0.9-1.1c-0.8-3.3-2.7-12.6,2.2-14.6
	c5.8-2.3,16.8-5,16.9-9.1c0-0.2,0-0.4,0.1-0.5c1.2-1.8,8.7-14.5-3-24.3c-11.7-9.9-25-0.2-26.9,1.2c-0.2,0.1-0.3,0.2-0.5,0.2
	c-2.6,0-21.1,0.8-24.1,14.4c-3.3,14.6-3.9,15.6-1.2,22.2c2.7,6.6,2.1,12.4,8.5,12.4C1321.3,1095.9,1328.7,1099.5,1331.1,1091.8z
	 M1370.8,1097.5c-2.1,3.9-3.7-1-5.2,0.9s-3.4-0.1-2.6-5.2c0.7-4.3,5.7-3.8,7.3-3.6c0.3,0.1,0.6,0.3,0.7,0.6
	C1371.5,1091.4,1372.4,1094.5,1370.8,1097.5z"></path>
</svg>