<?xml version="1.0" encoding="utf-8"?>
<svg viewBox="0 0 500 500" xmlns="http://www.w3.org/2000/svg">
  <g transform="matrix(1, 0, 0, 1, 250.0000189840796, 265.2905618144655)" id="676f7c01-69ac-439c-ba9b-e0d4e75fcd36"/>
  <g transform="matrix(1, 0, 0, 1, 250.0000189840796, 265.2905618144655)" id="ce8fa7e9-a2cb-439b-a227-877e253a095b"/>
  <g transform="matrix(1, 0, 0, 1, 250.0000189840796, 247.780551787921)">
    <g style="" vector-effect="non-scaling-stroke">
      <g transform="matrix(1 0 0 1 64.35 -16.2)" id="color_x5F_7">
        <path style="stroke: none; stroke-width: 1; stroke-dasharray: none; stroke-linecap: butt; stroke-dashoffset: 0; stroke-linejoin: miter; stroke-miterlimit: 4; fill: rgb(254,190,64); fill-rule: nonzero; opacity: 1;" vector-effect="non-scaling-stroke" transform=" translate(-350.5, -269.38)" d="M 202.203 232.922 C 202.203 230.655 204.04500000000002 228.81199999999998 206.31300000000002 228.81199999999998 C 208.58100000000002 228.81199999999998 210.45200000000003 230.654 210.45200000000003 232.922 C 210.45200000000003 235.218 208.58 237.061 206.31300000000002 237.061 C 204.046 237.061 202.203 235.218 202.203 232.922 z M 193.246 236.918 C 195.514 236.918 197.35600000000002 235.048 197.35600000000002 232.779 C 197.35600000000002 230.512 195.51300000000003 228.67 193.246 228.67 C 190.978 228.67 189.136 230.512 189.136 232.779 C 189.136 235.048 190.978 236.918 193.246 236.918 z M 181.312 236.918 C 183.58 236.918 185.42200000000003 235.048 185.42200000000003 232.779 C 185.42200000000003 230.512 183.57900000000004 228.67 181.312 228.67 C 179.044 228.67 177.173 230.512 177.173 232.779 C 177.173 235.048 179.044 236.918 181.312 236.918 z M 219.976 237.061 C 222.272 237.061 224.115 235.21800000000002 224.115 232.922 C 224.115 230.654 222.27200000000002 228.81199999999998 219.976 228.81199999999998 C 217.708 228.81199999999998 215.86599999999999 230.65499999999997 215.86599999999999 232.922 C 215.866 235.218 217.709 237.061 219.976 237.061 z M 520.987 310.08 L 523.7969999999999 297.633 L 523.8219999999999 297.52299999999997 L 523.8219999999999 297.52299999999997 L 508.03199999999987 297.52299999999997 L 493.7159999999999 297.52299999999997 L 479.8 297.52299999999997 L 482.209 310.08 L 520.987 310.08 L 520.987 310.08 z" stroke-linecap="round"/>
      </g>
      <g transform="matrix(1 0 0 1 59.12 -52.76)" id="color_x5F_6">
        <path style="stroke: none; stroke-width: 1; stroke-dasharray: none; stroke-linecap: butt; stroke-dashoffset: 0; stroke-linejoin: miter; stroke-miterlimit: 4; fill: rgb(255,255,255); fill-rule: nonzero; opacity: 1;" vector-effect="non-scaling-stroke" transform=" translate(-345.27, -232.81)" d="M 502.138 292.223 C 502.082 293.697 502.053 295.14300000000003 502.025 296.56 L 501.6 296.56 C 501.62800000000004 295.341 501.656 294.121 501.713 292.875 L 490.261 287.545 L 490.43100000000004 287.177 L 501.74100000000004 292.42100000000005 C 501.91100000000006 287.80100000000004 502.22200000000004 282.8960000000001 502.59100000000007 278.07800000000003 L 488.75800000000004 266.51200000000006 L 489.04100000000005 266.20000000000005 L 502.64700000000005 277.56600000000003 C 503.12800000000004 271.50000000000006 503.69500000000005 265.57500000000005 504.23400000000004 260.58700000000005 L 497.82800000000003 249.44600000000005 L 498.19700000000006 249.24800000000005 L 504.32000000000005 259.87800000000004 C 505.14200000000005 252.31000000000003 505.82300000000004 247.03700000000003 505.85100000000006 246.92400000000004 L 506.24800000000005 246.98100000000002 C 506.21900000000005 247.17900000000003 504.29200000000003 262.00600000000003 503.016 277.908 L 503.129 277.992 L 503.016 278.135 C 502.903 279.324 502.81800000000004 280.51599999999996 502.733 281.706 L 518.125 274.166 L 518.295 274.534 L 502.70399999999995 282.15999999999997 C 502.477 285.41999999999996 502.27799999999996 288.67999999999995 502.16499999999996 291.79699999999997 L 514.27 288.70799999999997 L 514.355 289.10499999999996 L 502.138 292.223 z M 172.241 197.688 L 329.16700000000003 197.688 L 329.16700000000003 169.057 L 172.241 169.057 L 172.241 197.688 z M 172.241 247.179 L 329.16700000000003 247.179 L 329.16700000000003 218.52100000000002 L 172.241 218.52100000000002 L 172.241 247.179 z M 219.976 228.812 C 222.272 228.812 224.115 230.65400000000002 224.115 232.92200000000003 C 224.115 235.21800000000002 222.27200000000002 237.06100000000004 219.976 237.06100000000004 C 217.709 237.06100000000004 215.86599999999999 235.21800000000005 215.86599999999999 232.92200000000003 C 215.866 230.655 217.708 228.812 219.976 228.812 z M 206.313 228.812 C 208.581 228.812 210.452 230.65400000000002 210.452 232.92200000000003 C 210.452 235.21800000000002 208.57999999999998 237.06100000000004 206.313 237.06100000000004 C 204.046 237.06100000000004 202.20299999999997 235.21800000000005 202.20299999999997 232.92200000000003 C 202.203 230.655 204.045 228.812 206.313 228.812 z M 193.246 228.67 C 195.513 228.67 197.35600000000002 230.512 197.35600000000002 232.779 C 197.35600000000002 235.048 195.514 236.918 193.246 236.918 C 190.978 236.918 189.136 235.048 189.136 232.779 C 189.136 230.512 190.978 228.67 193.246 228.67 z M 181.312 228.67 C 183.579 228.67 185.42200000000003 230.512 185.42200000000003 232.779 C 185.42200000000003 235.048 183.58 236.918 181.312 236.918 C 179.044 236.918 177.173 235.048 177.173 232.779 C 177.173 230.512 179.044 228.67 181.312 228.67 z" stroke-linecap="round"/>
      </g>
      <g transform="matrix(1 0 0 1 -168.69 21.31)" id="color_x5F_5">
        <path style="stroke: none; stroke-width: 1; stroke-dasharray: none; stroke-linecap: butt; stroke-dashoffset: 0; stroke-linejoin: miter; stroke-miterlimit: 4; fill: rgb(255,210,187); fill-rule: nonzero; opacity: 1;" vector-effect="non-scaling-stroke" transform=" translate(-117.46, -306.89)" d="M 97.265 420.15 L 107.498 420.15 L 105.20400000000001 428.49899999999997 C 104.91300000000001 428.54699999999997 103.88100000000001 428.712 103.44500000000001 428.712 C 102.96300000000001 428.712 101.46100000000001 428.712 101.12100000000001 428.712 C 100.85400000000001 428.712 97.941 428.643 96.697 428.613 L 97.265 420.15 z M 100.099 230.511 C 99.90100000000001 228.499 99.504 223.964 99.759 221.923 C 100.127 219.258 100.921 219.456 103.501 217.671 C 106.081 215.884 106.251 214.638 106.421 212.511 C 106.619 210.386 106.081 207.976 106.33600000000001 207.183 C 106.61900000000001 206.388 108.037 205.85 107.49800000000002 204.85899999999998 C 106.95900000000002 203.89499999999998 104.83300000000001 203.271 104.69100000000002 200.94699999999997 C 104.57800000000002 198.64999999999998 102.25300000000001 196.60899999999998 102.25300000000001 196.60899999999998 C 101.99900000000001 196.10199999999998 101.68900000000002 195.65099999999998 101.35100000000001 195.2 C 100.68900000000001 195.691 99.92600000000002 196.29399999999998 99.08700000000002 197.00799999999998 C 98.97800000000002 197.10099999999997 98.87200000000001 197.19099999999997 98.76100000000002 197.28799999999998 C 98.64200000000002 197.391 98.52100000000003 197.498 98.39900000000003 197.606 C 98.13500000000003 197.841 97.86400000000003 198.085 97.58500000000004 198.341 C 97.54400000000004 198.37900000000002 97.50400000000003 198.41400000000002 97.46200000000003 198.453 C 93.46500000000003 202.195 94.88200000000003 204.321 93.46500000000003 205.766 C 92.02000000000004 207.184 89.44000000000003 201.74099999999999 85.89700000000003 201.571 C 84.79000000000003 201.518 84.04500000000003 201.907 83.62300000000003 202.557 C 82.69500000000004 203.987 83.33000000000003 206.677 85.10300000000004 208.685 C 86.00900000000004 209.72 86.58000000000004 210.85 86.87400000000004 212.008 C 87.41800000000003 214.14700000000002 87.00100000000003 216.382 85.89700000000003 218.29500000000002 C 85.74900000000004 218.549 85.55900000000004 218.78000000000003 85.35200000000003 219.00000000000003 C 85.31400000000004 219.04000000000002 85.27600000000004 219.08000000000004 85.23700000000004 219.11900000000003 C 85.02100000000004 219.33300000000003 84.78700000000003 219.53400000000002 84.52400000000004 219.71400000000003 C 84.52200000000005 219.71500000000003 84.52000000000004 219.71600000000004 84.51800000000004 219.71800000000002 C 84.26900000000005 219.88700000000003 83.99700000000004 220.03600000000003 83.71500000000005 220.175 C 83.63100000000004 220.217 83.54700000000004 220.257 83.46100000000004 220.29500000000002 C 83.19000000000004 220.41600000000003 82.91200000000003 220.52700000000002 82.62100000000004 220.621 C 82.59800000000004 220.62900000000002 82.57700000000004 220.64000000000001 82.55300000000004 220.64700000000002 C 83.48800000000004 221.752 84.19700000000005 222.66000000000003 84.48100000000004 223.53900000000002 C 84.99000000000004 225.09500000000003 84.42600000000003 228.852 83.94500000000004 231.26100000000002 C 88.18100000000004 230.81900000000002 93.00600000000003 230.562 97.57300000000004 230.52100000000002 C 98.425 230.512 99.27 230.507 100.099 230.511 z M 68.064 427.808 C 68.195 427.625 68.294 427.57599999999996 68.294 427.57599999999996 C 68.294 427.57599999999996 72.943 427.71899999999994 73.283 427.71899999999994 C 73.623 427.71899999999994 75.126 427.71899999999994 75.636 427.71899999999994 C 75.886 427.71899999999994 76.362 427.6499999999999 76.764 427.58399999999995 L 78.783 420.1499999999999 L 68.578 420.1499999999999 L 68.064 427.808 z M 159.825 213.334 C 159.825 213.334 161.951 212.115 163.057 211.406 C 164.16299999999998 210.698 165.57999999999998 208.997 166.487 206.871 C 167.394 204.773 166.402 203.413 166.147 202.079 C 165.863 200.776 165.155 200.72 163.539 199.5 C 161.952 198.282 160.44899999999998 198.48 159.117 197.346 C 157.784 196.183 158.493 192.386 159.06 188.87 C 159.599 185.35500000000002 158.635 184.278 157.303 185.61 C 155.97 186.942 154.27 194.199 152.512 198.33800000000002 C 150.754 202.47700000000003 152.313 206.81400000000002 152.285 210.216 C 152.256 212.17100000000002 150.953 217.81 149.84799999999998 222.148 L 159.117 223.075 L 159.825 213.334 z" stroke-linecap="round"/>
      </g>
      <g transform="matrix(1 0 0 1 -0.33 0)" id="color_x5F_4">
        <path style="stroke: none; stroke-width: 1; stroke-dasharray: none; stroke-linecap: butt; stroke-dashoffset: 0; stroke-linejoin: miter; stroke-miterlimit: 4; fill: rgb(182,182,182); fill-rule: nonzero; opacity: 1;" vector-effect="non-scaling-stroke" transform=" translate(-285.82, -285.57)" d="M 371.488 320.681 C 371.488 327.94899999999996 366.823 334.123 360.334 336.414 L 388.411 336.414 L 388.411 326.21 L 379.793 326.21 L 379.793 316.006 L 391.472 316.006 L 391.472 306.76399999999995 L 458.71 306.76399999999995 L 458.71 316.96899999999994 L 447.031 316.96899999999994 L 447.031 316.0059999999999 L 447.031 316.0059999999999 L 447.031 316.96899999999994 L 447.031 326.2099999999999 L 455.62 326.2099999999999 L 455.62 336.41399999999993 L 487.198 336.41399999999993 L 482.26099999999997 310.46099999999996 C 450.65 291.87999999999994 392.50199999999995 298.91599999999994 379.67999999999995 229.26599999999996 C 378.013 220.21599999999995 375.23099999999994 211.36599999999996 371.48799999999994 202.81799999999996 L 371.48799999999994 320.681 z M 445.076 347.129 L 445.076 376.44 L 441.958 376.44 L 441.958 347.129 L 220.033 347.129 L 220.033 376.44 L 216.94299999999998 376.44 L 216.94299999999998 347.129 L 123.45599999999999 347.129 L 123.45599999999999 336.41400000000004 L 146.856 336.41400000000004 C 140.367 334.12300000000005 135.702 327.94900000000007 135.702 320.68100000000004 L 135.702 266.30800000000005 C 129.228 262.7780000000001 123.228 259.36600000000004 121.357 259.994 C 118.154 261.04200000000003 121.725 270.28400000000005 120.30799999999999 281.31 C 118.89099999999999 292.337 119.939 318.671 118.52199999999999 320.088 C 118.49199999999999 320.118 118.43599999999999 320.149 118.35699999999999 320.18100000000004 C 118.43799999999999 320.14900000000006 118.49499999999999 320.11800000000005 118.52499999999999 320.08700000000005 L 119.14899999999999 364.619 L 112.34599999999999 420.15000000000003 L 108.70799999999998 420.15000000000003 C 110.23699999999998 421.70500000000004 111.82899999999998 423.21500000000003 113.48199999999999 424.684 C 113.71399999999998 424.63500000000005 113.93499999999999 424.601 114.13099999999999 424.601 C 116.19999999999999 424.601 120.45199999999998 424.997 119.68799999999999 429.762 C 119.68699999999998 429.77 119.68299999999999 429.779 119.68099999999998 429.787 C 221.885 507.586 510.474 448.022 503.52799999999996 347.12899999999996 L 445.076 347.12899999999996 z M 81.276 181.132 C 85.52799999999999 181.217 85.443 180.50900000000001 89.35499999999999 175.34900000000002 C 93.267 170.19100000000003 107.49699999999999 163.86900000000003 110.52999999999999 176.05800000000002 C 113.53499999999998 188.24800000000002 104.20899999999999 193.32200000000003 104.20899999999999 193.32200000000003 C 104.20899999999999 193.32200000000003 103.13399999999999 193.87600000000003 101.35099999999998 195.19900000000004 C 100.68899999999998 195.69000000000005 99.92599999999999 196.29300000000003 99.08699999999999 197.00700000000003 C 98.97999999999999 197.09800000000004 98.871 197.19100000000003 98.761 197.28700000000003 C 98.642 197.39100000000005 98.521 197.49700000000004 98.399 197.60500000000005 C 98.134 197.83900000000006 97.863 198.08300000000006 97.58500000000001 198.34000000000006 C 97.543 198.37800000000007 97.504 198.41300000000007 97.462 198.45200000000006 C 93.465 202.19400000000005 94.882 204.32000000000005 93.465 205.76500000000004 C 92.02000000000001 207.18300000000005 89.44 201.74000000000004 85.897 201.57000000000005 C 84.79 201.51700000000005 84.045 201.90600000000006 83.623 202.55600000000004 C 82.694 203.98600000000005 83.32900000000001 206.67700000000005 85.10300000000001 208.68500000000003 C 85.171 208.76300000000003 85.224 208.84400000000002 85.28800000000001 208.92300000000003 C 85.22400000000002 208.84400000000002 85.171 208.76300000000003 85.10300000000001 208.68500000000003 C 83.33000000000001 206.67700000000002 82.69500000000001 203.98700000000002 83.623 202.55700000000002 C 84.045 201.907 84.79 201.51800000000003 85.897 201.57100000000003 C 89.44000000000001 201.741 92.02000000000001 207.18400000000003 93.465 205.76600000000002 C 94.882 204.32100000000003 93.465 202.19500000000002 97.462 198.45300000000003 C 97.504 198.41400000000004 97.544 198.37900000000002 97.58500000000001 198.34100000000004 C 97.864 198.08500000000004 98.135 197.84100000000004 98.399 197.60600000000002 C 98.521 197.49800000000002 98.642 197.39100000000002 98.761 197.288 C 98.872 197.191 98.978 197.101 99.08699999999999 197.008 C 99.92599999999999 196.294 100.689 195.691 101.35099999999998 195.20000000000002 C 101.68899999999998 195.651 101.99899999999998 196.102 102.25299999999999 196.609 C 102.25299999999999 196.609 104.57799999999999 198.65 104.69099999999999 200.947 C 104.83299999999998 203.27100000000002 106.95899999999999 203.895 107.49799999999999 204.859 C 108.03699999999999 205.85000000000002 106.61899999999999 206.388 106.33599999999998 207.18300000000002 C 106.08099999999999 207.97600000000003 106.61899999999999 210.38600000000002 106.42099999999998 212.51100000000002 C 106.25099999999998 214.63800000000003 106.08099999999997 215.88400000000001 103.50099999999998 217.67100000000002 C 100.92099999999998 219.45600000000002 100.12699999999998 219.258 99.75899999999997 221.92300000000003 C 99.50399999999998 223.96400000000003 99.90099999999997 228.49900000000002 100.09899999999998 230.51100000000002 C 99.26999999999998 230.50700000000003 98.42499999999997 230.51200000000003 97.57299999999998 230.52100000000002 C 93.00599999999997 230.562 88.18099999999998 230.81900000000002 83.94499999999998 231.26100000000002 C 84.42599999999997 228.85200000000003 84.98999999999998 225.09500000000003 84.48099999999998 223.53900000000002 C 84.19699999999997 222.66000000000003 83.48799999999999 221.752 82.55299999999998 220.64700000000002 C 82.57699999999998 220.64000000000001 82.59799999999998 220.62900000000002 82.62099999999998 220.621 C 82.91199999999998 220.52700000000002 83.18999999999998 220.416 83.46099999999998 220.29500000000002 C 83.54699999999998 220.257 83.63099999999999 220.217 83.71499999999999 220.175 C 83.99699999999999 220.036 84.26899999999999 219.887 84.51799999999999 219.71800000000002 C 84.51999999999998 219.716 84.52199999999999 219.71500000000003 84.52399999999999 219.71400000000003 C 84.78699999999999 219.53400000000002 85.02099999999999 219.33300000000003 85.23699999999998 219.11900000000003 C 85.27599999999998 219.08000000000004 85.31399999999998 219.04000000000002 85.35199999999998 219.00000000000003 C 85.55899999999997 218.78000000000003 85.74899999999998 218.54900000000004 85.89699999999998 218.29500000000002 C 86.72499999999998 216.86 87.16699999999997 215.24400000000003 87.10599999999998 213.62300000000002 C 87.16599999999998 215.24400000000003 86.72499999999998 216.859 85.89699999999998 218.294 C 85.74899999999998 218.548 85.55899999999998 218.77900000000002 85.35199999999998 218.99900000000002 C 85.31499999999997 219.03900000000002 85.27699999999997 219.07900000000004 85.23699999999998 219.11800000000002 C 85.02099999999999 219.33200000000002 84.78699999999998 219.53300000000002 84.52399999999999 219.71300000000002 C 84.52199999999999 219.71500000000003 84.51999999999998 219.716 84.51799999999999 219.717 C 84.26899999999999 219.88600000000002 83.99699999999999 220.03500000000003 83.71499999999999 220.174 C 83.63099999999999 220.216 83.54699999999998 220.256 83.46099999999998 220.294 C 83.18999999999998 220.41500000000002 82.91099999999999 220.526 82.62099999999998 220.62 C 80.23799999999999 221.387 77.31499999999998 221.235 75.74999999999999 220.079 C 73.54599999999999 218.407 69.62699999999998 212.75 68.10999999999999 207.579 C 67.59199999999998 217.21 68.71099999999998 226.484 71.23899999999999 234.817 C 71.76899999999999 234.292 72.24999999999999 233.888 72.66 233.65800000000002 C 74.50999999999999 232.61300000000003 78.791 231.799 83.946 231.26100000000002 C 88.182 230.818 93.006 230.562 97.574 230.52100000000002 C 104.488 230.459 110.79899999999999 230.888 113.536 231.9 C 118.136 233.574 128.78 241.489 135.703 245.84300000000002 L 135.703 157.774 C 135.703 148.53300000000002 143.186 141.078 152.399 141.078 L 320.275 141.078 C 269.73199999999997 104.37700000000001 195.10999999999996 90.934 124.50599999999997 126.622 C 97.20899999999997 140.418 80.92899999999997 160.936 73.28399999999996 182.18 C 76.326 180.834 77.93 181.066 81.276 181.132 z M 135.939 245.991 C 139.09 247.96 141.43599999999998 249.156 141.995 248.597 C 141.436 249.156 139.091 247.959 135.939 245.991 z" stroke-linecap="round"/>
      </g>
      <g transform="matrix(1 0 0 1 43.42 -46.82)" id="color_x5F_3">
        <path style="stroke: none; stroke-width: 1; stroke-dasharray: none; stroke-linecap: butt; stroke-dashoffset: 0; stroke-linejoin: miter; stroke-miterlimit: 4; fill: rgb(226,89,89); fill-rule: nonzero; opacity: 1;" vector-effect="non-scaling-stroke" transform=" translate(-329.57, -238.75)" d="M 512.738 292.79 C 516.0260000000001 292.252 517.047 292.394 518.5490000000001 289.389 C 520.0510000000002 286.384 517.1880000000001 284.117 513.2200000000001 285.562 C 509.25100000000015 286.98 507.35200000000015 287.406 507.89100000000013 284.882 C 508.4300000000001 282.358 511.4350000000001 281.98900000000003 516.7070000000001 280.373 C 521.9510000000001 278.729 523.9350000000001 275.3 523.3400000000001 272.15299999999996 C 522.7160000000001 269.03499999999997 518.8330000000002 268.21299999999997 515.6010000000001 270.736 C 512.3980000000001 273.258 510.0730000000001 274.61899999999997 510.2720000000001 271.699 C 510.4990000000001 268.752 514.1840000000001 268.666 517.3870000000001 261.58000000000004 C 520.59 254.46500000000003 516.8480000000001 243.75000000000006 508.8550000000001 239.92400000000004 C 500.8610000000001 236.09700000000004 493.2080000000001 246.13100000000003 493.7460000000001 253.16100000000003 C 494.2850000000001 260.21900000000005 499.0180000000001 269.432 496.3540000000001 267.249 C 493.6900000000001 265.06600000000003 492.3000000000001 259.93600000000004 486.7730000000001 260.56 C 481.24500000000006 261.15500000000003 480.7070000000001 270.311 487.7370000000001 274.959 C 494.76700000000005 279.608 494.62500000000006 286.779 492.58400000000006 284.598 C 490.54300000000006 282.414 489.29600000000005 282.13100000000003 487.53800000000007 283.719 C 485.75200000000007 285.278 487.2540000000001 290.948 490.6840000000001 293.073 C 492.9790000000001 294.491 493.5750000000001 296.418 493.7170000000001 297.52299999999997 L 508.0330000000001 297.52299999999997 C 508.036 297.512 509.453 293.356 512.738 292.79 z M 501.6 296.56 C 501.62800000000004 295.341 501.656 294.121 501.713 292.875 L 490.261 287.545 L 490.43100000000004 287.177 L 501.74100000000004 292.42100000000005 C 501.91100000000006 287.80100000000004 502.22200000000004 282.8960000000001 502.59100000000007 278.07800000000003 L 488.75800000000004 266.51200000000006 L 489.04100000000005 266.20000000000005 L 502.64700000000005 277.56600000000003 C 503.12800000000004 271.50000000000006 503.69500000000005 265.57500000000005 504.23400000000004 260.58700000000005 L 497.82800000000003 249.44600000000005 L 498.19700000000006 249.24800000000005 L 504.32000000000005 259.87800000000004 C 505.14200000000005 252.31000000000003 505.82300000000004 247.03700000000003 505.85100000000006 246.92400000000004 L 506.24800000000005 246.98100000000002 C 506.21900000000005 247.17900000000003 504.29200000000003 262.00600000000003 503.016 277.908 L 503.129 277.992 L 503.016 278.135 C 502.903 279.324 502.81800000000004 280.51599999999996 502.733 281.706 L 518.125 274.166 L 518.295 274.534 L 502.70399999999995 282.15999999999997 C 502.477 285.41999999999996 502.27799999999996 288.67999999999995 502.16499999999996 291.79699999999997 L 514.27 288.70799999999997 L 514.355 289.10499999999996 L 502.13800000000003 292.22299999999996 C 502.08200000000005 293.69699999999995 502.05300000000005 295.143 502.02500000000003 296.55999999999995 L 501.6 296.56 L 501.6 296.56 z M 447.031 316.006 L 391.472 316.006 L 391.472 306.76399999999995 L 458.71 306.76399999999995 L 458.71 316.96899999999994 L 447.031 316.96899999999994 L 447.031 316.006 L 447.031 316.006 z M 371.488 320.681 L 371.488 157.775 C 371.488 148.534 364.005 141.079 354.792 141.079 L 152.398 141.079 C 143.185 141.079 135.702 148.53400000000002 135.702 157.775 L 135.702 245.844 C 138.976 247.903 141.422 249.17 141.995 248.59699999999998 C 143.781 246.83999999999997 146.247 230.11499999999998 146.247 230.11499999999998 L 147.608 221.92399999999998 L 149.848 222.14799999999997 C 150.954 217.80999999999997 152.256 212.17099999999996 152.28500000000003 210.21599999999998 C 152.31300000000002 206.814 150.75400000000002 202.47699999999998 152.51200000000003 198.33799999999997 C 154.27000000000004 194.19899999999996 155.97000000000003 186.94199999999995 157.30300000000003 185.60999999999996 C 158.63500000000002 184.27799999999996 159.59900000000002 185.35499999999996 159.06000000000003 188.86999999999995 C 158.49300000000002 192.38599999999994 157.78400000000002 196.18299999999994 159.11700000000002 197.34599999999995 C 160.449 198.47999999999993 161.95200000000003 198.28199999999995 163.53900000000002 199.49999999999994 C 165.15500000000003 200.71999999999994 165.86300000000003 200.77599999999995 166.14700000000002 202.07899999999995 C 166.40200000000002 203.41299999999995 167.39400000000003 204.77299999999994 166.48700000000002 206.87099999999995 C 165.58 208.99699999999996 164.163 210.69799999999995 163.05700000000002 211.40599999999995 C 161.95100000000002 212.11499999999995 159.82500000000002 213.33399999999995 159.82500000000002 213.33399999999995 L 159.11700000000002 223.07499999999993 L 160.931 223.25599999999994 C 160.931 223.25599999999994 157.983 275.52599999999995 148.93800000000002 272.60799999999995 C 145.16500000000002 271.393 140.31300000000002 268.82099999999997 135.70200000000003 266.30699999999996 L 135.70200000000003 320.681 C 135.70200000000003 327.94899999999996 140.36700000000002 334.123 146.85600000000002 336.414 L 360.33400000000006 336.414 C 366.823 334.123 371.488 327.949 371.488 320.681 z M 283.161 297.75 L 218.248 297.75 C 209.37599999999998 297.75 202.20399999999998 290.55 202.20399999999998 281.706 C 202.20399999999998 272.834 209.37599999999998 265.63300000000004 218.248 265.63300000000004 L 283.161 265.63300000000004 C 292.033 265.63300000000004 299.205 272.83400000000006 299.205 281.706 C 299.205 290.55 292.033 297.75 283.161 297.75 z M 329.167 247.179 L 172.241 247.179 L 172.241 218.52100000000002 L 329.16700000000003 218.52100000000002 L 329.16700000000003 247.179 z M 329.167 197.688 L 172.241 197.688 L 172.241 169.057 L 329.16700000000003 169.057 L 329.16700000000003 197.688 z" stroke-linecap="round"/>
      </g>
      <g transform="matrix(1 0 0 1 4.63 57.32)" id="color_x5F_2">
        <path style="stroke: none; stroke-width: 1; stroke-dasharray: none; stroke-linecap: butt; stroke-dashoffset: 0; stroke-linejoin: miter; stroke-miterlimit: 4; fill: rgb(225,223,222); fill-rule: nonzero; opacity: 1;" vector-effect="non-scaling-stroke" transform=" translate(-290.78, -342.89)" d="M 520.996 310.07 L 515.063 336.414 L 487.198 336.414 L 482.18899999999996 310.084 C 482.19499999999994 310.079 482.20099999999996 310.076 482.20699999999994 310.071 L 482.20899999999995 310.08000000000004 L 520.987 310.08000000000004 L 520.99 310.06600000000003 C 520.992 310.067 520.994 310.069 520.996 310.07 z M 60.556 321.507 C 60.559999999999995 321.58 61.384 338.48900000000003 64.383 354.5 C 67.359 370.544 64.383 420.15 64.383 420.15 L 68.578 420.15 L 78.783 420.15 L 83.914 420.15 C 83.914 420.15 89.016 381.996 89.243 376.38199999999995 C 89.49799999999999 370.79799999999994 89.243 351.35299999999995 89.243 351.35299999999995 L 91.681 378.566 L 92.645 420.15 L 97.265 420.15 L 107.498 420.15 L 112.346 420.15 L 119.149 364.61899999999997 L 118.525 320.087 C 117.55000000000001 321.061 90.85000000000001 322.545 74.028 322.566 C 66.393 322.576 60.793 322.284 60.556 321.507 z M 455.62 326.21 L 447.031 326.21 L 447.031 326.21 L 388.411 326.21 L 388.411 336.414 L 455.62 336.414 L 455.62 326.21 z M 283.161 265.633 L 218.248 265.633 C 209.37599999999998 265.633 202.20399999999998 272.834 202.20399999999998 281.70599999999996 C 202.20399999999998 290.54999999999995 209.37599999999998 297.74999999999994 218.248 297.74999999999994 L 283.161 297.74999999999994 C 292.033 297.74999999999994 299.205 290.54999999999995 299.205 281.70599999999996 C 299.205 272.834 292.033 265.633 283.161 265.633 z" stroke-linecap="round"/>
      </g>
      <g transform="matrix(1 0 0 1 -3.57 19.1)" id="color_x5F_1">
        <path style="stroke: none; stroke-width: 1; stroke-dasharray: none; stroke-linecap: butt; stroke-dashoffset: 0; stroke-linejoin: miter; stroke-miterlimit: 4; fill: rgb(90,90,90); fill-rule: nonzero; opacity: 1;" vector-effect="non-scaling-stroke" transform=" translate(-282.58, -304.67)" d="M 515.063 336.414 L 516.679 336.414 L 516.679 347.12899999999996 L 445.07599999999996 347.12899999999996 L 445.07599999999996 376.43999999999994 L 441.95799999999997 376.43999999999994 L 441.95799999999997 347.12899999999996 L 220.033 347.12899999999996 L 220.033 376.43999999999994 L 216.94299999999998 376.43999999999994 L 216.94299999999998 347.12899999999996 L 123.45599999999999 347.12899999999996 L 123.45599999999999 336.414 L 146.856 336.414 L 360.334 336.414 L 388.411 336.414 L 455.62 336.414 L 487.198 336.414 L 515.063 336.414 z M 83.715 220.174 C 83.997 220.035 84.269 219.886 84.518 219.717 C 84.52 219.716 84.522 219.715 84.524 219.71300000000002 C 84.787 219.53300000000002 85.021 219.33200000000002 85.237 219.11800000000002 C 85.277 219.07900000000004 85.315 219.03900000000002 85.35199999999999 218.99900000000002 C 85.55899999999998 218.77900000000002 85.749 218.54800000000003 85.89699999999999 218.294 C 87.00099999999999 216.381 87.41799999999999 214.14600000000002 86.874 212.007 C 86.58 210.84900000000002 86.009 209.72 85.103 208.685 C 83.329 206.677 82.69399999999999 203.986 83.62299999999999 202.556 C 84.04499999999999 201.906 84.78999999999999 201.51700000000002 85.89699999999999 201.57000000000002 C 89.44 201.74 92.02 207.18300000000002 93.46499999999999 205.76500000000001 C 94.88199999999999 204.32000000000002 93.46499999999999 202.19400000000002 97.46199999999999 198.45200000000003 C 97.50399999999999 198.41300000000004 97.54299999999999 198.37800000000001 97.585 198.34000000000003 C 97.863 198.08300000000003 98.134 197.83900000000003 98.39899999999999 197.60500000000002 C 98.52099999999999 197.497 98.64199999999998 197.39100000000002 98.76099999999998 197.287 C 98.87099999999998 197.191 98.97999999999998 197.098 99.08699999999997 197.007 C 99.92599999999997 196.293 100.68899999999998 195.69 101.35099999999997 195.199 C 103.13399999999997 193.876 104.20899999999997 193.322 104.20899999999997 193.322 C 104.20899999999997 193.322 113.53499999999997 188.248 110.52999999999997 176.058 C 107.49699999999997 163.869 93.26699999999997 170.191 89.35499999999998 175.349 C 85.44299999999997 180.509 85.52799999999998 181.21699999999998 81.27599999999998 181.13199999999998 C 76.99599999999998 181.04699999999997 75.57799999999997 180.67899999999997 70.33399999999997 183.712 C 65.08999999999997 186.71599999999998 64.29599999999998 191.081 64.38099999999997 195.362 C 64.46799999999998 199.614 66.70699999999997 200.152 67.67099999999998 205.765 C 68.66299999999998 211.349 73.28399999999998 218.20899999999997 75.74999999999997 220.07899999999998 C 77.31499999999997 221.23499999999999 80.23799999999997 221.38699999999997 82.62099999999997 220.61999999999998 C 82.91099999999997 220.52599999999998 83.18999999999997 220.41499999999996 83.46099999999997 220.29399999999998 C 83.547 220.256 83.631 220.216 83.715 220.174 z M 160.931 223.256 L 159.11700000000002 223.075 L 149.848 222.148 L 147.608 221.924 L 146.247 230.115 C 146.247 230.115 143.781 246.84 141.995 248.597 C 141.422 249.17000000000002 138.976 247.904 135.702 245.844 C 128.779 241.48999999999998 118.13499999999999 233.575 113.535 231.90099999999998 C 110.798 230.88899999999998 104.487 230.45999999999998 97.573 230.522 C 93.005 230.563 88.181 230.819 83.945 231.262 C 78.78999999999999 231.8 74.50899999999999 232.614 72.65899999999999 233.659 C 66.96099999999998 236.862 48.47899999999999 270.651 48.47899999999999 278.106 C 48.47899999999999 285.59 60.21399999999999 300.528 60.21399999999999 300.528 C 60.21399999999999 300.528 59.84499999999999 319.01 60.553999999999995 321.505 C 60.553999999999995 321.506 60.556 321.507 60.556 321.508 C 60.793 322.28499999999997 66.393 322.577 74.02799999999999 322.567 C 90.85 322.546 117.548 321.062 118.52199999999999 320.088 C 119.939 318.67100000000005 118.89099999999999 292.33700000000005 120.30799999999999 281.31 C 121.725 270.284 118.154 261.04200000000003 121.357 259.994 C 123.228 259.36600000000004 129.228 262.778 135.702 266.30800000000005 C 140.313 268.82200000000006 145.165 271.39500000000004 148.938 272.60900000000004 C 157.983 275.526 160.931 223.256 160.931 223.256 z M 101.121 428.712 C 100.854 428.712 97.94099999999999 428.643 96.69699999999999 428.613 C 96.356 428.605 96.13199999999999 428.599 96.13199999999999 428.599 C 96.13199999999999 428.599 95.53699999999999 428.82599999999996 95.282 430.86699999999996 C 95.05499999999999 432.87899999999996 95.282 436.67799999999994 95.282 437.756 C 95.282 438.832 95.084 440.13699999999994 96.13199999999999 440.25 C 97.181 440.391 107.52699999999999 440.25 108.54799999999999 440.25 C 109.53999999999999 440.25 118.951 434.495 119.68799999999999 429.762 C 120.45199999999998 424.997 116.19999999999999 424.601 114.13099999999999 424.601 C 112.03299999999999 424.601 107.49799999999999 427.691 107.49799999999999 427.691 L 105.28699999999999 428.48499999999996 C 105.28699999999999 428.48499999999996 105.25299999999999 428.49099999999993 105.204 428.49899999999997 C 104.913 428.54699999999997 103.881 428.712 103.445 428.712 C 102.963 428.712 101.461 428.712 101.121 428.712 z M 73.283 427.719 C 72.943 427.719 68.294 427.576 68.294 427.576 C 68.294 427.576 68.195 427.625 68.064 427.80800000000005 C 67.871 428.07700000000006 67.607 428.6460000000001 67.472 429.845 C 67.217 431.88500000000005 67.472 435.684 67.472 436.762 C 67.472 437.838 67.24499999999999 439.143 68.294 439.25600000000003 C 69.343 439.3690000000001 79.71799999999999 439.25600000000003 80.71 439.25600000000003 C 81.702 439.25600000000003 91.113 433.50100000000003 91.87899999999999 428.73800000000006 C 92.61599999999999 423.97700000000003 88.36399999999999 423.58000000000004 86.294 423.58000000000004 C 84.196 423.58000000000004 79.661 426.67 79.661 426.67 L 77.45 427.463 C 77.45 427.463 77.139 427.523 76.764 427.584 C 76.36099999999999 427.65 75.88499999999999 427.719 75.636 427.719 C 75.126 427.719 73.623 427.719 73.283 427.719 z M 447.031 326.21 L 447.031 316.969 L 447.031 316.006 L 391.472 316.006 L 379.793 316.006 L 379.793 326.21 L 388.411 326.21 L 447.031 326.21 L 447.031 326.21 z" stroke-linecap="round"/>
      </g>
    </g>
  </g>
</svg>