<?xml version="1.0" standalone="no"?>
<svg version="1.1" id="Layer_1" xmlns="http://www.w3.org/2000/svg" xmlns:xlink="http://www.w3.org/1999/xlink" x="0px" y="0px" width="595.279px" height="595.281px" viewBox="0 0 595.279 595.281" enable-background="new 0 0 595.279 595.281" xml:space="preserve">
<path id="color_x5F_2" fill="#e25959" d="M213.439,399.564c-4.606-5.174-5.344-13.025-5.568-19.646
	c-0.31-9.179,0.554-18.362,1.749-27.455c1.174-8.928,2.236-17.908,3.563-26.813c0.248-1.663,0.495-3.336,0.746-5.016
	c-4.506-0.41-9.345,1.285-13.478,2.857c-6.235,2.373-12.262,5.307-18.009,8.693c-14.145,8.338-27.117,18.771-37.387,31.645
	c-0.628,0.787-3.569,0.939-2.717-0.129c11.285-14.145,25.824-25.839,41.723-34.439c8.497-4.598,19.927-11.031,30.143-10.438
	c1.769-11.743,3.75-23.741,7.1-35.009c0.22-0.739,0.499-1.41,0.807-2.048h-2.414l-2.143,1.354c0.512-0.296,1.027-0.583,1.535-0.891
	c0.516-0.313,3.436-0.665,2.216,0.075c-23.911,14.5-53.307,14.809-78.493,25.658c-2.55,1.187-5.264,2.512-7.96,3.897
	c-1.971,1.093-3.91,2.267-5.806,3.548c-28.242,19.094-47.756,49.088-67.028,76.615c10.598-5.482,22.779-7.876,33.193-0.211
	c10.677,7.859,17.461,19.738,25.808,29.949l11.657,12.188c4.252,3.883,8.921,7.498,13.831,9.863l3.024,1.26
	c0.955,0.33,1.924,0.594,2.903,0.799c1.615,0.127,4.545,0.332,7.153,0.383c3.609-0.357,7.147-1.545,10.322-3.592
	c2.767-1.785,5.221-4.131,8.227-5.52c5.534-2.555,11.874,0.482,16.535,3.502c2.525,1.637,5.163,3.758,8.098,4.6
	c6.159,1.77,10.777-4.291,14.095-8.684c-0.019-0.73,0.072-1.436,0.311-2.088c0.749-2.041,2.591-3.883,3.668-5.764
	c1.528-2.666,3.085-5.322,4.511-8.045c2.946-5.629,6.118-11.828,6.379-18.314C225.345,403.738,217.745,404.4,213.439,399.564z
	 M212.871,404.054c-10.581,10.475-23.046,19.625-31.816,31.777c-0.595,0.826-3.535,1.002-2.717-0.131
	c8.894-12.324,21.456-21.604,32.184-32.223C211.258,402.751,214.104,402.833,212.871,404.054z M201.979,290.295
	c-16.045,5.863-33.292,8.5-49.623,13.602c0.686-0.252,1.309-0.466,1.84-0.63c6.5-2,36.5-9.5,36.5-9.5L201.979,290.295z
	 M461.113,215.44c0.441,0.059,0.881,0.156,1.315,0.28l-5.004,1.001C458.471,215.78,459.688,215.25,461.113,215.44z M532.186,178.615
	c-8.087,4.909-12.891,12.542-17.2,21.145c-5.719,11.418-13.822,25.804-28.849,24.662c-1.424-0.108-2.756-0.419-4.035-0.847
	l-5.278-2.519c-4.338-2.596-8.342-5.89-13.322-6.921c-5.921-1.226-9.464,2.857-11.802,7.637
	c-1.463-12.523-2.938-25.044-4.427-37.563c-0.269-2.26-0.54-4.52-0.81-6.78c3.269-2.645,7.886-6.611,12.114-4.761
	c2.263,0.99,3.922,3.569,5.385,5.437c4.436,5.663,9.499,10.29,16.599,12.23C498.715,195.294,514.999,182.279,532.186,178.615z
	 M316.981,363.292l6.714-1.524c0,0,1.212-0.729,2.442-2.065C324.469,362.511,320.524,362.981,316.981,363.292z M315.473,286.401
	c-1.968-3.678-2.551-7.708-2.643-11.845c0.215-0.084,0.41-0.194,0.572-0.322c2.155,0.446,4.346,0.768,6.507,0.336
	c0.138-0.027,0.235-0.073,0.348-0.113c-0.002,0.163-0.01,0.327-0.011,0.49c-0.003,0.384,0.283,0.585,0.678,0.651
	c2.816,3.429,2.773,7.017,1.938,11.143c-0.191-0.203-0.524-0.34-1.03-0.34C319.712,286.401,317.593,286.401,315.473,286.401z
	 M336.129,343.519c2.593,18.041,2.996,36.34,1.622,54.502c-0.207,2.742-0.066,6.098-0.77,8.98l-1.248,3.029
	c-1.483,2.375-3.977,4.232-6.156,5.887c-2.409,1.826-5.038,3.383-7.68,4.848c-1.15,0.639-2.334,1.215-3.529,1.764
	c-0.579,0.266-1.172,0.365-1.533,0.473c-0.035-0.117-0.135-0.227-0.332-0.318c-1.394-0.641-2.796-6.887-3.272-8.287
	c-1.582-4.646-2.883-9.557-3.02-14.484c-0.164-5.904,1.977-12.289,2.811-18.138c0.813-5.685,1.446-11.472,1.131-17.22
	c3.523-0.631,7.296-0.668,10.649-1.954c4.688-1.798,5.604-6.386,5.306-10.946c-0.476-7.281-4.442-20.691-13.091-17.256
	c-0.629-1.618-1.492-2.646-2.522-3.188c0.051-14.25,0.604-28.492,0.647-42.742c2.14,0,4.279,0,6.419,0
	c0.423,0,0.774-0.139,1.032-0.344c0.016,0.07,0.063,0.124,0.134,0.168c1.061,6.169,3.607,12.255,5.354,18.228
	C331.625,318.654,334.331,331.005,336.129,343.519z M316.655,423.48c0.021,0.021,0.027,0.033,0.054,0.057
	c-0.021-0.018-0.044-0.027-0.065-0.041C316.647,423.492,316.651,423.486,316.655,423.48z"></path>
<path id="color_x5F_1" d="M325.247,198.155c-0.042-0.798,2.871-1.286,2.897-0.776c0.318,5.979,7.623,12.565-0.615,16.075
	c-0.68,0.29-3.425,0.374-1.668-0.374C332.441,210.277,325.495,202.815,325.247,198.155z M307.246,213.822
	c2.641,3.642,7.552,5.141,11.842,4.458c1.144-0.183,2.594-1.351,0.551-1.025c-3.321,0.53-7.518-1.481-9.493-4.208
	C309.643,212.354,307.046,213.544,307.246,213.822z M308.145,197.379c0.001-1.96,0.053-3.889,0.496-5.806
	c0.234-1.019-2.673-0.552-2.891,0.388c-0.472,2.042-0.502,4.109-0.503,6.194C305.247,198.988,308.144,198.459,308.145,197.379z
	 M332.251,190.961c-0.474,2.042-0.503,4.109-0.504,6.194c0,0.833,2.896,0.304,2.897-0.776c0.001-1.96,0.053-3.889,0.496-5.806
	C335.377,189.555,332.467,190.022,332.251,190.961z M302.302,180.989c1.631-0.79,3.219-1.164,5.03-0.842
	c0.717,0.127,1.52-0.008,2.05-0.549c0.415-0.423,0.33-1.094-0.324-1.21c-2.809-0.498-5.403-0.083-7.969,1.158
	c-0.426,0.207-1.187,0.779-0.729,1.324C300.796,181.389,301.772,181.245,302.302,180.989z M330.958,182.246
	c2.197-0.407,4.299-0.293,6.398,0.488c1.216,0.452,3.399-1.293,1.678-1.933c-2.824-1.051-5.665-1.056-8.601-0.512
	c-0.569,0.105-1.366,0.7-1.188,1.367C329.441,182.384,330.389,182.351,330.958,182.246z M271.889,206.715
	c-0.636-0.228-3.22,0.806-2.386,1.104c2.899,1.038,4.756,3.507,5.744,6.336c0.231,0.662,3.094-0.214,2.897-0.776
	C277.063,210.281,275.021,207.836,271.889,206.715z M536.74,177.761c-11.753,5.387-16.115,16.786-21.853,27.45
	c-4.893,9.096-11.158,16.141-21.147,19.55c-7.836,2.675-15.393,0.323-22.194-3.835c-2.763-1.688-5.853-4.275-9.116-5.205
	c-0.437-0.124-0.874-0.221-1.315-0.28c-1.425-0.19-2.643,0.339-3.688,1.281c-2.654,2.39-4.188,7.453-5.111,10.297
	c1.836,15.773,3.644,31.549,5.396,47.331c1.054,9.496,2.116,18.993,3.064,28.501c2.311-2.008,5.466-3.574,8.468-3.637
	c1.588-0.412,3.954-0.985,5.223-0.053c1.066,0.786,0.467,2.194-0.13,3.102c-0.778,1.183-1.772,2.265-2.898,3.208
	c1.393-0.173,4.299-0.41,4.397,1.134c0.097,1.499-1.572,2.827-2.629,3.637c-0.275,0.211-0.58,0.434-0.898,0.657
	c3.135,0.761,4.951,3.075,3.505,6.481c-0.719,1.69-2.044,3.308-3.655,4.477c3.373,4.803-4.702,9.712-9.276,7.997
	c2.24,21.698,5.746,43.354,8.595,64.954c1.958,14.842,3.923,29.682,5.834,44.527c0.614,4.773,1.231,9.547,1.804,14.326
	c0.165,1.373,0.996,3.977,0.515,5.346c-0.255,0.723-3.033,1.027-2.855,0.521c-0.041,0.115-0.035-0.393-0.047-0.523
	c-2.162-24.164-6.148-48.271-9.32-72.318c-1.957-14.837-3.922-29.673-5.831-44.518c-0.554-4.303-1.104-8.604-1.628-12.912
	c-0.503,0.311-1.159,0.514-1.606,0.395c-2.71-0.721-5.448-0.896-8.224-0.934c0.018,0.418,0.033,0.836,0.049,1.257
	c0.005,0.123-0.028,0.237-0.079,0.345c0.112,0.102,0.123,0.247-0.043,0.452c-6.582,8.147-14.305,15.175-22.42,21.767
	c-7.324,5.948-14.528,12.207-22.106,17.824c-9.1,6.748-22.347,14.396-33.134,8.303c0.03,0.436,0.055,0.869,0.086,1.305
	c1.21,16.91,1.946,33.902,3.616,50.773c0.574,5.813-0.187,13.063-4.918,17.09c-5.535,4.711-12.437,0.432-16.827-3.557
	c-0.012-0.012-0.016-0.023-0.023-0.035c-0.418-0.012-0.729-0.141-0.729-0.418c0.021-27.814,0.904-55.627,0.197-83.439
	c-0.352-13.854-1.634-27.027-4.649-40.6c-3.679-16.556-9.778-31.493-18.584-45.829c-0.583,0.073-1.138-0.042-1.298-0.466
	c-1.313-3.462-2.883-7.677-5.626-10.47c-0.251,3.696-0.431,7.398-0.466,11.094c0.096,0.031,0.178,0.073,0.231,0.135
	c3.441,3.933,3.239,8.045,2.167,12.88c1.297,8.132,4.819,16.137,6.955,24.066c4.185,15.543,7.083,31.447,8.239,47.514
	c0.717,9.955,0.926,19.959,0.453,29.933c-0.285,6.032-0.346,12.396-1.464,18.343c-0.352,1.869-1.42,3.447-2.693,4.832
	c-4.155,4.51-9.592,7.859-14.997,10.66c-1.562,0.811-6.17,3.727-8.03,2.189c-0.214-0.176-0.164-0.389,0.029-0.59
	c-1.524-1-2.507-5.445-3-6.844c-1.66-4.691-3.281-9.66-3.636-14.654c-0.406-5.752,1.354-11.449,2.203-17.107
	c0.998-6.648,2.014-13.452,1.637-20.193c-1.73,0.577-3.346,1.444-4.743,2.881c-0.056,0.059-0.145,0.112-0.253,0.166
	c0.219,1.465,0.364,2.913,0.407,4.324c0.005,0.174-0.051,0.329-0.145,0.471c-0.017,0.047-0.021,0.09-0.05,0.139
	c-1.309,2.311-7.481,3.574-9.682,4.47c-0.878,0.356-1.759,0.71-2.637,1.065c-1.418,13.652-2.196,27.4-3.991,41.01
	c-1.566,11.875-4.51,23.402-7.995,34.85c-0.372,1.221-3.335,1.561-2.932,0.234c0.048-0.156,0.093-0.314,0.141-0.473
	c-14.299,7.02-35.796,6.293-49.419-0.939c-3.648-1.938-7.286-4.479-9.542-8.025c-1.066-1.676-2.439-4.041-3.124-6.395
	c-3.502,4.066-7.699,7.574-13.305,7.832c-5.514,0.256-10.014-4.268-14.507-6.762c-2.708-1.504-7.842-4.031-10.919-1.967
	c-1.439,0.965-2.762,2.084-4.183,3.074c-3.758,2.619-7.618,4.287-12.04,5.465c-7.038,1.871-14.306,0.834-20.492-3.021
	c-15.444-9.621-25.479-23.707-36.517-37.682c-4.66-5.9-9.908-12.305-16.841-15.625c-9.764-4.677-19.379-1.4-28.178,3.936
	c-0.266,0.162-2.896,0.732-2.537,0.221c19.456-27.673,39.138-58.959,67.686-78.261c8.391-5.673,17.496-9.427,26.903-12.366
	c16.332-5.104,33.578-7.738,49.623-13.602c5.354-1.957,10.568-4.286,15.574-7.175c0.512-0.296,1.027-0.583,1.535-0.891
	c0.516-0.313,3.436-0.665,2.216,0.075c-23.911,14.5-53.307,14.81-78.493,25.657c-2.707,1.166-5.363,2.459-7.96,3.898
	c-1.971,1.094-3.91,2.266-5.806,3.547c-28.242,19.096-47.756,49.088-67.028,76.617c2.484-1.285,5.057-2.398,7.672-3.255l0.006-0.003
	l0.006-0.001c8.537-2.791,17.539-2.817,25.508,3.048c10.677,7.859,17.461,19.736,25.808,29.947c1.445,1.77,2.932,3.492,4.5,5.133
	c2.208,2.307,4.608,4.729,7.157,7.057c4.252,3.883,8.921,7.496,13.831,9.863c0.443,0.213,0.887,0.422,1.333,0.613
	c0.557,0.24,1.122,0.449,1.69,0.646c0.955,0.328,1.924,0.594,2.903,0.797c2.36,0.492,4.771,0.621,7.153,0.385
	c3.609-0.357,7.147-1.547,10.322-3.594c2.767-1.785,5.221-4.129,8.227-5.518c5.534-2.555,11.874,0.48,16.535,3.502
	c2.525,1.637,5.163,3.756,8.098,4.6c6.159,1.77,10.777-4.293,14.095-8.684c-0.019-0.732,0.072-1.438,0.311-2.088
	c0.749-2.041,2.591-3.883,3.668-5.764c1.528-2.666,3.085-5.322,4.511-8.047c2.946-5.629,6.118-11.826,6.379-18.313
	c-6.385,1.385-13.985,2.049-18.291-2.787c-4.606-5.174-5.344-13.025-5.568-19.646c-0.31-9.18,0.554-18.363,1.749-27.455
	c1.174-8.93,2.236-17.909,3.563-26.813c0.248-1.664,0.495-3.337,0.746-5.016c-4.506-0.411-9.345,1.283-13.478,2.855
	c-6.235,2.375-12.262,5.308-18.009,8.694c-14.145,8.338-27.117,18.771-37.387,31.646c-0.628,0.787-3.569,0.938-2.717-0.129
	c11.285-14.146,25.824-25.84,41.723-34.44c8.497-4.597,19.927-11.031,30.143-10.438c1.769-11.742,3.75-23.74,7.1-35.009
	c0.22-0.739,0.499-1.41,0.807-2.048c2.855-5.911,9.287-7.745,15.468-9.683c11.83-3.708,25.082-6.368,35.16-13.967
	c0.191-0.144,0.418-0.232,0.654-0.281c2.882-3.845,7.253-7.012,11.327-9.135c-0.278-9.572-2.844-18.209-8.454-26.048
	c-6.037-0.41-12.207-5.441-13.333-11.721c-0.048-0.27-0.093-0.545-0.134-0.824c-0.29,0.028-0.557,0.003-0.745-0.103
	c-5.842-3.297-8.965-12.51-5.297-18.386c-0.155-0.052-0.291-0.131-0.394-0.244c-7.005-7.685-3.175-21.456,4.637-29.268
	c0.834-0.909,1.706-1.652,2.578-2.253c2.349-1.761,4.943-2.974,7.642-3.401c1.288-4.439,3.404-8.689,7.341-11.324
	c0.078-0.052,0.158-0.098,0.236-0.148c0.888-0.901,1.854-1.672,2.9-2.216c3.736-1.943,7.64-1.739,10.185-1.263
	c0.798-0.018,1.598-0.017,2.396,0.004c0.654,0.017,0.847,0.197,0.785,0.426c0.216-0.178,0.554-0.435,1.052-0.774
	c1.5-1.146,3.083-2.076,4.733-2.79c0.904-0.484,1.92-1.013,3.101-1.603c4.103-2.051,9.257-1.208,14.08,0.301
	c0.907,0.18,1.813,0.383,2.713,0.624c6.386,1.711,12.391,4.702,19.14,2.849c5.051-1.387,9.911-3.801,15.083-4.72
	c5.197-0.924,10.741-0.111,10.514,6.406c-0.337,9.688-6.229,19.269-13.116,25.784c-0.031,0.031-0.073,0.059-0.115,0.087
	c4.002,8.082,2.772,21.059-3.514,28.212c-0.921,1.272-1.9,2.048-2.767,2.51c-0.044,0.032-0.083,0.071-0.128,0.102
	c-0.121,0.084-0.325,0.157-0.565,0.214c-0.145,0.056-0.282,0.106-0.415,0.147c0.156,17.921-4.694,36.648-20.419,40.743
	c-0.081,3.583-0.29,7.161-0.453,10.74c4.57-0.096,6.801,2.573,7.844,6.226c8.432,12.392,26.712,10.66,38.201,18.79
	c15.382,10.882,14.198,33.854,21.403,49.76c5.927-3.025,12.65-4.891,18.628-7.217c10.103-3.935,19.876-8.689,29.709-13.236
	c0.76-0.35,1.613-0.146,1.896,0.248c0.341,0.012,0.652,0.102,0.86,0.308c0.104,0.103,0.19,0.207,0.29,0.31
	c0.813-3.113,2.339-6.273,4.687-8.27c2.345-1.993,6.158-3.521,9.146-1.99c0.164,0.084,0.328,0.184,0.491,0.288
	c-2.244-22.544-4.812-45.064-7.49-67.57c-0.296-0.058-0.474-0.196-0.394-0.435c0.082-0.246,0.167-0.496,0.254-0.749
	c-1.945-16.322-3.939-32.637-5.916-48.947c-0.371-0.083-0.504-0.283-0.077-0.641c-0.424-3.495-0.849-6.99-1.269-10.485
	c-0.088-0.733,2.834-1.309,2.897-0.776c0.366,3.045,0.729,6.091,1.091,9.136c4.053-3.046,9.513-6.403,14.11-4.392
	c5.222,2.284,7.779,8.623,12.003,12.228c19.675,16.798,43.177-4.192,64.072-6.784C537.767,176.4,537.929,177.216,536.74,177.761z
	 M320.924,275.598c-0.395-0.066-0.68-0.267-0.678-0.651c0.001-0.163,0.009-0.327,0.011-0.49c-0.111,0.04-0.21,0.086-0.348,0.113
	c-2.161,0.432-4.352,0.109-6.507-0.336c-0.162,0.128-0.357,0.238-0.572,0.322c0.092,4.136,0.675,8.167,2.643,11.845
	c2.12,0,4.239,0,6.358,0c0.506,0,0.839,0.138,1.03,0.34C323.698,282.615,323.741,279.027,320.924,275.598z M311.593,330.776
	c0.067-14.284,0.625-28.563,0.647-42.847c0-0.102,0.034-0.197,0.086-0.289c-0.006-0.195,0.058-0.401,0.183-0.587
	c-2.045-3.895-2.563-8.179-2.597-12.563c-0.002-0.296,0.289-0.545,0.687-0.729c-0.034-0.05-0.069-0.1-0.104-0.15
	c-0.002,0-0.002,0-0.004,0c-0.451-0.093-0.627-0.423-0.531-0.758c-2.918-3.839-6.93-6.721-9.703-10.687
	c-5.073,2.892-6.84,8.583-10.195,13.192c-0.556,0.764-1.931,1.198-2.702,0.509c-5.029-4.492-7.059-12.843-13.876-14.932
	c-0.39,0.102-0.808,0.139-1.138,0.089c-0.116,0.075-0.234,0.146-0.35,0.22c0.708-0.237,1.54-0.296,1.817,0.135
	c15.676,24.415,20.946,53.307,20.675,81.953c0.088,0.021,0.17,0.053,0.247,0.092c0.293-0.086,0.587-0.101,0.855-0.057
	C299.148,338.787,306.292,331.485,311.593,330.776z M287.633,248.468c5.575,2.714,9.673,7.69,14.488,11.485
	c0.056,0.044,0.111,0.089,0.168,0.133c0.061,0.047,0.121,0.097,0.182,0.144c0.265,0.204,0.38,0.425,0.395,0.644
	c2.874,4.159,7.112,7.124,10.069,11.208c2.077,0.494,4.516,1.287,6.547,0.881c0.319-0.064,0.579-0.047,0.809-0.001
	c0.08-4.064,0.303-8.134,0.615-12.191c0.004-0.041,0.008-0.081,0.011-0.122c0.082-1.062,0.171-2.123,0.262-3.182
	c-0.163-0.062-0.264-0.164-0.263-0.312c0.045-5.527,0.514-11.038,0.629-16.562c-1.524,0.208-3.135,0.298-4.844,0.245
	c-1.959-0.061-0.429-2.187,0.993-2.143c1.568,0.049,3.038-0.049,4.426-0.266c0.568-0.347,1.449-0.51,1.961-0.399
	c22.305-5.78,19.325-47.101,14.168-63.875c-0.037-0.121-0.039-0.234-0.027-0.345c-0.16-0.172-0.325-0.343-0.493-0.512
	c-0.718,0.295-1.641,0.383-1.884,0.007c-0.771-1.193-1.211-2.374-1.248-3.665c-9.386,5.943-27.006,5.036-33.297-4.006
	c-0.563-0.475-1.032-0.889-1.389-1.211c-2.984,4.438-5.066,9.542-9.492,12.456l-0.112,0.451c0.713-0.114,1.39-0.078,1.316,0.167
	c-2.988,9.997-2.975,21.958-11.621,29.133c-0.245,0.203-2.741,1.132-2.753,0.524c-0.045-2.281-0.247-4.442-0.965-6.446
	c-0.106-0.242-0.216-0.477-0.336-0.692c-0.414-0.744-0.947-1.368-1.58-1.884c-0.573,0.207-1.198,0.322-1.53,0.147
	c-2.325-1.221-4.641-1.601-5.933,1.083c-0.512,1.064-0.923,2.174-1.125,3.343c-0.461,2.659-0.5,5.526,0.208,8.153
	c1.193,4.423,6.405,10.277,11.303,10.519c0.559-0.184,1.135-0.277,1.419-0.092c1.506-0.289,2.939-1.196,4.166-2.948
	c0.425-0.607,3.258-1.021,2.644-0.143c-1.629,2.328-3.727,3.661-5.987,4.203C284.988,230.248,287.44,238.891,287.633,248.468z
	 M275.21,259.188c6.734,1.958,9.005,9.137,13.428,14.067c3.035-4.705,5.193-9.618,10.215-12.42
	c-4.211-3.557-8.001-7.988-12.982-10.376c-0.184-0.088-0.315-0.19-0.417-0.298C281.583,252.335,277.616,255.441,275.21,259.188z
	 M291.117,380.016c-6.828,2.763-13.663,5.506-20.503,8.235c-11.081,4.424-22.197,9.768-33.754,12.834
	c-0.704,0.188-1.461,0.387-2.244,0.584c-0.351,9.646-6.273,19.135-11.064,27.154c-0.925,1.547-3.407,4.02-3.678,5.863
	c-0.033,0.229-0.043,0.463-0.045,0.701c0.22,0.018,0.343,0.059,0.296,0.121c-0.091,0.119-0.184,0.238-0.275,0.359
	c0.121,1.828,0.96,3.865,1.625,5.379c1.703,3.867,4.578,7.078,8.184,9.293c7.792,4.785,17.258,6.531,26.309,6.57
	c7.941,0.033,16.808-0.74,23.818-4.818c0.075-0.043,0.16-0.078,0.25-0.109c3.231-10.895,5.951-21.898,7.324-33.203
	C288.932,406.031,289.792,392.996,291.117,380.016z M302.616,373.104c0.443-0.19,0.854-0.485,1.09-0.62
	c-0.375-8.615-4.409-18.582-9.75-25.613c-0.146-0.091-0.242-0.216-0.278-0.369c-0.125-0.16-0.25-0.316-0.376-0.475
	c-8.667,3.27-17.323,5.581-26.343,7.96c-4.68,1.233-9.394,2.468-14.147,3.365c-0.594,0.376-1.839,0.563-2.338,0.414
	c-5.703,0.93-11.463,1.294-17.294,0.499c-1.953-0.268-0.32-2.182,1.033-1.996c5.597,0.763,11.093,0.387,16.533-0.521
	c4.888-18.17,1.864-37.104,4.502-55.592c0.126-0.89,2.948-1.131,2.897-0.777c-2.649,18.571,0.372,37.594-4.536,55.844
	c5.433-1.084,10.817-2.602,16.193-3.967c7.486-1.898,14.618-3.941,21.784-6.625c0.34-28.816-4.9-57.912-20.671-82.475
	c-0.045-0.07-0.043-0.148-0.004-0.229c-4.099,2.459-8.563,4.295-13.07,5.883c-6.087,2.145-12.291,3.899-18.446,5.829
	c-4.226,1.325-10.462,2.393-13.269,6.186c-2.977,4.022-3.376,9.97-4.353,14.724c-1.577,7.672-3.138,15.354-4.425,23.082
	c-1.696,10.188-2.843,20.463-4.264,30.691c-1.241,8.941-2.349,17.979-2.35,27.021c0,7.043-0.113,17.539,5.361,22.953
	c4.385,4.338,11.997,2.877,17.366,1.566c5.785-1.412,11.262-3.498,16.787-5.691c11.813-4.688,23.622-9.391,35.411-14.14
	c4.423-1.78,8.847-3.563,13.254-5.381C300.148,374.139,301.387,373.63,302.616,373.104z M303.729,372.88
	c-0.013,0.021-0.017,0.033-0.029,0.058c0.015,0.015,0.03,0.028,0.046,0.044c-0.004-0.031-0.015-0.061-0.016-0.096
	C303.73,372.884,303.729,372.882,303.729,372.88z M313.459,363.675c1.037-0.178,2.254-0.271,3.522-0.383
	c3.543-0.313,7.487-0.781,9.156-3.592c0.239-0.4,0.446-0.837,0.583-1.342c1.165-4.298-1.966-28.107-9.916-22.552
	c-0.067,0.047-0.179,0.095-0.315,0.14c-0.355,0.186-0.794,0.278-1.194,0.244c-0.698,0.074-1.266,0.01-0.834-0.363
	c-0.09-0.096-0.165-0.203-0.213-0.34c-2.64-7.515-14.778,6.354-17.417,10.41c4.342,5.801,7.728,13.393,9.132,20.709
	C308.17,365.059,310.742,364.138,313.459,363.675z M316.643,423.496c0.021,0.014,0.046,0.023,0.065,0.041
	c-0.025-0.021-0.031-0.035-0.054-0.057C316.651,423.486,316.647,423.492,316.643,423.496z M336.981,407.001
	c0.702-2.883,0.563-6.236,0.77-8.979c1.374-18.163,0.971-36.462-1.622-54.503c-1.798-12.515-4.504-24.865-8.05-37
	c-1.745-5.974-4.293-12.06-5.354-18.228c-0.069-0.044-0.118-0.098-0.134-0.168c-0.258,0.205-0.609,0.344-1.032,0.344
	c-2.14,0-4.279,0-6.419,0c-0.045,14.249-0.598,28.493-0.646,42.741c1.029,0.543,1.894,1.57,2.521,3.188
	c8.647-3.437,12.615,9.976,13.091,17.256c0.298,4.562-0.616,9.149-5.306,10.946c-3.354,1.285-7.126,1.324-10.648,1.953
	c0.314,5.75-0.32,11.535-1.132,17.221c-0.834,5.848-2.975,12.232-2.812,18.137c0.138,4.93,1.438,9.84,3.021,14.486
	c0.478,1.4,1.88,7.646,3.272,8.287c0.197,0.092,0.297,0.201,0.332,0.318c0.361-0.107,0.954-0.207,1.532-0.473
	c1.196-0.551,2.38-1.127,3.53-1.766c2.642-1.463,5.271-3.02,7.679-4.848c2.182-1.652,4.674-3.512,6.157-5.887
	c0.089-0.143,0.188-0.277,0.269-0.424C336.443,408.812,336.755,407.931,336.981,407.001z M329.818,267.154
	c0.077-2.925,0.009-6.158-0.638-8.882c-0.048-0.07-0.099-0.136-0.146-0.208c-0.164-0.249-0.18-0.49-0.1-0.71
	c-0.819-2.71-2.325-4.75-5.013-5.177c-0.047,1.178-0.076,2.357-0.093,3.537c0.209,0.105,0.339,0.278,0.314,0.541
	c-0.106,1.219-0.205,2.442-0.302,3.665C326.525,261.537,328.386,264.244,329.818,267.154z M447.402,330.716
	c-0.1-0.131-0.164-0.291-0.171-0.49c-0.31-8.691-0.835-16.835-7.325-23.293c-8.807,4.081-17.571,8.273-26.571,11.917
	c-9.204,3.726-20.758,5.958-27.961,13.215c-0.745,0.751-3.585,0.644-2.355-0.597c1.739-1.752,3.706-3.219,5.814-4.492
	c-7.985-16.864-6.127-43.473-25.709-52.157c-9.619-4.266-22.426-5.4-30.511-12.643c0.19,3.346-0.05,6.811-0.118,9.47
	c8.975,14.304,15.521,29.307,19.203,45.886c3.048,13.712,4.595,26.964,4.95,40.966c0.716,28.186-0.147,56.363-0.17,84.547
	c0,0.023-0.009,0.045-0.011,0.066c0.251-0.008,0.464,0.033,0.589,0.146c3.817,3.467,10.458,8.551,13.913,1.777
	c1.624-3.186,2.452-6.828,2.401-10.406c-0.065-4.744-0.714-9.537-1.05-14.268c-1.039-14.65-1.987-29.311-3.073-43.957
	c-0.007-0.068-0.012-0.137-0.017-0.205c-0.161-2.167-0.315-4.336-0.483-6.503c-1.237-15.93-0.851-31.911-2.049-47.838
	c-1.073-14.295-2.66-34.013-15.698-42.918c-0.492-0.336,2.017-1.499,2.723-1.016c14.747,10.072,15.531,33.599,16.253,49.56
	c0.726,16.049,1.164,32.016,2.192,48.033c13.059,11.104,29.57-4.373,39.705-12.59c12.432-10.079,25.354-19.631,35.479-32.166
	C447.366,330.748,447.387,330.732,447.402,330.716z M459.762,327.813c-0.171-1.345-1.001-3.978-0.503-5.288
	c0.034-0.089,0.104-0.171,0.193-0.249c-0.034-0.104-0.059-0.235-0.06-0.418c-0.004-0.683-0.037-1.364-0.079-2.045
	c-0.149-2.46-0.367-4.917-0.593-7.371c-0.239-2.597-0.501-5.192-0.75-7.789c-1.679,0.914-3.934,0.996-5.708,0.735
	c-1.488-0.221,1.202-1.34,1.863-1.242c1.348,0.197,2.646,0.257,3.018-1.313c0.184-0.771,0.165-1.588-0.078-2.35
	c-0.553-1.725-1.855-3.559-3.733-3.986c-4.961-1.131-7.748,8.211-8.205,11.774c-0.013,0.089-0.065,0.174-0.149,0.256
	c3.841,5.356,4.707,11.668,5.049,18.3C453.318,326.839,456.559,327.001,459.762,327.813z M464.013,322.437
	c-1.037-1.127-1.233-2.92-0.311-4.874c0.628-1.33,1.563-2.589,2.7-3.586c-1.507,0.479-3.022,0.673-4.395,0.371
	c0.371,2.577,0.74,6.108-0.174,7.741c0.093-0.028,0.187-0.058,0.278-0.086c0.044-0.117,0.033,0.383,0.045,0.517
	c0.034,0.387,0.078,0.772,0.113,1.16C462.788,323.179,463.374,322.759,464.013,322.437z M469.575,323.218
	c-0.563,0.193-1.139,0.332-1.718,0.394c-0.082,0.009-0.158,0.007-0.239,0.013c-0.114,0.01-0.229,0.018-0.343,0.02
	c-0.456,0.009-0.881-0.032-1.271-0.117c-0.801,0.107-1.482,0.619-1.951,1.413c-0.546,0.924-0.806,2.209,0.168,2.966
	C466.922,330.003,471.168,326.085,469.575,323.218z M472.176,313.224c-0.477,0.24-1.02,0.404-1.362,0.35
	c-2.156-0.347-4.344,3.288-4.714,5.028c-0.29,1.366,0.16,2.595,1.043,3.089c0.461,0.004,0.921,0.063,1.375,0.172
	c0.321-0.07,0.662-0.204,1.021-0.429c1.748-1.095,3.45-2.964,3.822-5.063C473.631,314.862,473.105,313.869,472.176,313.224z
	 M470.478,306.996c-0.064,0.01-0.118,0.01-0.177,0.016c-0.375,0.285-0.952,0.416-1.323,0.484c-2.301,0.434-4.646,3.129-5.476,5.264
	c2.272,0.724,5.552-1.467,7.184-2.715c0.757-0.58,2.044-1.455,2.23-2.481C473.11,306.492,470.962,306.932,470.478,306.996z
	 M464.894,307.979c0.956-0.653,1.988-1.183,3.038-1.543c1.489-1.031,2.839-2.354,3.68-3.839c0.338-0.598,0.88-1.604,0.358-2.26
	c-0.509-0.639-1.494-0.56-2.329-0.385c-0.473,0.194-0.988,0.326-1.502,0.346c-0.262,0.043-0.529,0.063-0.706,0.008
	c-1.052,0.08-2.273,0.931-3.048,1.484c-1.076,0.771-2.264,1.69-2.852,2.914C460.516,306.826,462.942,308.333,464.894,307.979z
	 M461.365,309.021c0.071,0.755,0.148,1.509,0.219,2.264c0.534-0.809,1.191-1.559,1.936-2.228
	C462.819,309.13,462.079,309.13,461.365,309.021z M482.102,223.575c1.279,0.428,2.611,0.738,4.035,0.847
	c15.025,1.142,23.13-13.244,28.849-24.662c4.311-8.602,9.113-16.236,17.2-21.145c-17.188,3.665-33.471,16.679-51.625,11.719
	c-7.1-1.94-12.163-6.567-16.599-12.23c-1.463-1.868-3.122-4.447-5.385-5.437c-4.229-1.85-8.847,2.117-12.114,4.761
	c0.27,2.26,0.541,4.52,0.81,6.78c1.487,12.52,2.964,25.041,4.427,37.563c2.338-4.78,5.881-8.863,11.802-7.637
	c4.98,1.032,8.984,4.326,13.322,6.921C478.505,222.062,480.243,222.953,482.102,223.575z M181.054,435.833
	c8.771-12.154,21.235-21.305,31.816-31.779c1.233-1.221-1.613-1.303-2.35-0.574c-10.728,10.619-23.29,19.898-32.184,32.223
	C177.52,436.835,180.458,436.658,181.054,435.833z" fill="#131313"></path>
</svg>