<?xml version="1.0" standalone="no"?>
<svg version="1.1" id="Layer_1" xmlns="http://www.w3.org/2000/svg" xmlns:xlink="http://www.w3.org/1999/xlink" x="0px" y="0px" width="595.275px" height="595.28px" viewBox="0 0 595.275 595.28" enable-background="new 0 0 595.275 595.28" xml:space="preserve">
<path id="color_x5F_2" fill="#e25959" d="M394.015,151.795c1.484-1.332,3.118-2.376,4.872-3.185
	C397.194,149.614,395.316,150.886,394.015,151.795z M431.92,113.264c-11.09-6.153-21.577-11.109-34.26-8.848
	c-0.001,0.009-0.004,0.014-0.005,0.023c-0.108,0.59-0.208,1.181-0.298,1.774c-0.32,2.114-0.601,4.234-0.869,6.356
	c-0.77,6.073-1.479,12.153-2.192,18.233c-0.817,6.967-1.612,13.939-2.461,20.904c8.302-7.127,20.96-6.587,31.236-6.489
	c9.033,0.086,17.9-0.642,25.735-5.671c6.85-4.396,11.925-10.458,15.216-17.884c0.033-0.075,0.098-0.144,0.18-0.207
	C452.345,122.786,442.155,118.943,431.92,113.264z M392.388,152.952c0,0,0.042-0.031,0.105-0.077
	c-0.063,0.018-0.128,0.036-0.195,0.053L392.388,152.952z M405.914,146.543c5.17-0.458,12.724-0.591,12.724-0.591
	s2.36,0.1,5.713,0.031C418.176,145.903,411.736,145.572,405.914,146.543z M342.754,198.1c-0.725-0.017-1.449-0.047-2.172-0.078
	c2.528,0.263,4.251,0.43,4.556,0.43c0.473,0,1.392-0.199,2.43-0.471C345.916,198.158,344.235,198.134,342.754,198.1z
	 M342.309,172.882c-4.983-0.044-10.749-0.115-16.309-0.232C331.408,172.975,336.879,173.1,342.309,172.882z M260.861,136.086
	c-0.426,0.081-0.829,0.075-1.073-0.084c-4.773-3.111-11.123-4.768-16.846-5.483c-0.931,1.372-2.059,2.628-3.317,3.786
	c11.185,4.358,20.372,9.469,25.593,20.98c4.628,10.205,3.44,23.447,1.425,34.598c0.466,17.144,0.941,34.286,0.958,51.438
	c0,0.017-0.006,0.033-0.007,0.05c1.991-0.72,3.794-1.769,5.283-3.284c-0.196-0.098-0.251-0.265-0.049-0.519
	c3.545-4.468,3.434-13.43,3.979-18.775c0.984-9.644,1.535-19.334,1.858-29.021c0.101-3.024,0.213-6.064,0.287-9.107
	c-0.053-0.068-0.05-0.148,0.004-0.236c0.112-4.765,0.124-9.537-0.172-14.271C278.045,154.351,267.91,145.041,260.861,136.086z
	 M231.708,223.054c-3.176-0.18-6.364-0.478-9.523-0.658c0.353,0.087,0.669,0.211,0.918,0.39c0.546-0.086,1.066-0.022,1.271,0.315
	c2.558,4.223,6.758,8.978,4.47,14.125c-0.486,1.095-1.163,2.177-1.964,3.212c0.258,0.137,0.525,0.259,0.791,0.382l3.375,1.206
	c0.375,0.099,0.751,0.195,1.135,0.278c0.042-6.339,0.37-12.66-0.492-18.964C231.675,223.24,231.687,223.146,231.708,223.054z
	 M350.061,184.725c-12.275,0.155-24.892,3.526-37.121,1.158c-6-1.162-12.308-2.617-17.828-5.317
	c-4.476-2.189-8.438-5.542-13.217-7.042c0.006,2.064-0.015,4.129-0.058,6.194c10.021,6.183,18.874,13.393,31.075,14.362
	c6.624,0.526,13.229,1.182,19.845,1.795c3.291,0.305,6.594,0.634,9.899,0.71c2.175,0.05,6.636,0.68,8.343-1.032
	c0.05-0.05,0.121-0.097,0.201-0.142c-1.386-2.722-0.475-7.213,0.7-11.642C351.574,184.203,350.642,184.717,350.061,184.725z
	 M234.657,223.179c0.795,6.361,0.475,12.735,0.441,19.132c-0.001,0.168-0.069,0.321-0.176,0.458
	c0.994,0.126,2.002,0.215,3.017,0.273c2.2,0.033,5.072,0.055,8.227,0.029c0.382-0.011,0.76-0.021,1.135-0.032
	c1.62-7.053,0.577-14.277,0.398-21.442C243.476,222.982,239.092,223.287,234.657,223.179z M264.02,201.385
	c-2.282,7.682-6.071,15.525-13.031,18.903c-0.128,0.063-0.259,0.109-0.388,0.169c0.107,7.513,1.33,15.116-0.427,22.519
	c0.615-0.008,1.243-0.011,1.884-0.011c4.537-0.133,9.125-0.401,12.772-0.898c-0.096-0.127-0.155-0.286-0.155-0.483
	C264.662,228.179,264.369,214.782,264.02,201.385z M310.468,173.515c-6.626-0.809-13.052-2.512-18.596-6.37
	c-4.323-3.008-8.264-6.541-12.208-10.053c1.123,2.64,1.861,5.393,2.017,8.29c0.114,2.116,0.173,4.237,0.2,6.36
	c0.254-0.058,0.488-0.077,0.656-0.037c4.596,1.108,8.145,3.876,12.216,6.121c5.585,3.08,11.946,5.007,18.184,6.215
	c12.769,2.472,25.456-0.7,38.279-0.862c0.483-0.006,0.718,0.085,0.783,0.226c0.973-3.628,2.071-7.167,2.177-9.612
	C339.782,176.086,324.456,175.223,310.468,173.515z M190.891,213.17c-4.42-5.717-9.597-13.937-6.133-21.378
	c4.494-9.653,15.375-15.433,22.687-22.694c7.869-7.815,16.234-15.454,25.756-21.218c0.26-0.158,0.599-0.231,0.94-0.24
	c-1.744-2.18-3.952-4.033-6.669-5.454c-0.098,0.051-0.199,0.105-0.295,0.156c-11.94,6.27-21.513,15.246-31.483,24.294
	c-2.248,2.04-5.278,4.503-8.397,7.266l-9.366,9.625c-4.465,5.75-6.968,12.055-3.756,18.286c4.239,8.226,10.4,15.563,16.469,22.491
	c4.045,4.617,8.14,9.559,12.897,13.479c0.633,0.521-0.874,1.326-1.947,1.338c1.892,1.876,7.253-1.569,10.706-4.301
	c-0.195-0.046-0.368-0.126-0.494-0.256C204.879,227.415,197.003,221.076,190.891,213.17z M230.739,191.091
	c-0.321-0.014-0.547-0.091-0.55-0.251c-0.11-6.482-1.321-12.995-2.579-19.37c-1.157,1.137-2.388,2.215-3.664,3.253
	c-0.517,8.235-1.89,16.474-1.944,24.731C225.267,197.443,228.224,194.546,230.739,191.091z M194.572,232.793
	c2.028,2.947,3.554,5.178,4.208,6.134c0.391-0.247,0.993-0.455,1.522-0.498c-0.383-0.336-0.77-0.669-1.136-1.023
	C197.607,235.901,196.077,234.361,194.572,232.793z M235.135,148.981c-0.022,0.014-0.037,0.028-0.06,0.042
	c-9.813,5.939-18.076,13.861-26.244,21.822c-6.648,6.479-17.987,12.106-21.33,21.173c-3.133,8.499,3.261,16.995,8.639,23.015
	c5.705,6.386,12.179,11.984,18.141,18.114c0.292-0.265,0.536-0.498,0.718-0.685c0.746-0.766,2.94-3.021,4.336-5.057
	c-0.622,0.188-1.323,0.183-1.657-0.187c-5.256-5.807-8.562-12.795-13.375-18.894c-2.212-2.803-9.533-9.86-8.26-14.027
	c1.284-4.202,7.537-7.399,10.861-9.722c6.695-4.677,14.446-9.354,19.921-15.399c0.173-0.191,0.456-0.326,0.771-0.41
	c0.776-0.478,2.389-0.722,2.491-0.205c1.24,6.259,2.542,12.673,2.904,19.077C240.002,175.72,242.151,159.342,235.135,148.981z
	 M220.138,225.766v-1.814l-1.239,0.354C219.3,224.799,219.711,225.286,220.138,225.766z"></path>
<path id="color_x5F_1" d="M246.671,114.75c0.298,1.09-2.598,1.871-2.897,0.776c-0.354-1.291-1.302-1.966-2.556-2.294
	c-0.601-0.158-0.76-0.677-0.299-1.115c0.499-0.475,1.377-0.725,2.049-0.549C244.691,112.019,246.178,112.946,246.671,114.75z
	 M267.452,109.755c2.194,0.125,6.246,0.049,7.665-2.058c0.697-1.037-2.196-0.699-2.678,0.017c-0.676,1.005-3.64,0.558-4.594,0.423
	c-2.908-0.413-5.308-2.183-6.7-4.731c-0.499-0.914-3.282,0.072-2.897,0.776C260.149,107.665,263.524,109.531,267.452,109.755z
	 M262.284,96.233c0.342,0.648,1.459,0.513,1.979,0.256c0.619-0.306,1.01-0.912,0.666-1.564c-0.441-0.835-1.124-1.511-1.565-2.347
	c-0.342-0.648-1.459-0.513-1.979-0.256c-0.619,0.306-1.01,0.912-0.666,1.564C261.161,94.721,261.843,95.397,262.284,96.233z
	 M536.824,538.285c-20.911,5.947-39.4-9.351-51.37-24.975c-3.401-4.439-6.536-8.914-8.777-14.062
	c-2.433-5.587-4.322-11.444-7.044-16.902c-2.797-5.606-6.404-11.023-12.118-14.011c-4.757-2.488-9.917-3.676-15.066-5.062
	c-5.521-1.486-10.547-3.248-15.404-6.339c-4.059-2.583-7.683-5.785-11.643-8.509c-10.86-7.471-24.517-10.289-36.926-14.332
	c-8.936-2.911-16.687-6.595-22.278-14.459c-0.038-0.054-0.075-0.111-0.112-0.165c-0.178-0.082-0.322-0.203-0.396-0.381
	c-0.037-0.088-0.048-0.208-0.075-0.31c-5.028-7.41-8.756-16.94-18.234-18.823c-0.003,0-0.007,0.001-0.01,0.001
	c-12.484-0.032-24.969-0.692-37.454-0.483c-11.102,0.186-24.361-0.294-34.072,5.981c-9.795,6.33-15.998,16.372-22.98,25.429
	c-3.459,4.487-7.225,8.677-10.967,12.927c-2.963,3.365-6.061,6.922-9.996,9.19c-10.733,6.188-22.803,3.673-34.588,3.839
	c-13.153,0.186-22.205,5.799-30.281,15.844c-5.861,7.289-10.997,15.461-18.121,21.632c-3.364,2.913-7.135,5.761-11.408,7.17
	c-6.879,2.269-14.438,1.974-21.138,4.813c-8.529,3.613-12.962,14.102-21.939,16.668c-3.421,0.978-7.946,0.147-11.354-0.355
	c-2.284-0.337-4.598-0.961-6.904-1.093c-4.508-0.256-5.425,2.821-6.08,6.502c-0.18,1.014-3.106,1.506-2.9,0.351
	c1.732-9.754,8.604-8.703,16.552-7.53c5.993,0.885,10.437,1.54,15.165-2.662c3.829-3.402,7.292-7.763,11.568-10.603
	c4.516-2.998,9.947-4.448,15.264-5.239c7.494-1.116,14.127-2.715,19.963-7.77c7.636-6.613,12.916-15.184,19.355-22.856
	c5.341-6.363,11.61-12.282,19.739-14.772c13.15-4.029,27.444,1.648,40.352-2.623c6.453-2.136,10.774-6.843,15.117-11.816
	c3.665-4.198,7.365-8.325,10.718-12.783c6.048-8.04,11.776-16.948,19.965-23.022c9.603-7.124,20.567-8.107,32.204-8.678
	c3.753-0.185,7.508-0.263,11.263-0.278c-2.773-0.27-5.524-0.575-8.355-0.597c-5.368-0.042-10.988,0.207-16.257-0.975
	c-14.079-3.157-5.572-18.831-4.331-28.089c-2.719-0.924-5.396-1.965-7.998-3.161c-0.326-0.15-0.75-0.472-0.642-0.903
	c6.176-24.341,9.024-50.14,18.982-73.313c-9.279,0.102-18.592,0.728-27.88,0.689c0.065,0.117,0.103,0.255,0.098,0.421
	c-0.88,28.114-6.522,55.307-19.232,80.566c-11.46,22.775-29.129,40.141-46.959,57.951c-0.201,0.201-0.514,0.333-0.855,0.405
	c-0.694,0.399-1.844,0.632-2.264,0.23c-2.419-2.318-4.644-4.878-6.731-7.581c-2.444,8.153,1.751,17.683,4.247,25.37
	c0.092,0.046,0.15,0.109,0.155,0.194c0.36,5.663-3.738,8.124-8.636,4.989c-7.454-4.771-13.623-12.521-18.745-19.63
	c-2.21-3.067-4.069-6.284-6.443-9.245c-3.71-4.628-8.504-9.566-10.637-15.211c-4.417-11.692,12.664-15.12,19.764-19.368
	c-2.561-4.52-5.071-9.069-7.495-13.662c-0.159-0.301,0.383-0.663,0.563-0.771c16.826-10.215,35.567-21.227,47.236-37.483
	c12.691-17.679,9.23-40.687,12.197-61.168c0.012-0.082,0.052-0.159,0.104-0.234c-1.862-2.836-3.07-6.236-3.357-10.324
	c-0.011-0.162,0.061-0.311,0.182-0.446c-2.955-2.488-4.992-5.797-3.003-8.889c1.026-1.596,2.414-2.374,3.908-2.569
	c-2.021-1.473-3.873-2.987-4.5-5.784c-4.742-0.39-8.865-2.766-9.909-8.454c-0.072-0.392,0.374-0.738,0.935-0.953
	c-0.05-0.074-0.105-0.141-0.152-0.221c-0.106-0.181,0.071-0.401,0.381-0.597c0.391-0.247,0.993-0.455,1.522-0.498
	c-0.383-0.336-0.77-0.669-1.136-1.023c-1.558-1.505-3.088-3.045-4.593-4.613c-4.586-4.78-8.926-9.832-13.015-15.009
	c-4.227-5.353-13.803-15.545-11.95-23.201c1.631-6.736,5.991-11.674,10.79-16.339c6.074-5.903,12.342-11.613,18.68-17.23
	c5.5-4.875,10.99-9.885,16.896-14.272c6.597-4.9,14.824-7.151,20.995-12.784c1.092-0.997,2.589-2.668,3.822-4.573
	c-0.017-0.008-0.037-0.013-0.053-0.021c-7.347-4.231-13.552-9.026-18.487-15.896c-2.811,3.903-5.31,8.013-7.336,12.366
	c-0.041,0.087-0.101,0.165-0.168,0.239c-0.003,0.004-0.004,0.007-0.007,0.011c-4,4.776-12.737,5.102-16.66-0.077
	c-5.115-6.752,0.005-15.695,4.68-21.157c1.943-2.271,4.362-3.811,6.927-5.15c-0.505-7.628-3.933-15.043-0.316-22.503
	c3.338-6.887,9.738-11.832,16.168-15.723c6.134-3.71,13.956-7.828,21.306-5.243c6.205,2.182,12.119,5.958,16.741,10.72
	c4.39-2.928,9.299-6.671,14.218-7.996c3.544-0.955,18.237-4.125,18.317,3.304c0.089,8.223-16.392,10.889-21.801,12.477
	c-2.424,0.711-4.843,1.446-7.233,2.25c2.128,4.769,3.515,15.432,9.216,17.047c1.616,0.458,3.967,0.475,5.164,1.794
	c1.116,1.229-1.502,3.541-2.553,4.471c0.314,0.032,0.553,0.146,0.615,0.371c0.958,3.458,3.664,6.651,4.032,10.198
	c0.281,2.704-2.882,5.034-4.731,6.387c-6.087,4.453-16.531,7.533-16.896,16.242c0.297,0.01,0.548,0.086,0.677,0.257
	c3.992,5.289,9.358,10.733,13.386,16.721c0.174,0.036,0.333,0.103,0.464,0.212c10.963,9.203,19.995,19.221,35.017,20.744
	c4.731,0.479,9.601,0.927,14.524,1.222c5.408,0.324,10.879,0.45,16.309,0.232c9.019-0.362,17.917-1.689,26.19-4.774
	c0.317-0.118,0.641-0.137,0.938-0.093c0.219-0.037,0.406-0.044,0.525-0.007c1.053,0.323,1.758,0.94,2.207,1.754
	c2.939-4.603,10.274-4.405,14.389,0.208c2.104-14.502,3.675-29.082,5.393-43.632c0.709-6.009,1.382-12.028,2.237-18.019
	c0.121-0.848,0.139-2.16,0.389-3.327c-1.148-0.053-1.242-1.186,0.262-1.556c0.139-0.034,0.276-0.059,0.415-0.091
	c0.198-0.267,0.424-0.501,0.724-0.646c0.526-0.253,1.477-0.401,1.932,0.079c0.007,0.008,0.015,0.016,0.022,0.023
	c10.768-1.865,20.645,0.557,30.434,5.819c11.729,6.305,22.605,12.815,36.494,11.168c1.453-0.172,1.341,0.677,0.631,1.223
	c0.745-0.118,1.471-0.086,1.383,0.11c-5.511,12.434-16.68,21.352-30.03,24.068c-3.81,0.775-8.082,0.85-12.491,0.793
	c-6.174-0.08-12.614-0.41-18.437,0.561c-2.478,0.413-4.844,1.06-7.028,2.067c-1.753,0.809-3.387,1.853-4.872,3.185
	c-0.271,0.243-0.542,0.488-0.802,0.751c-0.12,0.121-0.393,0.235-0.719,0.329c-0.063,0.018-0.128,0.036-0.195,0.053
	c-0.205,0.05-0.422,0.091-0.632,0.121c-0.71,5.776-1.456,11.548-2.298,17.305c0.804-0.387,1.709-0.643,2.668-0.742
	c0.393-0.041,0.68,0.016,0.881,0.129c0.199-0.083,0.426-0.134,0.683-0.129c3.526,0.068,8.905,1.404,9.921,5.451
	c0.949,3.781-3.076,6.022-6.421,6.674c0.024,0.02,0.05,0.039,0.07,0.06c0.017,0.015,0.037,0.025,0.052,0.042
	c1.797,1.893,3.274,4.311,2.442,6.988c-0.589,1.898-2.422,3.413-4.243,4.083c-0.184,0.067-0.371,0.122-0.558,0.181
	c0.34,3.441-0.326,7.363-4.229,8.313c-1.406,0.342-2.85,0.276-4.257-0.035c-0.186,0.072-0.394,0.117-0.625,0.118
	c-0.363,0.001-0.733,0.005-1.103,0.009c0.167,0.088-0.226,0.819-0.354,1.632c-0.25,1.568-0.473,3.141-0.69,4.713
	c-0.751,5.429-1.444,10.865-2.131,16.302c-2.185,17.299-4.268,34.611-6.337,51.924c-3.764,31.487-7.457,62.981-11.103,94.482
	c-1.322,11.42-2.64,22.84-3.935,34.264c-0.377,3.328-0.755,6.656-1.121,9.986c-0.07,0.64-0.303,2.431-0.374,3.179
	c4.71,6.277,10.404,10.687,18.257,13.421c5.961,2.076,11.92,4.214,17.984,5.975c5.488,1.594,11.223,3.033,16.322,5.676
	c9.517,4.933,16.917,13.742,27.287,17.046c9.035,2.879,19.948,3.812,26.935,10.958c8.224,8.411,10.323,20.265,15.597,30.406
	c9.694,18.641,32.445,41.978,55.465,35.431C538.182,536.399,538.545,537.795,536.824,538.285z M384.577,201.496
	c-0.004,0-0.008,0-0.013,0c-0.001,0.001-0.002,0.002-0.003,0.003C384.566,201.499,384.572,201.497,384.577,201.496z
	 M391.947,193.665c-2.866,0.238-5.793-0.437-8.215-1.993c-0.122,0.021-0.243,0.032-0.362,0.023
	c-1.206-0.092-2.894-0.265-3.911,0.303c0.04-0.022-0.147,0.119-0.174,0.239c-0.072,0.318-0.063,0.567,0.034,0.877
	c0.621,1.976,2.7,3.519,4.383,4.552c1.672,1.026,4.305,2.407,6.258,1.932C392.215,199.05,392.168,195.657,391.947,193.665z
	 M394.673,183.197c-2.611-1.517-6.111-1.568-8.936-0.622c-2.674,0.896-4.337,3.07-2.044,5.499c2.595,2.749,7.205,5.013,10.928,3.112
	C398.295,189.311,396.911,185.631,394.673,183.197z M387.925,180.193c0.215-0.032,0.43-0.059,0.646-0.083
	c-0.114-0.083-0.22-0.176-0.328-0.266C388.143,179.962,388.042,180.081,387.925,180.193z M389.044,174.413
	c0.197,0.674,0.318,1.355,0.335,2.023c1.063,2.464,3.943,3.765,6.567,3.346c2.015-0.321,6.149-1.609,4.463-4.5
	c-1.42-2.435-4.359-3.481-7.063-3.533c-0.378-0.007-0.661-0.094-0.862-0.227c-0.204,0.115-0.438,0.199-0.702,0.227
	C390.176,171.917,389.207,173.034,389.044,174.413z M448.806,139.547c6.85-4.396,11.925-10.458,15.216-17.884
	c0.033-0.075,0.098-0.144,0.18-0.207c-11.856,1.33-22.046-2.513-32.282-8.192c-11.09-6.153-21.577-11.109-34.26-8.848
	c-0.001,0.009-0.004,0.014-0.005,0.023c-0.108,0.59-0.208,1.181-0.298,1.774c-0.32,2.114-0.601,4.234-0.869,6.356
	c-0.77,6.073-1.479,12.153-2.192,18.233c-0.817,6.967-1.612,13.939-2.461,20.904c8.302-7.127,20.96-6.587,31.236-6.489
	C432.103,145.304,440.97,144.577,448.806,139.547z M372.743,174.216c-0.386,3.664-2.092,7.938-2.681,10.105
	c-1.046,3.852-2.396,7.556-4.842,10.138c4.052,4.674,10.55,5.056,16.567,5.009c-0.179-0.108-0.363-0.212-0.537-0.325
	c-1.929-1.253-5.166-3.617-4.947-6.291c0.192-2.337,2.706-3.032,5.057-3.185c-0.112-0.122-0.228-0.239-0.334-0.367
	c-2.501-2.997-1.07-5.977,1.879-7.574c-2.169-0.341-4.214-1.768-5.661-3.506c-0.473-0.568,2.259-1.563,2.728-0.999
	c1.31,1.574,5.592,5.496,6.406,1.395c0.079-0.399,0.106-0.809,0.107-1.221c-0.123-0.332-0.229-0.677-0.293-1.051
	c-0.081-0.47-0.107-0.919-0.086-1.349c-0.495-1.625-1.417-3.166-2.505-4.311c-1.508-1.587-3.584-3.104-5.866-3.194
	c-3.075-0.123-3.865,3.545-3.936,5.931C373.788,173.775,373.308,174.047,372.743,174.216z M363.31,194.063
	c0.553-0.623,1.012-1.296,1.336-1.971c1.303-2.71,2.137-5.543,2.88-8.451c0.747-2.926,4.062-10.655,1.538-13.601
	c-3.874,1.397-7.893,2.457-12.003,3.245c-0.134,3.688-1.521,7.315-2.468,10.837c-0.789,2.936-2.805,8.514-0.487,11.289
	c2.261,2.706,5.686,1.751,8.129-0.308C362.232,194.658,362.719,194.262,363.31,194.063z M235.075,149.023
	c-9.813,5.939-18.076,13.861-26.244,21.822c-6.648,6.479-17.987,12.106-21.33,21.173c-3.133,8.499,3.261,16.995,8.639,23.015
	c5.705,6.386,12.179,11.984,18.141,18.114c0.292-0.265,0.536-0.498,0.718-0.685c0.746-0.766,2.94-3.021,4.336-5.057
	c-0.622,0.188-1.323,0.183-1.657-0.187c-5.256-5.807-8.562-12.795-13.375-18.894c-2.212-2.803-9.533-9.86-8.26-14.027
	c1.284-4.202,7.537-7.399,10.861-9.722c6.695-4.677,14.446-9.354,19.921-15.399c0.173-0.191,0.456-0.326,0.771-0.41
	c0.776-0.478,2.389-0.722,2.491-0.205c1.24,6.259,2.542,12.673,2.904,19.077c7.011-11.92,9.16-28.298,2.144-38.659
	C235.113,148.996,235.098,149.009,235.075,149.023z M239.624,134.305c11.185,4.358,20.372,9.469,25.593,20.98
	c4.628,10.205,3.44,23.447,1.425,34.598c0.466,17.144,0.941,34.286,0.958,51.438c0,0.017-0.006,0.033-0.007,0.05
	c1.991-0.72,3.794-1.769,5.283-3.284c-0.196-0.098-0.251-0.265-0.049-0.519c3.545-4.468,3.434-13.43,3.979-18.775
	c0.984-9.644,1.535-19.334,1.858-29.021c0.101-3.024,0.213-6.064,0.287-9.107c-0.053-0.068-0.05-0.148,0.004-0.236
	c0.112-4.765,0.124-9.537-0.172-14.271c-0.737-11.807-10.872-21.117-17.921-30.072c-0.426,0.081-0.829,0.075-1.073-0.084
	c-4.773-3.111-11.123-4.768-16.846-5.483C242.011,131.89,240.883,133.147,239.624,134.305z M223.946,174.724
	c-0.517,8.235-1.89,16.474-1.944,24.731c3.265-2.011,6.222-4.908,8.737-8.364c-0.321-0.014-0.547-0.091-0.55-0.251
	c-0.11-6.482-1.321-12.995-2.579-19.37C226.453,172.607,225.223,173.686,223.946,174.724z M216.976,221.802
	c3.351-6.072,2.182-13.593,2.112-20.254c-0.086-8.185,1.236-16.328,1.849-24.485c-3.086,2.282-6.306,4.41-9.323,6.586
	c-2.128,1.535-4.311,2.992-6.421,4.55c-1.546,1.142-6.057,3.627-6.234,5.805c-0.399,4.898,6.472,11.016,9.198,14.633
	C211.371,212.904,213.887,217.511,216.976,221.802z M218.422,223.716c0.156,0.198,0.317,0.393,0.477,0.589
	c0.401,0.493,0.812,0.98,1.239,1.46c0.031,0.035,0.06,0.072,0.091,0.107C220.874,224.45,220.64,223.451,218.422,223.716z
	 M219.519,222.285c-0.255-0.007-0.51-0.016-0.765-0.021c-0.419,0.13-0.896,0.198-1.28,0.2c0.063,0.085,0.129,0.17,0.193,0.255
	c0.241-0.138,0.516-0.249,0.796-0.297C218.772,222.369,219.135,222.32,219.519,222.285z M227.671,240.821
	c1.067,0.496,2.197,0.894,3.375,1.206c0.375,0.099,0.751,0.195,1.135,0.278c0.042-6.339,0.37-12.66-0.492-18.964
	c-0.014-0.1-0.002-0.194,0.02-0.286c-3.176-0.18-6.364-0.478-9.523-0.658c0.353,0.087,0.669,0.211,0.918,0.39
	c0.546-0.086,1.066-0.022,1.271,0.315c2.558,4.223,6.758,8.978,4.47,14.125c-0.486,1.095-1.163,2.177-1.964,3.212
	C227.138,240.575,227.405,240.697,227.671,240.821z M237.938,243.043c2.772,0.16,5.58,0.103,8.227,0.029
	c0.382-0.011,0.76-0.021,1.135-0.032c1.62-7.053,0.577-14.277,0.398-21.442c-4.223,1.384-8.607,1.689-13.042,1.581
	c0.795,6.361,0.475,12.735,0.441,19.132c-0.001,0.168-0.069,0.321-0.176,0.458C235.915,242.896,236.924,242.984,237.938,243.043z
	 M252.058,242.964c4.12,0,8.709,0.068,12.83-0.833c-0.02-0.021-0.041-0.042-0.058-0.065c-0.096-0.127-0.155-0.286-0.155-0.483
	c-0.013-13.403-0.306-26.8-0.656-40.197c-2.282,7.682-6.071,15.525-13.031,18.903c-0.128,0.063-0.259,0.109-0.388,0.169
	c0.107,7.513,1.33,15.116-0.427,22.519C250.789,242.968,251.417,242.964,252.058,242.964z M332.757,195.874
	c3.291,0.305,6.594,0.634,9.899,0.71c2.175,0.05,6.636,0.68,8.343-1.032c0.05-0.05,0.121-0.097,0.201-0.142
	c-1.386-2.722-0.475-7.213,0.7-11.642c-0.326,0.434-1.258,0.947-1.838,0.955c-12.275,0.155-24.892,3.526-37.121,1.158
	c-6-1.162-12.308-2.617-17.828-5.317c-4.476-2.189-8.438-5.542-13.217-7.042c0.006,2.064-0.015,4.129-0.058,6.194
	c10.021,6.183,18.874,13.393,31.075,14.362C319.536,194.605,326.141,195.261,332.757,195.874z M310.468,173.515
	c-6.626-0.809-13.052-2.512-18.596-6.37c-4.323-3.008-8.264-6.541-12.208-10.053c1.123,2.64,1.861,5.393,2.017,8.29
	c0.114,2.116,0.173,4.237,0.2,6.36c0.254-0.058,0.488-0.077,0.656-0.037c4.596,1.108,8.145,3.876,12.216,6.121
	c5.585,3.08,11.946,5.007,18.184,6.215c12.769,2.472,25.456-0.7,38.279-0.862c0.483-0.006,0.718,0.085,0.783,0.226
	c0.973-3.628,2.071-7.167,2.177-9.612C339.782,176.086,324.456,175.223,310.468,173.515z M264.286,77.976
	c-4.31,1.598-8.474,3.53-12.287,6.214c-0.384,0.271-0.756,0.559-1.137,0.834c0.166,0.039,0.308,0.106,0.401,0.215
	c5.083,5.956-0.543,18.083-5.951,22.213c0.027,0.026,0.055,0.047,0.082,0.074c0.786,0.786-1.958,1.873-2.689,1.142
	c-1.159-1.158-2.36-1.417-3.429-1.137c-0.913,0.627-2.038,1.633-2.95,2.694c-0.679,1.432-0.734,3.073,0.273,4.037
	c0.817,0.782,1.621,1.156,2.661,1.515c1.624,0.56,2.972,1.119,4.253,2.275c2.563,2.314,2.486,4.566,1.594,7.86
	c-0.288,1.063-0.7,2.065-1.203,3.02c5.019,0.555,10.536,1.866,15.25,4.132c0.87-6.182,6.566-9.53,11.797-12.578
	c2.887-1.683,10.763-5.308,9.636-9.564c-0.877-3.314-3.03-6.13-3.957-9.479c-0.034-0.124,0-0.244,0.077-0.36
	c-0.595,0.038-1.022-0.044-0.726-0.322c3.023-2.838,3.512-4.243-0.532-5.189c-2.093-0.49-3.49-1.139-4.868-2.847
	C267.248,88.591,266.408,82.765,264.286,77.976z M212.538,98.286c1.842-0.883,3.698-1.762,5.456-2.815
	c4.792-2.871,9.55-5.799,14.288-8.76c9.676-6.048,19.279-12.212,28.959-18.253c-3.875-4.1-8.802-7.646-13.983-9.761
	c-8.565-3.495-16.48,1.159-23.425,6.06c-5.603,3.954-11.775,9.091-12.918,16.306C209.974,86.998,212.031,92.474,212.538,98.286z
	 M212.219,125.444c4.728-10.103,12.024-19.093,19.832-26.977c7.223-7.292,15.365-15.047,24.745-19.481
	c6.021-2.847,12.335-4.727,18.709-6.606c4.745-1.399,14.57-2.838,17.155-7.779c3.12-5.963-8.348-5.212-11.104-4.59
	c-2.779,0.627-4.832,1.477-7.27,2.88c-3.132,1.802-6.231,3.662-9.317,5.542c0.585,0.745-1.232,1.582-2.239,1.367
	c-13.606,8.374-26.896,17.29-40.577,25.529c-2.066,1.244-4.114,2.604-6.276,3.678c-1.079,0.537-2.329,1.029-3.59,1.559
	c-0.316,0.277-0.796,0.471-1.26,0.55c-1.806,0.817-3.527,1.771-4.683,3.123c-3.36,3.926-7.392,9.025-7.465,14.511
	C198.79,125.393,207.042,131.391,212.219,125.444z M229.96,140.857c22.538,11.895,11.153,50.261-7.948,60.487
	c0.005,0.238-0.003,0.476,0.004,0.714c0.186,6.09,0.945,13.116-1.872,18.754c8.619,0.208,19.477,2.745,27.675-0.652
	c0.27-0.39,0.886-0.646,1.472-0.687c2.021-1.069,3.848-2.561,5.392-4.626c5.222-6.982,7.775-15.812,9.041-24.447
	c-0.017-0.606-0.032-1.211-0.049-1.817c-0.007-0.274,0.146-0.511,0.38-0.698c0.041-0.338,0.083-0.677,0.121-1.014
	c1.316-11.979,2.165-22.921-3.583-33.799c-4.995-9.451-13.276-13.555-22.733-17.253C235.392,137.765,232.614,139.41,229.96,140.857z
	 M203.539,237.782c0.633,0.521-0.874,1.326-1.947,1.338c1.892,1.876,7.253-1.569,10.706-4.301c-0.195-0.046-0.368-0.126-0.494-0.256
	c-6.925-7.147-14.8-13.486-20.913-21.393c-4.42-5.717-9.597-13.937-6.133-21.378c4.494-9.653,15.375-15.433,22.687-22.694
	c7.869-7.815,16.234-15.454,25.756-21.218c0.26-0.158,0.599-0.231,0.94-0.24c-1.744-2.18-3.952-4.033-6.669-5.454
	c-0.098,0.051-0.199,0.105-0.295,0.156c-11.94,6.27-21.513,15.246-31.483,24.294c-2.248,2.04-5.278,4.503-8.397,7.266
	c-3.293,2.917-6.682,6.17-9.366,9.625c-4.465,5.75-6.968,12.055-3.756,18.286c4.239,8.226,10.4,15.563,16.469,22.491
	C194.688,228.92,198.782,233.862,203.539,237.782z M208.077,247.549c0.826-0.449,2.113-0.508,2.216,0.195
	c0.002,0.016,0.007,0.03,0.01,0.046c3.403,0.075,7.025-1.116,9.731-3.341c2.655-2.184,7.475-6.546,6.627-10.542
	c-0.599-2.823-2.215-5.374-3.798-7.836c-1.682,2.918-4.214,5.348-6.576,7.701c-2.254,2.246-10.731,8.353-15.45,7.438
	C201.968,244.856,204.776,246.887,208.077,247.549z M215.825,266.897c5.35,3.145,10.485-0.15,11.341-5.924
	c0.882-5.952-0.958-11.863-3.434-17.248c-1.653,1.417-3.477,2.598-5.239,3.385c-2.358,1.052-5.114,1.805-7.843,2.03
	c1.426,3.994,5.988,5.151,8.531,8.579c0.783,1.055-1.963,1.854-2.682,1.168c-0.604-0.577-5.511-4.691-5.848-0.636
	c-0.137,1.105,0.004,2.167,0.422,3.184C212.125,263.568,213.737,265.67,215.825,266.897z M180.201,420.995
	c-4.798-6.636-8.879-13.963-12.899-20.792c-1.69-2.872-3.355-5.76-5.004-8.657c-7.145,3.455-21.328,7.32-17.809,16.635
	c3.142,8.316,10.436,14.292,14.997,21.768c3.576,5.862,8.281,11.309,13.088,16.188c2.263,2.297,4.624,4.676,7.354,6.424
	c3.255,2.083,3.774,0.9,3.577-2.599c-0.025-0.039-0.051-0.077-0.066-0.123C180.578,440.918,175.712,430.123,180.201,420.995z
	 M255.521,291.364c-5.059-0.089-10.11-0.405-15.142-1.148c-8.772-1.295-17.964-4.082-23.712-10.083
	c-1.155,9.219-1.578,18.457-2.194,27.732c-0.506,7.625-1.397,15.375-4.775,22.339c-8.046,16.585-23.938,27.641-38.888,37.516
	c-3.442,2.273-6.907,4.512-10.405,6.699c-1.001,0.625-2.003,1.25-3.01,1.868c-0.048,0.029-0.085,0.053-0.127,0.078
	c2.102,3.961,4.262,7.892,6.458,11.801c4.588,8.164,9.295,16.278,14.39,24.138c3.669,5.66,7.438,11.548,12.178,16.414
	c17.316-17.279,34.843-34.328,45.75-56.602c12.416-25.353,18.179-51.936,19.059-80.046
	C255.112,291.791,255.278,291.552,255.521,291.364z M288.846,369.183c10.087,1.916,22.755,3.447,31.684-2.831
	c0.147-0.104,0.313-0.177,0.485-0.226c1.625-17.916,2.516-35.919,4.803-53.769c2.054-16.021,7.643-31.822,7.751-48.059
	c0.041-6.11-0.6-12.574-5.917-16.472c-5.407-3.962-12.349-5.363-18.896-6.021c-13.19-1.326-26.315,0.054-39.49,0.75
	c-0.236,0.013-0.407,0.001-0.529-0.026c-5.224,1.856-11.363,1.769-16.895,1.94c-7.678,0.238-17.776,1.217-25.329-1.786
	c2.655,5.664,5.248,12.936,3.316,19.038c-1.477,4.669-5.839,9.52-11.257,8.562c-1.193-0.211-2.803-0.853-4.432-1.788
	c2.453,14.172,17.02,19.079,30.174,20.563c14.046,1.585,28.077,0.35,42.145,0.178c1.632-3.666,3.442-7.266,5.487-10.779
	c0.662-1.138,3.614-1.061,2.781,0.37c-1.991,3.42-3.741,6.933-5.336,10.505c0.268,0.164,0.055,0.473-0.336,0.756
	c-8.516,19.432-11.888,40.812-16.41,61.472c-0.676,3.089-1.36,6.177-2.119,9.247c-0.373,1.508-1.06,2.302,0.503,2.957
	c1.04,0.436,2.081,0.87,3.139,1.259C278.941,366.778,283.844,368.233,288.846,369.183z M306.553,396.474
	c6.649,0.732,13.537,0.694,20.186-0.018c5.003-0.536,13.957-2.188,6.54-7.491c-0.025-0.018-0.038-0.04-0.05-0.062
	c-0.142,0.001-0.269-0.015-0.369-0.055c-8.415-3.35-18.48-6.878-22.196-15.942c-0.082-0.199,0.01-0.398,0.197-0.577
	c-4.87,0.857-9.975,0.77-14.788,0.252c-6.057-0.651-12.105-1.849-17.962-3.636c-1.72,8.713-8.852,23.69,4.05,26.025
	C290.184,396.423,298.47,395.585,306.553,396.474z M355.99,414.166c0.193-0.928,0.383-1.778,0.447-2.348
	c0.737-6.585,1.49-13.168,2.246-19.752c2.38-20.743,4.792-41.483,7.223-62.221c3.601-30.718,7.221-61.435,11.009-92.131
	c1.2-9.728,2.387-19.46,3.73-29.17c0.298-2.153,0.556-4.327,0.979-6.46c0.035-0.177,0.126-0.369,0.25-0.56
	c-6.743,0.051-14.039-0.275-18.815-5.274c-1.313,0.818-2.863,1.385-4.717,1.622c-3.037,0.387-4.987-0.117-6.191-1.209
	c-1.353,0.766-2.952,1.144-4.583,1.319c-1.651,0.177-3.332,0.153-4.813,0.119c-0.725-0.017-1.449-0.047-2.172-0.078
	c-7.08-0.296-14.124-1.195-21.178-1.829c-7.755-0.695-15.586-0.903-22.688-4.479c-5.233-2.635-10.03-6.05-14.946-9.237
	c-0.053,1.951-0.117,3.899-0.182,5.844c-0.345,10.361-0.857,20.748-1.997,31.056c-0.533,4.824-0.554,12.143-3.167,16.801
	c0.349,0.082,0.516,0.275,0.261,0.621c-1.383,1.874-3.035,3.265-4.861,4.315c13.257-0.753,26.621-2.217,39.866-0.529
	c11.969,1.525,24.142,5.588,24.719,19.458c0.696,16.739-5.188,32.898-7.383,49.324c-2.583,19.326-3.485,38.834-5.307,58.237
	c-0.054,0.578-1.614,1.049-2.413,0.894c-2.494,1.549-5.209,2.626-8.042,3.331c0.136,0.069,0.242,0.166,0.298,0.302
	c3.594,8.764,13.486,12.114,21.614,15.35c0.223,0.089,0.306,0.206,0.292,0.334c0.217-0.002,0.405,0.033,0.531,0.124
	c5.839,4.174,2.211,7.392-3.394,8.68c-3.032,0.697-6.147,1.145-9.292,1.405c4.63,0.11,9.26,0.211,13.888,0.238
	c0.223-0.062,0.428-0.094,0.581-0.077c0.191,0.021,0.366,0.062,0.553,0.088c0.051,0,0.102,0.001,0.153,0.001
	c0.325,0.001,0.534,0.051,0.665,0.128C347.67,400.008,351.597,407.132,355.99,414.166z" fill="#070707"></path>
</svg>